<?xml version="1.0" encoding="UTF-8" standalone="no"?>
<!-- Created with Inkscape (http://www.inkscape.org/) -->

<svg
   version="1.1"
   id="svg2"
   xml:space="preserve"
   width="535.40002"
   height="315.10001"
   viewBox="0 0 535.40002 315.10001"
   sodipodi:docname="F_pre_grf.svg"
   inkscape:version="1.1.2 (0a00cf5339, 2022-02-04, custom)"
   inkscape:export-filename="/home/florian/Téléchargements/F_pre_grf.png"
   inkscape:export-xdpi="300"
   inkscape:export-ydpi="300"
   xmlns:inkscape="http://www.inkscape.org/namespaces/inkscape"
   xmlns:sodipodi="http://sodipodi.sourceforge.net/DTD/sodipodi-0.dtd"
   xmlns="http://www.w3.org/2000/svg"
   xmlns:svg="http://www.w3.org/2000/svg"><defs
     id="defs6" /><sodipodi:namedview
     id="namedview4"
     pagecolor="#ffffff"
     bordercolor="#666666"
     borderopacity="1.0"
     inkscape:pageshadow="2"
     inkscape:pageopacity="0.0"
     inkscape:pagecheckerboard="0"
     showgrid="false"
     inkscape:zoom="2.307204"
     inkscape:cx="254.85393"
     inkscape:cy="144.11383"
     inkscape:window-width="1920"
     inkscape:window-height="1034"
     inkscape:window-x="1920"
     inkscape:window-y="22"
     inkscape:window-maximized="1"
     inkscape:current-layer="g10" /><g
     id="g8"
     inkscape:groupmode="layer"
     inkscape:label="figure31"
     transform="matrix(1.3333333,0,0,1.3333333,0,1.18775e-5)"><g
       id="g10"><g
         id="g12"><path
           d="m 30.75,160.125 h 78.977"
           style="fill:none;stroke:#eee8d5;stroke-width:0.525;stroke-linecap:butt;stroke-linejoin:round;stroke-miterlimit:10;stroke-dasharray:none;stroke-opacity:1"
           id="path14" /></g><g
         id="g16"><path
           d="m 30.75,125.023 h 78.977"
           style="fill:none;stroke:#eee8d5;stroke-width:0.525;stroke-linecap:butt;stroke-linejoin:round;stroke-miterlimit:10;stroke-dasharray:none;stroke-opacity:1"
           id="path18" /></g><g
         id="g28"><path
           d="m 30.75,177.75 h 78.977"
           style="fill:none;stroke:#eee8d5;stroke-width:0.525;stroke-linecap:butt;stroke-linejoin:round;stroke-miterlimit:10;stroke-dasharray:none;stroke-opacity:1"
           id="path30" /></g><g
         id="g32"><path
           d="m 30.75,142.574 h 78.977"
           style="fill:none;stroke:#eee8d5;stroke-width:0.525;stroke-linecap:butt;stroke-linejoin:round;stroke-miterlimit:10;stroke-dasharray:none;stroke-opacity:1"
           id="path34" /></g><g
         id="g44"><path
           d="m 30.75,37.125 h 78.977"
           style="fill:none;stroke:#eee8d5;stroke-width:0.525;stroke-linecap:butt;stroke-linejoin:round;stroke-miterlimit:10;stroke-dasharray:none;stroke-opacity:1"
           id="path46" /></g><g
         id="g48"><path
           d="m 113.852,160.125 h 78.972"
           style="fill:none;stroke:#eee8d5;stroke-width:0.525;stroke-linecap:butt;stroke-linejoin:round;stroke-miterlimit:10;stroke-dasharray:none;stroke-opacity:1"
           id="path50" /></g><g
         id="g52"><path
           d="m 113.852,125.023 h 78.972"
           style="fill:none;stroke:#eee8d5;stroke-width:0.525;stroke-linecap:butt;stroke-linejoin:round;stroke-miterlimit:10;stroke-dasharray:none;stroke-opacity:1"
           id="path54" /></g><g
         id="g56"><path
           d="m 113.852,89.852 h 78.972"
           style="fill:none;stroke:#eee8d5;stroke-width:0.525;stroke-linecap:butt;stroke-linejoin:round;stroke-miterlimit:10;stroke-dasharray:none;stroke-opacity:1"
           id="path58" /></g><g
         id="g60"><path
           d="m 113.852,54.676 h 78.972"
           style="fill:none;stroke:#eee8d5;stroke-width:0.525;stroke-linecap:butt;stroke-linejoin:round;stroke-miterlimit:10;stroke-dasharray:none;stroke-opacity:1"
           id="path62" /></g><g
         id="g64"><path
           d="m 113.852,177.75 h 78.972"
           style="fill:none;stroke:#eee8d5;stroke-width:0.525;stroke-linecap:butt;stroke-linejoin:round;stroke-miterlimit:10;stroke-dasharray:none;stroke-opacity:1"
           id="path66" /></g><g
         id="g68"><path
           d="m 113.852,142.574 h 78.972"
           style="fill:none;stroke:#eee8d5;stroke-width:0.525;stroke-linecap:butt;stroke-linejoin:round;stroke-miterlimit:10;stroke-dasharray:none;stroke-opacity:1"
           id="path70" /></g><g
         id="g72"><path
           d="m 113.852,107.398 h 78.972"
           style="fill:none;stroke:#eee8d5;stroke-width:0.525;stroke-linecap:butt;stroke-linejoin:round;stroke-miterlimit:10;stroke-dasharray:none;stroke-opacity:1"
           id="path74" /></g><g
         id="g76"><path
           d="m 113.852,72.301 h 78.972"
           style="fill:none;stroke:#eee8d5;stroke-width:0.525;stroke-linecap:butt;stroke-linejoin:round;stroke-miterlimit:10;stroke-dasharray:none;stroke-opacity:1"
           id="path78" /></g><g
         id="g80"><path
           d="m 113.852,37.125 h 78.972"
           style="fill:none;stroke:#eee8d5;stroke-width:0.525;stroke-linecap:butt;stroke-linejoin:round;stroke-miterlimit:10;stroke-dasharray:none;stroke-opacity:1"
           id="path82" /></g><g
         id="g84"><path
           d="m 227.625,160.125 h 78.977"
           style="fill:none;stroke:#eee8d5;stroke-width:0.525;stroke-linecap:butt;stroke-linejoin:round;stroke-miterlimit:10;stroke-dasharray:none;stroke-opacity:1"
           id="path86" /></g><g
         id="g88"><path
           d="m 227.625,125.023 h 78.977"
           style="fill:none;stroke:#eee8d5;stroke-width:0.525;stroke-linecap:butt;stroke-linejoin:round;stroke-miterlimit:10;stroke-dasharray:none;stroke-opacity:1"
           id="path90" /></g><g
         id="g92"><path
           d="m 227.625,89.852 h 78.977"
           style="fill:none;stroke:#eee8d5;stroke-width:0.525;stroke-linecap:butt;stroke-linejoin:round;stroke-miterlimit:10;stroke-dasharray:none;stroke-opacity:1"
           id="path94" /></g><g
         id="g96"><path
           d="m 227.625,54.676 h 78.977"
           style="fill:none;stroke:#eee8d5;stroke-width:0.525;stroke-linecap:butt;stroke-linejoin:round;stroke-miterlimit:10;stroke-dasharray:none;stroke-opacity:1"
           id="path98" /></g><g
         id="g100"><path
           d="m 227.625,177.75 h 78.977"
           style="fill:none;stroke:#eee8d5;stroke-width:0.525;stroke-linecap:butt;stroke-linejoin:round;stroke-miterlimit:10;stroke-dasharray:none;stroke-opacity:1"
           id="path102" /></g><g
         id="g104"><path
           d="m 227.625,142.574 h 78.977"
           style="fill:none;stroke:#eee8d5;stroke-width:0.525;stroke-linecap:butt;stroke-linejoin:round;stroke-miterlimit:10;stroke-dasharray:none;stroke-opacity:1"
           id="path106" /></g><g
         id="g108"><path
           d="m 227.625,107.398 h 78.977"
           style="fill:none;stroke:#eee8d5;stroke-width:0.525;stroke-linecap:butt;stroke-linejoin:round;stroke-miterlimit:10;stroke-dasharray:none;stroke-opacity:1"
           id="path110" /></g><g
         id="g112"><path
           d="m 227.625,72.301 h 78.977"
           style="fill:none;stroke:#eee8d5;stroke-width:0.525;stroke-linecap:butt;stroke-linejoin:round;stroke-miterlimit:10;stroke-dasharray:none;stroke-opacity:1"
           id="path114" /></g><g
         id="g116"><path
           d="m 227.625,37.125 h 78.977"
           style="fill:none;stroke:#eee8d5;stroke-width:0.525;stroke-linecap:butt;stroke-linejoin:round;stroke-miterlimit:10;stroke-dasharray:none;stroke-opacity:1"
           id="path118" /></g><g
         id="g120"><path
           d="m 310.648,160.125 h 78.977"
           style="fill:none;stroke:#eee8d5;stroke-width:0.525;stroke-linecap:butt;stroke-linejoin:round;stroke-miterlimit:10;stroke-dasharray:none;stroke-opacity:1"
           id="path122" /></g><g
         id="g124"><path
           d="m 310.648,125.023 h 78.977"
           style="fill:none;stroke:#eee8d5;stroke-width:0.525;stroke-linecap:butt;stroke-linejoin:round;stroke-miterlimit:10;stroke-dasharray:none;stroke-opacity:1"
           id="path126" /></g><g
         id="g128"><path
           d="m 310.648,89.852 h 78.977"
           style="fill:none;stroke:#eee8d5;stroke-width:0.525;stroke-linecap:butt;stroke-linejoin:round;stroke-miterlimit:10;stroke-dasharray:none;stroke-opacity:1"
           id="path130" /></g><g
         id="g132"><path
           d="m 310.648,54.676 h 78.977"
           style="fill:none;stroke:#eee8d5;stroke-width:0.525;stroke-linecap:butt;stroke-linejoin:round;stroke-miterlimit:10;stroke-dasharray:none;stroke-opacity:1"
           id="path134" /></g><g
         id="g136"><path
           d="m 310.648,177.75 h 78.977"
           style="fill:none;stroke:#eee8d5;stroke-width:0.525;stroke-linecap:butt;stroke-linejoin:round;stroke-miterlimit:10;stroke-dasharray:none;stroke-opacity:1"
           id="path138" /></g><g
         id="g140"><path
           d="m 310.648,142.574 h 78.977"
           style="fill:none;stroke:#eee8d5;stroke-width:0.525;stroke-linecap:butt;stroke-linejoin:round;stroke-miterlimit:10;stroke-dasharray:none;stroke-opacity:1"
           id="path142" /></g><g
         id="g144"><path
           d="m 310.648,107.398 h 78.977"
           style="fill:none;stroke:#eee8d5;stroke-width:0.525;stroke-linecap:butt;stroke-linejoin:round;stroke-miterlimit:10;stroke-dasharray:none;stroke-opacity:1"
           id="path146" /></g><g
         id="g148"><path
           d="m 310.648,72.301 h 78.977"
           style="fill:none;stroke:#eee8d5;stroke-width:0.525;stroke-linecap:butt;stroke-linejoin:round;stroke-miterlimit:10;stroke-dasharray:none;stroke-opacity:1"
           id="path150" /></g><g
         id="g152"><path
           d="m 310.648,37.125 h 78.977"
           style="fill:none;stroke:#eee8d5;stroke-width:0.525;stroke-linecap:butt;stroke-linejoin:round;stroke-miterlimit:10;stroke-dasharray:none;stroke-opacity:1"
           id="path154" /></g><g
         id="g156"><path
           d="m 34.352,186.977 v -2.028"
           style="fill:none;stroke:#eee8d5;stroke-width:0.75;stroke-linecap:butt;stroke-linejoin:miter;stroke-miterlimit:10;stroke-dasharray:none;stroke-opacity:1"
           id="path158" /></g><g
         id="g160"><path
           d="m 52.273,186.977 v -2.028"
           style="fill:none;stroke:#eee8d5;stroke-width:0.75;stroke-linecap:butt;stroke-linejoin:miter;stroke-miterlimit:10;stroke-dasharray:none;stroke-opacity:1"
           id="path162" /></g><g
         id="g164"><path
           d="m 70.199,186.977 v -2.028"
           style="fill:none;stroke:#eee8d5;stroke-width:0.75;stroke-linecap:butt;stroke-linejoin:miter;stroke-miterlimit:10;stroke-dasharray:none;stroke-opacity:1"
           id="path166" /></g><g
         id="g168"><path
           d="m 88.199,186.977 v -2.028"
           style="fill:none;stroke:#eee8d5;stroke-width:0.75;stroke-linecap:butt;stroke-linejoin:miter;stroke-miterlimit:10;stroke-dasharray:none;stroke-opacity:1"
           id="path170" /></g><g
         id="g172"><path
           d="m 106.125,186.977 v -2.028"
           style="fill:none;stroke:#eee8d5;stroke-width:0.75;stroke-linecap:butt;stroke-linejoin:miter;stroke-miterlimit:10;stroke-dasharray:none;stroke-opacity:1"
           id="path174" /></g><g
         id="g176"><path
           d="m 117.375,186.977 v -2.028"
           style="fill:none;stroke:#eee8d5;stroke-width:0.75;stroke-linecap:butt;stroke-linejoin:miter;stroke-miterlimit:10;stroke-dasharray:none;stroke-opacity:1"
           id="path178" /></g><g
         id="g180"><path
           d="m 135.301,186.977 v -2.028"
           style="fill:none;stroke:#eee8d5;stroke-width:0.75;stroke-linecap:butt;stroke-linejoin:miter;stroke-miterlimit:10;stroke-dasharray:none;stroke-opacity:1"
           id="path182" /></g><g
         id="g184"><path
           d="m 153.301,186.977 v -2.028"
           style="fill:none;stroke:#eee8d5;stroke-width:0.75;stroke-linecap:butt;stroke-linejoin:miter;stroke-miterlimit:10;stroke-dasharray:none;stroke-opacity:1"
           id="path186" /></g><g
         id="g188"><path
           d="m 171.227,186.977 v -2.028"
           style="fill:none;stroke:#eee8d5;stroke-width:0.75;stroke-linecap:butt;stroke-linejoin:miter;stroke-miterlimit:10;stroke-dasharray:none;stroke-opacity:1"
           id="path190" /></g><g
         id="g192"><path
           d="m 189.148,186.977 v -2.028"
           style="fill:none;stroke:#eee8d5;stroke-width:0.75;stroke-linecap:butt;stroke-linejoin:miter;stroke-miterlimit:10;stroke-dasharray:none;stroke-opacity:1"
           id="path194" /></g><g
         id="g196"><path
           d="M 28.648,177.898 H 30.75"
           style="fill:none;stroke:#eee8d5;stroke-width:0.75;stroke-linecap:butt;stroke-linejoin:miter;stroke-miterlimit:10;stroke-dasharray:none;stroke-opacity:1"
           id="path198" /></g><g
         id="g200"><path
           d="M 28.648,142.727 H 30.75"
           style="fill:none;stroke:#eee8d5;stroke-width:0.75;stroke-linecap:butt;stroke-linejoin:miter;stroke-miterlimit:10;stroke-dasharray:none;stroke-opacity:1"
           id="path202" /></g><g
         id="g204"><path
           d="M 28.648,107.625 H 30.75"
           style="fill:none;stroke:#eee8d5;stroke-width:0.75;stroke-linecap:butt;stroke-linejoin:miter;stroke-miterlimit:10;stroke-dasharray:none;stroke-opacity:1"
           id="path206" /></g><g
         id="g208"><path
           d="M 28.648,72.449 H 30.75"
           style="fill:none;stroke:#eee8d5;stroke-width:0.75;stroke-linecap:butt;stroke-linejoin:miter;stroke-miterlimit:10;stroke-dasharray:none;stroke-opacity:1"
           id="path210" /></g><g
         id="g212"><path
           d="M 28.648,37.273 H 30.75"
           style="fill:none;stroke:#eee8d5;stroke-width:0.75;stroke-linecap:butt;stroke-linejoin:miter;stroke-miterlimit:10;stroke-dasharray:none;stroke-opacity:1"
           id="path214" /></g><g
         id="g216"><path
           d="m 231.227,186.977 v -2.028"
           style="fill:none;stroke:#eee8d5;stroke-width:0.75;stroke-linecap:butt;stroke-linejoin:miter;stroke-miterlimit:10;stroke-dasharray:none;stroke-opacity:1"
           id="path218" /></g><g
         id="g220"><path
           d="m 249.148,186.977 v -2.028"
           style="fill:none;stroke:#eee8d5;stroke-width:0.75;stroke-linecap:butt;stroke-linejoin:miter;stroke-miterlimit:10;stroke-dasharray:none;stroke-opacity:1"
           id="path222" /></g><g
         id="g224"><path
           d="m 267.074,186.977 v -2.028"
           style="fill:none;stroke:#eee8d5;stroke-width:0.75;stroke-linecap:butt;stroke-linejoin:miter;stroke-miterlimit:10;stroke-dasharray:none;stroke-opacity:1"
           id="path226" /></g><g
         id="g228"><path
           d="m 285,186.977 v -2.028"
           style="fill:none;stroke:#eee8d5;stroke-width:0.75;stroke-linecap:butt;stroke-linejoin:miter;stroke-miterlimit:10;stroke-dasharray:none;stroke-opacity:1"
           id="path230" /></g><g
         id="g232"><path
           d="m 303,186.977 v -2.028"
           style="fill:none;stroke:#eee8d5;stroke-width:0.75;stroke-linecap:butt;stroke-linejoin:miter;stroke-miterlimit:10;stroke-dasharray:none;stroke-opacity:1"
           id="path234" /></g><g
         id="g236"><path
           d="m 314.25,186.977 v -2.028"
           style="fill:none;stroke:#eee8d5;stroke-width:0.75;stroke-linecap:butt;stroke-linejoin:miter;stroke-miterlimit:10;stroke-dasharray:none;stroke-opacity:1"
           id="path238" /></g><g
         id="g240"><path
           d="m 332.25,186.977 v -2.028"
           style="fill:none;stroke:#eee8d5;stroke-width:0.75;stroke-linecap:butt;stroke-linejoin:miter;stroke-miterlimit:10;stroke-dasharray:none;stroke-opacity:1"
           id="path242" /></g><g
         id="g244"><path
           d="m 350.176,186.977 v -2.028"
           style="fill:none;stroke:#eee8d5;stroke-width:0.75;stroke-linecap:butt;stroke-linejoin:miter;stroke-miterlimit:10;stroke-dasharray:none;stroke-opacity:1"
           id="path246" /></g><g
         id="g248"><path
           d="m 368.102,186.977 v -2.028"
           style="fill:none;stroke:#eee8d5;stroke-width:0.75;stroke-linecap:butt;stroke-linejoin:miter;stroke-miterlimit:10;stroke-dasharray:none;stroke-opacity:1"
           id="path250" /></g><g
         id="g252"><path
           d="m 386.023,186.977 v -2.028"
           style="fill:none;stroke:#eee8d5;stroke-width:0.75;stroke-linecap:butt;stroke-linejoin:miter;stroke-miterlimit:10;stroke-dasharray:none;stroke-opacity:1"
           id="path254" /></g><g
         id="g256"><path
           d="m 225.523,177.898 h 2.102"
           style="fill:none;stroke:#eee8d5;stroke-width:0.75;stroke-linecap:butt;stroke-linejoin:miter;stroke-miterlimit:10;stroke-dasharray:none;stroke-opacity:1"
           id="path258" /></g><g
         id="g260"><path
           d="m 225.523,142.727 h 2.102"
           style="fill:none;stroke:#eee8d5;stroke-width:0.75;stroke-linecap:butt;stroke-linejoin:miter;stroke-miterlimit:10;stroke-dasharray:none;stroke-opacity:1"
           id="path262" /></g><g
         id="g264"><path
           d="m 225.523,107.625 h 2.102"
           style="fill:none;stroke:#eee8d5;stroke-width:0.75;stroke-linecap:butt;stroke-linejoin:miter;stroke-miterlimit:10;stroke-dasharray:none;stroke-opacity:1"
           id="path266" /></g><g
         id="g268"><path
           d="m 225.523,72.449 h 2.102"
           style="fill:none;stroke:#eee8d5;stroke-width:0.75;stroke-linecap:butt;stroke-linejoin:miter;stroke-miterlimit:10;stroke-dasharray:none;stroke-opacity:1"
           id="path270" /></g><g
         id="g272"><path
           d="m 225.523,37.273 h 2.102"
           style="fill:none;stroke:#eee8d5;stroke-width:0.75;stroke-linecap:butt;stroke-linejoin:miter;stroke-miterlimit:10;stroke-dasharray:none;stroke-opacity:1"
           id="path274" /></g><g
         id="g276"><path
           d="M 109.727,184.727 H 30.75 V 30.074"
           style="fill:none;stroke:#eee8d5;stroke-width:0.75;stroke-linecap:butt;stroke-linejoin:miter;stroke-miterlimit:10;stroke-dasharray:none;stroke-opacity:1"
           id="path278" /></g><g
         id="g280"><path
           d="M 192.824,184.727 H 113.852 V 30.074"
           style="fill:none;stroke:#eee8d5;stroke-width:0.75;stroke-linecap:butt;stroke-linejoin:miter;stroke-miterlimit:10;stroke-dasharray:none;stroke-opacity:1"
           id="path282" /></g><g
         id="g284"><path
           d="M 306.602,184.727 H 227.625 V 30.074"
           style="fill:none;stroke:#eee8d5;stroke-width:0.75;stroke-linecap:butt;stroke-linejoin:miter;stroke-miterlimit:10;stroke-dasharray:none;stroke-opacity:1"
           id="path286" /></g><g
         id="g288"><path
           d="M 389.625,184.727 H 310.648 V 30.074"
           style="fill:none;stroke:#eee8d5;stroke-width:0.75;stroke-linecap:butt;stroke-linejoin:miter;stroke-miterlimit:10;stroke-dasharray:none;stroke-opacity:1"
           id="path290" /></g><g
         id="g292"><path
           d="M 34.352,177.75 H 34.5 v -0.074 h 0.75 v -0.074 h 0.676 v -0.079 h 0.375 v -0.074 h 0.523 v -0.148 h 0.75 v -0.074 h 0.301 v -0.079 H 38.25 V 177 h 0.227 v -0.074 h 0.375 v -0.074 h 0.671 v -0.079 h 0.903 v -0.074 h 0.148 v -0.148 h 0.375 v -0.074 h 0.75 v -0.079 h 0.153 v -0.074 h 0.75 v -0.148 h 1.421 v -0.074 h 0.153 v -0.079 h 0.222 v -0.074 h 0.153 v -0.074 h 1.051 v -0.074 h 0.222 v -0.074 h 0.375 v -0.079 h 0.528 V 175.5 h 0.148 v -0.148 h 0.227 v -0.079 h 0.148 v -0.074 h 0.148 v -0.074 h 0.227 v -0.074 H 48 v -0.074 h 0.148 v -0.153 h 0.375 v -0.074 h 0.528 v -0.227 h 0.148 v -0.074 h 0.227 v -0.148 h 0.148 v -0.074 h 0.375 v -0.153 h 0.528 V 174 h 0.148 v -0.074 h 0.227 v -0.074 h 0.523 v -0.079 h 0.148 v -0.148 h 0.227 v -0.074 h 0.375 v -0.074 h 0.148 v -0.079 h 0.153 v -0.148 h 0.222 v -0.074 h 0.528 v -0.074 h 0.676 v -0.301 h 0.597 v -0.074 h 0.153 v -0.153 H 54.75 V 172.5 h 0.375 v -0.074 H 55.5 v -0.074 h 0.375 v -0.153 h 0.148 v -0.074 h 0.528 v -0.148 h 0.222 v -0.079 h 0.153 v -0.148 h 0.222 v -0.074 h 1.051 v -0.074 h 1.278 v -0.153 h 0.296 v -0.074 H 60 v -0.074 h 0.148 v -0.153 h 0.375 v -0.074 h 0.375 V 171 h 0.153 v -0.148 h 0.375 v -0.153 h 0.523 v -0.074 h 0.528 v -0.148 h 0.222 v -0.079 h 0.153 v -0.074 h 0.222 v -0.074 h 0.153 v -0.148 h 0.148 v -0.079 h 0.523 v -0.074 h 0.227 v -0.074 H 64.5 v -0.074 h 0.676 v -0.074 h 0.222 v -0.079 h 0.528 V 169.5 h 0.898 v -0.227 h 0.153 v -0.074 h 0.375 v -0.074 H 67.5 v -0.148 h 0.75 v -0.079 h 0.148 v -0.074 h 0.528 v -0.148 h 0.222 v -0.153 h 0.375 v -0.074 h 0.301 v -0.074 h 0.602 v -0.074 h 0.301 v -0.153 h 0.75 v -0.074 h 0.148 V 168 h 1.648 v -0.148 h 0.153 v -0.079 h 0.375 v -0.074 h 0.222 v -0.074 h 0.676 v -0.148 h 0.528 v -0.079 h 0.375 v -0.074 h 0.148 v -0.074 h 0.602 v -0.148 H 76.5 v -0.079 h 0.148 v -0.074 h 0.903 v -0.074 h 0.898 v -0.074 h 0.375 v -0.153 h 0.153 v -0.074 h 0.375 V 166.5 h 0.222 v -0.074 h 0.153 v -0.074 h 0.148 v -0.079 h 0.898 v -0.074 h 1.278 v -0.074 h 0.898 v -0.074 h 0.153 v -0.074 h 1.273 v -0.079 h 0.227 v -0.074 h 0.148 v -0.148 h 0.148 v -0.074 h 0.375 v -0.079 h 0.75 v -0.074 h 0.676 v -0.074 h 0.375 v -0.074 h 1.125 v -0.074 h 0.528 v -0.079 h 0.523 v -0.074 h 0.523 v -0.148 h 0.153 v -0.074 h 0.597 v -0.079 h 1.426 v -0.074 h 0.375 v -0.074 h 0.528 v -0.227 h 0.523 v -0.074 h 0.375 v -0.074 h 0.148 v -0.074 h 0.153 v -0.074 h 1.273 v -0.079 h 1.125 v -0.074 h 0.153 v -0.074 h 0.148 v -0.148 h 1.125 v -0.079 h 0.523 V 163.5 h 0.903 v -0.074 h 0.148 v -0.074 h 0.375"
           style="fill:none;stroke:#ffeda0;stroke-width:1.5;stroke-linecap:butt;stroke-linejoin:round;stroke-miterlimit:10;stroke-dasharray:none;stroke-opacity:1"
           id="path294" /></g><g
         id="g296"><path
           d="M 34.352,177.75 H 34.5 v -0.148 h 0.375 v -0.079 h 0.148 v -0.148 h 0.75 v -0.148 h 0.903 v -0.079 h 0.148 V 177 h 0.227 v -0.074 h 0.148 v -0.528 h 0.528 v -0.074 h 0.75 v -0.148 h 0.375 v -0.301 H 39 v -0.148 h 0.148 V 175.5 h 0.375 v -0.148 h 0.227 v -0.079 h 0.301 v -0.148 h 0.222 v -0.227 h 0.528 v -0.222 h 0.148 v -0.227 h 0.375 v -0.148 h 0.153 v -0.153 h 0.222 v -0.074 h 0.153 v -0.148 h 0.375 v -0.074 h 0.148 v -0.153 h 0.227 v -0.074 h 0.148 v -0.523 h 0.148 v -0.079 h 0.227 v -0.148 h 0.75 v -0.227 h 0.523 v -0.222 h 0.153 v -0.153 h 1.801 v -0.074 H 46.5 v -0.301 h 0.227 v -0.222 h 0.375 v -0.074 h 0.296 v -0.301 h 0.227 v -0.074 H 48 v -0.153 h 0.148 V 171 h 0.375 v -0.148 h 0.153 v -0.079 h 0.375 v -0.148 h 0.148 v -0.148 h 0.227 v -0.227 h 0.148 v -0.074 h 0.153 v -0.153 h 0.597 v -0.148 h 0.528 v -0.074 h 0.523 v -0.227 h 0.375 v -0.148 h 0.148 v -0.153 h 0.227 v -0.074 h 0.676 v -0.148 h 0.375 v -0.074 h 1.801 v -0.153 H 55.5 v -0.074 h 0.375 v -0.148 h 0.148 v -0.375 h 0.227 v -0.079 h 0.301 V 168 h 0.597 v -0.148 h 0.528 v -0.227 h 0.676 v -0.074 h 0.898 v -0.153 h 0.375 v -0.148 h 0.75 v -0.227 h 0.148 v -0.074 h 0.75 v -0.301 h 0.676 v -0.222 h 1.653 v -0.074 h 0.296 v -0.153 h 1.653 v -0.148 h 0.148 v -0.074 h 1.125 v -0.153 h 0.375 V 165.75 H 67.5 v -0.148 h 0.602 v -0.153 h 0.148 v -0.074 h 0.148 v -0.148 h 0.375 v -0.079 h 0.903 v -0.296 h 0.898 v -0.079 h 0.528 v -0.148 h 0.523 v -0.148 h 0.523 v -0.079 h 0.227 v -0.148 h 1.426 v -0.074 h 1.949 v -0.153 h 1.273 v -0.148 h 1.125 v -0.074 h 1.051 v -0.153 h 1.278 v -0.074 h 1.421 v -0.148 h 0.375 v -0.153 h 0.528 v -0.074 h 1.273 v -0.148 h 0.153 v -0.153 h 0.523 v -0.222 h 0.148 v -0.153 h 2.329 v -0.222 h 2.921 v -0.074 h 0.676 v -0.153 h 1.5 v -0.148 h 0.528 v -0.074 h 2.472 v -0.301 h 0.227 v -0.074 h 1.426 v -0.153 h 0.148 v -0.148 h 1.273 v -0.227 h 1.426"
           style="fill:none;stroke:#fed976;stroke-width:1.5;stroke-linecap:butt;stroke-linejoin:round;stroke-miterlimit:10;stroke-dasharray:none;stroke-opacity:1"
           id="path298" /></g><g
         id="g300"><path
           d="M 34.352,177.75 H 34.5 v -0.227 h 0.148 v -0.148 h 0.75 v -0.227 h 0.375 v -0.222 h 0.153 v -0.528 h 0.75 v -0.449 h 0.148 v -0.375 h 0.227 v -0.375 h 0.148 v -0.375 h 0.375 v -0.375 h 0.301 v -0.597 h 0.602 v -0.227 h 0.148 v -0.375 h 0.227 v -0.227 h 0.296 v -0.148 h 0.227 v -0.602 h 0.148 v -0.222 h 0.227 v -0.153 h 0.301 v -0.222 h 0.375 v -0.227 h 0.523 v -0.148 h 0.227 v -0.227 h 0.148 v -0.375 h 0.375 v -0.222 h 0.153 v -0.153 h 0.222 v -0.222 h 0.153 v -0.153 h 0.148 V 169.5 h 0.523 v -0.375 h 0.227 v -0.148 H 43.5 v -0.227 h 0.523 v -0.227 h 0.375 v -0.148 h 0.375 v -0.227 h 0.153 v -0.222 h 0.898 v -0.375 h 0.375 v -0.375 h 0.153 v -0.227 h 0.523 v -0.148 h 0.227 v -0.375 h 0.296 v -0.227 h 0.375 v -0.222 H 48 v -0.153 h 0.148 v -0.222 h 0.153 v -0.227 h 0.597 v -0.148 h 0.301 V 165 h 0.375 v -0.375 h 0.375 v -0.227 h 0.153 v -0.148 h 0.375 v -0.227 h 0.375 v -0.375 h 1.046 v -0.597 h 0.75 v -0.602 h 0.153 v -0.597 h 0.898 v -0.227 h 0.375 v -0.227 h 0.153 v -0.148 h 0.75 v -0.227 H 55.5 v -0.222 h 0.75 v -0.153 h 0.148 v -0.222 h 0.153 v -0.227 h 0.375 v -0.148 h 0.898 v -0.227 h 0.153 v -0.375 h 0.972 v -0.222 h 1.949 V 159 h 0.153 v -0.148 h 1.273 v -0.227 h 0.528 v -0.227 h 0.375 v -0.148 h 0.523 v -0.227 h 1.949 v -0.222 h 1.125 v -0.153 H 67.5 v -0.222 h 0.375 v -0.227 h 3.074 v -0.222 h 5.176 v -0.153 h 4.125 v -0.222 h 2.852 v -0.227 h 4.125 v -0.227 h 7.199 v -0.222 h 0.75 v -0.227 h 0.523 v -0.148 h 1.051 v -0.227 h 3.074"
           style="fill:none;stroke:#feb24c;stroke-width:1.5;stroke-linecap:butt;stroke-linejoin:round;stroke-miterlimit:10;stroke-dasharray:none;stroke-opacity:1"
           id="path302" /></g><g
         id="g304"><path
           d="M 34.352,177.75 H 34.5 v -0.602 h 0.148 v -0.597 h 0.602 v -0.602 h 0.148 v -0.597 h 0.153 v -0.602 h 0.222 v -0.602 h 0.153 v -1.199 h 0.222 v -0.597 h 0.153 v -1.204 h 0.148 v -1.199 h 1.653 v -1.801 h 0.375 v -0.597 h 0.375 v -0.602 h 0.296 v -1.199 h 0.375 v -0.602 h 0.227 v -0.597 h 0.301 v -1.875 h 0.523 v -0.602 h 0.227 v -0.597 h 0.148 v -0.602 h 1.801 v -0.602 h 1.426 v -0.597 h 0.898 v -0.602 h 0.528 v -0.597 h 2.171 v -0.676 H 51 v -0.602 h 2.176 v -0.597 H 55.5 V 156 h 3.449 v -0.602 H 60 v -0.671 h 6.977 v -0.676 h 4.5 v -0.602 h 5.699 v -0.824 h 20.847 v -0.824 h 1.801"
           style="fill:none;stroke:#fd8d3c;stroke-width:1.5;stroke-linecap:butt;stroke-linejoin:round;stroke-miterlimit:10;stroke-dasharray:none;stroke-opacity:1"
           id="path306" /></g><g
         id="g308"><path
           d="m 34.352,177.75 h 0.523 v -1.801 h 0.148 v -3.523 h 0.227 v -3.528 h 0.523 V 168 h 0.153 v -0.898 h 0.222 v -0.903 h 0.153 v -1.801 h 0.375 V 163.5 h 0.148 v -0.898 h 0.227 v -0.903 h 0.148 v -0.898 h 0.153 v -0.903 h 0.222 V 159 h 0.153 v -0.898 h 0.148 v -0.903 h 0.227 v -0.898 h 0.148 v -0.903 h 1.273 V 154.5 h 0.375 v -0.898 h 0.375 v -0.903 h 0.301 v -1.875 h 0.903 v -0.898 h 0.375 v -0.903 h 0.375 v -0.898 h 2.699 v -0.898 h 37.125 v -0.977 h 2.551"
           style="fill:none;stroke:#e31a1c;stroke-width:1.5;stroke-linecap:butt;stroke-linejoin:round;stroke-miterlimit:10;stroke-dasharray:none;stroke-opacity:1"
           id="path310" /></g><g
         id="g312"><path
           d="M 34.352,177.75 H 34.5 v -5.398 h 0.148 v -2.403 h 0.227 v -4.801 h 0.148 v -2.398 h 0.227 v -1.875 h 0.148 V 156 h 0.153 v -2.398 h 0.222 v -3.153 h 0.153 v -2.551 h 0.222 v -1.875 h 0.528 v -0.671 h 0.148 v -1.954 h 0.227 v -1.273 h 0.301 v -2.023 h 0.222 v -0.676 h 0.528 v -1.278 h 0.148 v -0.671 H 39 v -0.75 h 4.5 v -0.676 h 42.148 v -0.75"
           style="fill:none;stroke:#b10026;stroke-width:1.5;stroke-linecap:butt;stroke-linejoin:round;stroke-miterlimit:10;stroke-dasharray:none;stroke-opacity:1"
           id="path314" /></g><g
         id="g316"><path
           d="m 117.449,177.75 h 0.375 v -0.074 h 0.153 v -0.074 h 0.75 v -0.079 h 0.148 v -0.074 h 1.426 v -0.148 h 1.051 v -0.074 h 1.125 v -0.079 h 1.421 v -0.074 h 0.153 V 177 h 0.75 v -0.074 h 0.148 v -0.074 h 0.227 v -0.153 h 0.148 v -0.074 h 0.528 v -0.074 h 0.222 v -0.074 h 0.676 v -0.079 h 0.75 v -0.148 h 0.523 v -0.227 h 1.278 v -0.074 h 0.523 v -0.074 h 0.375 v -0.074 h 0.153 v -0.074 h 0.75 v -0.079 h 0.148 v -0.074 h 0.148 v -0.148 h 0.227 v -0.074 h 0.676 v -0.079 h 0.222 v -0.074 h 0.375 v -0.074 h 0.301 v -0.074 h 0.227 v -0.074 h 0.148 v -0.079 h 0.227 v -0.074 h 0.148 v -0.074 h 0.375 v -0.074 h 0.375 v -0.074 h 0.153 v -0.153 H 135 v -0.074 h 0.375 v -0.074 h 0.148 v -0.074 h 0.375 v -0.079 h 0.375 v -0.074 h 0.375 v -0.148 h 0.528 v -0.074 h 0.148 v -0.079 h 0.227 v -0.074 h 0.148 v -0.074 h 0.227 v -0.148 h 0.148 v -0.079 h 0.375 v -0.148 h 0.153 v -0.074 h 0.222 v -0.074 h 0.528 v -0.153 h 0.375 v -0.148 h 0.148 v -0.153 h 0.148 V 172.5 h 0.227 v -0.074 h 0.148 v -0.074 h 0.153 v -0.079 h 0.75 v -0.148 h 0.375 v -0.074 h 0.375 v -0.074 h 0.301 v -0.079 h 0.222 v -0.074 h 0.528 v -0.074 h 0.148 v -0.148 h 0.602 v -0.227 h 0.296 v -0.074 h 0.75 v -0.074 h 0.375 v -0.079 h 0.528 v -0.074 h 0.148 v -0.148 h 0.375 v -0.227 h 0.153 v -0.074 h 0.222 v -0.074 h 0.153 v -0.227 h 0.222 v -0.074 h 0.153 v -0.148 h 0.148 v -0.079 h 0.75 v -0.074 h 0.375 v -0.074 h 0.375 v -0.074 h 0.301 v -0.074 h 0.898 v -0.153 h 0.227 V 169.5 h 0.301 v -0.074 h 0.222 v -0.074 h 0.528 v -0.079 h 0.148 v -0.074 h 0.602 v -0.074 h 0.148 v -0.148 h 0.375 v -0.153 h 0.148 v -0.148 h 0.375 v -0.074 h 0.153 v -0.153 h 0.597 v -0.074 h 0.153 v -0.227 h 1.426 v -0.074 H 156 V 168 h 0.227 v -0.074 h 0.296 v -0.074 h 0.227 v -0.153 h 0.148 v -0.148 h 0.227 v -0.153 h 0.148 v -0.074 h 0.903 v -0.148 h 0.523 v -0.074 h 0.528 v -0.079 h 0.75 v -0.074 h 0.375 v -0.074 h 0.148 v -0.074 h 0.523 v -0.153 h 0.375 V 166.5 h 0.153 v -0.148 h 0.375 v -0.079 h 0.222 v -0.074 h 0.301 v -0.074 h 0.375 v -0.148 h 1.125 v -0.153 h 0.153 v -0.148 h 0.148 v -0.074 h 0.375 v -0.153 h 0.75 v -0.148 h 0.148 v -0.074 h 0.375 v -0.079 h 0.375 v -0.074 h 0.153 v -0.148 h 0.375 v -0.153 h 0.676 v -0.074 h 0.375 v -0.074 h 0.222 v -0.148 h 0.301 v -0.079 h 0.602 v -0.074 h 0.148 v -0.074 h 0.375 v -0.074 h 0.148 v -0.074 h 0.375 v -0.079 h 0.375 v -0.148 h 0.153 v -0.074 h 0.148 v -0.074 h 0.375 v -0.153 h 0.528 V 163.5 h 0.222 v -0.148 h 0.375 v -0.153 h 0.676 v -0.074 h 0.898 v -0.074 H 174 v -0.227 h 0.824 v -0.074 h 0.227 v -0.074 h 0.523 v -0.074 h 0.153 v -0.079 h 0.375 v -0.074 h 0.222 v -0.301 h 0.301 V 162 h 0.227 v -0.074 h 0.523 v -0.074 h 0.148 v -0.079 h 0.227 v -0.074 h 0.148 v -0.148 h 0.528 v -0.074 h 0.222 v -0.079 h 0.153 v -0.074 h 0.222 v -0.148 h 0.153 v -0.074 h 0.148 v -0.079 h 0.528 v -0.074 h 0.222 v -0.222 h 0.153 v -0.079 h 0.523 v -0.074 h 0.227 V 160.5 h 0.148 v -0.148 h 1.273 v -0.079 h 0.375 v -0.148 h 0.153"
           style="fill:none;stroke:#ffeda0;stroke-width:1.5;stroke-linecap:butt;stroke-linejoin:round;stroke-miterlimit:10;stroke-dasharray:none;stroke-opacity:1"
           id="path318" /></g><g
         id="g320"><path
           d="m 117.449,177.75 h 0.903 v -0.148 h 0.375 v -0.079 h 0.296 v -0.148 h 0.227 v -0.074 h 0.148 v -0.153 h 0.528 v -0.074 h 0.222 v -0.148 h 0.153 v -0.227 h 0.375 v -0.222 h 0.148 v -0.227 h 0.227 v -0.148 h 0.148 v -0.454 h 0.153 v -0.074 h 0.222 v -0.375 h 0.153 v -0.074 h 0.75 v -0.227 h 0.148 v -0.222 h 0.227 v -0.153 H 123 v -0.222 h 0.375 v -0.153 h 0.375 v -0.222 h 0.301 v -0.074 h 0.375 v -0.153 h 0.222 v -0.074 h 0.153 v -0.148 h 0.375 v -0.227 h 0.375 v -0.074 h 0.301 v -0.227 h 0.222 v -0.222 h 0.153 v -0.153 h 0.148 V 172.5 h 0.227 v -0.148 h 0.148 v -0.227 h 0.227 v -0.148 h 1.046 v -0.227 h 0.153 v -0.074 h 0.597 v -0.227 h 0.676 v -0.148 h 0.375 v -0.074 h 0.153 V 171 h 0.75 v -0.148 h 0.523 v -0.079 h 0.375 v -0.148 h 0.148 v -0.074 h 0.75 v -0.153 h 0.153 v -0.222 h 0.375 v -0.153 h 0.148 v -0.222 h 0.227 v -0.074 h 0.148 v -0.375 h 0.227 v -0.079 h 0.301 v -0.148 h 0.75 v -0.301 H 135 v -0.148 h 0.75 v -0.074 h 0.375 v -0.153 h 0.148 v -0.074 h 0.153 v -0.148 h 0.597 v -0.375 h 0.301 v -0.227 h 0.227 v -0.074 h 0.148 v -0.153 h 0.528 v -0.222 h 0.375 v -0.074 h 0.222 v -0.153 h 0.301 v -0.074 h 0.375 v -0.148 h 0.227 v -0.153 h 0.148 v -0.222 h 0.375 v -0.079 h 0.148 v -0.148 h 0.903 v -0.074 h 0.375 v -0.153 h 0.523 v -0.222 h 0.153 v -0.227 h 0.375 v -0.222 h 0.375 v -0.153 h 0.523 v -0.222 h 0.227 v -0.227 h 0.296 v -0.301 h 0.903 v -0.148 h 0.523 v -0.074 h 0.227 v -0.153 h 0.148 v -0.074 h 0.75 v -0.301 h 0.528 V 163.5 h 0.523 v -0.148 h 0.375 v -0.227 h 0.148 v -0.227 h 0.227 v -0.074 h 0.148 v -0.148 h 0.375 v -0.074 h 0.153 v -0.153 h 0.222 v -0.148 h 0.676 v -0.074 h 0.75 v -0.153 h 0.153 V 162 h 0.523 v -0.148 h 0.375 v -0.079 h 0.227 v -0.148 h 0.148 v -0.074 h 0.148 v -0.153 h 0.375 v -0.222 h 0.75 v -0.227 h 0.153 v -0.148 h 0.222 v -0.074 h 0.301 v -0.153 h 0.375 V 160.5 h 0.227 v -0.148 h 0.824 v -0.153 h 0.898 v -0.074 h 0.375 v -0.148 h 0.903 v -0.079 h 0.523 v -0.148 h 0.227 v -0.074 h 0.148 v -0.153 h 0.75 v -0.148 h 0.153 v -0.074 h 0.222 v -0.153 h 0.153 v -0.074 h 0.148 v -0.148 h 0.375 v -0.074 h 1.426 v -0.301 h 0.523 v -0.074 h 0.375 v -0.153 h 0.375 v -0.074 h 0.375 v -0.148 h 0.903 v -0.153 h 0.898 v -0.074 h 1.199 v -0.148 h 0.227 V 157.5 h 0.375 v -0.074 h 0.676 v -0.153 h 0.375 v -0.148 h 0.148 v -0.074 h 0.75 v -0.153 h 0.898 v -0.074 h 1.051 v -0.148 h 0.75 v -0.227 h 1.949 v -0.148 H 174 v -0.227 h 0.523 v -0.148 h 1.051 v -0.074 h 0.528 v -0.153 h 1.648 v -0.148 h 0.898 v -0.227 h 0.375 v -0.222 h 0.829 v -0.153 h 0.597 v -0.074 h 0.301 v -0.148 h 0.375 v -0.079 h 1.426 V 154.5 h 0.375"
           style="fill:none;stroke:#fed976;stroke-width:1.5;stroke-linecap:butt;stroke-linejoin:round;stroke-miterlimit:10;stroke-dasharray:none;stroke-opacity:1"
           id="path322" /></g><g
         id="g324"><path
           d="m 117.449,177.75 h 0.528 v -0.227 h 0.523 v -0.296 h 0.227 v -0.829 h 0.296 v -0.222 h 0.375 v -0.153 h 0.227 v -0.671 h 0.301 v -0.301 h 0.222 v -0.227 h 0.153 v -0.148 h 0.523 v -0.528 h 0.375 V 174 h 0.153 v -0.523 h 0.222 v -0.153 h 0.375 v -0.301 h 0.153 v -0.375 h 0.523 v -0.523 H 123 v -0.449 h 0.148 v -0.227 h 0.227 v -0.301 h 0.148 v -0.375 h 0.227 v -0.148 h 0.148 v -0.148 h 0.375 v -0.375 h 0.153 v -0.153 h 0.222 v -0.148 h 0.153 v -0.153 h 0.148 v -0.375 h 0.227 v -0.148 h 0.148 v -0.523 h 0.227 v -0.153 h 0.148 v -0.148 h 0.676 v -0.528 h 0.227 v -0.148 h 0.148 v -0.375 h 0.227 v -0.375 h 0.523 v -0.148 h 0.148 v -0.153 h 0.227 v -0.148 h 0.148 v -0.375 h 0.153 v -0.153 h 0.222 v -0.148 h 0.375 v -0.375 h 0.153 v -0.301 h 0.148 v -0.222 h 0.375 v -0.153 h 0.227 v -0.148 h 0.301 v -0.227 h 0.222 v -0.148 h 0.153 v -0.153 h 0.375 v -0.375 h 0.523 V 163.5 h 0.148 v -0.148 h 0.375 v -0.153 h 0.75 v -0.222 h 0.153 v -0.153 h 0.523 v -0.148 h 0.602 v -0.227 h 0.676 v -0.148 h 0.222 V 162 h 0.824 v -0.375 h 0.375 v -0.375 h 0.375 v -0.148 h 0.375 v -0.153 h 0.153 v -0.523 h 0.75 v -0.153 h 0.375 v -0.148 h 0.148 v -0.227 h 0.528 v -0.148 h 0.75 v -0.148 h 0.523 v -0.227 h 0.148 v -0.148 h 0.227 v -0.153 h 0.898 v -0.148 h 1.051 v -0.227 h 0.375 v -0.148 h 1.278 v -0.153 h 3.375 v -0.222 h 0.75 v -0.153 h 1.046 v -0.148 h 0.903 v -0.227 h 1.949 V 157.5 h 1.273 v -0.148 h 0.75 v -0.227 h 2.329 v -0.148 h 0.296 v -0.153 h 0.375 v -0.222 h 0.227 v -0.153 h 0.523 v -0.148 h 1.278 v -0.227 h 1.051 v -0.148 h 0.148 v -0.153 h 0.523 v -0.222 h 0.602 v -0.153 h 0.676 v -0.375 h 0.375 v -0.148 h 0.375 v -0.227 h 2.176 V 154.5 h 1.574 v -0.148 h 0.523 v -0.227 h 1.125 v -0.148 h 1.574 v -0.227 h 0.375 v -0.148 h 12.903"
           style="fill:none;stroke:#feb24c;stroke-width:1.5;stroke-linecap:butt;stroke-linejoin:round;stroke-miterlimit:10;stroke-dasharray:none;stroke-opacity:1"
           id="path326" /></g><g
         id="g328"><path
           d="m 117.449,177.75 h 0.153 v -0.449 h 0.222 v -0.449 h 0.301 v -0.829 h 0.227 v -0.824 h 0.148 v -0.449 h 0.375 v -0.449 h 0.375 v -0.375 h 0.148 v -0.449 h 0.375 v -0.829 h 0.375 v -1.347 h 0.375 v -0.824 h 0.153 v -0.903 h 0.148 v -0.449 h 0.227 v -0.449 h 0.148 v -0.375 h 0.903 v -0.903 h 0.148 V 166.5 h 0.227 v -0.449 h 0.148 v -0.375 h 0.227 v -0.449 h 0.296 v -0.903 h 0.375 v -0.898 h 0.227 v -1.278 h 1.051 v -0.898 h 0.148 v -0.449 h 0.227 v -0.449 h 0.523 v -0.454 h 0.676 v -0.375 h 0.602 v -0.449 h 0.671 v -0.449 h 0.75 v -0.449 h 0.375 v -0.449 h 1.579 v -0.454 h 0.523 v -0.449 h 0.898 v -0.898 H 132 v -0.449 h 2.477 v -0.454 h 2.847 v -0.449 h 0.903 v -0.449 h 10.421 v -0.449 h 1.125 v -0.449 h 4.653 v -0.454 h 15.597 v -0.523 h 4.5 v -0.523 h 2.329 v -0.528 h 6.074"
           style="fill:none;stroke:#fd8d3c;stroke-width:1.5;stroke-linecap:butt;stroke-linejoin:round;stroke-miterlimit:10;stroke-dasharray:none;stroke-opacity:1"
           id="path330" /></g><g
         id="g332"><path
           d="m 117.449,177.75 h 0.375 v -1.5 h 0.153 v -0.449 h 0.148 v -0.977 h 0.227 v -0.523 h 0.148 v -0.449 h 0.227 v -1.051 h 0.296 v -0.977 h 0.227 v -0.449 h 0.148 v -0.523 h 0.227 v -0.528 h 0.148 v -0.449 h 0.153 v -0.523 h 0.222 v -0.528 h 0.375 v -0.449 h 0.301 v -1.574 h 0.227 v -0.449 h 0.523 v -1.051 h 0.375 v -0.528 h 0.153 v -1.046 h 0.375 v -0.528 H 123 v -0.523 h 0.523 v -0.528 h 0.903 v -0.523 h 0.375 v -0.523 h 4.5 v -0.528 h 0.148 v -0.523 h 0.375 v -0.528 H 135 V 159 h 4.352 v -0.602 h 43.574"
           style="fill:none;stroke:#e31a1c;stroke-width:1.5;stroke-linecap:butt;stroke-linejoin:round;stroke-miterlimit:10;stroke-dasharray:none;stroke-opacity:1"
           id="path334" /></g><g
         id="g336"><path
           d="m 117.227,177.75 v -0.301 h 0.222 v 0.301 h 0.153 v -3.824 h 0.222 v -3.153 h 0.153 v -2.847 h 0.148 v -2.176 h 0.227 v -1.648 h 0.148 v -1.579 h 0.227 v -1.046 h 0.148 v -1.954 h 0.148 v -1.648 h 0.227 v -1.051 h 0.148 v -1.347 h 0.227 v -1.051 h 0.148 v -0.977 h 0.153 v -1.051 h 0.222 v -1.046 h 0.153 v -0.676 h 0.375 V 150 h 0.148 v -0.301 h 0.375 v -0.75 h 0.528 v -0.676 h 0.222 v -0.296 h 0.153 v -0.676 h 0.148 v -0.375 h 0.227 v -0.375 h 3.074 v -0.301 h 2.097 v -0.375 h 55.278"
           style="fill:none;stroke:#b10026;stroke-width:1.5;stroke-linecap:butt;stroke-linejoin:round;stroke-miterlimit:10;stroke-dasharray:none;stroke-opacity:1"
           id="path338" /></g><g
         id="g340"><path
           d="m 231.227,177.75 h 0.148 v -0.375 h 0.227 v -0.227 h 0.148 V 177 h 0.148 v -0.227 h 0.227 v -0.222 h 0.148 v -0.074 h 0.153 v -0.153 h 0.222 v -0.148 h 0.153 v -0.301 h 0.222 v -0.301 h 0.153 v -0.148 h 0.148 v -0.301 h 0.227 v -0.375 h 0.148 v -0.148 h 0.227 v -0.301 h 0.148 V 174 h 0.153 v -0.301 h 0.222 v -0.375 h 0.153 v -0.375 h 0.148 v -0.597 h 0.227 v -0.602 h 0.148 v -0.375 h 0.227 v -0.301 h 0.148 v -0.301 h 0.148 v -0.148 h 0.227 v -0.227 h 0.148 v -0.148 h 0.227 v -0.301 h 0.148 v -0.148 h 0.153 V 169.5 h 0.222 v -0.449 h 0.153 v -0.449 h 0.222 v -0.375 h 0.153 V 168 h 0.148 v -0.301 h 0.227 v -0.222 h 0.148 v -0.227 h 0.227 v -0.375 h 0.148 v -0.301 h 0.153 v -0.523 h 0.222 v -0.375 h 0.153 v -0.227 h 0.222 v -0.222 h 0.153 V 165 h 0.148 v -0.301 h 0.227 v -0.074 h 0.148 v -0.148 h 0.227 V 164.25 H 240 v -0.301 h 0.148 v -0.375 h 0.227 v -0.449 h 0.148 v -0.227 h 0.153 v -0.671 h 0.222 v -0.375 h 0.153 v -0.227 h 0.222 v -0.227 h 0.153 v -0.074 h 0.148 v -0.301 h 0.227 v -0.296 h 0.148 v -0.301 h 0.227 v -0.227 h 0.148 v -0.222 h 0.153 v -0.375 h 0.222 v -0.375 h 0.153 v -0.301 h 0.222 v -0.75 h 0.153 v -0.375 h 0.148 v -0.227 h 0.227 v -0.301 h 0.148 v -0.375 h 0.148 v -0.222 h 0.227 v -0.528 h 0.148 v -0.222 h 0.227 v -0.375 h 0.148 v -0.449 h 0.153 v -0.227 h 0.222 v -0.449 h 0.153 v -0.153 h 0.222 v -0.449 h 0.153 v -0.301 h 0.148 v -0.148 h 0.227 v -0.227 h 0.148 v -0.375 h 0.227 v -0.449 h 0.148 v -0.449 h 0.153 v -0.227 h 0.222 v -0.296 h 0.153 v -0.153 h 0.222 v -0.375 h 0.153 v -0.597 h 0.148 v -0.454 h 0.227 v -0.148 h 0.148 v -0.227 h 0.227 v -0.074 h 0.148 v -0.148 h 0.148 v -0.449 h 0.227 v -0.454 h 0.148 v -0.148 h 0.153 v -0.523 h 0.222 v -0.375 h 0.153 v -0.454 h 0.222 v -0.222 h 0.153 v -0.301 h 0.148 v -0.301 h 0.227 v -0.074 h 0.148 V 145.5 h 0.227 v -0.301 h 0.148 v -0.301 h 0.227 v -0.375 h 0.148 V 144 h 0.153 v -0.301 h 0.222 v -0.597 h 0.153 v -0.528 h 0.148 v -0.148 h 0.227 v -0.227 H 252 v -0.222 h 0.227 v -0.227 h 0.148 v -0.074 h 0.148 v -0.375 h 0.227 v -0.602 h 0.148 v -0.375 h 0.227 v -0.375 h 0.148 V 139.5 h 0.153 v -0.375 h 0.222 v -0.523 h 0.153 v -0.227 h 0.148 v -0.148 h 0.227 v -0.301 h 0.148 v -0.301 h 0.227 v -0.227 h 0.148 v -0.296 h 0.227 v -0.301 h 0.148 v -0.227 h 0.153 v -0.597 h 0.222 v -0.153 h 0.153 v -0.148 h 0.148 v -0.449 h 0.227 v -0.153 h 0.148 v -0.375 h 0.227 v -0.375 h 0.148 v -0.301 h 0.148 v -0.148 h 0.227 v -0.227 h 0.148 v -0.449 h 0.227 v -0.222 h 0.148 v -0.454 h 0.153 v -0.296 h 0.222 v -0.301 h 0.153 v -0.074 h 0.222 v -0.153 h 0.153 v -0.301 h 0.148 v -0.222 h 0.227 v -0.375 h 0.148 V 130.5 h 0.227 v -0.227 h 0.148 v -0.148 h 0.153 v -0.301 h 0.222 v -0.449 h 0.153 v -0.301 h 0.375 v -0.222 h 0.375 v -0.301 h 0.148 v -0.227 h 0.227 V 128.25 H 261 v -0.227 h 0.148 v -0.074 h 0.227 v -0.523 h 0.148 v -0.301 h 0.153 v -0.148 h 0.222 v -0.227 h 0.153 v -0.676 h 0.222 v -0.222 h 0.153 v -0.153 h 0.148 v -0.301 h 0.227 v -0.296 h 0.148 v -0.528 h 0.227 v -0.148 h 0.148 v -0.153 h 0.153 v -0.148 h 0.222 v -0.602 h 0.153 v -0.296 H 264 v -0.301 h 0.375 v -0.153 h 0.227 v -0.148 h 0.148 v -0.523 h 0.148 v -0.375 h 0.227 v -0.528 h 0.148 v -0.222 h 0.227 v -0.079 h 0.148 v -0.148 h 0.153 v -0.375 h 0.222 v -0.301 h 0.153 v -0.148 h 0.222 v -0.227 h 0.153 v -0.148 h 0.148 v -0.449 h 0.227 v -0.153 h 0.148 v -0.074 h 0.227 v -0.148 h 0.148 V 118.5 h 0.153 v -0.148 h 0.222 v -0.227 h 0.153 v -0.375 h 0.222 v -0.148 h 0.153 v -0.301 h 0.148 v -0.227 h 0.227 V 117 h 0.148 v -0.227 h 0.227 v -0.296 h 0.148 v -0.375 h 0.148 v -0.153 h 0.375 v -0.074 h 0.153 v -0.148 h 0.222 V 115.5 h 0.153 v -0.148 h 0.222 v -0.079 h 0.301 v -0.074 h 0.227 v -0.301 h 0.148 v -0.148 h 0.227 v -0.227 h 0.148 v -0.074 h 0.153 v -0.222 h 0.222 V 114 h 0.153 v -0.227 h 0.222 v -0.222 h 0.153 v -0.375 h 0.148 v -0.227 h 0.227 v -0.074 H 273 v -0.227 h 0.227 V 112.5 h 0.148 v -0.227 h 0.148 v -0.375 h 0.227 v -0.074 h 0.301 v -0.148 h 0.222 v -0.602 h 0.153 v -0.148 h 0.222 v -0.074 h 0.153 v -0.227 h 0.148 v -0.148 h 0.227 v -0.153 h 0.148 v -0.148 h 0.227 v -0.227 h 0.148 v -0.148 h 0.227 v -0.074 h 0.148 v -0.079 h 0.153 v -0.074 h 0.222 V 109.5 h 0.153 v -0.227 h 0.148 v -0.148 h 0.227 v -0.227 h 0.375 v -0.148 h 0.296 v -0.148 h 0.227 v -0.528 h 0.148 v -0.148 h 0.227 v -0.153 h 0.148 v -0.148 h 0.153 v -0.074 h 0.222 v -0.301 h 0.153 v -0.148 h 0.148 v -0.153 h 0.227 v -0.148 h 0.148 v -0.074 h 0.227 V 106.5 h 0.148 v -0.074 h 0.227 v -0.074 h 0.148 v -0.079 h 0.153 v -0.296 h 0.222 v -0.153 h 0.153 v -0.074 h 0.375 v -0.227 h 0.375 v -0.074 h 0.148 v -0.148 h 0.148 v -0.227 H 282 v -0.148 h 0.148 v -0.074 h 0.227 v -0.227 h 0.148 v -0.227 h 0.153 v -0.148 h 0.222 v -0.148 h 0.153 v -0.301 h 0.222 v -0.074 h 0.301 v -0.301 h 0.227 v -0.153 h 0.148 v -0.148 h 0.227 v -0.148 h 0.148 v -0.153 h 0.153 v -0.074 h 0.375 v -0.074 H 285 v -0.153 h 0.227 v -0.074 h 0.148 v -0.222 h 0.227 v -0.079 h 0.296 V 102 h 0.227 v -0.301 h 0.148 v -0.222 h 0.375 v -0.153 h 0.153 v -0.148 h 0.222 v -0.153 h 0.153 v -0.074 h 0.222 v -0.148 h 0.153 v -0.153 h 0.148 v -0.074 h 0.227 v -0.222 h 0.148 v -0.227 h 0.227 v -0.074 h 0.301 v -0.153 h 0.222 v -0.222 h 0.153 v -0.074 h 0.148 v -0.153 h 0.227 v -0.074 h 0.148 v -0.148 h 0.375 V 99 h 0.227 v -0.074 h 0.148 v -0.074 h 0.148 v -0.153 h 0.227 v -0.148 h 0.148 v -0.074 h 0.153 v -0.153 h 0.222 v -0.148 h 0.153 v -0.153 h 0.222 v -0.148 h 0.153 v -0.301 h 0.148 v -0.148 h 0.227 v -0.153 h 0.375 v -0.148 h 0.148 v -0.074 h 0.153 v -0.227 h 0.375 V 96.75 h 0.148 v -0.148 h 0.227 v -0.079 h 0.375 v -0.074 h 0.296 v -0.074 h 0.227 v -0.074 h 0.148 v -0.153 h 0.227 v -0.074 h 0.148 v -0.301 h 0.375 v -0.148 h 0.153 v -0.227 h 0.222 v -0.074 h 0.153 V 95.25 h 0.375 v -0.148 h 0.148 v -0.079 h 0.227 v -0.074 h 0.148"
           style="fill:none;stroke:#ffeda0;stroke-width:1.5;stroke-linecap:butt;stroke-linejoin:round;stroke-miterlimit:10;stroke-dasharray:none;stroke-opacity:1"
           id="path342" /></g><g
         id="g344"><path
           d="m 231.227,177.75 h 0.148 v -0.148 h 0.227 v -0.079 h 0.148 v -0.296 h 0.148 v -0.301 h 0.227 v -0.153 h 0.148 v -0.074 h 0.153 v -0.523 h 0.222 v -0.301 h 0.375 V 175.5 h 0.153 v -0.602 h 0.148 v -0.671 h 0.227 v -0.829 h 0.148 v -0.75 h 0.227 v -0.375 h 0.148 v -0.296 h 0.153 v -0.528 h 0.222 v -0.824 h 0.153 v -0.523 h 0.148 v -0.375 h 0.227 v -0.602 h 0.148 v -0.75 h 0.227 v -0.074 h 0.148 v -0.449 h 0.148 v -0.375 h 0.227 v -0.829 h 0.148 v -0.597 h 0.227 v -0.977 h 0.148 v -0.824 h 0.153 v -0.301 h 0.222 v -0.75 h 0.153 v -0.074 h 0.222 v -0.977 h 0.153 v -0.824 h 0.148 v -0.449 h 0.227 v -0.824 h 0.148 v -0.528 h 0.227 v -0.296 h 0.148 v -0.301 h 0.153 v -0.903 h 0.222 V 157.5 h 0.153 v -0.301 h 0.222 v -0.375 h 0.153 v -0.222 h 0.148 v -0.153 h 0.227 v -0.375 h 0.148 v -0.449 h 0.227 v -0.449 H 240 v -0.75 h 0.148 v -0.301 h 0.227 v -0.301 h 0.148 V 153 h 0.153 v -0.449 h 0.222 v -0.227 h 0.153 v -0.523 h 0.222 V 151.5 h 0.153 v -0.148 h 0.148 v -0.227 h 0.227 v -0.375 h 0.148 v -0.375 h 0.227 v -0.676 h 0.148 v -0.597 h 0.153 v -0.375 h 0.222 v -0.454 h 0.153 v -0.449 h 0.222 v -0.375 h 0.153 v -0.597 h 0.148 v -0.227 h 0.227 v -0.375 h 0.148 v -0.227 h 0.148 v -0.222 h 0.227 v -0.375 h 0.148 v -0.227 h 0.227 v -0.301 h 0.148 v -0.824 h 0.153 v -0.449 h 0.222 v -0.449 h 0.153 v -0.153 h 0.222 v -0.449 h 0.153 v -0.523 h 0.148 v -0.449 h 0.227 v -0.153 h 0.148 v -0.676 h 0.227 v -0.222 h 0.148 v -0.375 h 0.153 v -0.602 h 0.222 v -0.148 h 0.153 v -0.528 h 0.222 v -0.296 h 0.153 v -0.301 h 0.148 v -0.375 h 0.227 v -0.528 h 0.148 v -0.296 h 0.375 v -0.375 h 0.148 v -0.153 h 0.227 v -1.051 h 0.148 v -0.375 h 0.153 v -0.296 h 0.222 v -0.602 h 0.153 v -0.602 h 0.222 v -0.375 h 0.153 v -0.222 h 0.148 v -0.528 h 0.227 v -0.296 h 0.148 v -0.375 h 0.227 v -0.375 h 0.148 v -0.454 h 0.227 v -0.597 h 0.148 v -0.75 h 0.153 v -0.301 h 0.222 V 129 h 0.153 v -0.227 h 0.148 v -0.523 h 0.227 v -0.227 H 252 v -0.597 h 0.227 v -0.676 h 0.148 v -0.148 h 0.148 v -0.153 h 0.227 V 126 h 0.148 v -0.227 h 0.227 v -0.375 h 0.148 v -0.597 h 0.528 v -0.977 h 0.148 v -0.301 h 0.227 v -0.75 h 0.148 v -0.375 h 0.227 v -0.597 h 0.148 v -0.227 h 0.227 V 121.5 h 0.148 v -0.523 h 0.153 v -0.227 h 0.222 v -0.227 h 0.153 v -0.222 h 0.148 v -0.227 h 0.227 v -0.375 h 0.375 v -0.824 h 0.148 v -0.301 h 0.148 v -0.222 h 0.227 v -0.227 h 0.148 v -0.602 h 0.227 v -0.375 h 0.148 v -0.375 h 0.153 v -0.449 h 0.222 v -0.449 h 0.153 v -0.148 h 0.222 v -0.454 h 0.153 v -0.375 h 0.148 v -0.222 h 0.227 v -0.301 h 0.148 v -0.074 h 0.227 v -0.375 h 0.148 v -0.602 h 0.153 v -0.074 h 0.375 v -0.301 h 0.148 v -0.074 h 0.602 v -0.227 h 0.375 v -0.296 H 261 v -0.375 h 0.148 v -0.079 h 0.227 v -0.222 h 0.148 v -0.602 h 0.375 v -0.301 h 0.153 v -0.671 h 0.222 v -0.375 h 0.153 V 109.5 h 0.148 v -0.227 h 0.227 v -0.523 h 0.148 v -0.227 h 0.227 v -0.449 h 0.148 v -0.301 h 0.153 v -0.222 h 0.222 v -0.153 h 0.153 v -0.222 H 264 v -0.375 h 0.227 v -0.074 h 0.148 v -0.153 h 0.227 v -0.375 h 0.148 v -0.074 h 0.375 v -0.148 h 0.148 v -0.227 h 0.227 v -0.148 h 0.148 v -0.227 h 0.153 v -0.227 h 0.222 v -0.523 h 0.153 v -0.301 h 0.222 v -0.148 h 0.301 v -0.153 h 0.227 v -0.296 h 0.148 v -0.301 h 0.227 v -0.227 h 0.148 v -0.148 h 0.375 v -0.227 h 0.153 v -0.222 h 0.222 v -0.153 h 0.153 V 102 h 0.148 v -0.375 h 0.227 v -0.449 h 0.148 v -0.301 h 0.227 V 100.5 h 0.296 v -0.301 h 0.227 v -0.148 h 0.148 v -0.227 h 0.528 v -0.523 h 0.222 v -0.074 h 0.301 v -0.153 h 0.227 v -0.222 h 0.148 v -0.301 h 0.227 v -0.227 h 0.148 v -0.449 h 0.153 v -0.148 h 0.375 V 97.5 h 0.222 v -0.148 h 0.153 v -0.079 h 0.375 V 96.977 H 273 v -0.079 h 0.227 v -0.375 h 0.296 V 96 h 0.227 v -0.074 h 0.301 v -0.227 h 0.222 v -0.375 h 0.153 v -0.148 h 0.222 v -0.227 h 0.153 v -0.148 h 0.375 v -0.375 h 0.148 v -0.449 h 0.602 v -0.153 h 0.148 v -0.222 h 0.153 v -0.153 h 0.222 v -0.222 h 0.301 v -0.079 h 0.227 V 93 h 0.671 v -0.375 h 0.227 v -0.449 h 0.148 v -0.301 h 0.227 v -0.227 h 0.148 v -0.222 h 0.375 v -0.153 h 0.153 v -0.222 h 0.148 v -0.227 h 0.375 v -0.148 h 0.227 v -0.153 h 0.148 v -0.074 h 0.227 v -0.148 h 0.148 v -0.153 h 0.528 v -0.074 h 0.148 v -0.148 h 0.227 v -0.227 h 0.148 v -0.222 h 0.227 v -0.153 h 0.148 v -0.148 h 0.148 V 88.875 H 282 v -0.148 h 0.148 V 88.5 h 0.375 v -0.301 h 0.153 v -0.074 h 0.222 v -0.148 h 0.153 V 87.75 h 0.222 v -0.148 h 0.301 v -0.079 h 0.227 v -0.148 h 0.148 V 87 h 0.227 v -0.227 h 0.148 v -0.148 h 1.426 V 86.25 h 0.375 v -0.074 h 0.148 v -0.153 h 0.375 v -0.375 h 0.153 v -0.074 h 0.597 v -0.148 h 0.153 v -0.153 h 0.148 v -0.222 h 0.375 v -0.227 h 0.227 v -0.148 h 0.148 v -0.074 h 0.153 v -0.153 h 0.222 v -0.222 h 0.153 v -0.153 h 0.375 v -0.148 h 0.75 v -0.074 h 0.148 v -0.301 h 0.375 v -0.074 h 0.148 V 83.25 h 1.426 v -0.301 h 0.375 v -0.074 h 0.375 v -0.148 h 0.153 V 82.5 h 0.148 v -0.148 h 0.227 v -0.153 h 1.046 v -0.074 h 0.375 V 81.75 h 0.375 v -0.148 h 0.153 v -0.153 h 0.898 v -0.074 h 0.227 v -0.227 h 0.148"
           style="fill:none;stroke:#fed976;stroke-width:1.5;stroke-linecap:butt;stroke-linejoin:round;stroke-miterlimit:10;stroke-dasharray:none;stroke-opacity:1"
           id="path346" /></g><g
         id="g348"><path
           d="m 231.227,177.75 h 0.148 v -1.199 h 0.227 v -0.153 h 0.148 v -1.421 h 0.148 v -1.352 h 0.227 v -1.352 h 0.148 v -0.972 h 0.153 v -1.125 h 0.222 v -1.574 h 0.153 v -0.829 h 0.222 v -0.75 h 0.153 v -2.171 h 0.148 v -0.75 h 0.227 v -0.977 h 0.148 v -1.352 h 0.227 v -2.324 h 0.148 v -1.426 h 0.153 v -0.972 h 0.222 v -1.125 h 0.153 v -0.977 h 0.148 v -1.347 h 0.227 V 153 h 0.148 v -0.227 h 0.227 v -1.347 h 0.148 v -0.75 h 0.148 v -0.227 h 0.227 v -0.597 h 0.148 v -1.204 h 0.227 v -1.125 h 0.148 v -1.199 h 0.153 v -0.75 h 0.222 v -0.824 h 0.153 v -1.727 h 0.222 v -1.199 h 0.153 v -0.148 h 0.148 v -0.449 h 0.227 v -1.125 h 0.148 v -0.829 h 0.227 v -0.597 h 0.148 v -1.125 h 0.153 v -1.199 h 0.222 v -0.977 h 0.153 v -0.227 h 0.222 v -0.972 h 0.153 v -0.375 h 0.148 v -1.125 h 0.227 v -1.051 h 0.148 v -0.148 h 0.227 V 130.5 H 240 v -0.602 h 0.148 v -0.375 h 0.227 v -1.796 h 0.148 v -0.977 h 0.153 v -0.148 h 0.222 v -0.454 h 0.153 v -0.972 h 0.222 v -0.602 h 0.153 v -1.125 h 0.148 v -0.824 h 0.227 v -0.75 h 0.148 v -1.199 h 0.375 v -0.75 h 0.153 v -0.227 h 0.375 v -0.597 h 0.222 v -0.227 h 0.153 V 118.5 h 0.148 v -0.148 h 0.227 v -0.602 h 0.148 v -0.824 h 0.148 v -1.574 h 0.227 v -0.375 h 0.148 v -0.153 h 0.227 v -0.222 h 0.148 v -0.375 h 0.153 v -0.454 h 0.222 v -0.148 h 0.153 v -0.227 h 0.222 v -0.75 h 0.153 v -0.597 h 0.148 v -0.824 h 0.375 v -0.602 h 0.227 v -0.148 h 0.148 v -0.454 h 0.528 v -0.375 h 0.222 v -0.222 h 0.153 v -0.75 h 0.148 v -0.375 h 0.227 v -0.602 h 0.148 v -0.597 h 0.227 v -0.977 h 0.148 v -0.602 h 0.523 v -0.222 h 0.153 v -0.227 h 0.222 v -0.375 h 0.153 v -0.597 h 0.222 v -0.977 h 0.153 v -0.449 h 0.523 v -0.153 h 0.227 v -0.222 h 0.523 v -0.227 h 0.153 v -0.148 h 0.375 v -0.602 h 0.148 v -0.222 h 0.227 v -0.227 h 0.375 v -0.523 h 0.148 v -0.454 h 0.148 v -0.222 h 0.227 v -0.153 h 0.523 v -0.222 h 0.676 v -0.227 h 0.227 v -0.75 h 0.148 v -0.449 h 0.375 v -0.602 h 0.227 v -0.148 h 0.148 v -0.227 h 0.153 v -0.222 h 0.222 v -0.602 h 0.153 v -0.75 h 0.148 v -0.449 h 0.227 v -0.75 h 0.148 v -0.227 h 0.75 v -0.222 h 0.148 v -0.153 h 0.227 v -0.597 h 0.148 v -0.227 h 0.528 v -0.375 h 0.222 v -0.222 h 0.153 v -0.227 h 0.148 v -0.148 h 0.227 v -0.454 h 0.148 v -0.148 h 0.227 v -0.449 h 0.301 v -0.153 h 0.523 v -0.222 h 0.227 v -0.227 h 0.375 v -0.148 h 0.148 V 89.477 H 261 V 89.25 h 0.375 v -0.148 h 0.301 v -0.454 h 0.597 V 88.5 h 0.153 v -0.227 h 0.375 v -0.375 h 0.148 v -0.222 h 0.227 v -0.227 h 0.523 v -0.375 h 0.153 v -0.222 h 0.375 v -0.227 h 0.148 v -0.602 h 0.375 v -0.222 h 0.375 v -0.153 h 0.148 v -0.449 h 0.375 v -0.222 h 0.375 v -0.153 h 0.153 v -0.222 h 0.375 v -0.227 h 0.148 v -0.602 h 0.903 v -0.222 h 0.375 v -0.153 h 0.222 v -0.222 h 1.949 v -0.227 h 0.528 v -0.222 h 0.148 v -0.153 h 0.903 v -0.222 h 0.75 v -0.227 h 0.148 v -0.227 h 0.75 V 81.75 h 0.148 v -0.449 h 0.903 v -0.227 h 0.523 v -0.148 h 0.227 v -0.449 h 0.148 v -0.153 h 0.227 v -0.222 h 0.898 v -0.227 h 0.153 v -0.227 h 0.523 V 79.5 h 1.125 v -0.227 h 0.523 v -0.222 h 0.153 v -0.227 h 0.148 v -0.148 h 0.75 v -0.227 h 0.75 v -0.222 h 0.676 V 78 h 1.273 v -0.449 h 0.903 v -0.227 h 0.148 v -0.375 h 0.375 v -0.222 h 0.375 V 76.5 h 1.051 v -0.449 h 0.898 v -0.227 h 0.375 v -0.375 h 0.153 v -0.222 h 0.222 V 75 h 2.477 v -0.227 h 0.75 v -0.222 h 1.051 v -0.375 h 0.222 v -0.227 h 0.903 v -0.222 h 0.523 V 73.5 h 0.153 v -0.227 h 0.75 v -0.449 h 0.523 v -0.222 h 2.324"
           style="fill:none;stroke:#feb24c;stroke-width:1.5;stroke-linecap:butt;stroke-linejoin:round;stroke-miterlimit:10;stroke-dasharray:none;stroke-opacity:1"
           id="path350" /></g><g
         id="g352"><path
           d="m 231.227,177.75 h 0.148 v -2.926 h 0.227 v -4.648 h 0.148 v -3.528 h 0.148 v -1.796 h 0.227 v -4.125 h 0.148 v -4.204 h 0.153 v -4.722 h 0.222 v -2.403 h 0.153 v -5.472 h 0.222 v -0.602 h 0.153 v -5.398 h 0.148 v -4.199 h 0.227 v -1.875 h 0.148 v -6.602 h 0.227 v -1.801 h 0.148 v -2.472 h 0.153 v -0.602 h 0.222 v -2.398 h 0.153 v -2.403 h 0.148 v -1.801 h 0.227 v -1.199 h 0.148 v -0.597 H 235.5 V 109.5 h 0.148 v -1.801 h 0.227 V 106.5 h 0.148 v -1.801 h 0.227 v -0.597 h 0.148 v -1.204 h 0.375 v -1.199 h 0.153 V 100.5 h 0.222 v -1.199 h 0.153 v -0.676 h 0.148 v -0.602 h 0.227 v -1.796 h 0.148 v -1.801 h 0.227 v -0.602 h 0.148 v -0.597 h 0.375 v -1.204 h 0.153 v -1.796 h 0.222 v -1.801 h 0.153 v -0.602 h 0.375 v -0.676 h 0.148 v -0.597 h 0.227 V 85.949 H 240 v -0.597 h 0.148 V 84.75 h 0.227 v -1.199 h 0.148 v -0.676 h 0.153 v -0.602 h 0.222 v -1.199 h 0.153 v -0.597 h 0.222 v -0.676 h 0.153 v -1.199 h 0.375 V 78 h 0.148 v -0.602 h 0.375 v -0.671 h 0.375 v -0.602 h 0.375 v -0.602 h 0.824 v -0.597 h 0.602 v -1.278 h 1.051 v -0.597 h 1.426 v -0.602 h 1.421 v -0.597 h 0.528 v -0.676 h 2.023 v -0.602 h 4.125 v -0.597 h 3.977 v -0.602 h 1.574 v -0.676 h 14.699 v -0.824 h 6.449 v -0.824 h 14.926 v -0.75"
           style="fill:none;stroke:#fd8d3c;stroke-width:1.5;stroke-linecap:butt;stroke-linejoin:round;stroke-miterlimit:10;stroke-dasharray:none;stroke-opacity:1"
           id="path354" /></g><g
         id="g356"><path
           d="m 231.227,177.75 h 0.148 v -6.148 h 0.227 v -4.426 h 0.148 v -5.324 h 0.148 v -4.426 h 0.227 v -8.852 h 0.148 v -5.25 h 0.153 v -4.5 h 0.222 v -2.699 h 0.153 V 133.5 h 0.222 v -2.699 h 0.153 v -2.699 h 0.148 v -3.528 h 0.227 v -7.273 h 0.148 V 115.5 h 0.227 v -0.898 h 0.148 v -1.801 h 0.153 v -0.903 h 0.222 v -4.5 h 0.153 v -3.597 h 0.148 v -1.875 h 0.227 v -1.801 h 0.148 v -0.898 h 0.227 v -0.903 h 0.148 v -1.801 h 0.148 v -0.898 h 0.227 v -2.699 h 0.375 v -1.801 h 0.301 v -0.898 h 0.222 v -0.903 h 0.153 v -1.801 h 0.375 v -0.898 h 0.375 v -0.898 h 0.523 V 84.75 h 0.375 v -0.898 h 0.528 v -0.903 h 0.375 V 82.051 H 240 v -0.903 h 0.148 V 80.25 h 1.426 v -0.898 h 0.375 v -2.704 h 0.375 V 75.75 h 0.75 v -0.898 h 3.75 v -1.051 h 1.051 V 72.75 h 8.625 v -0.977 h 3.074 v -1.046 h 8.778 v -1.051 h 13.125 v -1.051"
           style="fill:none;stroke:#e31a1c;stroke-width:1.5;stroke-linecap:butt;stroke-linejoin:round;stroke-miterlimit:10;stroke-dasharray:none;stroke-opacity:1"
           id="path358" /></g><g
         id="g360"><path
           d="m 231.227,177.75 h 0.148 v -9 h 0.227 v -13.727 h 0.148 v -7.273 h 0.148 v -9.676 h 0.227 v -3.597 h 0.148 v -3.676 h 0.153 v -4.949 h 0.222 v -9.375 h 0.153 v -4.426 h 0.222 v -4.426 h 0.153 v -4.426 h 0.148 v -3.222 h 0.227 v -0.602 h 0.148 v -1.949 h 0.227 v -1.949 h 0.148 v -2.704 h 0.153 v -0.671 h 0.222 v -1.278 h 0.301 v -0.676 h 0.227 v -0.671 h 0.148 v -0.676 h 0.227 v -1.426 h 0.148 v -0.75 h 0.375 v -2.852 h 0.148 v -0.671 h 0.227 v -0.676 h 0.148 V 81 h 1.954 v -0.75 h 3.597 v -0.676 h 40.574"
           style="fill:none;stroke:#b10026;stroke-width:1.5;stroke-linecap:butt;stroke-linejoin:round;stroke-miterlimit:10;stroke-dasharray:none;stroke-opacity:1"
           id="path362" /></g><g
         id="g364"><path
           d="m 314.102,177.75 v -0.074 h 0.148 v 0.074 -0.148 h 0.375 v -0.079 H 315 v -0.074 h 0.148 v -0.148 h 0.227 v -0.074 h 0.148 V 177 h 0.153 v -0.301 h 0.222 v -0.074 h 0.153 v -0.148 h 0.523 v -0.079 h 0.227 v -0.148 h 0.148 v -0.227 h 0.227 v -0.074 h 0.148 v -0.074 h 0.153 v -0.148 h 0.222 v -0.153 h 0.153 v -0.148 H 318 v -0.153 h 0.227 v -0.296 h 0.148 v -0.227 h 0.227 v -0.301 h 0.148 v -0.222 h 0.148 V 174 h 0.227 v -0.074 h 0.148 v -0.074 h 0.227 v -0.153 h 0.301 v -0.148 h 0.222 v -0.227 h 0.153 v -0.148 h 0.222 v -0.227 h 0.153 v -0.074 h 0.148 v -0.074 h 0.227 v -0.074 h 0.148 v -0.079 h 0.227 v -0.074 h 0.148 v -0.148 h 0.153 v -0.153 h 0.222 v -0.074 h 0.153 v -0.148 h 0.148 v -0.074 h 0.227 v -0.079 h 0.148 v -0.074 h 0.227 v -0.074 h 0.148 v -0.074 h 0.227 v -0.074 h 0.148 v -0.301 h 0.148 V 171 h 0.227 v -0.148 H 324 v -0.079 h 0.148 v -0.074 h 0.153 v -0.148 h 0.222 v -0.153 h 0.153 v -0.222 h 0.148 v -0.074 h 0.227 v -0.079 h 0.148 v -0.148 h 0.375 v -0.227 h 0.153 V 169.5 h 0.222 v -0.074 h 0.153 v -0.227 h 0.222 v -0.074 h 0.153 v -0.074 h 0.148 v -0.074 h 0.227 v -0.079 h 0.296 v -0.296 h 0.227 v -0.153 h 0.375 v -0.375 h 0.148 v -0.301 h 0.227 v -0.148 h 0.148 v -0.301 h 0.153 v -0.222 h 0.222 v -0.227 h 0.153 v -0.148 h 0.148 V 166.5 h 0.227 v -0.148 h 0.148 v -0.375 h 0.227 v -0.153 h 0.148 v -0.074 h 0.153 v -0.074 h 0.222 v -0.301 h 0.375 v -0.074 h 0.153 v -0.153 h 0.148 V 165 h 0.227 v -0.148 h 0.148 v -0.153 h 0.227 v -0.148 h 0.148 v -0.227 h 0.148 v -0.148 h 0.227 v -0.074 h 0.148 v -0.227 h 0.227 v -0.148 h 0.148 v -0.153 h 0.153 v -0.222 h 0.222 v -0.227 h 0.153 v -0.148 h 0.148 v -0.153 h 0.227 v -0.148 h 0.148 v -0.301 h 0.227 v -0.148 h 0.148 v -0.079 h 0.227 V 162 h 0.148 v -0.074 h 0.153 v -0.153 h 0.222 v -0.148 h 0.301 v -0.148 h 0.227 v -0.301 h 0.375 v -0.227 h 0.148 v -0.074 h 0.148 v -0.148 H 336 V 160.5 h 0.148 v -0.074 h 0.227 v -0.074 h 0.301 v -0.153 h 0.222 v -0.375 h 0.153 v -0.222 h 0.148 v -0.375 h 0.227 V 159 h 0.148 v -0.148 h 0.227 v -0.301 h 0.148 v -0.153 h 0.227 v -0.148 h 0.148 v -0.148 h 0.375 v -0.153 h 0.153 v -0.148 H 339 v -0.227 h 0.227 V 157.5 h 0.148 v -0.227 h 0.227 v -0.148 h 0.148 v -0.074 h 0.148 v -0.301 h 0.227 v -0.227 h 0.375 v -0.148 h 0.148 v -0.148 h 0.153 v -0.079 h 0.222 v -0.222 h 0.153 v -0.227 h 0.222 v -0.301 h 0.153 v -0.074 h 0.148 v -0.148 h 0.227 v -0.074 h 0.148 v -0.227 h 0.227 v -0.148 h 0.148 v -0.301 h 0.153 v -0.153 h 0.375 v -0.148 h 0.148 v -0.227 h 0.227 v -0.222 h 0.148 v -0.074 h 0.227 v -0.153 h 0.148 v -0.074 h 0.227 v -0.301 h 0.148 v -0.148 h 0.148 v -0.153 h 0.227 v -0.296 h 0.148 v -0.528 h 0.153 v -0.148 h 0.222 V 151.5 h 0.153 v -0.074 h 0.222 v -0.153 h 0.153 v -0.074 h 0.148 v -0.222 h 0.227 v -0.079 h 0.148 v -0.296 h 0.227 v -0.079 h 0.148 v -0.148 h 0.153 v -0.074 h 0.222 V 150 h 0.153 v -0.148 h 0.148 v -0.153 h 0.227 v -0.375 h 0.148 v -0.449 h 0.227 v -0.074 H 348 v -0.227 h 0.148 v -0.222 h 0.227 v -0.227 h 0.148 v -0.148 h 0.227 v -0.301 h 0.148 v -0.449 h 0.227 V 147 h 0.301 v -0.301 h 0.222 v -0.222 h 0.153 v -0.301 h 0.148 v -0.301 h 0.227 v -0.227 h 0.148 V 145.5 h 0.227 v -0.301 h 0.148 v -0.148 h 0.153 v -0.153 h 0.222 v -0.222 h 0.153 v -0.153 h 0.222 v -0.074 h 0.153 v -0.222 h 0.148 v -0.301 h 0.227 v -0.074 h 0.148 v -0.227 h 0.227 v -0.074 h 0.148 v -0.153 h 0.148 v -0.222 h 0.227 v -0.153 h 0.148 v -0.148 h 0.227 v -0.227 h 0.148 v -0.296 h 0.153 v -0.153 h 0.222 v -0.301 h 0.153 v -0.148 h 0.148 v -0.148 h 0.227 v -0.153 h 0.148 v -0.148 h 0.227 v -0.153 h 0.148 V 141 h 0.153 v -0.148 h 0.222 v -0.153 h 0.153 v -0.074 h 0.222 v -0.227 h 0.153 v -0.222 h 0.148 v -0.153 h 0.227 v -0.148 h 0.148 v -0.074 h 0.227 v -0.227 h 0.148 V 139.5 h 0.148 v -0.227 H 357 v -0.074 h 0.148 v -0.222 h 0.227 v -0.079 h 0.148 v -0.074 h 0.153 v -0.301 h 0.222 v -0.222 h 0.153 v -0.153 h 0.148 v -0.375 h 0.227 v -0.148 h 0.148 v -0.148 h 0.227 v -0.375 h 0.148 v -0.153 h 0.153 v -0.148 h 0.222 v -0.153 h 0.153 V 136.5 h 0.222 v -0.148 h 0.528 v -0.227 h 0.148 v -0.148 h 0.227 v -0.079 h 0.148 v -0.222 h 0.148 v -0.153 h 0.227 v -0.375 h 0.148 V 135 h 0.227 v -0.148 h 0.148 v -0.301 h 0.153 v -0.227 h 0.222 v -0.222 h 0.153 v -0.227 h 0.148 v -0.227 h 0.227 v -0.375 h 0.148 v -0.148 h 0.375 v -0.148 h 0.227 v -0.227 h 0.148 v -0.227 h 0.153 v -0.074 h 0.523 v -0.148 h 0.227 V 132 h 0.148 v -0.074 h 0.227 v -0.153 h 0.148 v -0.148 h 0.148 v -0.148 h 0.227 v -0.454 h 0.148 v -0.222 h 0.227 v -0.153 h 0.148 v -0.074 h 0.153 v -0.222 h 0.222 v -0.153 h 0.153 v -0.449 h 0.148 v -0.375 h 0.375 v -0.227 h 0.227 v -0.296 h 0.148 v -0.079 h 0.227 v -0.222 h 0.148 v -0.227 h 0.153 v -0.222 h 0.222 v -0.079 h 0.153 v -0.375 h 0.148 v -0.222 h 0.227 v -0.074 h 0.375 v -0.153 H 369 v -0.222 h 0.148 v -0.227 h 0.227 v -0.227 h 0.375 v -0.148 h 0.148 v -0.227 h 0.375 v -0.449 h 0.153 v -0.148 h 0.222 v -0.074 h 0.153 v -0.227 h 0.148 v -0.148 h 0.227 v -0.153 h 0.148 v -0.375 h 0.227 V 124.5 h 0.148 v -0.227 h 0.153 v -0.222 h 0.222 v -0.375 h 0.153 v -0.074 h 0.148 v -0.227 h 0.227 v -0.227 h 0.148 v -0.375 h 0.227 v -0.222 h 0.148 v -0.153 h 0.227 v -0.148 h 0.148 v -0.301 h 0.148 v -0.222 h 0.227 v -0.301 h 0.301 v -0.153 h 0.222 v -0.375 h 0.153 v -0.222 h 0.222 v -0.153 h 0.153 v -0.296 h 0.148 v -0.454 h 0.227 v -0.222 h 0.148 v -0.153 h 0.227 v -0.296 h 0.148 v -0.153 h 0.153 v -0.301 h 0.222 V 118.5 h 0.153 v -0.074 h 0.148 v -0.227 h 0.227 v -0.222 h 0.148 v -0.153 h 0.227 v -0.222 h 0.148 v -0.079 h 0.148 v -0.449 h 0.227 v -0.222 h 0.148 v -0.301 H 378 v -0.227 h 0.148 v -0.222 h 0.227 v -0.227 h 0.148 V 115.5 h 0.153 v -0.227 h 0.222 v -0.222 h 0.153 v -0.153 h 0.148 v -0.148 h 0.227 v -0.301 h 0.148 v -0.148 h 0.227"
           style="fill:none;stroke:#ffeda0;stroke-width:1.5;stroke-linecap:butt;stroke-linejoin:round;stroke-miterlimit:10;stroke-dasharray:none;stroke-opacity:1"
           id="path366" /></g><g
         id="g368"><path
           d="m 314.25,177.75 h 0.227 v -0.227 h 0.148 v -0.148 h 0.148 v -0.074 h 0.375 v -0.227 h 0.375 v -0.148 h 0.153 v -0.074 h 0.222 v -0.227 h 0.153 v -0.301 h 0.222 v -0.301 h 0.153 v -0.449 h 0.148 v -0.222 h 0.375 v -0.375 h 0.227 v -0.227 h 0.148 v -0.449 h 0.153 v -0.227 h 0.222 v -0.222 h 0.153 V 173.25 H 318 v -0.449 h 0.227 v -0.449 h 0.148 v -0.227 h 0.227 v -0.449 h 0.148 v -0.227 h 0.148 v -0.148 h 0.227 v -0.227 h 0.148 v -0.301 h 0.227 v -0.597 h 0.148 v -0.074 h 0.153 v -0.227 h 0.222 v -0.227 h 0.153 V 169.5 h 0.222 v -0.449 h 0.153 v -0.375 h 0.148 v -0.301 h 0.227 v -0.148 h 0.148 V 168 h 0.227 v -0.227 h 0.301 v -0.523 h 0.222 v -0.301 h 0.153 v -0.074 h 0.148 v -0.148 h 0.227 V 166.5 h 0.375 v -0.523 h 0.148 v -0.454 h 0.227 v -0.375 h 0.148 v -0.449 h 0.148 v -0.148 h 0.227 v -0.227 h 0.148 v -0.222 H 324 v -0.227 h 0.148 v -0.227 h 0.153 v -0.222 h 0.222 v -0.074 h 0.153 v -0.227 h 0.148 v -0.375 h 0.227 v -0.375 h 0.148 v -0.227 h 0.227 v -0.523 h 0.148 v -0.75 h 0.153 v -0.301 h 0.375 v -0.222 h 0.222 v -0.153 h 0.153 v -0.074 h 0.148 v -0.148 h 0.227 V 159.75 H 327 v -0.227 h 0.148 v -0.296 h 0.227 v -0.153 h 0.375 v -0.375 h 0.148 v -0.222 h 0.227 v -0.528 h 0.148 v -0.222 h 0.153 v -0.454 h 0.222 v -0.296 h 0.153 v -0.301 h 0.148 v -0.227 h 0.227 v -0.375 h 0.148 v -0.222 h 0.528 v -0.227 h 0.222 v -0.074 h 0.153 v -0.227 h 0.222 v -0.301 h 0.153 v -0.296 h 0.148 V 154.5 h 0.227 v -0.375 h 0.148 v -0.449 h 0.227 v -0.375 h 0.148 v -0.074 h 0.148 v -0.602 h 0.375 v -0.227 h 0.227 v -0.074 h 0.301 v -0.375 h 0.222 v -0.222 h 0.153 v -0.079 h 0.148 v -0.75 h 0.227 v -0.222 h 0.148 v -0.227 h 0.227 v -0.222 h 0.148 v -0.676 h 0.227 v -0.375 h 0.148 v -0.074 h 0.153 V 148.5 h 0.375 v -0.074 h 0.148 v -0.75 h 0.227 v -0.301 h 0.148 v -0.148 h 0.227 V 147 h 0.296 v -0.074 H 336 v -0.153 h 0.148 v -0.375 h 0.227 v -0.222 h 0.148 v -0.227 h 0.153 v -0.222 h 0.222 v -0.454 h 0.153 v -0.597 h 0.148 v -0.074 h 0.227 v -0.153 h 0.148 v -0.301 h 0.375 V 144 h 0.375 v -0.227 h 0.153 v -0.222 h 0.222 v -0.227 h 0.153 v -0.449 H 339 v -0.148 h 0.227 V 142.5 h 0.148 v -0.074 h 0.227 v -0.153 h 0.148 v -0.074 h 0.148 v -0.375 h 0.227 v -0.449 h 0.148 v -0.148 h 0.227 v -0.602 h 0.148 v -0.301 h 0.153 v -0.222 h 0.375 v -0.454 h 0.222 v -0.222 h 0.153 v -0.301 h 0.148 v -0.074 h 0.227 v -0.449 h 0.148 v -0.153 h 0.227 v -0.222 h 0.148 V 138 h 0.153 v -0.449 h 0.222 v -0.375 h 0.153 v -0.301 h 0.375 v -0.75 h 0.148 v -0.449 h 0.602 v -0.227 h 0.148 v -0.074 h 0.148 v -0.148 h 0.227 v -0.375 h 0.148 v -0.227 h 0.153 v -0.074 h 0.222 v -0.449 h 0.153 v -0.375 h 0.222 V 133.5 h 0.153 v -0.227 h 0.148 v -0.148 h 0.227 v -0.301 h 0.148 V 132 h 0.227 v -0.148 h 0.148 v -0.454 h 0.153 v -0.074 h 0.222 v -0.222 h 0.301 v -0.153 h 0.227 v -0.222 h 0.148 V 130.5 h 0.227 v -0.375 H 348 v -0.301 h 0.148 v -0.523 h 0.227 v -0.074 h 0.148 v -0.375 h 0.227 v -0.301 h 0.148 v -0.375 h 0.227 v -0.227 h 0.148 v -0.597 h 0.153 v -0.375 h 0.222 v -0.301 h 0.153 v -0.227 h 0.148 v -0.375 h 0.375 v -0.597 h 0.227 v -0.079 h 0.148 v -0.972 h 0.153 v -0.449 h 0.375 v -0.375 h 0.375 v -0.227 h 0.148 v -0.227 h 0.227 v -0.222 h 0.148 v -0.375 h 0.227 v -0.153 h 0.148 v -0.222 h 0.375 v -0.074 h 0.148 v -0.153 h 0.227 v -0.375 h 0.148 v -0.222 h 0.153 v -0.301 h 0.222 v -0.528 h 0.153 v -0.222 h 0.148 v -0.074 h 0.227 v -0.153 h 0.148 v -0.148 h 0.227 v -0.301 h 0.301 v -0.375 h 0.222 v -0.227 h 0.153 v -0.449 h 0.222 v -0.148 h 0.153 v -0.227 h 0.148 v -0.375 h 0.227 v -0.148 h 0.148 v -0.227 h 0.227 v -0.074 h 0.148 v -0.227 h 0.148 v -0.523 H 357 v -0.074 h 0.375 v -0.227 h 0.148 v -0.301 h 0.153 v -0.296 h 0.375 v -0.153 h 0.148 V 115.5 h 0.227 v -0.148 h 0.148 v -0.153 h 0.227 v -0.074 h 0.148 v -0.227 h 0.153 v -0.296 h 0.375 v -0.079 h 0.222 v -0.222 h 0.153 v -0.375 h 0.375 v -0.227 h 0.148 v -0.148 h 0.227 v -0.227 h 0.148 v -0.449 h 0.148 v -0.301 h 0.227 V 112.5 h 0.148 v -0.148 h 0.227 v -0.454 h 0.148 v -0.222 h 0.153 v -0.375 h 0.222 v -0.375 h 0.153 v -0.227 h 0.148 v -0.222 h 0.227 v -0.227 h 0.148 v -0.148 h 0.375 v -0.454 h 0.227 V 109.5 h 0.301 v -0.449 h 0.222 v -0.227 h 0.301 v -0.222 h 0.227 v -0.301 h 0.148 v -0.074 h 0.227 v -0.153 h 0.148 V 108 h 0.523 v -0.148 h 0.75 v -0.153 h 0.153 v -0.074 h 0.148 v -0.227 h 0.227 v -0.523 h 0.148 v -0.602 h 0.375 v -0.222 h 0.227 v -0.153 h 0.301 v -0.375 h 0.222 v -0.074 h 0.153 v -0.222 h 0.148 v -0.153 h 0.375 v -0.148 h 0.227 v -0.074 H 369 v -0.153 h 0.148 v -0.222 h 0.75 v -0.153 h 0.153 v -0.074 h 0.222 v -0.375 h 0.375 v -0.148 h 0.301 V 103.5 h 0.375 v -0.75 h 0.528 v -0.074 h 0.222 v -0.153 h 0.301 v -0.222 h 0.227 v -0.153 h 0.375 v -0.074 h 0.148 v -0.222 h 0.523 v -0.153 h 0.375 v -0.148 h 0.153 v -0.074 h 0.375 v -0.301 h 0.75 v -0.227 h 0.375 v -0.074 h 0.148 v -0.301 h 0.528 v -0.222 h 0.148 v -0.375 h 0.227 v -0.454 h 0.375 v -0.222 h 0.296 v -0.375 h 0.227 v -0.227 h 0.148 V 98.398 H 378 v -0.074 h 0.375 v -0.148 h 0.148 v -0.153 h 0.153 v -0.222 h 0.222 v -0.375 h 0.903"
           style="fill:none;stroke:#fed976;stroke-width:1.5;stroke-linecap:butt;stroke-linejoin:round;stroke-miterlimit:10;stroke-dasharray:none;stroke-opacity:1"
           id="path370" /></g><g
         id="g372"><path
           d="m 314.25,177.75 h 0.227 v -0.227 h 0.148 v -0.597 h 0.148 V 176.25 H 315 v -0.523 h 0.148 v -0.676 h 0.227 v -1.352 h 0.148 v -0.676 h 0.153 v -0.824 h 0.222 v -0.375 h 0.153 v -0.972 h 0.222 v -1.051 h 0.153 v -0.824 h 0.148 v -1.051 h 0.227 v -0.449 h 0.148 v -1.352 h 0.227 v -1.051 h 0.148 v -0.676 h 0.153 v -0.523 h 0.222 v -0.148 h 0.153 v -0.829 H 318 v -0.523 h 0.227 v -1.051 h 0.148 v -0.676 h 0.227 v -0.671 h 0.148 v -1.352 h 0.148 v -1.352 h 0.227 v -0.449 h 0.148 v -0.898 h 0.227 v -0.977 h 0.148 v -0.824 h 0.153 v -0.523 h 0.222 v -0.676 h 0.153 v -0.824 h 0.222 v -0.375 h 0.153 v -0.301 h 0.148 v -0.903 h 0.227 V 150 h 0.148 v -0.301 h 0.227 v -0.375 h 0.148 v -0.449 h 0.153 v -0.676 h 0.222 v -0.898 h 0.153 v -0.153 h 0.375 v -0.296 h 0.148 v -0.227 h 0.227 v -0.301 h 0.148 v -0.676 h 0.227 v -0.898 h 0.148 v -0.449 h 0.148 v -0.903 h 0.227 v -0.148 h 0.148 v -0.301 H 324 v -0.375 h 0.148 v -0.676 h 0.153 v -0.671 h 0.222 v -0.153 h 0.153 v -0.148 h 0.148 v -0.75 h 0.227 V 139.5 h 0.148 v -0.449 h 0.227 V 138 h 0.148 v -0.523 h 0.153 v -0.153 h 0.222 V 136.5 h 0.153 v -0.227 h 0.222 v -0.296 h 0.153 v -0.375 h 0.148 v -0.676 h 0.227 v -0.977 H 327 v -0.523 h 0.148 v -0.375 h 0.227 v -0.153 h 0.375 v -0.148 h 0.148 v -0.227 h 0.227 v -0.148 h 0.148 v -0.523 h 0.153 v -0.528 h 0.222 V 130.5 h 0.153 v -0.523 h 0.148 v -0.528 h 0.227 v -0.676 h 0.148 v -0.671 h 0.227 v -0.829 h 0.148 v -0.671 h 0.153 v -0.528 h 0.222 v -0.148 h 0.153 v -0.528 h 0.222 v -0.375 h 0.153 v -1.199 h 0.148 v -0.148 h 0.227 v -0.153 h 0.148 v -0.375 h 0.227 V 123 h 0.148 v -0.375 h 0.148 v -0.523 h 0.227 v -0.676 h 0.148 v -0.301 h 0.227 v -0.375 h 0.148 v -0.301 h 0.153 v -0.222 h 0.222 v -0.301 h 0.153 v -0.375 h 0.148 v -0.153 h 0.375 v -0.671 h 0.227 V 118.5 h 0.676 v -0.449 h 0.222 V 117 h 0.153 v -0.148 h 0.148 v -0.227 h 0.227 v -0.148 h 0.148 v -0.301 h 0.227 v -0.375 h 0.671 v -0.528 h 0.227 v -0.296 h 0.148 v -0.227 h 0.153 v -0.148 h 0.222 v -0.153 h 0.153 v -1.051 h 0.148 v -0.671 h 0.602 v -0.375 h 0.148 v -0.153 h 0.227 v -0.148 h 0.148 v -0.375 h 0.375 v -0.153 H 339 V 111 h 0.227 v -0.148 h 0.148 v -0.227 h 0.375 v -0.449 h 0.148 v -0.375 h 0.227 v -0.153 h 0.523 v -0.375 h 0.153 v -0.375 h 0.222 v -0.449 h 1.051 v -0.375 h 0.227 v -0.148 h 0.148 v -0.528 h 0.153 v -0.222 h 0.375 v -0.153 h 0.523 v -0.296 h 0.227 V 106.5 h 0.523 v -0.148 h 0.148 v -0.153 h 0.227 v -0.75 h 0.148 v -0.148 h 0.153 v -0.153 h 0.222 v -0.375 h 0.153 v -0.148 h 0.75 v -0.148 h 0.148 v -0.227 h 0.227 v -0.148 h 0.301 v -0.153 h 0.222 v -0.523 h 0.153 v -0.227 h 0.148 v -0.148 h 0.227 v -0.153 h 0.148 v -0.375 h 0.227 v -0.148 H 348 v -0.148 h 0.523 v -0.75 h 0.227 v -0.153 h 0.523 v -0.375 h 0.375 v -0.148 h 0.153 v -0.153 h 0.523 v -0.523 h 0.227 V 99.75 h 0.148 v -0.523 h 0.153 v -0.528 h 0.375 v -0.148 h 0.222 v -0.375 h 0.153 v -0.153 h 0.148 v -0.222 h 0.227 v -0.153 h 0.375 v -0.375 h 0.296 v -0.148 h 0.375 V 96.75 h 0.227 v -0.148 h 0.148 v -0.375 h 0.153 v -0.153 h 0.375 v -0.222 h 0.375 v -0.153 h 0.375 v -0.148 h 0.301 v -0.227 h 0.375 v -0.148 h 0.375 v -0.227 h 0.523 v -0.523 h 0.523 v -0.153 h 0.375 v -0.148 h 0.227 v -0.227 h 0.301 V 93.75 h 0.523 v -0.148 h 0.375 v -0.375 h 0.375 V 93 h 0.375 v -0.301 h 0.153 v -0.375 h 0.222 v -0.148 h 1.426 v -0.227 h 0.148 v -0.148 h 0.227 v -0.153 h 0.301 v -0.222 h 2.023 v -0.153 h 0.676 v -0.375 h 0.375 V 90.75 h 0.148 v -0.227 h 0.75 v -0.148 h 0.153 v -0.227 h 0.523 V 90 h 0.602 v -0.148 h 0.148 v -0.227 h 0.375 V 89.25 h 0.153 v -0.301 h 0.222 v -0.222 h 0.153 v -0.153 h 0.148 v -0.222 h 0.602 v -0.153 h 0.523 v -0.375 h 0.898 v -0.148 h 0.375 v -0.375 h 0.301 v -0.153 h 1.125 v -0.597 h 1.278 v -0.153 h 0.296 v -0.222 h 0.227 v -0.153 h 0.523 v -0.148 h 1.278 v -0.227 h 0.301 V 85.5 H 378 v -0.375 h 0.676 v -0.227 h 1.125"
           style="fill:none;stroke:#feb24c;stroke-width:1.5;stroke-linecap:butt;stroke-linejoin:round;stroke-miterlimit:10;stroke-dasharray:none;stroke-opacity:1"
           id="path374" /></g><g
         id="g376"><path
           d="m 314.25,177.75 h 0.227 v -2.551 h 0.148 v -1.722 h 0.148 v -3.375 H 315 V 168 h 0.148 v -2.102 h 0.227 v -0.449 h 0.148 v -4.722 h 0.153 v -5.102 h 0.222 v -2.551 h 0.153 v -2.625 h 0.222 v -2.926 h 0.153 v -1.347 h 0.148 v -2.551 h 0.227 v -0.898 h 0.148 v -2.176 h 0.227 v -1.727 h 0.148 v -3 h 0.153 v -1.722 h 0.222 v -1.801 h 0.153 v -3 H 318 v -1.352 h 0.227 v -0.824 h 0.148 v -0.898 h 0.227 v -2.625 h 0.148 v -0.454 h 0.148 v -1.273 h 0.375 v -0.898 h 0.227 v -0.903 h 0.148 v -0.375 h 0.153 v -0.449 h 0.222 v -1.352 h 0.153 v -0.449 h 0.222 v -0.824 h 0.153 v -2.25 h 0.148 v -0.824 h 0.227 v -1.352 h 0.148 v -0.898 h 0.375 v -1.278 h 0.153 v -0.898 h 0.222 v -0.898 h 0.301 v -0.454 H 322.5 V 106.5 h 0.227 v -0.898 h 0.148 v -0.903 h 0.227 v -1.273 h 0.296 v -0.449 h 0.227 v -0.454 h 0.148 v -0.898 H 324 v -1.727 h 0.301 V 99 h 0.222 v -0.898 h 0.153 v -0.454 h 0.148 V 96.75 h 0.375 v -1.273 h 0.227 v -0.454 h 0.148 v -2.171 h 0.153 v -0.454 h 0.222 v -0.449 h 0.153 V 91.5 h 0.222 v -0.898 h 0.301 V 90.148 H 327 v -0.449 h 0.148 v -0.375 h 0.375 v -0.449 h 0.903 v -0.898 h 0.375 v -0.454 h 0.148 v -1.796 h 1.278 v -0.454 h 0.222 v -0.449 h 1.199 v -0.449 h 0.227 v -0.449 h 0.148 v -0.449 h 0.375 v -0.454 h 1.653 v -0.449 h 1.199 v -0.449 h 1.125 v -0.449 h 0.148 v -0.449 h 0.375 v -0.903 h 1.426 v -0.449 h 0.528 V 78.977 H 339 v -0.528 h 0.898 V 78 h 1.5 v -0.449 h 0.676 v -0.449 h 1.278 v -0.454 h 0.375 v -0.449 h 0.148 V 75.75 h 0.523 v -0.449 h 2.551 v -0.449 h 3.227 V 74.398 H 360 v -0.523 h 1.125 v -0.898 h 2.477 v -0.528 h 3.449 V 72 h 3 v -0.523 h 9.75 v -1.051"
           style="fill:none;stroke:#fd8d3c;stroke-width:1.5;stroke-linecap:butt;stroke-linejoin:round;stroke-miterlimit:10;stroke-dasharray:none;stroke-opacity:1"
           id="path378" /></g><g
         id="g380"><path
           d="m 314.25,177.75 h 0.227 v -5.398 h 0.148 v -7.801 h 0.148 v -5.403 H 315 v -5.398 h 0.148 v -5.324 h 0.227 V 144 h 0.148 v -5.477 h 0.153 v -4.949 h 0.222 v -5.926 h 0.153 v -3.972 h 0.222 v -3.449 h 0.153 v -4.051 h 0.148 v -3.449 h 0.227 v -2.477 h 0.148 v -2.551 h 0.227 v -3 h 0.148 v -2.472 h 0.153 v -3.528 h 0.222 v -2.023 h 0.153 V 94.051 H 318 v -3.602 h 0.227 v -2.023 h 0.523 v -1.051 h 0.148 v -1.051 h 0.227 V 84.75 h 0.148 v -1.051 h 0.375 v -1.5 h 0.153 v -1.051 h 0.222 v -2.097 h 0.153 v -0.977 h 0.222 v -0.523 h 0.153 v -0.528 h 0.148 V 76.5 h 0.227 v -0.523 h 0.148 v -2.102 h 0.375 v -0.523 h 0.153 v -0.528 h 0.222 v -0.523 h 0.903 v -0.528 h 0.148 V 71.25 h 0.523 v -1.051 h 0.375 V 69.676 H 324 v -0.528 h 0.301 v -1.046 h 0.222 V 67.5 h 0.903 v -0.523 h 0.148 v -0.528 h 0.375 v -0.523 h 0.375 v -0.528 h 0.528 v -0.523 h 0.296 v -0.523 h 0.75 v -1.051 h 0.75 v -0.528 h 0.903 v -0.597 h 0.898 v -0.528 h 1.949 v -0.597 h 0.153 v -0.602 h 0.523 v -0.523 h 0.977 v -0.602 h 9.676 v -0.597 h 12 v -0.528 h 2.171 v -0.597 h 21.903"
           style="fill:none;stroke:#e31a1c;stroke-width:1.5;stroke-linecap:butt;stroke-linejoin:round;stroke-miterlimit:10;stroke-dasharray:none;stroke-opacity:1"
           id="path382" /></g><g
         id="g384"><path
           d="m 314.25,177.75 v -0.301 h 0.227 v -11.398 h 0.148 v -14.778 h 0.148 V 136.051 H 315 v -9.153 h 0.148 v -7.722 h 0.227 v -7.199 h 0.148 v -3.602 h 0.153 v -4.273 h 0.222 v -2.329 h 0.153 v -2.398 h 0.222 v -3.074 h 0.153 v -3.074 h 0.148 v -2.028 h 0.227 V 87.75 h 0.148 v -1.352 h 0.227 v -1.046 h 0.148 V 84 h 0.153 v -1.051 h 0.222 v -0.972 h 0.153 V 81.301 H 318 v -1.426 h 0.227 v -0.301 h 0.148 v -0.676 h 0.227 v -0.75 h 0.296 v -0.671 h 0.227 V 77.176 H 319.5 V 76.5 h 0.523 v -0.375 h 0.153 v -0.301 h 0.222 v -0.375 h 0.153 v -0.375 h 0.148 v -0.301 h 0.227 v -0.671 h 0.148 v -0.375 h 0.375 v -0.301 h 0.676 v -0.375 h 0.602 V 72.75 h 0.523 V 72 h 1.051 v -0.301 h 0.222 v -0.375 h 1.801 V 71.023 H 327 v -0.671 h 0.75 v -0.375 h 4.801 v -0.301 h 47.25 v -0.75"
           style="fill:none;stroke:#b10026;stroke-width:1.5;stroke-linecap:butt;stroke-linejoin:round;stroke-miterlimit:10;stroke-dasharray:none;stroke-opacity:1"
           id="path386" /></g><text
         transform="translate(33.203124,193.47168)"
         style="font-variant:normal;font-weight:normal;font-size:6px;font-family:'DejaVu Sans';-inkscape-font-specification:DejaVuSans;writing-mode:lr-tb;fill:#eee8d5;fill-opacity:1;fill-rule:nonzero;stroke:none"
         id="text412"><tspan
           x="0 14.184 18 21.816 32.124001 35.939999 39.756001 50.057999 53.874001 57.689999 67.998001 71.814003 75.629997 83.028 97.218002 101.034 104.85 115.152 118.968 122.784 133.092 136.908 140.724 151.09375 154.90976 158.72575"
           y="0"
           sodipodi:role="line"
           id="tspan388">01002003004000100200300400</tspan><tspan
           x="-15.371094 -11.555094"
           y="-13.148436"
           sodipodi:role="line"
           id="tspan390">0%</tspan><tspan
           x="-18.835938 -15.019938 -11.203938"
           y="-48.300781"
           sodipodi:role="line"
           id="tspan392">25%</tspan><tspan
           x="-18.835938 -15.019938 -11.203938"
           y="-83.445312"
           sodipodi:role="line"
           id="tspan394">50%</tspan><tspan
           x="-18.835938 -15.019938 -11.203938"
           y="-118.59766"
           sodipodi:role="line"
           id="tspan396">75%</tspan><tspan
           x="-22.296877 -18.480877 -14.664876 -10.848876"
           y="-153.74219"
           sodipodi:role="line"
           id="tspan398">100%</tspan><tspan
           x="196.875 211.065 214.881 218.69701 228.99899 232.815 236.631 246.933 250.74899 254.565 264.87299 268.689 272.505 279.90302 294.09299 297.909 301.72501 312.02701 315.84299 319.659 329.96701 333.78299 337.599 347.96875 351.78476 355.60074"
           y="2.1316282e-14"
           sodipodi:role="line"
           id="tspan400">01002003004000100200300400</tspan><tspan
           x="182.625 186.44099"
           y="-13.148436"
           sodipodi:role="line"
           id="tspan402">0%</tspan><tspan
           x="179.16406 182.98006 186.79607"
           y="-48.300781"
           sodipodi:role="line"
           id="tspan404">25%</tspan><tspan
           x="179.16406 182.98006 186.79607"
           y="-83.445312"
           sodipodi:role="line"
           id="tspan406">50%</tspan><tspan
           x="179.16406 182.98006 186.79607"
           y="-118.59766"
           sodipodi:role="line"
           id="tspan408">75%</tspan><tspan
           x="175.70312 179.51912 183.33513 187.15112"
           y="-153.74219"
           sodipodi:role="line"
           id="tspan410">100%</tspan></text><text
         transform="translate(86.66406,203.97388)"
         style="font-variant:normal;font-weight:normal;font-size:7px;font-family:'DejaVu Sans';-inkscape-font-specification:DejaVuSans;writing-mode:lr-tb;fill:#eee8d5;fill-opacity:1;fill-rule:nonzero;stroke:none"
         id="text416"><tspan
           x="0 5.3899999 9.8210001 12.537 16.841999 21.146999 23.365999 26.096001 30.400999 34.832001 37.029999 38.969002 43.245998 47.655998 50.533001"
           y="0"
           sodipodi:role="line"
           id="tspan414">Durée (en jour)</tspan></text><text
         transform="rotate(-90)"
         style="font-variant:normal;font-weight:normal;font-size:4.09345px;font-family:'DejaVu Sans';-inkscape-font-specification:DejaVuSans;writing-mode:lr-tb;fill:#eee8d5;fill-opacity:1;fill-rule:nonzero;stroke:none;stroke-width:0.682242"
         id="text420"
         x="-182.86261"
         y="394.84525"><tspan
           x="-182.86261 -180.26736 -177.76627 -175.17511 -173.59505 -171.34775 -168.83026 -167.53264 -166.15724 -164.8719 -162.07199 -159.47673 -156.95927 -154.36812 -152.13309 -149.61562 -148.31799 -145.72275 -143.20528 -141.91994 -140.78604 -138.28085 -136.98323 -134.40027 -133.26639 -130.76529 -126.77826 -124.26079 -121.67783 -119.16035 -116.91305 -115.77916 -113.20029 -110.68282 -109.3852 -106.78176 -104.17833 -101.57489"
           y="394.84525"
           sodipodi:role="line"
           id="tspan418"
           style="font-style:oblique;font-variant:normal;font-weight:normal;font-stretch:normal;font-family:'DejaVu Sans';-inkscape-font-specification:'DejaVu Sans Oblique';stroke-width:0.682242;fill:#eee8d5;fill-opacity:1">Source : Agence de la biomédecine 2020</tspan></text><text
         transform="translate(284.42186,203.97388)"
         style="font-variant:normal;font-weight:normal;font-size:7px;font-family:'DejaVu Sans';-inkscape-font-specification:DejaVuSans;writing-mode:lr-tb;fill:#eee8d5;fill-opacity:1;fill-rule:nonzero;stroke:none"
         id="text424"><tspan
           x="0 5.3899999 9.8210001 12.537 16.841999 21.146999 23.365999 26.096001 30.400999 34.832001 37.029999 38.969002 43.245998 47.655998 50.533001"
           y="0"
           sodipodi:role="line"
           id="tspan422">Durée (en jour)</tspan></text><text
         transform="rotate(-90,72.93201,64.466434)"
         style="font-variant:normal;font-weight:normal;font-size:7.5px;font-family:'DejaVu Sans';-inkscape-font-specification:DejaVuSans;writing-mode:lr-tb;fill:#eee8d5;fill-opacity:1;fill-rule:nonzero;stroke:none"
         id="text428"><tspan
           sodipodi:role="line"
           id="tspan426"
           x="0"
           y="0">Probabilité d'évènements</tspan></text><text
         transform="translate(300.15624,8.402596)"
         style="font-variant:normal;font-weight:bold;font-size:6.75px;font-family:'DejaVu Sans';-inkscape-font-specification:DejaVuSans-Bold;writing-mode:lr-tb;fill:#eee8d5;fill-opacity:1;fill-rule:nonzero;stroke:none"
         id="text436"><tspan
           x="0 5.5349998 8.8627501 13.43925 16.3755 19.31175 -255.05859 -249.45609 -244.87959 -240.88359 -236.3071 -232.29085 -229.94185 -225.3046 -220.52559 -218.17659 -214.84885 -210.27234 -207.04584 -203.71809 -199.16859 -196.86009 -193.63359 -189.61734 -187.26834 -182.46234 -177.88585 -175.53683 -173.22835 -170.91985 -166.90359 -163.67709 -159.10059 -156.77184 -151.94559 -147.30833 -142.50909 -139.18134 -136.83234 -132.28284 -127.47684 -122.65059 -119.32284 -114.77334 -110.39934 -105.84984 -102.62334 -100.31484 -95.677589"
           y="0"
           sodipodi:role="line"
           id="tspan430">GreffeDécès ou retraits de liste pour aggravation</tspan><tspan
           x="-265.14288 -259.92514"
           y="0.026724735"
           sodipodi:role="line"
           id="tspan432">A-</tspan><tspan
           x="-10.308438 -5.164938"
           y="0.12357711"
           sodipodi:role="line"
           id="tspan434">B-</tspan></text><text
         transform="translate(55.218749,21.601815)"
         style="font-variant:normal;font-weight:normal;font-size:6.75px;font-family:'DejaVu Sans';-inkscape-font-specification:DejaVuSans;writing-mode:lr-tb;fill:#eee8d5;fill-opacity:1;fill-rule:nonzero;stroke:none"
         id="text454"><tspan
           x="0 4.21875 8.2080002 12.339 16.61175 19.237499 21.377251 23.247 27.398251"
           y="0"
           sodipodi:role="line"
           id="tspan438"
           style="fill:#e55756;fill-opacity:1">Avant le </tspan><tspan
           x="-14.999998 -8.425499 -4.3012486 -0.0217485 4.1295013 5.9790015 10.130252 12.270001 16.549501 19.323751 23.434502 27.423752 29.293501 31.939501 36.070503 37.920002 40.552502"
           y="8.0976582"
           sodipodi:role="line"
           id="tspan440"
           style="fill:#e55756;fill-opacity:1">modèle gravitaire</tspan><tspan
           sodipodi:role="line"
           id="tspan442"
           y="0.074222997"
           x="83.234375 87.851372 92.130875 94.74987 98.901123 102.41113 104.55087 106.40037 110.55162"
           style="fill:#078fa7;fill-opacity:1">Après le </tspan><tspan
           x="68.082024 74.656525 78.780777 83.060272 87.211525 89.061028 93.212273 95.352028 99.631523 102.40578 106.51653 110.50578 112.37553 115.02152 119.15253 121.00202 123.63453"
           y="8.1718807"
           sodipodi:role="line"
           id="tspan444"
           style="fill:#078fa7;fill-opacity:1">modèle gravitaire</tspan><tspan
           x="196.61717 200.83592 204.82518 208.95618 213.22893 215.85468 217.99443 219.86418 224.01543"
           y="0.03516075"
           sodipodi:role="line"
           id="tspan446"
           style="fill:#e55756;fill-opacity:1">Avant le </tspan><tspan
           x="181.61719 188.19168 192.31593 196.59543 200.74667 202.59618 206.74744 208.88718 213.16669 215.94093 220.05168 224.04092 225.91068 228.55669 232.68768 234.53719 237.16968"
           y="8.1367197"
           sodipodi:role="line"
           id="tspan448"
           style="fill:#e55756;fill-opacity:1">modèle gravitaire</tspan><tspan
           x="279.85156 284.46857 288.74805 291.36707 295.51831 299.02832 301.16806 303.01755 307.16879"
           y="0.109377"
           sodipodi:role="line"
           id="tspan450"
           style="fill:#078fa7;fill-opacity:1">Après le </tspan><tspan
           x="264.70312 271.27762 275.40186 279.68137 283.83261 285.68213 289.83337 291.97311 296.25262 299.02686 303.13763 307.12686 308.99661 311.64261 315.77362 317.62311 320.25562"
           y="8.2109365"
           sodipodi:role="line"
           id="tspan452"
           style="fill:#078fa7;fill-opacity:1">modèle gravitaire</tspan></text><g
         id="g456" /><text
         transform="translate(59.210936,108.80763)"
         style="font-variant:normal;font-weight:normal;font-size:6px;font-family:'DejaVu Sans';-inkscape-font-specification:DejaVuSans;writing-mode:lr-tb;fill:#eee8d5;fill-opacity:1;fill-rule:nonzero;stroke:none"
         id="text462"><tspan
           x="0 3.816 5.7179999 9.3900003 11.274 15.09"
           y="0"
           sodipodi:role="line"
           id="tspan460">6 à 14</tspan></text><g
         id="g464"><path
           d="m 38.324,65.324 h 16.5 v 8.926 h -16.5 z"
           style="fill:#e31a1c;fill-opacity:1;fill-rule:nonzero;stroke:#ffffff;stroke-width:0.375;stroke-linecap:butt;stroke-linejoin:miter;stroke-miterlimit:10;stroke-dasharray:none;stroke-opacity:1"
           id="path466" /></g><g
         id="g468"><path
           d="m 38.324,55.949 h 16.5 v 8.926 h -16.5 z"
           style="fill:#b10026;fill-opacity:1;fill-rule:nonzero;stroke:#ffffff;stroke-width:0.375;stroke-linecap:butt;stroke-linejoin:miter;stroke-miterlimit:10;stroke-dasharray:none;stroke-opacity:1"
           id="path470" /></g><g
         id="g472"><path
           d="m 38.324,74.625 h 16.5 v 8.926 h -16.5 z"
           style="fill:#fd8d3c;fill-opacity:1;fill-rule:nonzero;stroke:#ffffff;stroke-width:0.375;stroke-linecap:butt;stroke-linejoin:miter;stroke-miterlimit:10;stroke-dasharray:none;stroke-opacity:1"
           id="path474" /></g><g
         id="g476"><path
           d="m 38.324,83.926 h 16.5 v 8.926 h -16.5 z"
           style="fill:#feb24c;fill-opacity:1;fill-rule:nonzero;stroke:#ffffff;stroke-width:0.375;stroke-linecap:butt;stroke-linejoin:miter;stroke-miterlimit:10;stroke-dasharray:none;stroke-opacity:1"
           id="path478" /></g><g
         id="g480"><path
           d="m 38.324,93.301 h 16.5 v 8.926 h -16.5 z"
           style="fill:#fed976;fill-opacity:1;fill-rule:nonzero;stroke:#ffffff;stroke-width:0.375;stroke-linecap:butt;stroke-linejoin:miter;stroke-miterlimit:10;stroke-dasharray:none;stroke-opacity:1"
           id="path482" /></g><g
         id="g484"><path
           d="m 38.324,102.602 h 16.5 v 8.922 h -16.5 z"
           style="fill:#ffeda0;fill-opacity:1;fill-rule:nonzero;stroke:#ffffff;stroke-width:0.375;stroke-linecap:butt;stroke-linejoin:miter;stroke-miterlimit:10;stroke-dasharray:none;stroke-opacity:1"
           id="path486" /></g><text
         transform="translate(59.210936,99.483404)"
         style="font-variant:normal;font-weight:normal;font-size:6px;font-family:'DejaVu Sans';-inkscape-font-specification:DejaVuSans;writing-mode:lr-tb;fill:#eee8d5;fill-opacity:1;fill-rule:nonzero;stroke:none"
         id="text498"><tspan
           x="0 3.816 7.632 9.5340004 13.206 15.09 18.906"
           y="0"
           sodipodi:role="line"
           id="tspan488">15 à 19</tspan><tspan
           x="0 3.816 7.632 9.5340004 13.206 15.09 18.906"
           y="-9.3242159"
           sodipodi:role="line"
           id="tspan490">20 à 25</tspan><tspan
           x="0 3.816 7.632 9.5340004 13.206 15.09 18.906"
           y="-18.648432"
           sodipodi:role="line"
           id="tspan492">26 à 29</tspan><tspan
           x="0 3.816 7.632 9.5340004 13.206 15.09 18.906"
           y="-27.972649"
           sodipodi:role="line"
           id="tspan494">30 à 34</tspan><tspan
           x="0 3.816 7.632 9.5340004 13.206 15.09 18.906"
           y="-37.296864"
           sodipodi:role="line"
           id="tspan496">35 à 40</tspan></text><text
         transform="translate(38.371094,50.760758)"
         style="font-variant:normal;font-weight:bold;font-size:6px;font-family:'DejaVu Sans';-inkscape-font-specification:DejaVuSans-Bold;writing-mode:lr-tb;fill:#eee8d5;fill-opacity:1;fill-rule:nonzero;stroke:none"
         id="text502"><tspan
           x="0 5.9699998 10.068 13.89 18.870001 20.958 25.002001 27.09 29.142 31.398001 33.450001 37.716 41.285999 44.82 47.778 49.830002 54.119999 56.987999 59.040001 63.144001"
           y="0"
           sodipodi:role="line"
           id="tspan500">MELD à l’inscription</tspan></text></g></g></svg>
