<?xml version="1.0" encoding="UTF-8" standalone="no"?>
<svg
   xmlns:dc="http://purl.org/dc/elements/1.1/"
   xmlns:cc="http://creativecommons.org/ns#"
   xmlns:rdf="http://www.w3.org/1999/02/22-rdf-syntax-ns#"
   xmlns:svg="http://www.w3.org/2000/svg"
   xmlns="http://www.w3.org/2000/svg"
   xmlns:sodipodi="http://sodipodi.sourceforge.net/DTD/sodipodi-0.dtd"
   xmlns:inkscape="http://www.inkscape.org/namespaces/inkscape"
   version="1.1"
   id="Calque_1"
   x="0px"
   y="0px"
   viewBox="0 0 524.3 278.1"
   style="enable-background:new 0 0 524.3 278.1;"
   xml:space="preserve"
   sodipodi:docname="figure23.svg"
   inkscape:version="1.0.2-2 (e86c870879, 2021-01-15)"><metadata
   id="metadata631"><rdf:RDF><cc:Work
       rdf:about=""><dc:format>image/svg+xml</dc:format><dc:type
         rdf:resource="http://purl.org/dc/dcmitype/StillImage" /></cc:Work></rdf:RDF></metadata><defs
   id="defs629" /><sodipodi:namedview
   pagecolor="#ffffff"
   bordercolor="#666666"
   borderopacity="1"
   objecttolerance="10"
   gridtolerance="10"
   guidetolerance="10"
   inkscape:pageopacity="0"
   inkscape:pageshadow="2"
   inkscape:window-width="1920"
   inkscape:window-height="1017"
   id="namedview627"
   showgrid="false"
   inkscape:zoom="2.4852184"
   inkscape:cx="262.14999"
   inkscape:cy="139.05"
   inkscape:window-x="-8"
   inkscape:window-y="-8"
   inkscape:window-maximized="1"
   inkscape:current-layer="Calque_1" />
<style
   type="text/css"
   id="style2">
	.st0{fill:#F5F1E3;}
	.st1{fill:#ABD7CC;}
	.st2{fill:#008EA6;}
	.st3{fill:#D81B5C;}
	.st4{fill-rule:evenodd;clip-rule:evenodd;fill:#EA5758;}
	.st5{fill:none;}
	.st6{enable-background:new    ;}
	.st7{fill:#CECBA1;}
	.st8{fill:#EA5758;}
</style>
<g
   id="Calque_1_00000114770705890023075510000014936087199077404852_">
	<g
   id="g6">
		<rect
   y="0"
   class="st0"
   width="260"
   height="135.6"
   id="rect4" />
	</g>
	<g
   id="g10">
		<rect
   x="264.3"
   y="0"
   class="st0"
   width="260"
   height="135.6"
   id="rect8" />
	</g>
	<g
   id="g14">
		<rect
   x="131.6"
   y="139.7"
   class="st0"
   width="260"
   height="135.6"
   id="rect12" />
	</g>
	<g
   id="g22">
		<g
   id="g20">
			<path
   class="st1"
   d="M88.6,77.8c0,14-11.3,25.3-25.3,25.3S38,91.8,38,77.8s11.3-25.3,25.3-25.3C77.2,52.6,88.6,63.9,88.6,77.8"
   id="path16" />
			<path
   class="st2"
   d="M63.3,103.6c-14.2,0-25.8-11.6-25.8-25.8C37.5,63.6,49.1,52,63.3,52c14.2,0.1,25.8,11.7,25.8,25.8     C89.1,92,77.5,103.6,63.3,103.6z M63.3,53c-13.7,0-24.8,11.1-24.8,24.8s11.1,24.8,24.8,24.8s24.8-11.1,24.8-24.8     C88.1,64.2,77,53.1,63.3,53z"
   id="path18" />
		</g>
	</g>
	<g
   id="g36">
		<g
   id="g28">
			<path
   class="st1"
   d="M143.4,77.8c0,5.8-4.7,10.5-10.5,10.5s-10.5-4.7-10.5-10.5s4.7-10.5,10.5-10.5     C138.7,67.4,143.4,72.1,143.4,77.8"
   id="path24" />
			<path
   class="st3"
   d="M132.9,88.8c-6.1,0-11-4.9-11-11s4.9-11,11-11c6.1,0.1,11,5,11,11C143.9,83.9,139,88.8,132.9,88.8z      M132.9,67.8c-5.5,0-10,4.5-10,10s4.5,10,10,10s10-4.5,10-10C142.9,72.4,138.4,67.9,132.9,67.8z"
   id="path26" />
		</g>
		<g
   id="g34">
			<path
   class="st4"
   d="M140.4,71.9c-0.8,2.8-2.8,4.6-5.8,5.2c-1.2,1.2-2.4,1.8-3.9,3.2c-0.8,0.8-2.4,3.7-3.7,3.5     c-2.6-0.4-1.3-7.5-0.4-8.7c1.3-1.7,3.7-1.9,7.1-2.2C136.2,72.8,137.8,72,140.4,71.9z"
   id="path30" />
			<path
   class="st3"
   d="M127.1,84.1c-0.1,0-0.1,0-0.2,0c-0.6-0.1-1.1-0.5-1.4-1.2c-0.9-2.3,0.1-6.9,0.8-7.9c1.4-1.8,3.8-2,7.2-2.3     l0.1,0c1.2,0,2.2-0.3,3.2-0.5c1-0.2,2.1-0.5,3.5-0.5l0.3,0l-0.1,0.3c-0.8,2.9-2.9,4.7-5.9,5.4c-0.6,0.6-1.2,1-1.8,1.5     c-0.6,0.5-1.3,1-2,1.6c-0.2,0.2-0.5,0.6-0.8,1C129.2,82.6,128.2,84.1,127.1,84.1z M140.1,72.2c-1.1,0.1-2.1,0.3-3,0.5     c-1,0.2-2.1,0.4-3.3,0.5l-0.1,0c-3.3,0.3-5.6,0.5-6.8,2.1c-0.6,0.9-1.6,5.3-0.8,7.4c0.2,0.6,0.6,0.9,1,0.9     c0.8,0.1,1.9-1.4,2.6-2.4c0.3-0.4,0.6-0.8,0.8-1.1c0.8-0.7,1.4-1.2,2.1-1.7c0.6-0.5,1.2-0.9,1.8-1.5l0.1-0.1l0.1,0     C137.3,76.3,139.2,74.7,140.1,72.2z"
   id="path32" />
		</g>
	</g>
	<g
   id="g54">
		<g
   id="g40">
			<line
   class="st5"
   x1="146.6"
   y1="77.8"
   x2="184.1"
   y2="77.8"
   id="line38" />
		</g>
		<g
   id="g52">
			<g
   id="g44">
				<path
   class="st3"
   d="M179.8,78.8h-33.2c-0.6,0-1-0.4-1-1s0.4-1,1-1h33.2c0.6,0,1,0.4,1,1S180.4,78.8,179.8,78.8z"
   id="path42" />
			</g>
			<g
   id="g50">
				<g
   id="g48">
					<polygon
   class="st3"
   points="178.9,80.8 184.1,77.8 178.9,74.8      "
   id="polygon46" />
				</g>
			</g>
		</g>
	</g>
	<g
   class="st6"
   id="g66">
		<path
   class="st3"
   d="M53.7,74.7v2.1h-1.2v-5.4h1.2v0.6c0.2-0.2,0.4-0.4,0.6-0.5s0.5-0.2,0.7-0.2c0.5,0,0.9,0.2,1.2,0.6    s0.5,0.9,0.5,1.5s-0.2,1.1-0.5,1.5s-0.7,0.6-1.2,0.6c-0.3,0-0.5-0.1-0.7-0.2C54.1,75.1,53.9,74.9,53.7,74.7z M54.5,72.2    c-0.3,0-0.5,0.1-0.6,0.3c-0.1,0.2-0.2,0.5-0.2,0.9s0.1,0.7,0.2,0.8c0.1,0.2,0.3,0.3,0.6,0.3s0.5-0.1,0.6-0.3    c0.1-0.2,0.2-0.5,0.2-0.9s-0.1-0.7-0.2-0.9C55,72.3,54.8,72.2,54.5,72.2z"
   id="path56" />
		<path
   class="st3"
   d="M59.7,76.2h-1c-0.4-0.6-0.6-1.1-0.8-1.6s-0.3-1-0.3-1.5s0.1-1,0.3-1.5c0.2-0.5,0.4-1.1,0.8-1.6h1    c-0.3,0.6-0.5,1.1-0.7,1.6s-0.2,1-0.2,1.6c0,0.5,0.1,1,0.2,1.6S59.4,75.7,59.7,76.2z"
   id="path58" />
		<path
   class="st3"
   d="M60.9,70.1h1.4c0.8,0,1.4,0.1,1.8,0.2c0.4,0.1,0.7,0.3,1,0.6c0.2,0.2,0.4,0.5,0.5,0.8c0.1,0.3,0.2,0.7,0.2,1    c0,0.4-0.1,0.7-0.2,1.1s-0.3,0.6-0.5,0.8c-0.3,0.3-0.6,0.5-1,0.6c-0.4,0.1-1,0.2-1.8,0.2h-1.4V70.1z M62.2,71.1v3.2h0.5    c0.5,0,1-0.1,1.3-0.4c0.3-0.3,0.4-0.7,0.4-1.2c0-0.5-0.1-0.9-0.4-1.2s-0.7-0.4-1.3-0.4H62.2z"
   id="path60" />
		<path
   class="st3"
   d="M71,75c-0.2,0.1-0.5,0.2-0.8,0.3c-0.3,0.1-0.5,0.1-0.8,0.1c-0.9,0-1.6-0.2-2.1-0.7s-0.8-1.1-0.8-2    c0-0.8,0.3-1.5,0.8-2s1.2-0.7,2.1-0.7c0.3,0,0.6,0,0.8,0.1c0.3,0.1,0.5,0.2,0.8,0.3v1.1c-0.2-0.2-0.5-0.3-0.7-0.4    c-0.2-0.1-0.5-0.1-0.8-0.1c-0.5,0-0.9,0.2-1.1,0.5c-0.3,0.3-0.4,0.7-0.4,1.3c0,0.5,0.1,1,0.4,1.3c0.3,0.3,0.7,0.5,1.1,0.5    c0.3,0,0.5,0,0.8-0.1c0.2-0.1,0.5-0.2,0.7-0.4V75z"
   id="path62" />
		<path
   class="st3"
   d="M72,76.2c0.3-0.6,0.5-1.1,0.7-1.6s0.2-1,0.2-1.6c0-0.5-0.1-1-0.2-1.6s-0.4-1.1-0.7-1.6h1    c0.4,0.6,0.6,1.1,0.8,1.6s0.3,1,0.3,1.5s-0.1,1-0.3,1.5c-0.2,0.5-0.4,1.1-0.8,1.6H72z"
   id="path64" />
	</g>
	<g
   class="st6"
   id="g80">
		<path
   class="st3"
   d="M52.3,80.5l-3.4,1.2l3.4,1.2v0.9L47.8,82v-0.8l4.5-1.6V80.5z"
   id="path68" />
		<path
   class="st3"
   d="M55.1,82.9h2.3v1h-3.8v-1l1.9-1.7c0.2-0.2,0.3-0.3,0.4-0.5c0.1-0.1,0.1-0.3,0.1-0.5c0-0.2-0.1-0.4-0.2-0.6    c-0.2-0.1-0.4-0.2-0.7-0.2c-0.2,0-0.4,0-0.7,0.1c-0.2,0.1-0.5,0.2-0.8,0.4v-1.1c0.3-0.1,0.6-0.2,0.9-0.2s0.6-0.1,0.9-0.1    c0.6,0,1.1,0.1,1.5,0.4c0.3,0.3,0.5,0.7,0.5,1.1c0,0.3-0.1,0.5-0.2,0.8c-0.1,0.2-0.5,0.6-0.9,1L55.1,82.9z"
   id="path70" />
		<path
   class="st3"
   d="M64.7,80.6c0.2-0.2,0.3-0.4,0.6-0.6c0.2-0.1,0.5-0.2,0.7-0.2c0.4,0,0.8,0.1,1,0.4c0.2,0.3,0.4,0.7,0.4,1.2    v2.4h-1.3v-2c0,0,0-0.1,0-0.1c0,0,0-0.1,0-0.1c0-0.3,0-0.5-0.1-0.6c-0.1-0.1-0.2-0.2-0.4-0.2c-0.2,0-0.4,0.1-0.5,0.3    c-0.1,0.2-0.2,0.5-0.2,0.8v1.9h-1.3v-2c0-0.4,0-0.7-0.1-0.8c-0.1-0.1-0.2-0.2-0.4-0.2c-0.2,0-0.4,0.1-0.6,0.3    c-0.1,0.2-0.2,0.5-0.2,0.8v1.9h-1.3V80h1.3v0.6c0.2-0.2,0.3-0.4,0.5-0.5c0.2-0.1,0.4-0.2,0.7-0.2c0.3,0,0.5,0.1,0.7,0.2    C64.5,80.2,64.6,80.4,64.7,80.6z"
   id="path72" />
		<path
   class="st3"
   d="M70.4,79.9c0.7,0,1.2,0.2,1.6,0.5c0.4,0.4,0.6,0.9,0.6,1.5s-0.2,1.1-0.6,1.5c-0.4,0.4-0.9,0.5-1.6,0.5    c-0.7,0-1.2-0.2-1.6-0.5s-0.6-0.9-0.6-1.5s0.2-1.1,0.6-1.5C69.2,80.1,69.7,79.9,70.4,79.9z M70.4,80.8c-0.3,0-0.5,0.1-0.6,0.3    c-0.1,0.2-0.2,0.5-0.2,0.9c0,0.4,0.1,0.7,0.2,0.9c0.1,0.2,0.4,0.3,0.6,0.3c0.3,0,0.5-0.1,0.6-0.3c0.1-0.2,0.2-0.5,0.2-0.9    c0-0.4-0.1-0.7-0.2-0.9C70.9,80.9,70.7,80.8,70.4,80.8z"
   id="path74" />
		<path
   class="st3"
   d="M73.5,78.4h1.2v1h-1.2V78.4z M73.5,80h1.2v3.9h-1.2V80z"
   id="path76" />
		<path
   class="st3"
   d="M79,80.1V81c-0.3-0.1-0.5-0.2-0.8-0.3c-0.2-0.1-0.5-0.1-0.7-0.1c-0.2,0-0.4,0-0.5,0.1s-0.2,0.2-0.2,0.3    c0,0.1,0,0.2,0.1,0.2c0.1,0.1,0.2,0.1,0.5,0.1l0.2,0c0.6,0.1,1.1,0.2,1.3,0.4s0.3,0.5,0.3,0.9c0,0.4-0.2,0.7-0.5,0.9    C78.5,83.9,78,84,77.4,84c-0.3,0-0.5,0-0.8-0.1s-0.6-0.1-0.9-0.2v-0.9c0.2,0.1,0.5,0.2,0.8,0.3c0.3,0.1,0.5,0.1,0.8,0.1    c0.2,0,0.4,0,0.6-0.1c0.1-0.1,0.2-0.2,0.2-0.3c0-0.1,0-0.2-0.1-0.2s-0.3-0.1-0.5-0.1l-0.2,0c-0.6-0.1-0.9-0.2-1.2-0.4    c-0.2-0.2-0.3-0.5-0.3-0.9c0-0.4,0.1-0.7,0.4-0.9c0.3-0.2,0.7-0.3,1.3-0.3c0.2,0,0.5,0,0.7,0.1C78.4,80,78.7,80,79,80.1z"
   id="path78" />
	</g>
	<g
   id="g98">
		<g
   id="g84">
			<line
   class="st5"
   x1="117.5"
   y1="77.8"
   x2="106.4"
   y2="77.8"
   id="line82" />
		</g>
		<g
   id="g96">
			<g
   id="g88">
				<path
   class="st3"
   d="M117.5,81.3h-11.1c-1.9,0-3.5-1.6-3.5-3.5s1.6-3.5,3.5-3.5h11.1c1.9,0,3.5,1.6,3.5,3.5      S119.4,81.3,117.5,81.3z"
   id="path86" />
			</g>
			<g
   id="g94">
				<g
   id="g92">
					<polygon
   class="st3"
   points="109.4,67.4 91.3,77.9 109.4,88.4      "
   id="polygon90" />
				</g>
			</g>
		</g>
	</g>
	<g
   id="g106">
		<g
   id="g104">
			<path
   class="st1"
   d="M218.5,77.8c0,8.8-7.2,16-16,16s-16-7.1-16-16c0-8.8,7.2-16,16-16C211.3,61.9,218.5,69,218.5,77.8"
   id="path100" />
			<path
   class="st2"
   d="M202.5,94.3c-9.1,0-16.5-7.4-16.5-16.5s7.4-16.5,16.5-16.5c9.1,0.1,16.5,7.5,16.5,16.5     C219,86.9,211.6,94.3,202.5,94.3z M202.5,62.3c-8.5,0-15.5,7-15.5,15.5s7,15.5,15.5,15.5s15.5-7,15.5-15.5     C218,69.3,211,62.4,202.5,62.3z"
   id="path102" />
		</g>
	</g>
	<g
   class="st6"
   id="g118">
		<path
   class="st3"
   d="M193.7,75v1.9h-1.2v-5h1.2v0.5c0.2-0.2,0.3-0.4,0.5-0.5c0.2-0.1,0.4-0.1,0.7-0.1c0.4,0,0.8,0.2,1.1,0.5    c0.3,0.4,0.4,0.8,0.4,1.4s-0.1,1-0.4,1.4c-0.3,0.4-0.7,0.5-1.1,0.5c-0.3,0-0.5,0-0.7-0.2C194,75.3,193.8,75.2,193.7,75z     M194.4,72.6c-0.2,0-0.4,0.1-0.6,0.3c-0.1,0.2-0.2,0.4-0.2,0.8c0,0.3,0.1,0.6,0.2,0.8s0.3,0.3,0.6,0.3c0.2,0,0.4-0.1,0.6-0.3    c0.1-0.2,0.2-0.4,0.2-0.8s-0.1-0.6-0.2-0.8C194.9,72.7,194.7,72.6,194.4,72.6z"
   id="path108" />
		<path
   class="st3"
   d="M199.2,76.3h-1c-0.3-0.5-0.6-1-0.7-1.5s-0.2-1-0.2-1.4c0-0.5,0.1-0.9,0.2-1.4c0.2-0.5,0.4-1,0.7-1.5h1    c-0.3,0.5-0.5,1-0.6,1.5s-0.2,1-0.2,1.4s0.1,1,0.2,1.4S198.9,75.8,199.2,76.3z"
   id="path110" />
		<path
   class="st3"
   d="M200.3,70.7h1.3c0.7,0,1.3,0.1,1.6,0.2c0.4,0.1,0.7,0.3,0.9,0.5c0.2,0.2,0.4,0.5,0.5,0.8s0.2,0.6,0.2,1    c0,0.4-0.1,0.7-0.2,1s-0.3,0.5-0.5,0.8c-0.3,0.2-0.6,0.4-0.9,0.5c-0.4,0.1-0.9,0.2-1.6,0.2h-1.3V70.7z M201.5,71.6v2.9h0.4    c0.5,0,0.9-0.1,1.2-0.4s0.4-0.6,0.4-1.1c0-0.5-0.1-0.8-0.4-1.1s-0.7-0.4-1.2-0.4H201.5z"
   id="path112" />
		<path
   class="st3"
   d="M209.6,75.2c-0.2,0.1-0.5,0.2-0.7,0.3c-0.2,0.1-0.5,0.1-0.8,0.1c-0.8,0-1.4-0.2-1.9-0.7s-0.7-1.1-0.7-1.8    c0-0.8,0.2-1.4,0.7-1.8c0.5-0.4,1.1-0.7,1.9-0.7c0.3,0,0.5,0,0.8,0.1c0.2,0.1,0.5,0.1,0.7,0.3v1c-0.2-0.2-0.5-0.3-0.7-0.3    s-0.5-0.1-0.7-0.1c-0.4,0-0.8,0.1-1,0.4c-0.3,0.3-0.4,0.7-0.4,1.2c0,0.5,0.1,0.9,0.4,1.2c0.3,0.3,0.6,0.4,1,0.4    c0.2,0,0.5,0,0.7-0.1c0.2-0.1,0.4-0.2,0.7-0.3V75.2z"
   id="path114" />
		<path
   class="st3"
   d="M210.5,76.3c0.3-0.5,0.5-1,0.6-1.5c0.1-0.5,0.2-1,0.2-1.4s-0.1-1-0.2-1.4c-0.1-0.5-0.3-1-0.6-1.5h1    c0.3,0.5,0.6,1,0.7,1.5c0.2,0.5,0.2,1,0.2,1.4c0,0.5-0.1,0.9-0.2,1.4s-0.4,1-0.7,1.5H210.5z"
   id="path116" />
	</g>
	<g
   class="st6"
   id="g132">
		<path
   class="st3"
   d="M192.3,80.2l-3.1,1.1l3.1,1.1v0.8l-4.1-1.5v-0.8l4.1-1.5V80.2z"
   id="path120" />
		<path
   class="st3"
   d="M195.2,78.6h1.4v3h0.7v0.9h-0.7v0.9h-1.2v-0.9h-2.1v-1.1L195.2,78.6z M195.4,79.6l-1.4,2h1.4V79.6z"
   id="path122" />
		<path
   class="st3"
   d="M203.8,80.4c0.1-0.2,0.3-0.4,0.5-0.5c0.2-0.1,0.4-0.2,0.7-0.2c0.4,0,0.7,0.1,0.9,0.4s0.3,0.6,0.3,1.1v2.2    h-1.2v-1.9c0,0,0-0.1,0-0.1c0,0,0-0.1,0-0.1c0-0.3,0-0.4-0.1-0.6c-0.1-0.1-0.2-0.2-0.4-0.2c-0.2,0-0.4,0.1-0.5,0.3    c-0.1,0.2-0.2,0.4-0.2,0.8v1.8h-1.2v-1.9c0-0.4,0-0.7-0.1-0.8c-0.1-0.1-0.2-0.2-0.4-0.2c-0.2,0-0.4,0.1-0.5,0.3    c-0.1,0.2-0.2,0.4-0.2,0.8v1.8h-1.2v-3.6h1.2v0.5c0.1-0.2,0.3-0.4,0.5-0.5c0.2-0.1,0.4-0.2,0.6-0.2c0.2,0,0.5,0.1,0.7,0.2    S203.7,80.2,203.8,80.4z"
   id="path124" />
		<path
   class="st3"
   d="M209,79.7c0.6,0,1.1,0.2,1.5,0.5c0.3,0.3,0.5,0.8,0.5,1.4c0,0.6-0.2,1.1-0.5,1.4c-0.3,0.3-0.8,0.5-1.5,0.5    c-0.6,0-1.1-0.2-1.5-0.5c-0.4-0.3-0.5-0.8-0.5-1.4c0-0.6,0.2-1.1,0.5-1.4C207.9,79.8,208.4,79.7,209,79.7z M209,80.5    c-0.3,0-0.5,0.1-0.6,0.3c-0.1,0.2-0.2,0.4-0.2,0.8s0.1,0.6,0.2,0.8c0.1,0.2,0.3,0.3,0.6,0.3c0.3,0,0.4-0.1,0.6-0.3    c0.1-0.2,0.2-0.4,0.2-0.8s-0.1-0.6-0.2-0.8C209.4,80.6,209.3,80.5,209,80.5z"
   id="path126" />
		<path
   class="st3"
   d="M211.8,78.4h1.2v0.9h-1.2V78.4z M211.8,79.8h1.2v3.6h-1.2V79.8z"
   id="path128" />
		<path
   class="st3"
   d="M216.9,79.9v0.9c-0.2-0.1-0.5-0.2-0.7-0.2c-0.2-0.1-0.4-0.1-0.7-0.1c-0.2,0-0.4,0-0.5,0.1    c-0.1,0.1-0.2,0.1-0.2,0.3c0,0.1,0,0.2,0.1,0.2c0.1,0,0.2,0.1,0.4,0.1l0.2,0c0.6,0.1,1,0.2,1.2,0.4c0.2,0.2,0.3,0.4,0.3,0.8    c0,0.4-0.1,0.7-0.4,0.9c-0.3,0.2-0.7,0.3-1.3,0.3c-0.2,0-0.5,0-0.7-0.1c-0.3,0-0.5-0.1-0.8-0.2v-0.9c0.2,0.1,0.5,0.2,0.7,0.3    c0.2,0.1,0.5,0.1,0.7,0.1c0.2,0,0.4,0,0.5-0.1c0.1-0.1,0.2-0.2,0.2-0.3c0-0.1,0-0.2-0.1-0.2c-0.1,0-0.2-0.1-0.5-0.1l-0.2,0    c-0.5-0.1-0.9-0.2-1.1-0.4c-0.2-0.2-0.3-0.4-0.3-0.8c0-0.4,0.1-0.7,0.4-0.8c0.3-0.2,0.7-0.3,1.2-0.3c0.2,0,0.4,0,0.7,0    S216.6,79.8,216.9,79.9z"
   id="path130" />
	</g>
	<g
   class="st6"
   id="g136">
		<path
   class="st7"
   d="M7.6,25.3h5.2V10.6l-5.3,1.1v-4l5.3-1.1h5.5v18.6h5.2v4H7.6V25.3z"
   id="path134" />
	</g>
	<g
   class="st6"
   id="g170">
		<path
   class="st2"
   d="M70.3,10.9h2.6c1.5,0,2.5,0.1,3.3,0.3c0.7,0.2,1.3,0.5,1.8,1c0.4,0.4,0.8,0.9,1,1.4s0.3,1.1,0.3,1.8    c0,0.7-0.1,1.3-0.3,1.8c-0.2,0.5-0.6,1-1,1.4c-0.5,0.5-1.1,0.8-1.8,1s-1.8,0.3-3.2,0.3h-2.6V10.9z M72.8,12.6v5.5h0.9    c1,0,1.8-0.2,2.3-0.7s0.8-1.2,0.8-2.1c0-0.9-0.3-1.6-0.8-2c-0.5-0.5-1.3-0.7-2.3-0.7H72.8z"
   id="path138" />
		<path
   class="st2"
   d="M81.2,10.5h2.3v1.8h-2.3V10.5z M81.2,13.1h2.3v6.8h-2.3V13.1z"
   id="path140" />
		<path
   class="st2"
   d="M91.3,13.3V15c-0.5-0.2-1-0.3-1.4-0.4c-0.5-0.1-0.9-0.1-1.3-0.1c-0.4,0-0.8,0.1-1,0.2s-0.3,0.3-0.3,0.5    c0,0.2,0.1,0.3,0.2,0.4c0.2,0.1,0.4,0.2,0.9,0.2l0.4,0.1c1.2,0.1,2,0.4,2.4,0.7c0.4,0.3,0.6,0.8,0.6,1.5c0,0.7-0.3,1.3-0.8,1.6    c-0.6,0.4-1.4,0.5-2.5,0.5c-0.5,0-1,0-1.5-0.1c-0.5-0.1-1-0.2-1.6-0.3V18c0.5,0.2,0.9,0.4,1.4,0.5s1,0.2,1.5,0.2    c0.4,0,0.8-0.1,1-0.2c0.2-0.1,0.3-0.3,0.3-0.5c0-0.2-0.1-0.3-0.2-0.4s-0.5-0.2-0.9-0.2l-0.4,0c-1-0.1-1.7-0.3-2.2-0.7    c-0.4-0.3-0.6-0.8-0.6-1.5c0-0.7,0.3-1.3,0.8-1.6c0.5-0.3,1.3-0.5,2.4-0.5c0.4,0,0.9,0,1.3,0.1S90.7,13.2,91.3,13.3z"
   id="path142" />
		<path
   class="st2"
   d="M96,11.2v1.9h2.4v1.6H96v2.9c0,0.3,0.1,0.5,0.2,0.6c0.1,0.1,0.4,0.2,0.8,0.2h1.2v1.6h-2    c-0.9,0-1.5-0.2-1.9-0.5c-0.4-0.4-0.6-1-0.6-1.8v-2.9h-1.1v-1.6h1.1v-1.9H96z"
   id="path144" />
		<path
   class="st2"
   d="M106.5,16v3.9h-2.3v-1c-0.3,0.4-0.7,0.7-1,0.9s-0.9,0.3-1.4,0.3c-0.7,0-1.3-0.2-1.8-0.6s-0.7-0.9-0.7-1.6    c0-0.8,0.3-1.4,0.9-1.8c0.6-0.4,1.5-0.6,2.7-0.6h1.4v-0.2c0-0.3-0.1-0.6-0.4-0.8c-0.3-0.2-0.7-0.2-1.3-0.2c-0.5,0-1,0-1.4,0.1    c-0.4,0.1-0.8,0.2-1.2,0.4v-1.7c0.5-0.1,1-0.2,1.5-0.3c0.5-0.1,1-0.1,1.5-0.1c1.3,0,2.2,0.2,2.8,0.7C106.2,14.2,106.5,15,106.5,16    z M103,16.9c-0.5,0-0.8,0.1-1.1,0.2c-0.2,0.2-0.4,0.4-0.4,0.7c0,0.3,0.1,0.5,0.3,0.6s0.5,0.2,0.8,0.2c0.4,0,0.8-0.1,1.1-0.4    c0.3-0.3,0.4-0.7,0.4-1.1v-0.2H103z"
   id="path146" />
		<path
   class="st2"
   d="M115.9,15.8v4.1h-2.3v-0.7v-2.5c0-0.6,0-1,0-1.2s-0.1-0.4-0.1-0.5c-0.1-0.1-0.2-0.3-0.4-0.3    c-0.2-0.1-0.3-0.1-0.5-0.1c-0.5,0-0.9,0.2-1.1,0.5s-0.4,0.8-0.4,1.5v3.3h-2.3v-6.8h2.3v1c0.3-0.4,0.7-0.7,1.1-0.9    c0.4-0.2,0.8-0.3,1.3-0.3c0.8,0,1.5,0.2,1.9,0.7S115.9,14.9,115.9,15.8z"
   id="path148" />
		<path
   class="st2"
   d="M123.8,13.3v1.8c-0.3-0.2-0.6-0.4-0.9-0.4c-0.3-0.1-0.6-0.1-1-0.1c-0.6,0-1.1,0.2-1.5,0.5    c-0.4,0.4-0.5,0.8-0.5,1.5c0,0.6,0.2,1.1,0.5,1.5c0.4,0.4,0.9,0.5,1.5,0.5c0.4,0,0.7-0.1,1-0.2c0.3-0.1,0.6-0.3,0.9-0.4v1.8    c-0.4,0.1-0.7,0.2-1.1,0.3c-0.4,0.1-0.7,0.1-1.1,0.1c-1.3,0-2.3-0.3-3-0.9c-0.7-0.6-1.1-1.5-1.1-2.6c0-1.1,0.4-2,1.1-2.6    c0.7-0.6,1.7-0.9,3-0.9c0.4,0,0.7,0,1.1,0.1C123.1,13.1,123.4,13.2,123.8,13.3z"
   id="path150" />
		<path
   class="st2"
   d="M133,16.5v0.6h-5.4c0.1,0.5,0.2,0.9,0.6,1.1c0.3,0.3,0.8,0.4,1.4,0.4c0.5,0,1-0.1,1.5-0.2    c0.5-0.1,1-0.3,1.6-0.6v1.7c-0.5,0.2-1.1,0.3-1.6,0.4s-1.1,0.1-1.6,0.1c-1.3,0-2.3-0.3-3-0.9c-0.7-0.6-1.1-1.5-1.1-2.6    c0-1.1,0.4-2,1.1-2.6s1.7-1,2.9-1c1.1,0,2,0.3,2.7,1C132.6,14.6,133,15.4,133,16.5z M130.6,15.8c0-0.4-0.1-0.7-0.4-1    c-0.3-0.3-0.6-0.4-1-0.4c-0.4,0-0.8,0.1-1.1,0.4c-0.3,0.2-0.5,0.6-0.5,1H130.6z"
   id="path152" />
		<path
   class="st2"
   d="M140.3,13.3V15c-0.5-0.2-1-0.3-1.4-0.4c-0.5-0.1-0.9-0.1-1.3-0.1c-0.4,0-0.8,0.1-1,0.2s-0.3,0.3-0.3,0.5    c0,0.2,0.1,0.3,0.2,0.4c0.2,0.1,0.4,0.2,0.9,0.2l0.4,0.1c1.2,0.1,2,0.4,2.4,0.7c0.4,0.3,0.6,0.8,0.6,1.5c0,0.7-0.3,1.3-0.8,1.6    c-0.6,0.4-1.4,0.5-2.5,0.5c-0.5,0-1,0-1.5-0.1c-0.5-0.1-1-0.2-1.6-0.3V18c0.5,0.2,0.9,0.4,1.4,0.5s1,0.2,1.5,0.2    c0.4,0,0.8-0.1,1-0.2c0.2-0.1,0.3-0.3,0.3-0.5c0-0.2-0.1-0.3-0.2-0.4s-0.5-0.2-0.9-0.2l-0.4,0c-1-0.1-1.7-0.3-2.2-0.7    c-0.4-0.3-0.6-0.8-0.6-1.5c0-0.7,0.3-1.3,0.8-1.6c0.5-0.3,1.3-0.5,2.4-0.5c0.4,0,0.9,0,1.3,0.1S139.8,13.2,140.3,13.3z"
   id="path154" />
		<path
   class="st2"
   d="M154.3,16.5v0.6h-5.4c0.1,0.5,0.2,0.9,0.6,1.1c0.3,0.3,0.8,0.4,1.4,0.4c0.5,0,1-0.1,1.5-0.2    c0.5-0.1,1-0.3,1.6-0.6v1.7c-0.5,0.2-1.1,0.3-1.6,0.4s-1.1,0.1-1.6,0.1c-1.3,0-2.3-0.3-3-0.9c-0.7-0.6-1.1-1.5-1.1-2.6    c0-1.1,0.4-2,1.1-2.6s1.7-1,2.9-1c1.1,0,2,0.3,2.7,1C153.9,14.6,154.3,15.4,154.3,16.5z M151.9,15.8c0-0.4-0.1-0.7-0.4-1    c-0.3-0.3-0.6-0.4-1-0.4c-0.4,0-0.8,0.1-1.1,0.4c-0.3,0.2-0.5,0.6-0.5,1H151.9z M151.5,10h1.8l-2.4,2.3h-1.3L151.5,10z"
   id="path156" />
		<path
   class="st2"
   d="M160.9,18.8c-0.3,0.4-0.7,0.7-1,0.9c-0.4,0.2-0.8,0.3-1.3,0.3c-0.9,0-1.6-0.3-2.2-1c-0.6-0.7-0.9-1.5-0.9-2.5    c0-1,0.3-1.8,0.9-2.5c0.6-0.6,1.3-1,2.2-1c0.5,0,0.9,0.1,1.3,0.3c0.4,0.2,0.7,0.5,1,0.9v-1h2.3v6.1c0,1.1-0.4,1.9-1.1,2.5    c-0.7,0.6-1.8,0.9-3.2,0.9c-0.4,0-0.9,0-1.3-0.1c-0.4-0.1-0.8-0.2-1.3-0.3v-1.7c0.4,0.2,0.8,0.4,1.2,0.5c0.4,0.1,0.8,0.2,1.2,0.2    c0.8,0,1.3-0.2,1.7-0.5c0.4-0.3,0.5-0.8,0.5-1.5V18.8z M159.4,14.5c-0.5,0-0.8,0.2-1.1,0.5c-0.3,0.3-0.4,0.8-0.4,1.4    c0,0.6,0.1,1.1,0.4,1.4s0.6,0.5,1.1,0.5c0.5,0,0.9-0.2,1.1-0.5c0.3-0.3,0.4-0.8,0.4-1.4c0-0.6-0.1-1.1-0.4-1.4    C160.2,14.7,159.9,14.5,159.4,14.5z"
   id="path158" />
		<path
   class="st2"
   d="M172.2,16v3.9h-2.3v-1c-0.3,0.4-0.7,0.7-1,0.9s-0.9,0.3-1.4,0.3c-0.7,0-1.3-0.2-1.8-0.6s-0.7-0.9-0.7-1.6    c0-0.8,0.3-1.4,0.9-1.8c0.6-0.4,1.5-0.6,2.7-0.6h1.4v-0.2c0-0.3-0.1-0.6-0.4-0.8c-0.3-0.2-0.7-0.2-1.3-0.2c-0.5,0-1,0-1.4,0.1    c-0.4,0.1-0.8,0.2-1.2,0.4v-1.7c0.5-0.1,1-0.2,1.5-0.3c0.5-0.1,1-0.1,1.5-0.1c1.3,0,2.2,0.2,2.8,0.7C171.9,14.2,172.2,15,172.2,16    z M168.6,16.9c-0.5,0-0.8,0.1-1.1,0.2c-0.2,0.2-0.4,0.4-0.4,0.7c0,0.3,0.1,0.5,0.3,0.6s0.5,0.2,0.8,0.2c0.4,0,0.8-0.1,1.1-0.4    c0.3-0.3,0.4-0.7,0.4-1.1v-0.2H168.6z"
   id="path160" />
		<path
   class="st2"
   d="M174.3,10.5h2.3v9.4h-2.3V10.5z"
   id="path162" />
		<path
   class="st2"
   d="M186,16.5v0.6h-5.4c0.1,0.5,0.2,0.9,0.6,1.1c0.3,0.3,0.8,0.4,1.4,0.4c0.5,0,1-0.1,1.5-0.2    c0.5-0.1,1-0.3,1.6-0.6v1.7c-0.5,0.2-1.1,0.3-1.6,0.4s-1.1,0.1-1.6,0.1c-1.3,0-2.3-0.3-3-0.9c-0.7-0.6-1.1-1.5-1.1-2.6    c0-1.1,0.4-2,1.1-2.6s1.7-1,2.9-1c1.1,0,2,0.3,2.7,1C185.6,14.6,186,15.4,186,16.5z M183.6,15.8c0-0.4-0.1-0.7-0.4-1    c-0.3-0.3-0.6-0.4-1-0.4c-0.4,0-0.8,0.1-1.1,0.4c-0.3,0.2-0.5,0.6-0.5,1H183.6z"
   id="path164" />
		<path
   class="st2"
   d="M193.3,13.3V15c-0.5-0.2-1-0.3-1.4-0.4c-0.5-0.1-0.9-0.1-1.3-0.1c-0.4,0-0.8,0.1-1,0.2s-0.3,0.3-0.3,0.5    c0,0.2,0.1,0.3,0.2,0.4c0.2,0.1,0.4,0.2,0.9,0.2l0.4,0.1c1.2,0.1,2,0.4,2.4,0.7c0.4,0.3,0.6,0.8,0.6,1.5c0,0.7-0.3,1.3-0.8,1.6    c-0.6,0.4-1.4,0.5-2.5,0.5c-0.5,0-1,0-1.5-0.1c-0.5-0.1-1-0.2-1.6-0.3V18c0.5,0.2,0.9,0.4,1.4,0.5s1,0.2,1.5,0.2    c0.4,0,0.8-0.1,1-0.2c0.2-0.1,0.3-0.3,0.3-0.5c0-0.2-0.1-0.3-0.2-0.4s-0.5-0.2-0.9-0.2l-0.4,0c-1-0.1-1.7-0.3-2.2-0.7    c-0.4-0.3-0.6-0.8-0.6-1.5c0-0.7,0.3-1.3,0.8-1.6c0.5-0.3,1.3-0.5,2.4-0.5c0.4,0,0.9,0,1.3,0.1S192.8,13.2,193.3,13.3z"
   id="path166" />
		<path
   class="st2"
   d="M195.8,17.6h2.3v1.8l-1.6,2.3h-1.4l0.6-2.3V17.6z"
   id="path168" />
	</g>
	<g
   class="st6"
   id="g182">
		<path
   class="st3"
   d="M78.8,33.8v3.6h-2.3V28h2.3v1c0.3-0.4,0.7-0.7,1.1-0.9c0.4-0.2,0.8-0.3,1.3-0.3c0.9,0,1.6,0.3,2.2,1    c0.6,0.7,0.9,1.5,0.9,2.6c0,1-0.3,1.9-0.9,2.6c-0.6,0.7-1.3,1-2.2,1c-0.5,0-0.9-0.1-1.3-0.3C79.5,34.5,79.1,34.2,78.8,33.8z     M80.3,29.4c-0.5,0-0.9,0.2-1.1,0.5s-0.4,0.8-0.4,1.5c0,0.6,0.1,1.1,0.4,1.5s0.6,0.5,1.1,0.5s0.9-0.2,1.1-0.5s0.4-0.8,0.4-1.5    c0-0.6-0.1-1.1-0.4-1.5S80.8,29.4,80.3,29.4z"
   id="path172" />
		<path
   class="st3"
   d="M89.3,27.9c1.2,0,2.2,0.3,2.9,0.9s1,1.5,1,2.6c0,1.1-0.3,2-1,2.6S90.6,35,89.3,35c-1.2,0-2.2-0.3-2.9-0.9    s-1-1.5-1-2.6c0-1.1,0.3-2,1-2.6S88.1,27.9,89.3,27.9z M89.3,29.4c-0.5,0-0.9,0.2-1.2,0.5c-0.3,0.3-0.4,0.8-0.4,1.5    c0,0.7,0.1,1.1,0.4,1.5c0.3,0.3,0.7,0.5,1.2,0.5c0.5,0,0.9-0.2,1.1-0.5c0.3-0.3,0.4-0.8,0.4-1.5c0-0.7-0.1-1.1-0.4-1.5    C90.2,29.6,89.8,29.4,89.3,29.4z"
   id="path174" />
		<path
   class="st3"
   d="M94.9,25.4h2.3v1.8h-2.3V25.4z M94.9,28h2.3v6.8h-2.3V28z"
   id="path176" />
		<path
   class="st3"
   d="M104.3,29v-3.6h2.3v9.4h-2.3v-1c-0.3,0.4-0.7,0.7-1,0.9S102.5,35,102,35c-0.9,0-1.6-0.3-2.2-1    c-0.6-0.7-0.9-1.5-0.9-2.6c0-1,0.3-1.9,0.9-2.6c0.6-0.7,1.3-1,2.2-1c0.5,0,0.9,0.1,1.3,0.3S104,28.6,104.3,29z M102.8,33.4    c0.5,0,0.9-0.2,1.1-0.5s0.4-0.8,0.4-1.5c0-0.6-0.1-1.1-0.4-1.5s-0.6-0.5-1.1-0.5c-0.5,0-0.9,0.2-1.1,0.5s-0.4,0.8-0.4,1.5    c0,0.6,0.1,1.1,0.4,1.5S102.3,33.4,102.8,33.4z"
   id="path178" />
		<path
   class="st3"
   d="M114.5,28.2v1.6c-0.5-0.2-1-0.3-1.4-0.4c-0.5-0.1-0.9-0.1-1.3-0.1c-0.4,0-0.8,0.1-1,0.2s-0.3,0.3-0.3,0.5    c0,0.2,0.1,0.3,0.2,0.4c0.2,0.1,0.4,0.2,0.9,0.2l0.4,0.1c1.2,0.1,2,0.4,2.4,0.7c0.4,0.3,0.6,0.8,0.6,1.5c0,0.7-0.3,1.3-0.8,1.6    c-0.6,0.4-1.4,0.5-2.5,0.5c-0.5,0-1,0-1.5-0.1c-0.5-0.1-1-0.2-1.6-0.3v-1.6c0.5,0.2,0.9,0.4,1.4,0.5s1,0.2,1.5,0.2    c0.4,0,0.8-0.1,1-0.2c0.2-0.1,0.3-0.3,0.3-0.5c0-0.2-0.1-0.3-0.2-0.4s-0.5-0.2-0.9-0.2l-0.4,0c-1-0.1-1.7-0.3-2.2-0.7    c-0.4-0.3-0.6-0.8-0.6-1.5c0-0.7,0.3-1.3,0.8-1.6c0.5-0.3,1.3-0.5,2.4-0.5c0.4,0,0.9,0,1.3,0.1S113.9,28.1,114.5,28.2z"
   id="path180" />
	</g>
	<g
   class="st6"
   id="g204">
		<path
   class="st2"
   d="M126.1,29v-3.6h2.3v9.4h-2.3v-1c-0.3,0.4-0.7,0.7-1,0.9s-0.8,0.3-1.3,0.3c-0.9,0-1.6-0.3-2.2-1    c-0.6-0.7-0.9-1.5-0.9-2.6c0-1,0.3-1.9,0.9-2.6c0.6-0.7,1.3-1,2.2-1c0.5,0,0.9,0.1,1.3,0.3S125.8,28.6,126.1,29z M124.6,33.4    c0.5,0,0.9-0.2,1.1-0.5s0.4-0.8,0.4-1.5c0-0.6-0.1-1.1-0.4-1.5s-0.6-0.5-1.1-0.5c-0.5,0-0.9,0.2-1.1,0.5s-0.4,0.8-0.4,1.5    c0,0.6,0.1,1.1,0.4,1.5S124.1,33.4,124.6,33.4z"
   id="path184" />
		<path
   class="st2"
   d="M130.6,25.4h2.3v1.8h-2.3V25.4z M130.6,28h2.3v6.8h-2.3V28z"
   id="path186" />
		<path
   class="st2"
   d="M139.8,25.4v1.4h-1.3c-0.3,0-0.6,0.1-0.7,0.2c-0.1,0.1-0.2,0.3-0.2,0.6V28h2v1.6h-2v5.2h-2.3v-5.2h-1.1V28    h1.1v-0.5c0-0.7,0.2-1.3,0.7-1.6s1.1-0.5,2-0.5H139.8z"
   id="path188" />
		<path
   class="st2"
   d="M145.5,25.4v1.4h-1.3c-0.3,0-0.6,0.1-0.7,0.2c-0.1,0.1-0.2,0.3-0.2,0.6V28h2v1.6h-2v5.2h-2.3v-5.2H140V28h1.1    v-0.5c0-0.7,0.2-1.3,0.7-1.6s1.1-0.5,2-0.5H145.5z"
   id="path190" />
		<path
   class="st2"
   d="M153.7,31.4V32h-5.4c0.1,0.5,0.2,0.9,0.6,1.1c0.3,0.3,0.8,0.4,1.4,0.4c0.5,0,1-0.1,1.5-0.2    c0.5-0.1,1-0.3,1.6-0.6v1.7c-0.5,0.2-1.1,0.3-1.6,0.4s-1.1,0.1-1.6,0.1c-1.3,0-2.3-0.3-3-0.9c-0.7-0.6-1.1-1.5-1.1-2.6    c0-1.1,0.4-2,1.1-2.6s1.7-1,2.9-1c1.1,0,2,0.3,2.7,1C153.4,29.5,153.7,30.3,153.7,31.4z M151.3,30.7c0-0.4-0.1-0.7-0.4-1    c-0.3-0.3-0.6-0.4-1-0.4c-0.4,0-0.8,0.1-1.1,0.4c-0.3,0.2-0.5,0.6-0.5,1H151.3z M151,24.9h1.8l-2.4,2.3h-1.3L151,24.9z"
   id="path192" />
		<path
   class="st2"
   d="M160.8,29.9c-0.2-0.1-0.4-0.2-0.6-0.2c-0.2,0-0.4-0.1-0.6-0.1c-0.6,0-1,0.2-1.4,0.5c-0.3,0.4-0.5,0.9-0.5,1.5    v3.1h-2.3V28h2.3v1.1c0.3-0.4,0.6-0.8,1-1s0.8-0.3,1.4-0.3c0.1,0,0.2,0,0.2,0c0.1,0,0.2,0,0.4,0L160.8,29.9z"
   id="path194" />
		<path
   class="st2"
   d="M169.1,31.4V32h-5.4c0.1,0.5,0.2,0.9,0.6,1.1c0.3,0.3,0.8,0.4,1.4,0.4c0.5,0,1-0.1,1.5-0.2    c0.5-0.1,1-0.3,1.6-0.6v1.7c-0.5,0.2-1.1,0.3-1.6,0.4S166,35,165.5,35c-1.3,0-2.3-0.3-3-0.9c-0.7-0.6-1.1-1.5-1.1-2.6    c0-1.1,0.4-2,1.1-2.6s1.7-1,2.9-1c1.1,0,2,0.3,2.7,1C168.8,29.5,169.1,30.3,169.1,31.4z M166.7,30.7c0-0.4-0.1-0.7-0.4-1    c-0.3-0.3-0.6-0.4-1-0.4c-0.4,0-0.8,0.1-1.1,0.4c-0.3,0.2-0.5,0.6-0.5,1H166.7z"
   id="path196" />
		<path
   class="st2"
   d="M178.1,30.7v4.1h-2.3v-0.7v-2.5c0-0.6,0-1,0-1.2s-0.1-0.4-0.1-0.5c-0.1-0.1-0.2-0.3-0.4-0.3    c-0.2-0.1-0.3-0.1-0.5-0.1c-0.5,0-0.9,0.2-1.1,0.5s-0.4,0.8-0.4,1.5v3.3h-2.3V28h2.3v1c0.3-0.4,0.7-0.7,1.1-0.9    c0.4-0.2,0.8-0.3,1.3-0.3c0.8,0,1.5,0.2,1.9,0.7S178.1,29.8,178.1,30.7z"
   id="path198" />
		<path
   class="st2"
   d="M182.7,26.1V28h2.4v1.6h-2.4v2.9c0,0.3,0.1,0.5,0.2,0.6c0.1,0.1,0.4,0.2,0.8,0.2h1.2v1.6h-2    c-0.9,0-1.5-0.2-1.9-0.5c-0.4-0.4-0.6-1-0.6-1.8v-2.9h-1.1V28h1.1v-1.9H182.7z"
   id="path200" />
		<path
   class="st2"
   d="M192.1,28.2v1.6c-0.5-0.2-1-0.3-1.4-0.4c-0.5-0.1-0.9-0.1-1.3-0.1c-0.4,0-0.8,0.1-1,0.2s-0.3,0.3-0.3,0.5    c0,0.2,0.1,0.3,0.2,0.4c0.2,0.1,0.4,0.2,0.9,0.2l0.4,0.1c1.2,0.1,2,0.4,2.4,0.7c0.4,0.3,0.6,0.8,0.6,1.5c0,0.7-0.3,1.3-0.8,1.6    c-0.6,0.4-1.4,0.5-2.5,0.5c-0.5,0-1,0-1.5-0.1c-0.5-0.1-1-0.2-1.6-0.3v-1.6c0.5,0.2,0.9,0.4,1.4,0.5s1,0.2,1.5,0.2    c0.4,0,0.8-0.1,1-0.2c0.2-0.1,0.3-0.3,0.3-0.5c0-0.2-0.1-0.3-0.2-0.4s-0.5-0.2-0.9-0.2l-0.4,0c-1-0.1-1.7-0.3-2.2-0.7    c-0.4-0.3-0.6-0.8-0.6-1.5c0-0.7,0.3-1.3,0.8-1.6c0.5-0.3,1.3-0.5,2.4-0.5c0.4,0,0.9,0,1.3,0.1S191.6,28.1,192.1,28.2z"
   id="path202" />
	</g>
</g>
<g
   id="Calque_2_00000109021439243902366900000011723367985853225916_">
	<g
   class="st6"
   id="g225">
		<path
   class="st3"
   d="M328,10.9h2.6c1.5,0,2.5,0.1,3.3,0.3c0.7,0.2,1.3,0.5,1.8,1c0.4,0.4,0.8,0.9,1,1.4c0.2,0.5,0.3,1.1,0.3,1.8    c0,0.7-0.1,1.3-0.3,1.8c-0.2,0.5-0.6,1-1,1.4c-0.5,0.5-1.1,0.8-1.8,1c-0.7,0.2-1.8,0.3-3.2,0.3H328V10.9z M330.4,12.6v5.5h0.9    c1,0,1.8-0.2,2.3-0.7c0.5-0.5,0.8-1.2,0.8-2.1c0-0.9-0.3-1.6-0.8-2c-0.5-0.5-1.3-0.7-2.3-0.7H330.4z"
   id="path207" />
		<path
   class="st3"
   d="M338.8,10.5h2.3v1.8h-2.3V10.5z M338.8,13.1h2.3v6.8h-2.3V13.1z"
   id="path209" />
		<path
   class="st3"
   d="M348.9,13.3V15c-0.5-0.2-1-0.3-1.4-0.4s-0.9-0.1-1.3-0.1c-0.4,0-0.8,0.1-1,0.2s-0.3,0.3-0.3,0.5    c0,0.2,0.1,0.3,0.2,0.4c0.2,0.1,0.4,0.2,0.9,0.2l0.4,0.1c1.2,0.1,2,0.4,2.4,0.7s0.6,0.8,0.6,1.5c0,0.7-0.3,1.3-0.8,1.6    c-0.6,0.4-1.4,0.5-2.5,0.5c-0.5,0-1,0-1.5-0.1c-0.5-0.1-1-0.2-1.6-0.3V18c0.5,0.2,0.9,0.4,1.4,0.5s1,0.2,1.5,0.2    c0.4,0,0.8-0.1,1-0.2s0.3-0.3,0.3-0.5c0-0.2-0.1-0.3-0.2-0.4s-0.5-0.2-0.9-0.2l-0.4,0c-1-0.1-1.7-0.3-2.1-0.7    c-0.4-0.3-0.6-0.8-0.6-1.5c0-0.7,0.3-1.3,0.8-1.6c0.5-0.3,1.3-0.5,2.4-0.5c0.4,0,0.9,0,1.3,0.1C347.8,13.1,348.3,13.2,348.9,13.3z    "
   id="path211" />
		<path
   class="st3"
   d="M353.6,11.2v1.9h2.4v1.6h-2.4v2.9c0,0.3,0.1,0.5,0.2,0.6c0.1,0.1,0.4,0.2,0.8,0.2h1.2v1.6h-2    c-0.9,0-1.5-0.2-1.9-0.5c-0.4-0.4-0.6-1-0.6-1.8v-2.9h-1.1v-1.6h1.1v-1.9H353.6z"
   id="path213" />
		<path
   class="st3"
   d="M364.1,16v3.9h-2.3v-1c-0.3,0.4-0.7,0.7-1,0.9c-0.4,0.2-0.9,0.3-1.4,0.3c-0.7,0-1.3-0.2-1.8-0.6    c-0.5-0.4-0.7-0.9-0.7-1.6c0-0.8,0.3-1.4,0.9-1.8c0.6-0.4,1.5-0.6,2.7-0.6h1.4v-0.2c0-0.3-0.1-0.6-0.4-0.8    c-0.3-0.2-0.7-0.2-1.3-0.2c-0.5,0-0.9,0-1.4,0.1c-0.4,0.1-0.8,0.2-1.2,0.4v-1.7c0.5-0.1,1-0.2,1.5-0.3c0.5-0.1,1-0.1,1.5-0.1    c1.3,0,2.2,0.2,2.8,0.7S364.1,15,364.1,16z M360.6,16.9c-0.5,0-0.8,0.1-1.1,0.2c-0.2,0.2-0.4,0.4-0.4,0.7c0,0.3,0.1,0.5,0.3,0.6    s0.5,0.2,0.8,0.2c0.4,0,0.8-0.1,1.1-0.4c0.3-0.3,0.4-0.7,0.4-1.1v-0.2H360.6z"
   id="path215" />
		<path
   class="st3"
   d="M373.5,15.8v4.1h-2.3v-0.7v-2.5c0-0.6,0-1,0-1.2c0-0.2-0.1-0.4-0.1-0.5c-0.1-0.1-0.2-0.3-0.4-0.3    c-0.2-0.1-0.3-0.1-0.5-0.1c-0.5,0-0.9,0.2-1.1,0.5s-0.4,0.8-0.4,1.5v3.3h-2.3v-6.8h2.3v1c0.3-0.4,0.7-0.7,1.1-0.9    c0.4-0.2,0.8-0.3,1.3-0.3c0.8,0,1.5,0.2,1.9,0.7C373.3,14.2,373.5,14.9,373.5,15.8z"
   id="path217" />
		<path
   class="st3"
   d="M381.4,13.3v1.8c-0.3-0.2-0.6-0.4-0.9-0.4c-0.3-0.1-0.6-0.1-1-0.1c-0.6,0-1.1,0.2-1.5,0.5    c-0.4,0.4-0.5,0.8-0.5,1.5c0,0.6,0.2,1.1,0.5,1.5c0.4,0.4,0.9,0.5,1.5,0.5c0.4,0,0.7-0.1,1-0.2c0.3-0.1,0.6-0.3,0.9-0.4v1.8    c-0.4,0.1-0.7,0.2-1.1,0.3c-0.4,0.1-0.7,0.1-1.1,0.1c-1.3,0-2.3-0.3-3-0.9c-0.7-0.6-1.1-1.5-1.1-2.6c0-1.1,0.4-2,1.1-2.6    c0.7-0.6,1.7-0.9,3-0.9c0.4,0,0.7,0,1.1,0.1C380.7,13.1,381.1,13.2,381.4,13.3z"
   id="path219" />
		<path
   class="st3"
   d="M390.6,16.5v0.6h-5.4c0.1,0.5,0.3,0.9,0.6,1.1c0.3,0.3,0.8,0.4,1.4,0.4c0.5,0,1-0.1,1.5-0.2    c0.5-0.1,1-0.3,1.6-0.6v1.7c-0.5,0.2-1.1,0.3-1.6,0.4c-0.5,0.1-1.1,0.1-1.6,0.1c-1.3,0-2.3-0.3-3-0.9c-0.7-0.6-1.1-1.5-1.1-2.6    c0-1.1,0.4-2,1.1-2.6s1.7-1,2.9-1c1.1,0,2,0.3,2.7,1C390.2,14.6,390.6,15.4,390.6,16.5z M388.2,15.8c0-0.4-0.1-0.7-0.4-1    c-0.3-0.3-0.6-0.4-1-0.4c-0.4,0-0.8,0.1-1.1,0.4s-0.5,0.6-0.5,1H388.2z"
   id="path221" />
		<path
   class="st3"
   d="M397.9,13.3V15c-0.5-0.2-1-0.3-1.4-0.4s-0.9-0.1-1.3-0.1c-0.4,0-0.8,0.1-1,0.2s-0.3,0.3-0.3,0.5    c0,0.2,0.1,0.3,0.2,0.4c0.2,0.1,0.4,0.2,0.9,0.2l0.4,0.1c1.2,0.1,2,0.4,2.4,0.7s0.6,0.8,0.6,1.5c0,0.7-0.3,1.3-0.8,1.6    c-0.6,0.4-1.4,0.5-2.5,0.5c-0.5,0-1,0-1.5-0.1c-0.5-0.1-1-0.2-1.6-0.3V18c0.5,0.2,0.9,0.4,1.4,0.5s1,0.2,1.5,0.2    c0.4,0,0.8-0.1,1-0.2s0.3-0.3,0.3-0.5c0-0.2-0.1-0.3-0.2-0.4s-0.5-0.2-0.9-0.2l-0.4,0c-1-0.1-1.7-0.3-2.1-0.7    c-0.4-0.3-0.6-0.8-0.6-1.5c0-0.7,0.3-1.3,0.8-1.6c0.5-0.3,1.3-0.5,2.4-0.5c0.4,0,0.9,0,1.3,0.1C396.9,13.1,397.4,13.2,397.9,13.3z    "
   id="path223" />
	</g>
	<g
   class="st6"
   id="g231">
		<path
   class="st2"
   d="M411.9,16.5v0.6h-5.4c0.1,0.5,0.3,0.9,0.6,1.1c0.3,0.3,0.8,0.4,1.4,0.4c0.5,0,1-0.1,1.5-0.2    c0.5-0.1,1-0.3,1.6-0.6v1.7c-0.5,0.2-1.1,0.3-1.6,0.4c-0.5,0.1-1.1,0.1-1.6,0.1c-1.3,0-2.3-0.3-3-0.9c-0.7-0.6-1.1-1.5-1.1-2.6    c0-1.1,0.4-2,1.1-2.6s1.7-1,2.9-1c1.1,0,2,0.3,2.7,1C411.6,14.6,411.9,15.4,411.9,16.5z M409.6,15.8c0-0.4-0.1-0.7-0.4-1    c-0.3-0.3-0.6-0.4-1-0.4c-0.4,0-0.8,0.1-1.1,0.4s-0.5,0.6-0.5,1H409.6z"
   id="path227" />
		<path
   class="st2"
   d="M416.2,11.2v1.9h2.4v1.6h-2.4v2.9c0,0.3,0.1,0.5,0.2,0.6c0.1,0.1,0.4,0.2,0.8,0.2h1.2v1.6h-2    c-0.9,0-1.5-0.2-1.9-0.5c-0.4-0.4-0.6-1-0.6-1.8v-2.9h-1.1v-1.6h1.1v-1.9H416.2z"
   id="path229" />
	</g>
	<g
   class="st6"
   id="g243">
		<path
   class="st3"
   d="M426.8,18.9v3.6h-2.3v-9.4h2.3v1c0.3-0.4,0.7-0.7,1.1-0.9c0.4-0.2,0.8-0.3,1.3-0.3c0.9,0,1.6,0.3,2.2,1    c0.6,0.7,0.9,1.5,0.9,2.6c0,1-0.3,1.9-0.9,2.6c-0.6,0.7-1.3,1-2.2,1c-0.5,0-0.9-0.1-1.3-0.3C427.5,19.6,427.2,19.3,426.8,18.9z     M428.4,14.5c-0.5,0-0.9,0.2-1.1,0.5c-0.3,0.3-0.4,0.8-0.4,1.5c0,0.6,0.1,1.1,0.4,1.5c0.3,0.3,0.6,0.5,1.1,0.5    c0.5,0,0.9-0.2,1.1-0.5s0.4-0.8,0.4-1.5c0-0.6-0.1-1.1-0.4-1.5S428.9,14.5,428.4,14.5z"
   id="path233" />
		<path
   class="st3"
   d="M437.4,13c1.2,0,2.2,0.3,2.9,0.9s1,1.5,1,2.6c0,1.1-0.3,2-1,2.6s-1.7,0.9-2.9,0.9c-1.2,0-2.2-0.3-2.9-0.9    s-1-1.5-1-2.6c0-1.1,0.4-2,1-2.6S436.1,13,437.4,13z M437.4,14.5c-0.5,0-0.9,0.2-1.2,0.5c-0.3,0.3-0.4,0.8-0.4,1.5    c0,0.7,0.1,1.1,0.4,1.5c0.3,0.3,0.7,0.5,1.2,0.5c0.5,0,0.9-0.2,1.1-0.5c0.3-0.3,0.4-0.8,0.4-1.5c0-0.7-0.1-1.1-0.4-1.5    C438.3,14.7,437.9,14.5,437.4,14.5z"
   id="path235" />
		<path
   class="st3"
   d="M443,10.5h2.3v1.8H443V10.5z M443,13.1h2.3v6.8H443V13.1z"
   id="path237" />
		<path
   class="st3"
   d="M452.4,14.1v-3.6h2.3v9.4h-2.3v-1c-0.3,0.4-0.7,0.7-1,0.9s-0.8,0.3-1.3,0.3c-0.9,0-1.6-0.3-2.2-1    c-0.6-0.7-0.9-1.5-0.9-2.6c0-1,0.3-1.9,0.9-2.6c0.6-0.7,1.3-1,2.2-1c0.5,0,0.9,0.1,1.3,0.3S452.1,13.7,452.4,14.1z M450.9,18.5    c0.5,0,0.9-0.2,1.1-0.5s0.4-0.8,0.4-1.5c0-0.6-0.1-1.1-0.4-1.5s-0.6-0.5-1.1-0.5c-0.5,0-0.9,0.2-1.1,0.5s-0.4,0.8-0.4,1.5    c0,0.6,0.1,1.1,0.4,1.5S450.4,18.5,450.9,18.5z"
   id="path239" />
		<path
   class="st3"
   d="M462.5,13.3V15c-0.5-0.2-1-0.3-1.4-0.4s-0.9-0.1-1.3-0.1c-0.4,0-0.8,0.1-1,0.2s-0.3,0.3-0.3,0.5    c0,0.2,0.1,0.3,0.2,0.4c0.2,0.1,0.4,0.2,0.9,0.2l0.4,0.1c1.2,0.1,2,0.4,2.4,0.7s0.6,0.8,0.6,1.5c0,0.7-0.3,1.3-0.8,1.6    c-0.6,0.4-1.4,0.5-2.5,0.5c-0.5,0-1,0-1.5-0.1c-0.5-0.1-1-0.2-1.6-0.3V18c0.5,0.2,0.9,0.4,1.4,0.5s1,0.2,1.5,0.2    c0.4,0,0.8-0.1,1-0.2s0.3-0.3,0.3-0.5c0-0.2-0.1-0.3-0.2-0.4s-0.5-0.2-0.9-0.2l-0.4,0c-1-0.1-1.7-0.3-2.1-0.7    c-0.4-0.3-0.6-0.8-0.6-1.5c0-0.7,0.3-1.3,0.8-1.6c0.5-0.3,1.3-0.5,2.4-0.5c0.4,0,0.9,0,1.3,0.1C461.5,13.1,462,13.2,462.5,13.3z"
   id="path241" />
	</g>
	<g
   class="st6"
   id="g265">
		<path
   class="st2"
   d="M364.6,29v-3.6h2.3v9.4h-2.3v-1c-0.3,0.4-0.7,0.7-1,0.9s-0.8,0.3-1.3,0.3c-0.9,0-1.6-0.3-2.2-1    c-0.6-0.7-0.9-1.5-0.9-2.6c0-1,0.3-1.9,0.9-2.6c0.6-0.7,1.3-1,2.2-1c0.5,0,0.9,0.1,1.3,0.3S364.3,28.6,364.6,29z M363.1,33.4    c0.5,0,0.9-0.2,1.1-0.5s0.4-0.8,0.4-1.5c0-0.6-0.1-1.1-0.4-1.5s-0.6-0.5-1.1-0.5c-0.5,0-0.9,0.2-1.1,0.5s-0.4,0.8-0.4,1.5    c0,0.6,0.1,1.1,0.4,1.5S362.6,33.4,363.1,33.4z"
   id="path245" />
		<path
   class="st2"
   d="M369.1,25.4h2.3v1.8h-2.3V25.4z M369.1,28h2.3v6.8h-2.3V28z"
   id="path247" />
		<path
   class="st2"
   d="M378.4,25.4v1.4h-1.3c-0.3,0-0.6,0.1-0.7,0.2c-0.1,0.1-0.2,0.3-0.2,0.6V28h2v1.6h-2v5.2h-2.3v-5.2h-1.1V28    h1.1v-0.5c0-0.7,0.2-1.3,0.7-1.6s1.1-0.5,2-0.5H378.4z"
   id="path249" />
		<path
   class="st2"
   d="M384.1,25.4v1.4h-1.3c-0.3,0-0.6,0.1-0.7,0.2c-0.1,0.1-0.2,0.3-0.2,0.6V28h2v1.6h-2v5.2h-2.3v-5.2h-1.1V28    h1.1v-0.5c0-0.7,0.2-1.3,0.7-1.6s1.1-0.5,2-0.5H384.1z"
   id="path251" />
		<path
   class="st2"
   d="M392.3,31.4V32h-5.4c0.1,0.5,0.3,0.9,0.6,1.1c0.3,0.3,0.8,0.4,1.4,0.4c0.5,0,1-0.1,1.5-0.2    c0.5-0.1,1-0.3,1.6-0.6v1.7c-0.5,0.2-1.1,0.3-1.6,0.4c-0.5,0.1-1.1,0.1-1.6,0.1c-1.3,0-2.3-0.3-3-0.9c-0.7-0.6-1.1-1.5-1.1-2.6    c0-1.1,0.4-2,1.1-2.6s1.7-1,2.9-1c1.1,0,2,0.3,2.7,1C391.9,29.5,392.3,30.3,392.3,31.4z M389.9,30.7c0-0.4-0.1-0.7-0.4-1    c-0.3-0.3-0.6-0.4-1-0.4c-0.4,0-0.8,0.1-1.1,0.4s-0.5,0.6-0.5,1H389.9z M389.5,24.9h1.8l-2.4,2.3h-1.3L389.5,24.9z"
   id="path253" />
		<path
   class="st2"
   d="M399.3,29.9c-0.2-0.1-0.4-0.2-0.6-0.2c-0.2,0-0.4-0.1-0.6-0.1c-0.6,0-1,0.2-1.4,0.5c-0.3,0.4-0.5,0.9-0.5,1.5    v3.1H394V28h2.3v1.1c0.3-0.4,0.6-0.8,1-1s0.8-0.3,1.4-0.3c0.1,0,0.2,0,0.2,0c0.1,0,0.2,0,0.4,0L399.3,29.9z"
   id="path255" />
		<path
   class="st2"
   d="M407.7,31.4V32h-5.4c0.1,0.5,0.3,0.9,0.6,1.1c0.3,0.3,0.8,0.4,1.4,0.4c0.5,0,1-0.1,1.5-0.2    c0.5-0.1,1-0.3,1.6-0.6v1.7c-0.5,0.2-1.1,0.3-1.6,0.4c-0.5,0.1-1.1,0.1-1.6,0.1c-1.3,0-2.3-0.3-3-0.9c-0.7-0.6-1.1-1.5-1.1-2.6    c0-1.1,0.4-2,1.1-2.6s1.7-1,2.9-1c1.1,0,2,0.3,2.7,1C407.3,29.5,407.7,30.3,407.7,31.4z M405.3,30.7c0-0.4-0.1-0.7-0.4-1    c-0.3-0.3-0.6-0.4-1-0.4c-0.4,0-0.8,0.1-1.1,0.4s-0.5,0.6-0.5,1H405.3z"
   id="path257" />
		<path
   class="st2"
   d="M416.6,30.7v4.1h-2.3v-0.7v-2.5c0-0.6,0-1,0-1.2c0-0.2-0.1-0.4-0.1-0.5c-0.1-0.1-0.2-0.3-0.4-0.3    c-0.2-0.1-0.3-0.1-0.5-0.1c-0.5,0-0.9,0.2-1.1,0.5s-0.4,0.8-0.4,1.5v3.3h-2.3V28h2.3v1c0.3-0.4,0.7-0.7,1.1-0.9    c0.4-0.2,0.8-0.3,1.3-0.3c0.8,0,1.5,0.2,1.9,0.7C416.4,29.1,416.6,29.8,416.6,30.7z"
   id="path259" />
		<path
   class="st2"
   d="M421.3,26.1V28h2.4v1.6h-2.4v2.9c0,0.3,0.1,0.5,0.2,0.6c0.1,0.1,0.4,0.2,0.8,0.2h1.2v1.6h-2    c-0.9,0-1.5-0.2-1.9-0.5c-0.4-0.4-0.6-1-0.6-1.8v-2.9h-1.1V28h1.1v-1.9H421.3z"
   id="path261" />
		<path
   class="st2"
   d="M430.7,28.2v1.6c-0.5-0.2-1-0.3-1.4-0.4s-0.9-0.1-1.3-0.1c-0.4,0-0.8,0.1-1,0.2s-0.3,0.3-0.3,0.5    c0,0.2,0.1,0.3,0.2,0.4c0.2,0.1,0.4,0.2,0.9,0.2l0.4,0.1c1.2,0.1,2,0.4,2.4,0.7s0.6,0.8,0.6,1.5c0,0.7-0.3,1.3-0.8,1.6    c-0.6,0.4-1.4,0.5-2.5,0.5c-0.5,0-1,0-1.5-0.1c-0.5-0.1-1-0.2-1.6-0.3v-1.6c0.5,0.2,0.9,0.4,1.4,0.5s1,0.2,1.5,0.2    c0.4,0,0.8-0.1,1-0.2s0.3-0.3,0.3-0.5c0-0.2-0.1-0.3-0.2-0.4s-0.5-0.2-0.9-0.2l-0.4,0c-1-0.1-1.7-0.3-2.1-0.7    c-0.4-0.3-0.6-0.8-0.6-1.5c0-0.7,0.3-1.3,0.8-1.6c0.5-0.3,1.3-0.5,2.4-0.5c0.4,0,0.9,0,1.3,0.1C429.6,28,430.1,28.1,430.7,28.2z"
   id="path263" />
	</g>
	<g
   class="st6"
   id="g269">
		<path
   class="st7"
   d="M279.4,25h10v4.3h-16.4V25l8.3-7.3c0.7-0.7,1.3-1.3,1.6-2c0.4-0.6,0.5-1.3,0.5-2c0-1.1-0.4-1.9-1.1-2.6    s-1.7-1-2.8-1c-0.9,0-1.9,0.2-3,0.6s-2.2,1-3.5,1.7v-5c1.3-0.4,2.6-0.8,3.9-1c1.3-0.2,2.5-0.3,3.8-0.3c2.7,0,4.8,0.6,6.3,1.8    c1.5,1.2,2.2,2.9,2.2,5c0,1.2-0.3,2.4-1,3.4c-0.6,1.1-2,2.5-4,4.3L279.4,25z"
   id="path267" />
	</g>
	<g
   id="g283">
		<g
   id="g275">
			<path
   class="st1"
   d="M407.7,77.8c0,5.8-4.7,10.5-10.5,10.5s-10.5-4.7-10.5-10.5s4.7-10.5,10.5-10.5S407.7,72,407.7,77.8"
   id="path271" />
			<path
   class="st3"
   d="M397.2,88.8c-6.1,0-11-4.9-11-11s4.9-11,11-11s11,4.9,11,11S403.3,88.8,397.2,88.8z M397.2,67.8     c-5.5,0-10,4.5-10,10s4.5,10,10,10s10-4.5,10-10S402.7,67.8,397.2,67.8z"
   id="path273" />
		</g>
		<g
   id="g281">
			<path
   class="st4"
   d="M404.7,71.8c-0.8,2.8-2.8,4.6-5.8,5.2c-1.2,1.2-2.4,1.8-3.9,3.2c-0.8,0.8-2.4,3.7-3.7,3.5     c-2.6-0.4-1.3-7.5-0.4-8.7c1.3-1.7,3.7-1.9,7.1-2.2C400.5,72.7,402.2,71.9,404.7,71.8z"
   id="path277" />
			<path
   class="st3"
   d="M391.4,84c-0.1,0-0.1,0-0.2,0c-0.6-0.1-1.1-0.5-1.4-1.2c-0.9-2.3,0.1-6.9,0.8-7.9c1.4-1.8,3.8-2,7.2-2.3     l0.1,0c1.2,0,2.3-0.3,3.3-0.5c1-0.2,2.1-0.5,3.4-0.5l0.3,0l-0.1,0.3c-0.8,2.9-2.9,4.7-5.9,5.4c-0.6,0.6-1.2,1-1.8,1.5     c-0.6,0.5-1.3,1-2,1.6c-0.2,0.2-0.5,0.6-0.8,1C393.5,82.5,392.5,84,391.4,84z M404.4,72.1c-1.1,0.1-2,0.3-3,0.5     c-1,0.2-2.1,0.5-3.4,0.5l-0.1,0c-3.3,0.3-5.6,0.5-6.9,2.1c-0.6,0.9-1.6,5.3-0.8,7.4c0.2,0.6,0.6,0.9,1,0.9     c0.8,0.1,1.9-1.4,2.6-2.4c0.3-0.4,0.6-0.8,0.8-1.1c0.8-0.7,1.4-1.2,2.1-1.7c0.6-0.5,1.2-0.9,1.8-1.5l0.1-0.1l0.1,0     C401.6,76.2,403.5,74.6,404.4,72.1z"
   id="path279" />
		</g>
	</g>
	<g
   id="g291">
		<g
   id="g289">
			<path
   class="st1"
   d="M331.8,77.8c0,14-11.3,25.3-25.3,25.3s-25.3-11.3-25.3-25.3s11.3-25.3,25.3-25.3     C320.5,52.5,331.8,63.8,331.8,77.8"
   id="path285" />
			<path
   class="st2"
   d="M306.5,103.6c-14.2,0-25.8-11.6-25.8-25.8c0-14.2,11.6-25.8,25.8-25.8s25.8,11.6,25.8,25.8     C332.3,92,320.7,103.6,306.5,103.6z M306.5,53c-13.7,0-24.8,11.1-24.8,24.8s11.1,24.8,24.8,24.8s24.8-11.1,24.8-24.8     S320.2,53,306.5,53z"
   id="path287" />
		</g>
	</g>
	<g
   class="st6"
   id="g303">
		<path
   class="st3"
   d="M296.9,74.7v2.1h-1.2v-5.4h1.2v0.6c0.2-0.2,0.4-0.4,0.6-0.5c0.2-0.1,0.5-0.2,0.7-0.2c0.5,0,0.9,0.2,1.2,0.6    s0.5,0.9,0.5,1.5s-0.2,1.1-0.5,1.5s-0.7,0.6-1.2,0.6c-0.3,0-0.5-0.1-0.7-0.2C297.3,75.1,297.1,74.9,296.9,74.7z M297.8,72.1    c-0.3,0-0.5,0.1-0.6,0.3c-0.1,0.2-0.2,0.5-0.2,0.9s0.1,0.7,0.2,0.8c0.1,0.2,0.3,0.3,0.6,0.3s0.5-0.1,0.6-0.3s0.2-0.5,0.2-0.9    s-0.1-0.7-0.2-0.9C298.3,72.2,298,72.1,297.8,72.1z"
   id="path293" />
		<path
   class="st3"
   d="M302.9,76.2h-1c-0.4-0.6-0.6-1.1-0.8-1.6s-0.3-1-0.3-1.5s0.1-1,0.3-1.5c0.2-0.5,0.4-1.1,0.8-1.6h1    c-0.3,0.6-0.5,1.1-0.7,1.6c-0.1,0.5-0.2,1-0.2,1.6c0,0.5,0.1,1,0.2,1.6C302.4,75.1,302.6,75.6,302.9,76.2z"
   id="path295" />
		<path
   class="st3"
   d="M304.1,70h1.4c0.8,0,1.4,0.1,1.8,0.2c0.4,0.1,0.7,0.3,1,0.6c0.2,0.2,0.4,0.5,0.5,0.8c0.1,0.3,0.2,0.7,0.2,1    c0,0.4-0.1,0.7-0.2,1.1c-0.1,0.3-0.3,0.6-0.5,0.8c-0.3,0.3-0.6,0.5-1,0.6c-0.4,0.1-1,0.2-1.8,0.2h-1.4V70z M305.5,71v3.2h0.5    c0.5,0,1-0.1,1.3-0.4c0.3-0.3,0.4-0.7,0.4-1.2c0-0.5-0.1-0.9-0.4-1.2c-0.3-0.3-0.7-0.4-1.3-0.4H305.5z"
   id="path297" />
		<path
   class="st3"
   d="M314.2,74.9c-0.2,0.1-0.5,0.2-0.8,0.3c-0.3,0.1-0.5,0.1-0.8,0.1c-0.9,0-1.6-0.2-2.1-0.7    c-0.5-0.5-0.8-1.1-0.8-2c0-0.8,0.3-1.5,0.8-2c0.5-0.5,1.2-0.7,2.1-0.7c0.3,0,0.6,0,0.8,0.1c0.3,0.1,0.5,0.2,0.8,0.3v1.1    c-0.2-0.2-0.5-0.3-0.7-0.4c-0.2-0.1-0.5-0.1-0.8-0.1c-0.5,0-0.9,0.2-1.1,0.5c-0.3,0.3-0.4,0.7-0.4,1.3c0,0.5,0.1,1,0.4,1.3    c0.3,0.3,0.7,0.5,1.1,0.5c0.3,0,0.5,0,0.8-0.1c0.2-0.1,0.5-0.2,0.7-0.4V74.9z"
   id="path299" />
		<path
   class="st3"
   d="M315.2,76.2c0.3-0.6,0.5-1.1,0.7-1.6c0.1-0.5,0.2-1,0.2-1.6c0-0.5-0.1-1-0.2-1.6c-0.1-0.5-0.4-1.1-0.7-1.6h1    c0.4,0.6,0.6,1.1,0.8,1.6s0.3,1,0.3,1.5s-0.1,1-0.3,1.5s-0.4,1.1-0.8,1.6H315.2z"
   id="path301" />
	</g>
	<g
   class="st6"
   id="g317">
		<path
   class="st3"
   d="M295.5,80.4l-3.4,1.2l3.4,1.2v0.9l-4.5-1.6v-0.8l4.5-1.6V80.4z"
   id="path305" />
		<path
   class="st3"
   d="M298.3,82.8h2.3v1h-3.8v-1l1.9-1.7c0.2-0.2,0.3-0.3,0.4-0.5c0.1-0.1,0.1-0.3,0.1-0.5c0-0.2-0.1-0.4-0.2-0.6    c-0.2-0.1-0.4-0.2-0.7-0.2c-0.2,0-0.4,0-0.7,0.1c-0.2,0.1-0.5,0.2-0.8,0.4v-1.1c0.3-0.1,0.6-0.2,0.9-0.2c0.3-0.1,0.6-0.1,0.9-0.1    c0.6,0,1.1,0.1,1.5,0.4c0.3,0.3,0.5,0.7,0.5,1.1c0,0.3-0.1,0.5-0.2,0.8c-0.1,0.2-0.5,0.6-0.9,1L298.3,82.8z"
   id="path307" />
		<path
   class="st3"
   d="M308,80.6c0.2-0.2,0.3-0.4,0.6-0.6c0.2-0.1,0.5-0.2,0.7-0.2c0.4,0,0.8,0.1,1,0.4c0.2,0.3,0.4,0.7,0.4,1.2v2.4    h-1.3v-2c0,0,0-0.1,0-0.1c0,0,0-0.1,0-0.1c0-0.3,0-0.5-0.1-0.6c-0.1-0.1-0.2-0.2-0.4-0.2c-0.2,0-0.4,0.1-0.5,0.3s-0.2,0.5-0.2,0.8    v1.9h-1.3v-2c0-0.4,0-0.7-0.1-0.8c-0.1-0.1-0.2-0.2-0.4-0.2c-0.2,0-0.4,0.1-0.6,0.3c-0.1,0.2-0.2,0.5-0.2,0.8v1.9h-1.3v-3.9h1.3    v0.6c0.2-0.2,0.3-0.4,0.5-0.5c0.2-0.1,0.4-0.2,0.7-0.2c0.3,0,0.5,0.1,0.7,0.2C307.7,80.1,307.9,80.3,308,80.6z"
   id="path309" />
		<path
   class="st3"
   d="M313.7,79.8c0.7,0,1.2,0.2,1.6,0.5c0.4,0.4,0.6,0.9,0.6,1.5s-0.2,1.1-0.6,1.5c-0.4,0.4-0.9,0.5-1.6,0.5    c-0.7,0-1.2-0.2-1.6-0.5c-0.4-0.4-0.6-0.9-0.6-1.5s0.2-1.1,0.6-1.5C312.5,80,313,79.8,313.7,79.8z M313.7,80.7    c-0.3,0-0.5,0.1-0.6,0.3c-0.1,0.2-0.2,0.5-0.2,0.9c0,0.4,0.1,0.7,0.2,0.9c0.1,0.2,0.4,0.3,0.6,0.3c0.3,0,0.5-0.1,0.6-0.3    s0.2-0.5,0.2-0.9c0-0.4-0.1-0.7-0.2-0.9C314.1,80.8,313.9,80.7,313.7,80.7z"
   id="path311" />
		<path
   class="st3"
   d="M316.7,78.4h1.2v1h-1.2V78.4z M316.7,79.9h1.2v3.9h-1.2V79.9z"
   id="path313" />
		<path
   class="st3"
   d="M322.2,80V81c-0.3-0.1-0.5-0.2-0.8-0.3c-0.2-0.1-0.5-0.1-0.7-0.1c-0.2,0-0.4,0-0.5,0.1S320,80.9,320,81    c0,0.1,0,0.2,0.1,0.2c0.1,0.1,0.2,0.1,0.5,0.1l0.2,0c0.6,0.1,1.1,0.2,1.3,0.4c0.2,0.2,0.3,0.5,0.3,0.9c0,0.4-0.2,0.7-0.5,0.9    c-0.3,0.2-0.8,0.3-1.4,0.3c-0.3,0-0.5,0-0.8-0.1c-0.3,0-0.6-0.1-0.8-0.2v-0.9c0.2,0.1,0.5,0.2,0.8,0.3c0.3,0.1,0.5,0.1,0.8,0.1    c0.2,0,0.4,0,0.6-0.1s0.2-0.2,0.2-0.3c0-0.1,0-0.2-0.1-0.2s-0.3-0.1-0.5-0.1l-0.2,0c-0.6-0.1-0.9-0.2-1.2-0.4    c-0.2-0.2-0.3-0.5-0.3-0.9c0-0.4,0.1-0.7,0.4-0.9s0.7-0.3,1.3-0.3c0.2,0,0.5,0,0.7,0.1C321.6,79.9,321.9,80,322.2,80z"
   id="path315" />
	</g>
	<g
   id="g335">
		<g
   id="g321">
			<line
   class="st5"
   x1="383.8"
   y1="77.8"
   x2="342.7"
   y2="77.8"
   id="line319" />
		</g>
		<g
   id="g333">
			<g
   id="g325">
				<path
   class="st3"
   d="M383.8,79.6h-41.1c-1,0-1.8-0.8-1.8-1.8s0.8-1.8,1.8-1.8h41.1c1,0,1.8,0.8,1.8,1.8S384.8,79.6,383.8,79.6z"
   id="path323" />
			</g>
			<g
   id="g331">
				<g
   id="g329">
					<polygon
   class="st3"
   points="344.2,72.6 335.1,77.8 344.2,83.1      "
   id="polygon327" />
				</g>
			</g>
		</g>
	</g>
	<g
   id="g343">
		<g
   id="g341">
			<path
   class="st1"
   d="M482.8,77.9c0,8.8-7.2,16-16,16s-16-7.1-16-16c0-8.8,7.2-16,16-16C475.6,61.9,482.8,69,482.8,77.9"
   id="path337" />
			<path
   class="st2"
   d="M466.8,94.4c-9.1,0-16.5-7.4-16.5-16.5s7.4-16.5,16.5-16.5s16.5,7.4,16.5,16.5S475.9,94.4,466.8,94.4z      M466.8,62.4c-8.5,0-15.5,7-15.5,15.5s7,15.5,15.5,15.5s15.5-7,15.5-15.5S475.3,62.4,466.8,62.4z"
   id="path339" />
		</g>
	</g>
	<g
   class="st6"
   id="g355">
		<path
   class="st3"
   d="M458,75v1.9h-1.2v-5h1.2v0.5c0.2-0.2,0.3-0.4,0.5-0.5s0.4-0.1,0.7-0.1c0.4,0,0.8,0.2,1.1,0.5    c0.3,0.4,0.4,0.8,0.4,1.4s-0.1,1-0.4,1.4c-0.3,0.4-0.7,0.5-1.1,0.5c-0.3,0-0.5,0-0.7-0.2C458.3,75.3,458.1,75.2,458,75z     M458.7,72.6c-0.2,0-0.4,0.1-0.6,0.3c-0.1,0.2-0.2,0.4-0.2,0.8c0,0.3,0.1,0.6,0.2,0.8s0.3,0.3,0.6,0.3s0.4-0.1,0.6-0.3    c0.1-0.2,0.2-0.4,0.2-0.8s-0.1-0.6-0.2-0.8C459.2,72.7,459,72.6,458.7,72.6z"
   id="path345" />
		<path
   class="st3"
   d="M463.5,76.4h-1c-0.3-0.5-0.6-1-0.7-1.5c-0.2-0.5-0.2-1-0.2-1.4c0-0.5,0.1-0.9,0.2-1.4c0.2-0.5,0.4-1,0.7-1.5    h1c-0.3,0.5-0.5,1-0.6,1.5c-0.1,0.5-0.2,1-0.2,1.4s0.1,1,0.2,1.4C463,75.4,463.2,75.9,463.5,76.4z"
   id="path347" />
		<path
   class="st3"
   d="M464.6,70.7h1.3c0.7,0,1.3,0.1,1.6,0.2c0.4,0.1,0.7,0.3,0.9,0.5c0.2,0.2,0.4,0.5,0.5,0.8s0.2,0.6,0.2,1    c0,0.4-0.1,0.7-0.2,1s-0.3,0.5-0.5,0.8c-0.3,0.2-0.6,0.4-0.9,0.5c-0.4,0.1-0.9,0.2-1.6,0.2h-1.3V70.7z M465.9,71.6v2.9h0.4    c0.5,0,0.9-0.1,1.2-0.4c0.3-0.3,0.4-0.6,0.4-1.1c0-0.5-0.1-0.8-0.4-1.1c-0.3-0.2-0.7-0.4-1.2-0.4H465.9z"
   id="path349" />
		<path
   class="st3"
   d="M473.9,75.2c-0.2,0.1-0.5,0.2-0.7,0.3c-0.2,0.1-0.5,0.1-0.8,0.1c-0.8,0-1.4-0.2-1.9-0.7s-0.7-1.1-0.7-1.8    c0-0.8,0.2-1.4,0.7-1.8c0.5-0.4,1.1-0.7,1.9-0.7c0.3,0,0.5,0,0.8,0.1c0.2,0.1,0.5,0.1,0.7,0.3v1c-0.2-0.2-0.5-0.3-0.7-0.3    c-0.2-0.1-0.5-0.1-0.7-0.1c-0.4,0-0.8,0.1-1,0.4c-0.3,0.3-0.4,0.7-0.4,1.2c0,0.5,0.1,0.9,0.4,1.2c0.3,0.3,0.6,0.4,1,0.4    c0.2,0,0.5,0,0.7-0.1c0.2-0.1,0.4-0.2,0.7-0.3V75.2z"
   id="path351" />
		<path
   class="st3"
   d="M474.8,76.4c0.3-0.5,0.5-1,0.6-1.5c0.1-0.5,0.2-1,0.2-1.4s-0.1-1-0.2-1.4c-0.1-0.5-0.3-1-0.6-1.5h1    c0.3,0.5,0.6,1,0.7,1.5c0.2,0.5,0.2,1,0.2,1.4c0,0.5-0.1,0.9-0.2,1.4c-0.2,0.5-0.4,1-0.7,1.5H474.8z"
   id="path353" />
	</g>
	<g
   class="st6"
   id="g369">
		<path
   class="st3"
   d="M456.6,80.3l-3.1,1.1l3.1,1.1v0.8l-4.1-1.5v-0.8l4.1-1.5V80.3z"
   id="path357" />
		<path
   class="st3"
   d="M459.5,78.6h1.4v3h0.7v0.9h-0.7v0.9h-1.2v-0.9h-2.1v-1.1L459.5,78.6z M459.7,79.6l-1.4,2h1.4V79.6z"
   id="path359" />
		<path
   class="st3"
   d="M468.1,80.4c0.1-0.2,0.3-0.4,0.5-0.5c0.2-0.1,0.4-0.2,0.7-0.2c0.4,0,0.7,0.1,0.9,0.4s0.3,0.6,0.3,1.1v2.2    h-1.2v-1.9c0,0,0-0.1,0-0.1c0,0,0-0.1,0-0.1c0-0.3,0-0.4-0.1-0.6c-0.1-0.1-0.2-0.2-0.4-0.2c-0.2,0-0.4,0.1-0.5,0.3    c-0.1,0.2-0.2,0.4-0.2,0.8v1.8h-1.2v-1.9c0-0.4,0-0.7-0.1-0.8c-0.1-0.1-0.2-0.2-0.4-0.2c-0.2,0-0.4,0.1-0.5,0.3    c-0.1,0.2-0.2,0.4-0.2,0.8v1.8h-1.2v-3.6h1.2v0.5c0.1-0.2,0.3-0.4,0.5-0.5c0.2-0.1,0.4-0.2,0.6-0.2c0.2,0,0.5,0.1,0.7,0.2    C467.8,80,468,80.2,468.1,80.4z"
   id="path361" />
		<path
   class="st3"
   d="M473.3,79.7c0.6,0,1.1,0.2,1.5,0.5s0.5,0.8,0.5,1.4c0,0.6-0.2,1.1-0.5,1.4s-0.8,0.5-1.5,0.5    c-0.6,0-1.1-0.2-1.5-0.5c-0.4-0.3-0.5-0.8-0.5-1.4c0-0.6,0.2-1.1,0.5-1.4C472.2,79.9,472.7,79.7,473.3,79.7z M473.3,80.5    c-0.3,0-0.5,0.1-0.6,0.3c-0.1,0.2-0.2,0.4-0.2,0.8s0.1,0.6,0.2,0.8s0.3,0.3,0.6,0.3c0.3,0,0.4-0.1,0.6-0.3    c0.1-0.2,0.2-0.4,0.2-0.8s-0.1-0.6-0.2-0.8C473.8,80.6,473.6,80.5,473.3,80.5z"
   id="path363" />
		<path
   class="st3"
   d="M476.1,78.4h1.2v0.9h-1.2V78.4z M476.1,79.8h1.2v3.6h-1.2V79.8z"
   id="path365" />
		<path
   class="st3"
   d="M481.2,79.9v0.9c-0.2-0.1-0.5-0.2-0.7-0.2c-0.2-0.1-0.4-0.1-0.7-0.1c-0.2,0-0.4,0-0.5,0.1    c-0.1,0.1-0.2,0.1-0.2,0.3c0,0.1,0,0.2,0.1,0.2c0.1,0,0.2,0.1,0.4,0.1l0.2,0c0.6,0.1,1,0.2,1.2,0.4c0.2,0.2,0.3,0.4,0.3,0.8    c0,0.4-0.1,0.7-0.4,0.9s-0.7,0.3-1.3,0.3c-0.2,0-0.5,0-0.7-0.1c-0.3,0-0.5-0.1-0.8-0.2v-0.9c0.2,0.1,0.5,0.2,0.7,0.3    c0.2,0.1,0.5,0.1,0.7,0.1c0.2,0,0.4,0,0.5-0.1c0.1-0.1,0.2-0.2,0.2-0.3c0-0.1,0-0.2-0.1-0.2c-0.1,0-0.2-0.1-0.5-0.1l-0.2,0    c-0.5-0.1-0.9-0.2-1.1-0.4c-0.2-0.2-0.3-0.4-0.3-0.8c0-0.4,0.1-0.7,0.4-0.8s0.7-0.3,1.2-0.3c0.2,0,0.4,0,0.7,0    C480.7,79.8,480.9,79.8,481.2,79.9z"
   id="path367" />
	</g>
	<g
   id="g387">
		<g
   id="g373">
			<line
   class="st5"
   x1="410.9"
   y1="77.9"
   x2="448.4"
   y2="77.9"
   id="line371" />
		</g>
		<g
   id="g385">
			<g
   id="g377">
				<path
   class="st3"
   d="M444.1,78.9h-33.2c-0.6,0-1-0.4-1-1s0.4-1,1-1h33.2c0.6,0,1,0.4,1,1S444.7,78.9,444.1,78.9z"
   id="path375" />
			</g>
			<g
   id="g383">
				<g
   id="g381">
					<polygon
   class="st3"
   points="443.3,80.8 448.4,77.8 443.3,74.9      "
   id="polygon379" />
				</g>
			</g>
		</g>
	</g>
</g>
<g
   id="Calque_3">
	<g
   id="g402">
		<g
   id="g394">
			<path
   class="st1"
   d="M275,229.5c0,5.8-4.7,10.5-10.5,10.5s-10.5-4.7-10.5-10.5s4.7-10.5,10.5-10.5S275,223.7,275,229.5"
   id="path390" />
			<path
   class="st3"
   d="M264.5,240.5c-6.1,0-11-4.9-11-11s4.9-11,11-11s11,4.9,11,11S270.6,240.5,264.5,240.5z M264.5,219.5     c-5.5,0-10,4.5-10,10s4.5,10,10,10c5.5,0,10-4.5,10-10S270,219.5,264.5,219.5z"
   id="path392" />
		</g>
		<g
   id="g400">
			<path
   class="st4"
   d="M272,223.5c-0.8,2.8-2.8,4.6-5.8,5.2c-1.2,1.2-2.4,1.8-3.9,3.2c-0.8,0.8-2.4,3.7-3.7,3.5     c-2.6-0.4-1.3-7.5-0.4-8.7c1.3-1.7,3.7-1.9,7.1-2.2C267.8,224.5,269.4,223.6,272,223.5z"
   id="path396" />
			<path
   class="st3"
   d="M258.7,235.7c-0.1,0-0.1,0-0.2,0c-0.6-0.1-1.1-0.5-1.4-1.2c-0.9-2.3,0.1-6.9,0.8-7.9c1.4-1.8,3.8-2,7.2-2.3     l0.1,0c1.3,0,2.3-0.2,3.4-0.5c1-0.2,2-0.5,3.3-0.5l0.3,0l-0.1,0.3c-0.8,2.9-2.9,4.7-5.9,5.4c-0.6,0.6-1.2,1-1.9,1.5     c-0.6,0.5-1.3,1-2,1.6c-0.2,0.2-0.5,0.6-0.8,1C260.8,234.2,259.8,235.7,258.7,235.7z M271.7,223.8c-1.1,0.1-2,0.3-2.9,0.5     c-1.1,0.2-2.2,0.5-3.5,0.5l-0.1,0c-3.3,0.3-5.6,0.5-6.9,2.1c-0.6,0.9-1.6,5.3-0.8,7.4c0.2,0.6,0.6,0.9,1,0.9     c0.8,0.1,1.9-1.4,2.6-2.4c0.3-0.4,0.6-0.8,0.8-1.1c0.8-0.7,1.4-1.2,2.1-1.7c0.6-0.5,1.2-0.9,1.8-1.5l0.1-0.1l0.1,0     C268.9,227.9,270.8,226.3,271.7,223.8z"
   id="path398" />
		</g>
	</g>
	<g
   id="g410">
		<g
   id="g408">
			<path
   class="st1"
   d="M333.9,229.5c0,8.8-7.2,16-16,16s-16-7.1-16-16c0-8.8,7.1-16,16-16S333.9,220.7,333.9,229.5"
   id="path404" />
			<path
   class="st2"
   d="M317.9,246c-9.1,0-16.5-7.4-16.5-16.5s7.4-16.5,16.5-16.5s16.5,7.4,16.5,16.5S327,246,317.9,246z M317.9,214     c-8.5,0-15.5,7-15.5,15.5s7,15.5,15.5,15.5s15.5-7,15.5-15.5S326.4,214,317.9,214z"
   id="path406" />
		</g>
	</g>
	<g
   id="g418">
		<g
   id="g416">
			<path
   class="st1"
   d="M199.1,229.5c0,14-11.3,25.3-25.3,25.3s-25.3-11.3-25.3-25.3s11.3-25.3,25.3-25.3     C187.7,204.2,199.1,215.5,199.1,229.5"
   id="path412" />
			<path
   class="st2"
   d="M173.8,255.3c-14.2,0-25.8-11.6-25.8-25.8c0-14.2,11.6-25.8,25.8-25.8c14.2,0,25.8,11.6,25.8,25.8     C199.6,243.7,188,255.3,173.8,255.3z M173.8,204.7c-13.7,0-24.8,11.1-24.8,24.8s11.1,24.8,24.8,24.8s24.8-11.1,24.8-24.8     S187.5,204.7,173.8,204.7z"
   id="path414" />
		</g>
	</g>
	<g
   id="g436">
		<g
   id="g422">
			<line
   class="st5"
   x1="279.2"
   y1="229.5"
   x2="298.6"
   y2="229.5"
   id="line420" />
		</g>
		<g
   id="g434">
			<g
   id="g426">
				<path
   class="st3"
   d="M285.7,232.5h-6.5c-1.7,0-3-1.3-3-3s1.3-3,3-3h6.5c1.7,0,3,1.3,3,3S287.4,232.5,285.7,232.5z"
   id="path424" />
			</g>
			<g
   id="g432">
				<g
   id="g430">
					<polygon
   class="st3"
   points="283,238.4 298.6,229.4 283,220.5      "
   id="polygon428" />
				</g>
			</g>
		</g>
	</g>
	<g
   class="st6"
   id="g448">
		<path
   class="st3"
   d="M164.2,226.4v2.1H163V223h1.2v0.6c0.2-0.2,0.4-0.4,0.6-0.5s0.5-0.2,0.7-0.2c0.5,0,0.9,0.2,1.2,0.6    s0.5,0.9,0.5,1.5s-0.2,1.1-0.5,1.5s-0.7,0.6-1.2,0.6c-0.3,0-0.5-0.1-0.7-0.2C164.6,226.8,164.4,226.6,164.2,226.4z M165,223.8    c-0.3,0-0.5,0.1-0.6,0.3c-0.1,0.2-0.2,0.5-0.2,0.9s0.1,0.7,0.2,0.8c0.1,0.2,0.3,0.3,0.6,0.3s0.5-0.1,0.6-0.3    c0.1-0.2,0.2-0.5,0.2-0.9s-0.1-0.7-0.2-0.9C165.5,223.9,165.3,223.8,165,223.8z"
   id="path438" />
		<path
   class="st3"
   d="M170.2,227.9h-1c-0.4-0.6-0.6-1.1-0.8-1.6s-0.3-1-0.3-1.5s0.1-1,0.3-1.5c0.2-0.5,0.4-1.1,0.8-1.6h1    c-0.3,0.6-0.5,1.1-0.7,1.6s-0.2,1-0.2,1.6c0,0.5,0.1,1,0.2,1.6S169.9,227.3,170.2,227.9z"
   id="path440" />
		<path
   class="st3"
   d="M171.4,221.7h1.4c0.8,0,1.4,0.1,1.8,0.2c0.4,0.1,0.7,0.3,1,0.6c0.2,0.2,0.4,0.5,0.5,0.8    c0.1,0.3,0.2,0.7,0.2,1c0,0.4-0.1,0.7-0.2,1.1s-0.3,0.6-0.5,0.8c-0.3,0.3-0.6,0.5-1,0.6c-0.4,0.1-1,0.2-1.8,0.2h-1.4V221.7z     M172.7,222.7v3.2h0.5c0.5,0,1-0.1,1.3-0.4c0.3-0.3,0.4-0.7,0.4-1.2c0-0.5-0.1-0.9-0.4-1.2s-0.7-0.4-1.3-0.4H172.7z"
   id="path442" />
		<path
   class="st3"
   d="M181.5,226.6c-0.2,0.1-0.5,0.2-0.8,0.3c-0.3,0.1-0.5,0.1-0.8,0.1c-0.9,0-1.6-0.2-2.1-0.7s-0.8-1.1-0.8-2    c0-0.8,0.3-1.5,0.8-2s1.2-0.7,2.1-0.7c0.3,0,0.6,0,0.8,0.1c0.3,0.1,0.5,0.2,0.8,0.3v1.1c-0.2-0.2-0.5-0.3-0.7-0.4    c-0.2-0.1-0.5-0.1-0.8-0.1c-0.5,0-0.9,0.2-1.1,0.5c-0.3,0.3-0.4,0.7-0.4,1.3c0,0.5,0.1,1,0.4,1.3c0.3,0.3,0.7,0.5,1.1,0.5    c0.3,0,0.5,0,0.8-0.1c0.2-0.1,0.5-0.2,0.7-0.4V226.6z"
   id="path444" />
		<path
   class="st3"
   d="M182.5,227.9c0.3-0.6,0.5-1.1,0.7-1.6s0.2-1,0.2-1.6c0-0.5-0.1-1-0.2-1.6s-0.4-1.1-0.7-1.6h1    c0.4,0.6,0.6,1.1,0.8,1.6s0.3,1,0.3,1.5s-0.1,1-0.3,1.5c-0.2,0.5-0.4,1.1-0.8,1.6H182.5z"
   id="path446" />
	</g>
	<g
   class="st6"
   id="g462">
		<path
   class="st3"
   d="M162.8,232.1l-3.4,1.2l3.4,1.2v0.9l-4.5-1.6v-0.8l4.5-1.6V232.1z"
   id="path450" />
		<path
   class="st3"
   d="M165.6,234.5h2.3v1h-3.8v-1l1.9-1.7c0.2-0.2,0.3-0.3,0.4-0.5c0.1-0.1,0.1-0.3,0.1-0.5c0-0.2-0.1-0.4-0.2-0.6    c-0.2-0.1-0.4-0.2-0.7-0.2c-0.2,0-0.4,0-0.7,0.1c-0.2,0.1-0.5,0.2-0.8,0.4v-1.1c0.3-0.1,0.6-0.2,0.9-0.2s0.6-0.1,0.9-0.1    c0.6,0,1.1,0.1,1.5,0.4c0.3,0.3,0.5,0.7,0.5,1.1c0,0.3-0.1,0.5-0.2,0.8c-0.1,0.2-0.5,0.6-0.9,1L165.6,234.5z"
   id="path452" />
		<path
   class="st3"
   d="M175.2,232.3c0.2-0.2,0.3-0.4,0.6-0.6c0.2-0.1,0.5-0.2,0.7-0.2c0.4,0,0.8,0.1,1,0.4c0.2,0.3,0.4,0.7,0.4,1.2    v2.4h-1.3v-2c0,0,0-0.1,0-0.1c0,0,0-0.1,0-0.1c0-0.3,0-0.5-0.1-0.6c-0.1-0.1-0.2-0.2-0.4-0.2c-0.2,0-0.4,0.1-0.5,0.3    c-0.1,0.2-0.2,0.5-0.2,0.8v1.9h-1.3v-2c0-0.4,0-0.7-0.1-0.8c-0.1-0.1-0.2-0.2-0.4-0.2c-0.2,0-0.4,0.1-0.6,0.3    c-0.1,0.2-0.2,0.5-0.2,0.8v1.9h-1.3v-3.9h1.3v0.6c0.2-0.2,0.3-0.4,0.5-0.5c0.2-0.1,0.4-0.2,0.7-0.2c0.3,0,0.5,0.1,0.7,0.2    C175,231.9,175.1,232,175.2,232.3z"
   id="path454" />
		<path
   class="st3"
   d="M180.9,231.5c0.7,0,1.2,0.2,1.6,0.5c0.4,0.4,0.6,0.9,0.6,1.5s-0.2,1.1-0.6,1.5c-0.4,0.4-0.9,0.5-1.6,0.5    c-0.7,0-1.2-0.2-1.6-0.5s-0.6-0.9-0.6-1.5s0.2-1.1,0.6-1.5C179.7,231.7,180.2,231.5,180.9,231.5z M180.9,232.4    c-0.3,0-0.5,0.1-0.6,0.3c-0.1,0.2-0.2,0.5-0.2,0.9c0,0.4,0.1,0.7,0.2,0.9c0.1,0.2,0.4,0.3,0.6,0.3c0.3,0,0.5-0.1,0.6-0.3    c0.1-0.2,0.2-0.5,0.2-0.9c0-0.4-0.1-0.7-0.2-0.9C181.4,232.5,181.2,232.4,180.9,232.4z"
   id="path456" />
		<path
   class="st3"
   d="M184,230.1h1.2v1H184V230.1z M184,231.6h1.2v3.9H184V231.6z"
   id="path458" />
		<path
   class="st3"
   d="M189.5,231.7v0.9c-0.3-0.1-0.5-0.2-0.8-0.3c-0.2-0.1-0.5-0.1-0.7-0.1c-0.2,0-0.4,0-0.5,0.1s-0.2,0.2-0.2,0.3    c0,0.1,0,0.2,0.1,0.2c0.1,0.1,0.2,0.1,0.5,0.1l0.2,0c0.6,0.1,1.1,0.2,1.3,0.4s0.3,0.5,0.3,0.9c0,0.4-0.2,0.7-0.5,0.9    c-0.3,0.2-0.8,0.3-1.4,0.3c-0.3,0-0.5,0-0.8-0.1s-0.6-0.1-0.9-0.2v-0.9c0.2,0.1,0.5,0.2,0.8,0.3c0.3,0.1,0.5,0.1,0.8,0.1    c0.2,0,0.4,0,0.6-0.1c0.1-0.1,0.2-0.2,0.2-0.3c0-0.1,0-0.2-0.1-0.2s-0.3-0.1-0.5-0.1l-0.2,0c-0.6-0.1-0.9-0.2-1.2-0.4    c-0.2-0.2-0.3-0.5-0.3-0.9c0-0.4,0.1-0.7,0.4-0.9c0.3-0.2,0.7-0.3,1.3-0.3c0.2,0,0.5,0,0.7,0.1    C188.9,231.6,189.2,231.7,189.5,231.7z"
   id="path460" />
	</g>
	<g
   class="st6"
   id="g474">
		<path
   class="st3"
   d="M309.9,226.6v1.9h-1.2v-5h1.2v0.5c0.2-0.2,0.3-0.4,0.5-0.5c0.2-0.1,0.4-0.1,0.7-0.1c0.4,0,0.8,0.2,1.1,0.5    s0.4,0.8,0.4,1.4s-0.1,1-0.4,1.4c-0.3,0.4-0.7,0.5-1.1,0.5c-0.3,0-0.5,0-0.7-0.2C310.2,227,310,226.8,309.9,226.6z M310.6,224.3    c-0.2,0-0.4,0.1-0.6,0.3c-0.1,0.2-0.2,0.4-0.2,0.8c0,0.3,0.1,0.6,0.2,0.8s0.3,0.3,0.6,0.3c0.2,0,0.4-0.1,0.6-0.3    c0.1-0.2,0.2-0.4,0.2-0.8s-0.1-0.6-0.2-0.8C311.1,224.4,310.9,224.3,310.6,224.3z"
   id="path464" />
		<path
   class="st3"
   d="M315.4,228h-1c-0.3-0.5-0.6-1-0.7-1.5c-0.2-0.5-0.2-1-0.2-1.4c0-0.5,0.1-0.9,0.2-1.4c0.2-0.5,0.4-1,0.7-1.5h1    c-0.3,0.5-0.5,1-0.6,1.5c-0.1,0.5-0.2,1-0.2,1.4s0.1,1,0.2,1.4C314.9,227,315.1,227.5,315.4,228z"
   id="path466" />
		<path
   class="st3"
   d="M316.5,222.3h1.3c0.7,0,1.3,0.1,1.6,0.2c0.4,0.1,0.7,0.3,0.9,0.5c0.2,0.2,0.4,0.5,0.5,0.8s0.2,0.6,0.2,1    c0,0.4-0.1,0.7-0.2,1s-0.3,0.5-0.5,0.8c-0.3,0.2-0.6,0.4-0.9,0.5c-0.4,0.1-0.9,0.2-1.6,0.2h-1.3V222.3z M317.7,223.3v2.9h0.4    c0.5,0,0.9-0.1,1.2-0.4c0.3-0.3,0.4-0.6,0.4-1.1c0-0.5-0.1-0.8-0.4-1.1c-0.3-0.2-0.7-0.4-1.2-0.4H317.7z"
   id="path468" />
		<path
   class="st3"
   d="M325.8,226.9c-0.2,0.1-0.5,0.2-0.7,0.3c-0.2,0.1-0.5,0.1-0.8,0.1c-0.8,0-1.4-0.2-1.9-0.7s-0.7-1.1-0.7-1.8    c0-0.8,0.2-1.4,0.7-1.8c0.5-0.4,1.1-0.7,1.9-0.7c0.3,0,0.5,0,0.8,0.1c0.2,0.1,0.5,0.1,0.7,0.3v1c-0.2-0.2-0.5-0.3-0.7-0.3    c-0.2-0.1-0.5-0.1-0.7-0.1c-0.4,0-0.8,0.1-1,0.4s-0.4,0.7-0.4,1.2c0,0.5,0.1,0.9,0.4,1.2s0.6,0.4,1,0.4c0.2,0,0.5,0,0.7-0.1    c0.2-0.1,0.5-0.2,0.7-0.3V226.9z"
   id="path470" />
		<path
   class="st3"
   d="M326.7,228c0.3-0.5,0.5-1,0.6-1.5s0.2-1,0.2-1.4s-0.1-1-0.2-1.4s-0.3-1-0.6-1.5h1c0.3,0.5,0.6,1,0.7,1.5    c0.2,0.5,0.2,1,0.2,1.4c0,0.5-0.1,0.9-0.2,1.4c-0.2,0.5-0.4,1-0.7,1.5H326.7z"
   id="path472" />
	</g>
	<g
   class="st6"
   id="g488">
		<path
   class="st3"
   d="M308.5,231.9l-3.1,1.1l3.1,1.1v0.8l-4.1-1.5v-0.8l4.1-1.5V231.9z"
   id="path476" />
		<path
   class="st3"
   d="M311.4,230.2h1.4v3h0.7v0.9h-0.7v0.9h-1.2v-0.9h-2.1v-1.1L311.4,230.2z M311.6,231.2l-1.4,2h1.4V231.2z"
   id="path478" />
		<path
   class="st3"
   d="M320,232c0.1-0.2,0.3-0.4,0.5-0.5c0.2-0.1,0.4-0.2,0.7-0.2c0.4,0,0.7,0.1,0.9,0.4s0.3,0.6,0.3,1.1v2.2h-1.2    v-1.9c0,0,0-0.1,0-0.1c0,0,0-0.1,0-0.1c0-0.3,0-0.4-0.1-0.6c-0.1-0.1-0.2-0.2-0.4-0.2c-0.2,0-0.4,0.1-0.5,0.3    c-0.1,0.2-0.2,0.4-0.2,0.8v1.8h-1.2v-1.9c0-0.4,0-0.7-0.1-0.8c-0.1-0.1-0.2-0.2-0.4-0.2c-0.2,0-0.4,0.1-0.5,0.3    c-0.1,0.2-0.2,0.4-0.2,0.8v1.8h-1.2v-3.6h1.2v0.5c0.1-0.2,0.3-0.4,0.5-0.5c0.2-0.1,0.4-0.2,0.6-0.2c0.2,0,0.5,0.1,0.7,0.2    C319.7,231.6,319.9,231.8,320,232z"
   id="path480" />
		<path
   class="st3"
   d="M325.2,231.3c0.6,0,1.1,0.2,1.5,0.5c0.3,0.3,0.5,0.8,0.5,1.4c0,0.6-0.2,1.1-0.5,1.4c-0.3,0.3-0.8,0.5-1.5,0.5    c-0.6,0-1.1-0.2-1.5-0.5s-0.5-0.8-0.5-1.4c0-0.6,0.2-1.1,0.5-1.4S324.6,231.3,325.2,231.3z M325.2,232.2c-0.3,0-0.5,0.1-0.6,0.3    c-0.1,0.2-0.2,0.4-0.2,0.8s0.1,0.6,0.2,0.8c0.1,0.2,0.3,0.3,0.6,0.3c0.3,0,0.4-0.1,0.6-0.3s0.2-0.4,0.2-0.8s-0.1-0.6-0.2-0.8    C325.6,232.3,325.4,232.2,325.2,232.2z"
   id="path482" />
		<path
   class="st3"
   d="M328,230h1.2v0.9H328V230z M328,231.4h1.2v3.6H328V231.4z"
   id="path484" />
		<path
   class="st3"
   d="M333.1,231.5v0.9c-0.2-0.1-0.5-0.2-0.7-0.2c-0.2-0.1-0.4-0.1-0.7-0.1c-0.2,0-0.4,0-0.5,0.1s-0.2,0.1-0.2,0.3    c0,0.1,0,0.2,0.1,0.2c0.1,0,0.2,0.1,0.4,0.1l0.2,0c0.6,0.1,1,0.2,1.2,0.4c0.2,0.2,0.3,0.4,0.3,0.8c0,0.4-0.1,0.7-0.4,0.9    c-0.3,0.2-0.7,0.3-1.3,0.3c-0.2,0-0.5,0-0.7-0.1c-0.3,0-0.5-0.1-0.8-0.2V234c0.2,0.1,0.5,0.2,0.7,0.3s0.5,0.1,0.7,0.1    c0.2,0,0.4,0,0.5-0.1c0.1-0.1,0.2-0.2,0.2-0.3c0-0.1,0-0.2-0.1-0.2c-0.1,0-0.2-0.1-0.5-0.1l-0.2,0c-0.5-0.1-0.9-0.2-1.1-0.4    c-0.2-0.2-0.3-0.4-0.3-0.8c0-0.4,0.1-0.7,0.4-0.8c0.3-0.2,0.7-0.3,1.2-0.3c0.2,0,0.4,0,0.7,0C332.6,231.4,332.8,231.5,333.1,231.5    z"
   id="path486" />
	</g>
	<g
   class="st6"
   id="g508"
   transform="translate(-2,-8)">
		<path
   class="st3"
   d="m 196.2,160.6 h 2.6 c 1.5,0 2.5,0.1 3.3,0.3 0.8,0.2 1.3,0.5 1.8,1 0.4,0.4 0.8,0.9 1,1.4 0.2,0.5 0.3,1.1 0.3,1.8 0,0.7 -0.1,1.3 -0.3,1.8 -0.2,0.5 -0.6,1 -1,1.4 -0.5,0.5 -1.1,0.8 -1.8,1 -0.7,0.2 -1.8,0.3 -3.2,0.3 h -2.6 v -9 z m 2.5,1.8 v 5.5 h 0.9 c 1,0 1.8,-0.2 2.3,-0.7 0.5,-0.5 0.8,-1.2 0.8,-2.1 0,-0.9 -0.3,-1.6 -0.8,-2 -0.5,-0.5 -1.3,-0.7 -2.3,-0.7 z"
   id="path490" />
		<path
   class="st3"
   d="m 207,160.3 h 2.3 v 1.8 H 207 Z m 0,2.6 h 2.3 v 6.8 H 207 Z"
   id="path492" />
		<path
   class="st3"
   d="m 217.1,163.1 v 1.6 c -0.5,-0.2 -1,-0.3 -1.4,-0.4 -0.5,-0.1 -0.9,-0.1 -1.3,-0.1 -0.4,0 -0.8,0.1 -1,0.2 -0.2,0.1 -0.3,0.3 -0.3,0.5 0,0.2 0.1,0.3 0.2,0.4 0.2,0.1 0.4,0.2 0.9,0.2 l 0.4,0.1 c 1.2,0.1 2,0.4 2.4,0.7 0.4,0.3 0.6,0.8 0.6,1.5 0,0.7 -0.3,1.3 -0.8,1.6 -0.6,0.4 -1.4,0.5 -2.5,0.5 -0.5,0 -1,0 -1.5,-0.1 -0.5,-0.1 -1,-0.2 -1.6,-0.3 v -1.6 c 0.5,0.2 0.9,0.4 1.4,0.5 0.5,0.1 1,0.2 1.5,0.2 0.4,0 0.8,-0.1 1,-0.2 0.2,-0.1 0.3,-0.3 0.3,-0.5 0,-0.2 -0.1,-0.3 -0.2,-0.4 -0.2,-0.1 -0.5,-0.2 -0.9,-0.2 h -0.4 c -1,-0.1 -1.7,-0.3 -2.2,-0.7 -0.4,-0.3 -0.6,-0.8 -0.6,-1.5 0,-0.7 0.3,-1.3 0.8,-1.6 0.5,-0.3 1.3,-0.5 2.4,-0.5 0.4,0 0.9,0 1.3,0.1 0.4,0.1 1,-0.1 1.5,0 z"
   id="path494" />
		<path
   class="st3"
   d="m 221.9,161 v 1.9 h 2.4 v 1.6 h -2.4 v 2.9 c 0,0.3 0.1,0.5 0.2,0.6 0.1,0.1 0.4,0.2 0.8,0.2 h 1.2 v 1.6 h -2 c -0.9,0 -1.5,-0.2 -1.9,-0.5 -0.4,-0.4 -0.6,-1 -0.6,-1.8 v -2.9 h -1.1 V 163 h 1.1 v -2 z"
   id="path496" />
		<path
   class="st3"
   d="m 232.4,165.8 v 3.9 h -2.3 v -1 c -0.3,0.4 -0.7,0.7 -1,0.9 -0.4,0.2 -0.9,0.3 -1.4,0.3 -0.7,0 -1.3,-0.2 -1.8,-0.6 -0.5,-0.4 -0.7,-0.9 -0.7,-1.6 0,-0.8 0.3,-1.4 0.9,-1.8 0.6,-0.4 1.5,-0.6 2.7,-0.6 h 1.4 v -0.2 c 0,-0.3 -0.1,-0.6 -0.4,-0.8 -0.3,-0.2 -0.7,-0.2 -1.3,-0.2 -0.5,0 -1,0 -1.4,0.1 -0.4,0.1 -0.8,0.2 -1.2,0.4 v -1.7 c 0.5,-0.1 1,-0.2 1.5,-0.3 0.5,-0.1 1,-0.1 1.5,-0.1 1.3,0 2.2,0.2 2.8,0.7 0.4,0.7 0.7,1.5 0.7,2.6 z m -3.5,0.8 c -0.5,0 -0.8,0.1 -1.1,0.2 -0.2,0.2 -0.4,0.4 -0.4,0.7 0,0.3 0.1,0.5 0.3,0.6 0.2,0.1 0.5,0.2 0.8,0.2 0.4,0 0.8,-0.1 1.1,-0.4 0.3,-0.3 0.4,-0.7 0.4,-1.1 v -0.2 z"
   id="path498" />
		<path
   class="st3"
   d="m 241.7,165.5 v 4.1 h -2.3 v -0.6 -2.5 c 0,-0.6 0,-1 0,-1.2 0,-0.2 -0.1,-0.4 -0.1,-0.5 -0.1,-0.1 -0.2,-0.3 -0.4,-0.3 -0.2,-0.1 -0.3,-0.1 -0.5,-0.1 -0.5,0 -0.9,0.2 -1.1,0.5 -0.2,0.3 -0.4,0.8 -0.4,1.5 v 3.3 h -2.3 v -6.8 h 2.3 v 1 c 0.3,-0.4 0.7,-0.7 1.1,-0.9 0.4,-0.2 0.8,-0.3 1.3,-0.3 0.8,0 1.5,0.2 1.9,0.7 0.4,0.5 0.5,1.2 0.5,2.1 z"
   id="path500" />
		<path
   class="st3"
   d="m 249.7,163.1 v 1.8 c -0.3,-0.2 -0.6,-0.4 -0.9,-0.4 -0.3,0 -0.6,-0.1 -1,-0.1 -0.6,0 -1.1,0.2 -1.5,0.5 -0.4,0.4 -0.5,0.8 -0.5,1.5 0,0.6 0.2,1.1 0.5,1.5 0.4,0.4 0.9,0.5 1.5,0.5 0.4,0 0.7,0 1,-0.2 0.3,-0.1 0.6,-0.2 0.9,-0.4 v 1.8 c -0.4,0.1 -0.7,0.2 -1.1,0.3 -0.4,0.1 -0.7,0.1 -1.1,0.1 -1.3,0 -2.3,-0.3 -3,-0.9 -0.7,-0.6 -1.1,-1.5 -1.1,-2.6 0,-1.1 0.4,-2 1.1,-2.6 0.7,-0.6 1.7,-0.9 3,-0.9 0.4,0 0.7,0 1.1,0.1 0.4,0.1 0.7,-0.1 1.1,0 z"
   id="path502" />
		<path
   class="st3"
   d="m 258.8,166.3 v 0.6 h -5.4 c 0.1,0.5 0.2,0.9 0.6,1.1 0.3,0.3 0.8,0.4 1.4,0.4 0.5,0 1,-0.1 1.5,-0.2 0.5,-0.1 1,-0.3 1.6,-0.6 v 1.7 c -0.5,0.2 -1.1,0.3 -1.6,0.4 -0.5,0.1 -1.1,0.1 -1.6,0.1 -1.3,0 -2.3,-0.3 -3,-0.9 -0.7,-0.6 -1.1,-1.5 -1.1,-2.6 0,-1.1 0.4,-2 1.1,-2.6 0.7,-0.6 1.7,-1 2.9,-1 1.1,0 2,0.3 2.7,1 0.7,0.7 0.9,1.5 0.9,2.6 z m -2.3,-0.8 c 0,-0.4 -0.1,-0.7 -0.4,-1 -0.3,-0.3 -0.6,-0.4 -1,-0.4 -0.4,0 -0.8,0.1 -1.1,0.4 -0.3,0.2 -0.5,0.6 -0.5,1 z"
   id="path504" />
		<path
   class="st3"
   d="m 266.2,163.1 v 1.6 c -0.5,-0.2 -1,-0.3 -1.4,-0.4 -0.5,-0.1 -0.9,-0.1 -1.3,-0.1 -0.4,0 -0.8,0.1 -1,0.2 -0.2,0.1 -0.3,0.3 -0.3,0.5 0,0.2 0.1,0.3 0.2,0.4 0.2,0.1 0.4,0.2 0.9,0.2 l 0.4,0.1 c 1.2,0.1 2,0.4 2.4,0.7 0.4,0.3 0.6,0.8 0.6,1.5 0,0.7 -0.3,1.3 -0.8,1.6 -0.6,0.4 -1.4,0.5 -2.5,0.5 -0.5,0 -1,0 -1.5,-0.1 -0.5,-0.1 -1,-0.2 -1.6,-0.3 v -1.6 c 0.5,0.2 0.9,0.4 1.4,0.5 0.5,0.1 1,0.2 1.5,0.2 0.4,0 0.8,-0.1 1,-0.2 0.2,-0.1 0.3,-0.3 0.3,-0.5 0,-0.2 -0.1,-0.3 -0.2,-0.4 -0.2,-0.1 -0.5,-0.2 -0.9,-0.2 H 263 c -1,-0.1 -1.7,-0.3 -2.2,-0.7 -0.4,-0.3 -0.6,-0.8 -0.6,-1.5 0,-0.7 0.3,-1.3 0.8,-1.6 0.5,-0.3 1.3,-0.5 2.4,-0.5 0.4,0 0.9,0 1.3,0.1 0.4,-0.2 0.9,-0.1 1.5,0 z"
   id="path506" />
	</g>
	<g
   class="st6"
   id="g514"
   transform="translate(-2,-8)">
		<path
   class="st2"
   d="m 280.2,166.3 v 0.6 h -5.4 c 0.1,0.5 0.2,0.9 0.6,1.1 0.3,0.3 0.8,0.4 1.4,0.4 0.5,0 1,-0.1 1.5,-0.2 0.5,-0.1 1,-0.3 1.6,-0.6 v 1.7 c -0.5,0.2 -1.1,0.3 -1.6,0.4 -0.5,0.1 -1.1,0.1 -1.6,0.1 -1.3,0 -2.3,-0.3 -3,-0.9 -0.7,-0.6 -1.1,-1.5 -1.1,-2.6 0,-1.1 0.4,-2 1.1,-2.6 0.7,-0.6 1.7,-1 2.9,-1 1.1,0 2,0.3 2.7,1 0.5,0.6 0.9,1.5 0.9,2.6 z m -2.4,-0.8 c 0,-0.4 -0.1,-0.7 -0.4,-1 -0.3,-0.3 -0.6,-0.4 -1,-0.4 -0.4,0 -0.8,0.1 -1.1,0.4 -0.3,0.2 -0.5,0.6 -0.5,1 z"
   id="path510" />
		<path
   class="st2"
   d="m 284.4,161 v 1.9 h 2.4 v 1.6 h -2.4 v 2.9 c 0,0.3 0.1,0.5 0.2,0.6 0.1,0.1 0.4,0.2 0.8,0.2 h 1.2 v 1.6 h -2 c -0.9,0 -1.5,-0.2 -1.9,-0.5 -0.4,-0.4 -0.6,-1 -0.6,-1.8 v -2.9 H 281 V 163 h 1.1 v -2 z"
   id="path512" />
	</g>
	<g
   class="st6"
   id="g526"
   transform="translate(-2,-8)">
		<path
   class="st3"
   d="m 295.1,168.7 v 3.6 h -2.3 v -9.4 h 2.3 v 1 c 0.3,-0.4 0.7,-0.7 1.1,-0.9 0.4,-0.2 0.8,-0.3 1.3,-0.3 0.9,0 1.6,0.3 2.2,1 0.6,0.7 0.9,1.5 0.9,2.6 0,1 -0.3,1.9 -0.9,2.6 -0.6,0.7 -1.3,1 -2.2,1 -0.5,0 -0.9,-0.1 -1.3,-0.3 -0.4,-0.2 -0.8,-0.5 -1.1,-0.9 z m 1.5,-4.4 c -0.5,0 -0.9,0.2 -1.1,0.5 -0.3,0.3 -0.4,0.8 -0.4,1.5 0,0.6 0.1,1.1 0.4,1.5 0.3,0.3 0.6,0.5 1.1,0.5 0.5,0 0.9,-0.2 1.1,-0.5 0.2,-0.3 0.4,-0.8 0.4,-1.5 0,-0.6 -0.1,-1.1 -0.4,-1.5 -0.2,-0.3 -0.6,-0.5 -1.1,-0.5 z"
   id="path516" />
		<path
   class="st3"
   d="m 305.6,162.7 c 1.2,0 2.2,0.3 2.9,0.9 0.7,0.6 1,1.5 1,2.6 0,1.1 -0.3,2 -1,2.6 -0.7,0.6 -1.7,0.9 -2.9,0.9 -1.2,0 -2.2,-0.3 -2.9,-0.9 -0.7,-0.6 -1,-1.5 -1,-2.6 0,-1.1 0.4,-2 1,-2.6 0.7,-0.6 1.7,-0.9 2.9,-0.9 z m 0,1.6 c -0.5,0 -0.9,0.2 -1.2,0.5 -0.3,0.3 -0.4,0.8 -0.4,1.5 0,0.7 0.1,1.1 0.4,1.5 0.3,0.3 0.7,0.5 1.2,0.5 0.5,0 0.9,-0.2 1.1,-0.5 0.3,-0.3 0.4,-0.8 0.4,-1.5 0,-0.7 -0.1,-1.1 -0.4,-1.5 -0.2,-0.3 -0.6,-0.5 -1.1,-0.5 z"
   id="path518" />
		<path
   class="st3"
   d="m 311.2,160.3 h 2.3 v 1.8 h -2.3 z m 0,2.6 h 2.3 v 6.8 h -2.3 z"
   id="path520" />
		<path
   class="st3"
   d="m 320.6,163.9 v -3.6 h 2.3 v 9.4 h -2.3 v -1 c -0.3,0.4 -0.7,0.7 -1,0.9 -0.4,0.2 -0.8,0.3 -1.3,0.3 -0.9,0 -1.6,-0.3 -2.2,-1 -0.6,-0.7 -0.9,-1.5 -0.9,-2.6 0,-1 0.3,-1.9 0.9,-2.6 0.6,-0.7 1.3,-1 2.2,-1 0.5,0 0.9,0.1 1.3,0.3 0.4,0.2 0.7,0.5 1,0.9 z m -1.5,4.4 c 0.5,0 0.9,-0.2 1.1,-0.5 0.2,-0.3 0.4,-0.8 0.4,-1.5 0,-0.6 -0.1,-1.1 -0.4,-1.5 -0.3,-0.3 -0.6,-0.5 -1.1,-0.5 -0.5,0 -0.9,0.2 -1.1,0.5 -0.3,0.3 -0.4,0.8 -0.4,1.5 0,0.6 0.1,1.1 0.4,1.5 0.3,0.4 0.6,0.5 1.1,0.5 z"
   id="path522" />
		<path
   class="st3"
   d="m 330.8,163.1 v 1.6 c -0.5,-0.2 -1,-0.3 -1.4,-0.4 -0.5,-0.1 -0.9,-0.1 -1.3,-0.1 -0.4,0 -0.8,0.1 -1,0.2 -0.2,0.1 -0.3,0.3 -0.3,0.5 0,0.2 0.1,0.3 0.2,0.4 0.2,0.1 0.4,0.2 0.9,0.2 l 0.4,0.1 c 1.2,0.1 2,0.4 2.4,0.7 0.4,0.3 0.6,0.8 0.6,1.5 0,0.7 -0.3,1.3 -0.8,1.6 -0.6,0.4 -1.4,0.5 -2.5,0.5 -0.5,0 -1,0 -1.5,-0.1 -0.5,-0.1 -1,-0.2 -1.6,-0.3 v -1.6 c 0.5,0.2 0.9,0.4 1.4,0.5 0.5,0.1 1,0.2 1.5,0.2 0.4,0 0.8,-0.1 1,-0.2 0.2,-0.1 0.3,-0.3 0.3,-0.5 0,-0.2 -0.1,-0.3 -0.2,-0.4 -0.2,-0.1 -0.5,-0.2 -0.9,-0.2 h -0.4 c -1,-0.1 -1.7,-0.3 -2.1,-0.7 -0.4,-0.3 -0.6,-0.8 -0.6,-1.5 0,-0.7 0.3,-1.3 0.8,-1.6 0.5,-0.3 1.3,-0.5 2.4,-0.5 0.4,0 0.9,0 1.3,0.1 0.3,-0.2 0.8,-0.1 1.4,0 z"
   id="path524" />
	</g>
	<g
   class="st6"
   id="g548"
   transform="translate(-2,-8)">
		<path
   class="st2"
   d="m 232.9,178.8 v -3.6 h 2.3 v 9.4 h -2.3 v -1 c -0.3,0.4 -0.7,0.7 -1,0.9 -0.4,0.2 -0.8,0.3 -1.3,0.3 -0.9,0 -1.6,-0.3 -2.2,-1 -0.6,-0.7 -0.9,-1.5 -0.9,-2.6 0,-1 0.3,-1.9 0.9,-2.6 0.6,-0.7 1.3,-1 2.2,-1 0.5,0 0.9,0.1 1.3,0.3 0.4,0.2 0.7,0.5 1,0.9 z m -1.5,4.4 c 0.5,0 0.9,-0.2 1.1,-0.5 0.2,-0.3 0.4,-0.8 0.4,-1.5 0,-0.6 -0.1,-1.1 -0.4,-1.5 -0.3,-0.3 -0.6,-0.5 -1.1,-0.5 -0.5,0 -0.9,0.2 -1.1,0.5 -0.3,0.3 -0.4,0.8 -0.4,1.5 0,0.6 0.1,1.1 0.4,1.5 0.3,0.4 0.6,0.5 1.1,0.5 z"
   id="path528" />
		<path
   class="st2"
   d="m 237.4,175.2 h 2.3 v 1.8 h -2.3 z m 0,2.6 h 2.3 v 6.8 h -2.3 z"
   id="path530" />
		<path
   class="st2"
   d="m 246.6,175.2 v 1.4 h -1.3 c -0.3,0 -0.6,0.1 -0.7,0.2 -0.1,0.1 -0.2,0.3 -0.2,0.6 v 0.5 h 2 v 1.6 h -2 v 5.2 h -2.3 v -5.2 H 241 v -1.6 h 1.1 v -0.5 c 0,-0.7 0.2,-1.3 0.7,-1.6 0.5,-0.3 1.1,-0.5 2,-0.5 h 1.8 z"
   id="path532" />
		<path
   class="st2"
   d="m 252.4,175.2 v 1.4 h -1.3 c -0.3,0 -0.6,0.1 -0.7,0.2 -0.1,0.1 -0.2,0.3 -0.2,0.6 v 0.5 h 2 v 1.6 h -2 v 5.2 h -2.3 v -5.2 h -1.1 v -1.6 h 1.1 v -0.5 c 0,-0.7 0.2,-1.3 0.7,-1.6 0.5,-0.3 1.1,-0.5 2,-0.5 h 1.8 z"
   id="path534" />
		<path
   class="st2"
   d="m 260.5,181.2 v 0.6 h -5.4 c 0.1,0.5 0.2,0.9 0.6,1.1 0.3,0.3 0.8,0.4 1.4,0.4 0.5,0 1,-0.1 1.5,-0.2 0.5,-0.1 1,-0.3 1.6,-0.6 v 1.7 c -0.5,0.2 -1.1,0.3 -1.6,0.4 -0.5,0.1 -1.1,0.1 -1.6,0.1 -1.3,0 -2.3,-0.3 -3,-0.9 -0.7,-0.6 -1.1,-1.5 -1.1,-2.6 0,-1.1 0.4,-2 1.1,-2.6 0.7,-0.6 1.7,-1 2.9,-1 1.1,0 2,0.3 2.7,1 0.7,0.7 0.9,1.5 0.9,2.6 z m -2.3,-0.8 c 0,-0.4 -0.1,-0.7 -0.4,-1 -0.3,-0.3 -0.6,-0.4 -1,-0.4 -0.4,0 -0.8,0.1 -1.1,0.4 -0.3,0.2 -0.5,0.6 -0.5,1 z m -0.4,-5.7 h 1.8 l -2.4,2.3 H 256 Z"
   id="path536" />
		<path
   class="st2"
   d="m 267.6,179.6 c -0.2,-0.1 -0.4,-0.2 -0.6,-0.2 -0.2,0 -0.4,-0.1 -0.6,-0.1 -0.6,0 -1,0.2 -1.4,0.5 -0.3,0.4 -0.5,0.9 -0.5,1.5 v 3.1 h -2.3 v -6.8 h 2.3 v 1.1 c 0.3,-0.4 0.6,-0.8 1,-1 0.4,-0.2 0.8,-0.3 1.4,-0.3 0.1,0 0.2,0 0.2,0 0.1,0 0.2,0 0.4,0 z"
   id="path538" />
		<path
   class="st2"
   d="m 275.9,181.2 v 0.6 h -5.4 c 0.1,0.5 0.2,0.9 0.6,1.1 0.3,0.3 0.8,0.4 1.4,0.4 0.5,0 1,-0.1 1.5,-0.2 0.5,-0.1 1,-0.3 1.6,-0.6 v 1.7 c -0.5,0.2 -1.1,0.3 -1.6,0.4 -0.5,0.1 -1.1,0.1 -1.6,0.1 -1.3,0 -2.3,-0.3 -3,-0.9 -0.7,-0.6 -1.1,-1.5 -1.1,-2.6 0,-1.1 0.4,-2 1.1,-2.6 0.7,-0.6 1.7,-1 2.9,-1 1.1,0 2,0.3 2.7,1 0.7,0.7 0.9,1.5 0.9,2.6 z m -2.3,-0.8 c 0,-0.4 -0.1,-0.7 -0.4,-1 -0.3,-0.3 -0.6,-0.4 -1,-0.4 -0.4,0 -0.8,0.1 -1.1,0.4 -0.3,0.2 -0.5,0.6 -0.5,1 z"
   id="path540" />
		<path
   class="st2"
   d="m 284.9,180.4 v 4.1 h -2.3 v -0.7 -2.5 c 0,-0.6 0,-1 0,-1.2 0,-0.2 -0.1,-0.4 -0.1,-0.5 -0.1,-0.1 -0.2,-0.3 -0.4,-0.3 -0.2,-0.1 -0.3,-0.1 -0.5,-0.1 -0.5,0 -0.9,0.2 -1.1,0.5 -0.2,0.3 -0.4,0.8 -0.4,1.5 v 3.3 h -2.3 v -6.8 h 2.3 v 1 c 0.3,-0.4 0.7,-0.7 1.1,-0.9 0.4,-0.2 0.8,-0.3 1.3,-0.3 0.8,0 1.5,0.2 1.9,0.7 0.3,0.6 0.5,1.3 0.5,2.2 z"
   id="path542" />
		<path
   class="st2"
   d="m 289.5,175.9 v 1.9 h 2.4 v 1.6 h -2.4 v 2.9 c 0,0.3 0.1,0.5 0.2,0.6 0.1,0.1 0.4,0.2 0.8,0.2 h 1.2 v 1.6 h -2 c -0.9,0 -1.5,-0.2 -1.9,-0.5 -0.4,-0.4 -0.6,-1 -0.6,-1.8 v -2.9 h -1.1 v -1.6 h 1.1 V 176 h 2.3 z"
   id="path544" />
		<path
   class="st2"
   d="m 298.9,178 v 1.6 c -0.5,-0.2 -1,-0.3 -1.4,-0.4 -0.5,-0.1 -0.9,-0.1 -1.3,-0.1 -0.4,0 -0.8,0.1 -1,0.2 -0.2,0.1 -0.3,0.3 -0.3,0.5 0,0.2 0.1,0.3 0.2,0.4 0.2,0.1 0.4,0.2 0.9,0.2 l 0.4,0.1 c 1.2,0.1 2,0.4 2.4,0.7 0.4,0.3 0.6,0.8 0.6,1.5 0,0.7 -0.3,1.3 -0.8,1.6 -0.6,0.4 -1.4,0.5 -2.5,0.5 -0.5,0 -1,0 -1.5,-0.1 -0.5,-0.1 -1,-0.2 -1.6,-0.3 v -1.6 c 0.5,0.2 0.9,0.4 1.4,0.5 0.5,0.1 1,0.2 1.5,0.2 0.4,0 0.8,-0.1 1,-0.2 0.2,-0.1 0.3,-0.3 0.3,-0.5 0,-0.2 -0.1,-0.3 -0.2,-0.4 -0.2,-0.1 -0.5,-0.2 -0.9,-0.2 h -0.4 c -1,-0.1 -1.7,-0.3 -2.2,-0.7 -0.4,-0.3 -0.6,-0.8 -0.6,-1.5 0,-0.7 0.3,-1.3 0.8,-1.6 0.5,-0.3 1.3,-0.5 2.4,-0.5 0.4,0 0.9,0 1.3,0.1 0.5,-0.2 1,-0.1 1.5,0 z"
   id="path546" />
	</g>
	<g
   class="st6"
   id="g552">
		<path
   class="st7"
   d="M150.3,157.8c1.5,0.4,2.7,1.1,3.5,2.1c0.8,1,1.2,2.2,1.2,3.7c0,2.2-0.9,3.9-2.6,5.1s-4.2,1.8-7.5,1.8    c-1.2,0-2.3-0.1-3.5-0.3s-2.3-0.5-3.5-0.8v-4.5c1.1,0.5,2.2,1,3.3,1.2c1.1,0.3,2.1,0.4,3.2,0.4c1.5,0,2.7-0.3,3.6-0.8    c0.8-0.5,1.2-1.3,1.2-2.3c0-1-0.4-1.8-1.3-2.3s-2.1-0.8-3.7-0.8h-2.3v-3.8h2.5c1.5,0,2.6-0.2,3.3-0.7c0.7-0.5,1.1-1.2,1.1-2.1    c0-0.9-0.3-1.5-1-2c-0.7-0.5-1.7-0.7-3-0.7c-0.9,0-1.9,0.1-2.8,0.3c-1,0.2-1.9,0.5-2.9,0.9V148c1.2-0.3,2.3-0.6,3.4-0.7    c1.1-0.2,2.2-0.2,3.3-0.2c2.9,0,5.1,0.5,6.6,1.4c1.5,1,2.2,2.4,2.2,4.4c0,1.3-0.3,2.4-1,3.2C152.7,156.9,151.6,157.5,150.3,157.8z    "
   id="path550" />
	</g>
	<g
   id="g570">
		<g
   id="g556">
			<line
   class="st5"
   x1="251"
   y1="229.5"
   x2="209.9"
   y2="229.5"
   id="line554" />
		</g>
		<g
   id="g568">
			<g
   id="g560">
				<path
   class="st3"
   d="M251,231.3h-41.1c-1,0-1.8-0.8-1.8-1.8s0.8-1.8,1.8-1.8H251c1,0,1.8,0.8,1.8,1.8S252,231.3,251,231.3z"
   id="path558" />
			</g>
			<g
   id="g566">
				<g
   id="g564">
					<polygon
   class="st3"
   points="211.5,224.3 202.4,229.5 211.5,234.8      "
   id="polygon562" />
				</g>
			</g>
		</g>
	</g>
</g>
<g
   id="Calque_4">
	<g
   id="g575">
		<polygon
   class="st8"
   points="263,263 174.9,263 174.9,258.6 175.9,258.6 175.9,262 262,262 262,258.6 263,258.6   "
   id="polygon573" />
	</g>
	<g
   id="g579">
		<polygon
   class="st8"
   points="318.7,263 266,263 266,258.6 267,258.6 267,262 317.7,262 317.7,258.6 318.7,258.6   "
   id="polygon577" />
	</g>
	<g
   id="g583">
		<polygon
   class="st8"
   points="395.8,111.7 307.6,111.7 307.6,107.3 308.6,107.3 308.6,110.7 394.8,110.7 394.8,107.3 395.8,107.3       "
   id="polygon581" />
	</g>
	<g
   id="g587">
		<polygon
   class="st8"
   points="466.8,111.7 398.8,111.7 398.8,107.3 399.8,107.3 399.8,110.7 465.8,110.7 465.8,107.3 466.8,107.3       "
   id="polygon585" />
	</g>
	<g
   id="g591">
		<polygon
   class="st8"
   points="131.5,111.1 62.8,111.1 62.8,106.7 63.8,106.7 63.8,110.1 130.5,110.1 130.5,106.7 131.5,106.7   "
   id="polygon589" />
	</g>
	<g
   id="g595">
		<polygon
   class="st8"
   points="202.5,111.1 134.4,111.1 134.4,106.7 135.4,106.7 135.4,110.1 201.5,110.1 201.5,106.7 202.5,106.7       "
   id="polygon593" />
	</g>
	<g
   class="st6"
   id="g599">
		<path
   class="st8"
   d="M215.9,272.5h3.2v1.4h-5.3v-1.4l2.7-2.4c0.2-0.2,0.4-0.4,0.5-0.6c0.1-0.2,0.2-0.4,0.2-0.6    c0-0.3-0.1-0.6-0.3-0.8c-0.2-0.2-0.5-0.3-0.9-0.3c-0.3,0-0.6,0.1-1,0.2c-0.4,0.1-0.7,0.3-1.1,0.6v-1.6c0.4-0.1,0.8-0.2,1.3-0.3    c0.4-0.1,0.8-0.1,1.2-0.1c0.9,0,1.6,0.2,2,0.6s0.7,0.9,0.7,1.6c0,0.4-0.1,0.8-0.3,1.1s-0.6,0.8-1.3,1.4L215.9,272.5z"
   id="path597" />
	</g>
	<g
   class="st6"
   id="g607">
		<path
   class="st8"
   d="M290.6,270.2c0,1.2-0.3,2.2-0.8,2.8c-0.5,0.7-1.3,1-2.2,1c-1,0-1.7-0.3-2.2-1c-0.5-0.7-0.8-1.6-0.8-2.8    c0-1.2,0.3-2.2,0.8-2.8c0.5-0.7,1.3-1,2.2-1c1,0,1.7,0.3,2.2,1C290.3,268.1,290.6,269,290.6,270.2z M288.7,270.2    c0-0.9-0.1-1.6-0.3-1.9c-0.2-0.4-0.5-0.6-0.9-0.6c-0.4,0-0.7,0.2-0.9,0.6c-0.2,0.4-0.3,1-0.3,1.9c0,0.9,0.1,1.6,0.3,2    c0.2,0.4,0.5,0.6,0.9,0.6c0.4,0,0.7-0.2,0.9-0.6C288.6,271.8,288.7,271.2,288.7,270.2z"
   id="path601" />
		<path
   class="st8"
   d="M292.1,272h1.8v1.5l-1.2,1.8h-1l0.5-1.8V272z"
   id="path603" />
		<path
   class="st8"
   d="M296,266.6h4.7v1.4h-3.2v1.1c0.1,0,0.3-0.1,0.4-0.1c0.1,0,0.3,0,0.5,0c0.9,0,1.6,0.2,2.1,0.7    c0.5,0.4,0.7,1.1,0.7,1.9c0,0.8-0.3,1.4-0.8,1.9c-0.5,0.4-1.3,0.7-2.3,0.7c-0.4,0-0.8,0-1.2-0.1c-0.4-0.1-0.8-0.2-1.2-0.4v-1.5    c0.4,0.2,0.8,0.4,1.1,0.5c0.4,0.1,0.7,0.2,1,0.2c0.5,0,0.8-0.1,1.1-0.3s0.4-0.5,0.4-0.9c0-0.4-0.1-0.7-0.4-0.9s-0.6-0.3-1.1-0.3    c-0.3,0-0.6,0-0.9,0.1c-0.3,0.1-0.6,0.2-1,0.3V266.6z"
   id="path605" />
	</g>
	<g
   class="st6"
   id="g611">
		<path
   class="st8"
   d="M348.7,120.9h3.2v1.4h-5.3v-1.4l2.7-2.4c0.2-0.2,0.4-0.4,0.5-0.6c0.1-0.2,0.2-0.4,0.2-0.6    c0-0.3-0.1-0.6-0.3-0.8c-0.2-0.2-0.5-0.3-0.9-0.3c-0.3,0-0.6,0.1-1,0.2c-0.4,0.1-0.7,0.3-1.1,0.6v-1.6c0.4-0.1,0.8-0.2,1.3-0.3    c0.4-0.1,0.8-0.1,1.2-0.1c0.9,0,1.6,0.2,2,0.6c0.5,0.4,0.7,0.9,0.7,1.6c0,0.4-0.1,0.8-0.3,1.1c-0.2,0.3-0.6,0.8-1.3,1.4    L348.7,120.9z"
   id="path609" />
	</g>
	<g
   class="st6"
   id="g615">
		<path
   class="st8"
   d="M429.4,121h1.7v-4.7l-1.7,0.4v-1.3l1.7-0.4h1.8v6h1.7v1.3h-5.1V121z"
   id="path613" />
	</g>
	<g
   class="st6"
   id="g619">
		<path
   class="st8"
   d="M95.5,121.1h1.7v-4.7l-1.7,0.4v-1.3l1.7-0.4H99v6h1.7v1.3h-5.1V121.1z"
   id="path617" />
	</g>
	<g
   class="st6"
   id="g623">
		<path
   class="st8"
   d="M165.1,121.1h1.7v-4.7l-1.7,0.4v-1.3l1.7-0.4h1.8v6h1.7v1.3h-5.1V121.1z"
   id="path621" />
	</g>
</g>
</svg>
