<?xml version="1.0" encoding="UTF-8" standalone="no"?>
<svg
   xmlns:dc="http://purl.org/dc/elements/1.1/"
   xmlns:cc="http://creativecommons.org/ns#"
   xmlns:rdf="http://www.w3.org/1999/02/22-rdf-syntax-ns#"
   xmlns:svg="http://www.w3.org/2000/svg"
   xmlns="http://www.w3.org/2000/svg"
   xmlns:sodipodi="http://sodipodi.sourceforge.net/DTD/sodipodi-0.dtd"
   xmlns:inkscape="http://www.inkscape.org/namespaces/inkscape"
   version="1.1"
   id="Calque_1"
   x="0px"
   y="0px"
   viewBox="0 0 524 323"
   style="enable-background:new 0 0 524 323;"
   xml:space="preserve"
   sodipodi:docname="C_calage.svg"
   inkscape:version="1.0.2-2 (e86c870879, 2021-01-15)"><metadata
   id="metadata333"><rdf:RDF><cc:Work
       rdf:about=""><dc:format>image/svg+xml</dc:format><dc:type
         rdf:resource="http://purl.org/dc/dcmitype/StillImage" /><dc:title></dc:title></cc:Work></rdf:RDF></metadata><defs
   id="defs331"><filter
     style="color-interpolation-filters:sRGB;"
     inkscape:label="Drop Shadow"
     id="filter4039"
     x="-0.009283658"
     y="-0.0098864544"
     width="1.0174275"
     height="1.0291319"><feFlood
       flood-opacity="0.498039"
       flood-color="rgb(0,0,0)"
       result="flood"
       id="feFlood4029" /><feComposite
       in="flood"
       in2="SourceGraphic"
       operator="in"
       result="composite1"
       id="feComposite4031" /><feGaussianBlur
       in="composite1"
       stdDeviation="1"
       result="blur"
       id="feGaussianBlur4033" /><feOffset
       dx="1"
       dy="1"
       result="offset"
       id="feOffset4035" /><feComposite
       in="SourceGraphic"
       in2="offset"
       operator="over"
       result="composite2"
       id="feComposite4037" /></filter></defs><sodipodi:namedview
   pagecolor="#ffffff"
   bordercolor="#666666"
   borderopacity="1"
   objecttolerance="10"
   gridtolerance="10"
   guidetolerance="10"
   inkscape:pageopacity="0"
   inkscape:pageshadow="2"
   inkscape:window-width="1920"
   inkscape:window-height="1017"
   id="namedview329"
   showgrid="false"
   inkscape:zoom="1.7583209"
   inkscape:cx="204.9647"
   inkscape:cy="202.97252"
   inkscape:window-x="1912"
   inkscape:window-y="-8"
   inkscape:window-maximized="1"
   inkscape:current-layer="Calque_1"
   inkscape:pagecheckerboard="0"
   inkscape:document-rotation="0" />
<style
   type="text/css"
   id="style2">
	.st0{fill:none;stroke:#DDDDDD;stroke-miterlimit:10;}
	.st1{fill:#4C78A8;}
	.st2{fill:#FFFFFF;}
	.st3{fill:#FFFFFF;stroke:#000000;stroke-miterlimit:10;}
	.st4{fill:#6E6E6E;}
	.st5{font-family:'DejaVuSans';}
	.st6{font-size:8px;}
	.st7{font-size:10px;}
	.st8{fill:#262626;}
	.st9{fill:none;stroke:#888888;stroke-miterlimit:10;}
	.st10{fill:#ADADAD;}
	.st11{font-family:'DejaVuSans-Oblique';}
	.st12{fill:none;}
	.st13{fill:#888888;}
	.st14{font-size:11px;}
	.st15{fill:#F58518;}
	.st16{font-size:12px;}
	.st17{fill:none;stroke:#F58518;stroke-width:2;stroke-miterlimit:10;}
</style>








<rect
   x="40.5"
   y="40.6"
   class="st1"
   width="16.5"
   height="239.4"
   id="rect20"
   style="fill:#008ea6;fill-opacity:1" />
<path
   class="st2"
   d="M56.5,41.1v238.4H41V41.1H56.5 M57.5,40.1H40v240.4h17.5V40.1L57.5,40.1z"
   id="path22" />
<rect
   x="40.5"
   y="40.6"
   class="st1"
   width="16.5"
   height="239.4"
   id="rect24"
   style="fill:#008ea6;fill-opacity:1" />
<path
   class="st2"
   d="M56.5,41.1v238.4H41V41.1H56.5 M57.5,40.1H40v240.4h17.5V40.1L57.5,40.1z"
   id="path26" />
<rect
   x="58"
   y="231.8"
   class="st1"
   width="16.5"
   height="48.2"
   id="rect28"
   style="fill:#008ea6;fill-opacity:1" />
<path
   class="st2"
   d="M74,232.3v47.2H58.5v-47.2H74 M75,231.3H57.5v49.2H75V231.3L75,231.3z"
   id="path30" />
<rect
   x="58"
   y="231.8"
   class="st1"
   width="16.5"
   height="48.2"
   id="rect32"
   style="fill:#008ea6;fill-opacity:1" />
<path
   class="st2"
   d="M74,232.3v47.2H58.5v-47.2H74 M75,231.3H57.5v49.2H75V231.3L75,231.3z"
   id="path34" />
<rect
   x="75.5"
   y="230.5"
   class="st1"
   width="16.5"
   height="49.5"
   id="rect36"
   style="fill:#008ea6;fill-opacity:1" />
<path
   class="st2"
   d="M91.5,231v48.5H76V231H91.5 M92.5,230H75v50.5h17.5V230L92.5,230z"
   id="path38" />
<rect
   x="75.5"
   y="230.5"
   class="st1"
   width="16.5"
   height="49.5"
   id="rect40"
   style="fill:#008ea6;fill-opacity:1" />
<path
   class="st2"
   d="M91.5,231v48.5H76V231H91.5 M92.5,230H75v50.5h17.5V230L92.5,230z"
   id="path42" />
<rect
   x="93"
   y="244.5"
   class="st1"
   width="16.5"
   height="35.4"
   id="rect44"
   style="fill:#008ea6;fill-opacity:1" />
<path
   class="st2"
   d="M109,245v34.4H93.5V245H109 M110,244H92.5v36.4H110V244L110,244z"
   id="path46" />
<rect
   x="93"
   y="244.5"
   class="st1"
   width="16.5"
   height="35.4"
   id="rect48"
   style="fill:#008ea6;fill-opacity:1" />
<path
   class="st2"
   d="M109,245v34.4H93.5V245H109 M110,244H92.5v36.4H110V244L110,244z"
   id="path50" />
<rect
   x="110.5"
   y="244"
   class="st1"
   width="16.5"
   height="35.9"
   id="rect52"
   style="fill:#008ea6;fill-opacity:1" />
<path
   class="st2"
   d="M126.5,244.5v34.9H111v-34.9H126.5 M127.5,243.5H110v36.9h17.5V243.5L127.5,243.5z"
   id="path54" />
<rect
   x="110.5"
   y="244"
   class="st1"
   width="16.5"
   height="35.9"
   id="rect56"
   style="fill:#008ea6;fill-opacity:1" />
<path
   class="st2"
   d="M126.5,244.5v34.9H111v-34.9H126.5 M127.5,243.5H110v36.9h17.5V243.5L127.5,243.5z"
   id="path58" />
<rect
   x="128"
   y="262.5"
   class="st1"
   width="16.5"
   height="17.5"
   id="rect60"
   style="fill:#008ea6;fill-opacity:1" />
<path
   class="st2"
   d="M144,263v16.5h-15.5V263H144 M145,262h-17.5v18.5H145V262L145,262z"
   id="path62" />
<rect
   x="128"
   y="262.5"
   class="st1"
   width="16.5"
   height="17.5"
   id="rect64"
   style="fill:#008ea6;fill-opacity:1" />
<path
   class="st2"
   d="M144,263v16.5h-15.5V263H144 M145,262h-17.5v18.5H145V262L145,262z"
   id="path66" />
<rect
   x="145.4"
   y="261.5"
   class="st1"
   width="16.5"
   height="18.5"
   id="rect68"
   style="fill:#008ea6;fill-opacity:1" />
<path
   class="st2"
   d="M161.4,262v17.5h-15.5V262H161.4 M162.4,261h-17.5v19.5h17.5V261L162.4,261z"
   id="path70" />
<rect
   x="145.4"
   y="261.5"
   class="st1"
   width="16.5"
   height="18.5"
   id="rect72"
   style="fill:#008ea6;fill-opacity:1" />
<path
   class="st2"
   d="M161.4,262v17.5h-15.5V262H161.4 M162.4,261h-17.5v19.5h17.5V261L162.4,261z"
   id="path74" />
<rect
   x="162.9"
   y="246.9"
   class="st1"
   width="16.5"
   height="33.1"
   id="rect76"
   style="fill:#008ea6;fill-opacity:1" />
<path
   class="st2"
   d="M178.9,247.4v32.1h-15.5v-32.1H178.9 M179.9,246.4h-17.5v34.1h17.5V246.4L179.9,246.4z"
   id="path78" />
<rect
   x="162.9"
   y="246.9"
   class="st1"
   width="16.5"
   height="33.1"
   id="rect80"
   style="fill:#008ea6;fill-opacity:1" />
<path
   class="st2"
   d="M178.9,247.4v32.1h-15.5v-32.1H178.9 M179.9,246.4h-17.5v34.1h17.5V246.4L179.9,246.4z"
   id="path82" />
<rect
   x="180.4"
   y="263.5"
   class="st1"
   width="16.5"
   height="16.4"
   id="rect84"
   style="fill:#008ea6;fill-opacity:1" />
<path
   class="st2"
   d="M196.4,264v15.4h-15.5V264H196.4 M197.4,263h-17.5v17.4h17.5V263L197.4,263z"
   id="path86" />
<rect
   x="180.4"
   y="263.5"
   class="st1"
   width="16.5"
   height="16.4"
   id="rect88"
   style="fill:#008ea6;fill-opacity:1" />
<path
   class="st2"
   d="M196.4,264v15.4h-15.5V264H196.4 M197.4,263h-17.5v17.4h17.5V263L197.4,263z"
   id="path90" />
<rect
   x="197.9"
   y="258.3"
   class="st1"
   width="16.5"
   height="21.6"
   id="rect92"
   style="fill:#008ea6;fill-opacity:1" />
<path
   class="st2"
   d="M213.9,258.8v20.6h-15.5v-20.6H213.9 M214.9,257.8h-17.5v22.6h17.5V257.8L214.9,257.8z"
   id="path94" />
<rect
   x="197.9"
   y="258.3"
   class="st1"
   width="16.5"
   height="21.6"
   id="rect96"
   style="fill:#008ea6;fill-opacity:1" />
<path
   class="st2"
   d="M213.9,258.8v20.6h-15.5v-20.6H213.9 M214.9,257.8h-17.5v22.6h17.5V257.8L214.9,257.8z"
   id="path98" />
<rect
   x="215.4"
   y="271.6"
   class="st1"
   width="16.5"
   height="8.4"
   id="rect100"
   style="fill:#008ea6;fill-opacity:1" />
<path
   class="st2"
   d="M231.4,272.1v7.4h-15.5v-7.4H231.4 M232.4,271.1h-17.5v9.4h17.5V271.1L232.4,271.1z"
   id="path102" />
<rect
   x="215.4"
   y="271.6"
   class="st1"
   width="16.5"
   height="8.4"
   id="rect104"
   style="fill:#008ea6;fill-opacity:1" />
<path
   class="st2"
   d="M231.4,272.1v7.4h-15.5v-7.4H231.4 M232.4,271.1h-17.5v9.4h17.5V271.1L232.4,271.1z"
   id="path106" />
<rect
   x="232.9"
   y="258.3"
   class="st1"
   width="16.5"
   height="21.6"
   id="rect108"
   style="fill:#008ea6;fill-opacity:1" />
<path
   class="st2"
   d="M248.9,258.8v20.6h-15.5v-20.6H248.9 M249.9,257.8h-17.5v22.6h17.5V257.8L249.9,257.8z"
   id="path110" />
<rect
   x="232.9"
   y="258.3"
   class="st1"
   width="16.5"
   height="21.6"
   id="rect112"
   style="fill:#008ea6;fill-opacity:1" />
<path
   class="st2"
   d="M248.9,258.8v20.6h-15.5v-20.6H248.9 M249.9,257.8h-17.5v22.6h17.5V257.8L249.9,257.8z"
   id="path114" />
<rect
   x="250.4"
   y="269.8"
   class="st1"
   width="16.5"
   height="10.2"
   id="rect116"
   style="fill:#008ea6;fill-opacity:1" />
<path
   class="st2"
   d="M266.3,270.3v9.2h-15.5v-9.2H266.3 M267.3,269.3h-17.5v11.2h17.5V269.3L267.3,269.3z"
   id="path118" />
<rect
   x="250.4"
   y="269.8"
   class="st1"
   width="16.5"
   height="10.2"
   id="rect120"
   style="fill:#008ea6;fill-opacity:1" />
<path
   class="st2"
   d="M266.3,270.3v9.2h-15.5v-9.2H266.3 M267.3,269.3h-17.5v11.2h17.5V269.3L267.3,269.3z"
   id="path122" />
<rect
   x="267.8"
   y="275"
   class="st1"
   width="16.5"
   height="5"
   id="rect124"
   style="fill:#008ea6;fill-opacity:1" />
<path
   class="st2"
   d="M283.8,275.5v4h-15.5v-4H283.8 M284.8,274.5h-17.5v6h17.5V274.5L284.8,274.5z"
   id="path126" />
<rect
   x="267.8"
   y="275"
   class="st1"
   width="16.5"
   height="5"
   id="rect128"
   style="fill:#008ea6;fill-opacity:1" />
<path
   class="st2"
   d="M283.8,275.5v4h-15.5v-4H283.8 M284.8,274.5h-17.5v6h17.5V274.5L284.8,274.5z"
   id="path130" />
<rect
   x="285.3"
   y="273.9"
   class="st1"
   width="16.5"
   height="6"
   id="rect132"
   style="fill:#008ea6;fill-opacity:1" />
<path
   class="st2"
   d="M301.3,274.4v5h-15.5v-5H301.3 M302.3,273.4h-17.5v7h17.5V273.4L302.3,273.4z"
   id="path134" />
<rect
   x="285.3"
   y="273.9"
   class="st1"
   width="16.5"
   height="6"
   id="rect136"
   style="fill:#008ea6;fill-opacity:1" />
<path
   class="st2"
   d="M301.3,274.4v5h-15.5v-5H301.3 M302.3,273.4h-17.5v7h17.5V273.4L302.3,273.4z"
   id="path138" />
<rect
   x="302.8"
   y="270.8"
   class="st1"
   width="16.5"
   height="9.2"
   id="rect140"
   style="fill:#008ea6;fill-opacity:1" />
<path
   class="st2"
   d="M318.8,271.3v8.2h-15.5v-8.2H318.8 M319.8,270.3h-17.5v10.2h17.5V270.3L319.8,270.3z"
   id="path142" />
<rect
   x="302.8"
   y="270.8"
   class="st1"
   width="16.5"
   height="9.2"
   id="rect144"
   style="fill:#008ea6;fill-opacity:1" />
<path
   class="st2"
   d="M318.8,271.3v8.2h-15.5v-8.2H318.8 M319.8,270.3h-17.5v10.2h17.5V270.3L319.8,270.3z"
   id="path146" />
<rect
   x="320.3"
   y="275"
   class="st1"
   width="16.5"
   height="5"
   id="rect148"
   style="fill:#008ea6;fill-opacity:1" />
<path
   class="st2"
   d="M336.3,275.5v4h-15.5v-4H336.3 M337.3,274.5h-17.5v6h17.5V274.5L337.3,274.5z"
   id="path150" />
<rect
   x="320.3"
   y="275"
   class="st1"
   width="16.5"
   height="5"
   id="rect152"
   style="fill:#008ea6;fill-opacity:1" />
<path
   class="st2"
   d="M336.3,275.5v4h-15.5v-4H336.3 M337.3,274.5h-17.5v6h17.5V274.5L337.3,274.5z"
   id="path154" />
<rect
   x="337.8"
   y="277.3"
   class="st1"
   width="16.5"
   height="2.6"
   id="rect156"
   style="fill:#008ea6;fill-opacity:1" />
<path
   class="st2"
   d="M353.8,277.8v1.6h-15.5v-1.6H353.8 M354.8,276.8h-17.5v3.6h17.5V276.8L354.8,276.8z"
   id="path158" />
<rect
   x="337.8"
   y="277.3"
   class="st1"
   width="16.5"
   height="2.6"
   id="rect160"
   style="fill:#008ea6;fill-opacity:1" />
<path
   class="st2"
   d="M353.8,277.8v1.6h-15.5v-1.6H353.8 M354.8,276.8h-17.5v3.6h17.5V276.8L354.8,276.8z"
   id="path162" />
<rect
   x="355.3"
   y="275.2"
   class="st1"
   width="16.5"
   height="4.7"
   id="rect164"
   style="fill:#008ea6;fill-opacity:1" />
<path
   class="st2"
   d="M371.3,275.7v3.7h-15.5v-3.7H371.3 M372.3,274.7h-17.5v5.7h17.5V274.7L372.3,274.7z"
   id="path166" />
<rect
   x="355.3"
   y="275.2"
   class="st1"
   width="16.5"
   height="4.7"
   id="rect168"
   style="fill:#008ea6;fill-opacity:1" />
<path
   class="st2"
   d="M371.3,275.7v3.7h-15.5v-3.7H371.3 M372.3,274.7h-17.5v5.7h17.5V274.7L372.3,274.7z"
   id="path170" />
<rect
   x="372.8"
   y="276.8"
   class="st1"
   width="16.5"
   height="3.2"
   id="rect172"
   style="fill:#008ea6;fill-opacity:1" />
<path
   class="st2"
   d="M388.7,277.3v2.2h-15.5v-2.2H388.7 M389.7,276.3h-17.5v4.2h17.5V276.3L389.7,276.3z"
   id="path174" />
<rect
   x="372.8"
   y="276.8"
   class="st1"
   width="16.5"
   height="3.2"
   id="rect176"
   style="fill:#008ea6;fill-opacity:1" />
<path
   class="st2"
   d="M388.7,277.3v2.2h-15.5v-2.2H388.7 M389.7,276.3h-17.5v4.2h17.5V276.3L389.7,276.3z"
   id="path178" />
<rect
   x="389.7"
   y="279.7"
   class="st1"
   width="17.5"
   height="0.8"
   id="rect180"
   style="fill:#008ea6;fill-opacity:1" />
<polygon
   class="st2"
   points="407.2,279.7 389.7,279.7 389.7,280.5 407.2,280.5 "
   id="polygon182" />
<rect
   x="389.7"
   y="279.7"
   class="st1"
   width="17.5"
   height="0.8"
   id="rect184"
   style="fill:#008ea6;fill-opacity:1" />
<polygon
   class="st2"
   points="407.2,279.7 389.7,279.7 389.7,280.5 407.2,280.5 "
   id="polygon186" />
<rect
   x="407.7"
   y="279.1"
   class="st1"
   width="16.5"
   height="0.8"
   id="rect188"
   style="fill:#008ea6;fill-opacity:1" />
<polygon
   class="st2"
   points="424.7,278.6 407.2,278.6 407.2,280.5 424.7,280.5 "
   id="polygon190" />
<rect
   x="407.7"
   y="279.1"
   class="st1"
   width="16.5"
   height="0.8"
   id="rect192"
   style="fill:#008ea6;fill-opacity:1" />
<polygon
   class="st2"
   points="424.7,278.6 407.2,278.6 407.2,280.5 424.7,280.5 "
   id="polygon194" />
<path
   class="st1"
   d="M424.7,280.5h17.5H424.7z"
   id="path196"
   style="fill:#008ea6;fill-opacity:1" />
<path
   class="st2"
   d="M442.2,280.5h-17.5H442.2z"
   id="path198" />
<path
   class="st1"
   d="M424.7,280.5h17.5H424.7z"
   id="path200"
   style="fill:#008ea6;fill-opacity:1" />
<path
   class="st2"
   d="M442.2,280.5h-17.5H442.2z"
   id="path202" />
<rect
   x="442.2"
   y="279.7"
   class="st1"
   width="17.5"
   height="0.8"
   id="rect204"
   style="fill:#008ea6;fill-opacity:1" />
<polygon
   class="st2"
   points="459.7,279.7 442.2,279.7 442.2,280.5 459.7,280.5 "
   id="polygon206" />
<rect
   x="442.2"
   y="279.7"
   class="st1"
   width="17.5"
   height="0.8"
   id="rect208"
   style="fill:#008ea6;fill-opacity:1" />
<polygon
   class="st2"
   points="459.7,279.7 442.2,279.7 442.2,280.5 459.7,280.5 "
   id="polygon210" />
<rect
   x="459.7"
   y="279.9"
   class="st1"
   width="17.5"
   height="0.5"
   id="rect212"
   style="fill:#008ea6;fill-opacity:1" />
<polygon
   class="st2"
   points="477.2,279.9 459.7,279.9 459.7,280.5 477.2,280.5 "
   id="polygon214" />
<rect
   x="459.7"
   y="279.9"
   class="st1"
   width="17.5"
   height="0.5"
   id="rect216"
   style="fill:#008ea6;fill-opacity:1" />
<polygon
   class="st2"
   points="477.2,279.9 459.7,279.9 459.7,280.5 477.2,280.5 "
   id="polygon218" />
<path
   class="st3"
   d="M520,4"
   id="path220" />
<path
   class="st0"
   d="M495.1,280.5"
   id="path222" />
<path
   class="st0"
   d="M39.2,280.5"
   id="path224" />
<text
   transform="matrix(1 0 0 1 20.5327 218.29)"
   class="st4 st5 st6"
   id="text226"
   style="fill:#eee8d5;fill-opacity:1;">250</text>
<text
   transform="matrix(1 0 0 1 20.5327 153.2598)"
   class="st4 st5 st6"
   id="text228"
   style="fill:#eee8d5;fill-opacity:1;">500</text>
<text
   transform="matrix(1 0 0 1 20.5327 88.2202)"
   class="st4 st5 st6"
   id="text230"
   style="fill:#eee8d5;fill-opacity:1;">750</text>
<text
   transform="matrix(1 0 0 1 12.8999 23.1899)"
   class="st4 st5 st6"
   id="text232"
   style="fill:#eee8d5;fill-opacity:1;">1 000</text>
<text
   transform="matrix(1 0 0 1 37.8101 290.8496)"
   class="st4 st5 st6"
   id="text234"
   style="fill:#eee8d5;fill-opacity:1;">0</text>
<text
   transform="matrix(1 0 0 1 68.3301 290.8496)"
   class="st4 st5 st6"
   id="text236"
   style="fill:#eee8d5;fill-opacity:1;">100</text>
<text
   transform="matrix(1 0 0 1 103.2998 290.8496)"
   class="st4 st5 st6"
   id="text238"
   style="fill:#eee8d5;fill-opacity:1;">200</text>
<text
   transform="matrix(1 0 0 1 138.27 290.8496)"
   class="st4 st5 st6"
   id="text240"
   style="fill:#eee8d5;fill-opacity:1;">300</text>
<text
   transform="matrix(1 0 0 1 173.2402 290.8496)"
   class="st4 st5 st6"
   id="text242"
   style="fill:#eee8d5;fill-opacity:1;">400</text>
<text
   transform="matrix(1 0 0 1 208.21 290.8496)"
   class="st4 st5 st6"
   id="text244"
   style="fill:#eee8d5;fill-opacity:1;">500</text>
<text
   transform="matrix(1 0 0 1 243.1797 290.8496)"
   class="st4 st5 st6"
   id="text246"
   style="fill:#eee8d5;fill-opacity:1;">600</text>
<text
   transform="matrix(1 0 0 1 278.1504 290.8496)"
   class="st4 st5 st6"
   id="text248"
   style="fill:#eee8d5;fill-opacity:1;">700</text>
<text
   transform="matrix(1 0 0 1 313.1201 290.8496)"
   class="st4 st5 st6"
   id="text250"
   style="fill:#eee8d5;fill-opacity:1;">800</text>
<text
   transform="matrix(1 0 0 1 348.0898 290.8496)"
   class="st4 st5 st6"
   id="text252"
   style="fill:#eee8d5;fill-opacity:1;">900</text>
<text
   transform="matrix(1 0 0 1 380.8398 290.8496)"
   class="st4 st5 st6"
   id="text254"
   style="fill:#eee8d5;fill-opacity:1;">1 000</text>
<text
   transform="matrix(1 0 0 1 415.8096 290.8496)"
   class="st4 st5 st6"
   id="text256"
   style="fill:#eee8d5;fill-opacity:1;">1 100</text>
<text
   transform="matrix(1 0 0 1 450.7803 290.8496)"
   class="st4 st5 st6"
   id="text258"
   style="fill:#eee8d5;fill-opacity:1;">1 200</text>
<text
   transform="matrix(1 0 0 1 485.75 290.8496)"
   class="st4 st5 st6"
   id="text260"
   style="fill:#eee8d5;fill-opacity:1;">1 300</text>
<text
   transform="translate(126.8301,305.7695)"
   class="st4 st5 st7"
   id="text262"
   style="fill:#eee8d5;fill-opacity:1;"><tspan
     style="fill:#eee8d5;fill-opacity:1;"
     id="tspan9065">Distance entre le site de prélèvement et l’équipe de greffe (km)</tspan></text>
<text
   transform="matrix(0 -1 1 0 11.1602 273.5297)"
   class="st4 st5 st7"
   id="text264"
   style="fill:#eee8d5;fill-opacity:1;">Nombre de greffons greffés au score ou au local</text>
<path
   class="st8"
   d="M199.7,146.7"
   id="path266" />
<line
   class="st9"
   x1="36.7"
   y1="215.4"
   x2="39.2"
   y2="215.4"
   id="line268"
   style="stroke:#eee8d5;stroke-opacity:1" />
<line
   class="st9"
   x1="36.7"
   y1="150.4"
   x2="39.2"
   y2="150.4"
   id="line270"
   style="stroke:#eee8d5;stroke-opacity:1" />
<line
   class="st9"
   x1="36.7"
   y1="85.4"
   x2="39.2"
   y2="85.4"
   id="line272"
   style="stroke:#eee8d5;stroke-opacity:1" />
<line
   class="st9"
   x1="36.7"
   y1="20.3"
   x2="39.2"
   y2="20.3"
   id="line274"
   style="stroke:#eee8d5;stroke-opacity:1" />
<line
   class="st9"
   x1="40"
   y1="283.1"
   x2="40"
   y2="280.6"
   id="line276"
   style="stroke:#eee8d5;stroke-opacity:1" />
<line
   class="st9"
   x1="75"
   y1="283.1"
   x2="75"
   y2="280.6"
   id="line278"
   style="stroke:#eee8d5;stroke-opacity:1" />
<line
   class="st9"
   x1="110"
   y1="283.1"
   x2="110"
   y2="280.6"
   id="line280"
   style="stroke:#eee8d5;stroke-opacity:1" />
<line
   class="st9"
   x1="144.9"
   y1="283.1"
   x2="144.9"
   y2="280.6"
   id="line282"
   style="stroke:#eee8d5;stroke-opacity:1" />
<line
   class="st9"
   x1="179.9"
   y1="283.1"
   x2="179.9"
   y2="280.6"
   id="line284"
   style="stroke:#eee8d5;stroke-opacity:1" />
<line
   class="st9"
   x1="214.9"
   y1="283.1"
   x2="214.9"
   y2="280.6"
   id="line286"
   style="stroke:#eee8d5;stroke-opacity:1" />
<line
   class="st9"
   x1="249.9"
   y1="283.1"
   x2="249.9"
   y2="280.6"
   id="line288"
   style="stroke:#eee8d5;stroke-opacity:1" />
<line
   class="st9"
   x1="284.8"
   y1="283.1"
   x2="284.8"
   y2="280.6"
   id="line290"
   style="stroke:#eee8d5;stroke-opacity:1" />
<line
   class="st9"
   x1="319.8"
   y1="283.1"
   x2="319.8"
   y2="280.6"
   id="line292"
   style="stroke:#eee8d5;stroke-opacity:1" />
<line
   class="st9"
   x1="354.8"
   y1="283.1"
   x2="354.8"
   y2="280.6"
   id="line294"
   style="stroke:#eee8d5;stroke-opacity:1" />
<line
   class="st9"
   x1="389.7"
   y1="283.1"
   x2="389.7"
   y2="280.6"
   id="line296"
   style="stroke:#eee8d5;stroke-opacity:1" />
<line
   class="st9"
   x1="424.7"
   y1="283.1"
   x2="424.7"
   y2="280.6"
   id="line298"
   style="stroke:#eee8d5;stroke-opacity:1" />
<line
   class="st9"
   x1="459.7"
   y1="283.1"
   x2="459.7"
   y2="280.6"
   id="line300"
   style="stroke:#eee8d5;stroke-opacity:1" />
<line
   class="st9"
   x1="494.7"
   y1="283.1"
   x2="494.7"
   y2="280.6"
   id="line302"
   style="stroke:#eee8d5;stroke-opacity:1" />

<polyline
   class="st9"
   points="39.2,20 39.2,280.6 516.1,280.6 "
   id="polyline306"
   style="stroke:#eee8d5;stroke-opacity:1" />

<rect
   x="115.3"
   y="79.7"
   class="st12"
   width="314.7"
   height="90.3"
   id="rect310" />
<text
   transform="matrix(1 0 0 1 115.3335 101.9863)"
   class="st13 st5 st14"
   id="text312"
   style="fill:#eee8d5;fill-opacity:1;">Calibration du frein de la distance avec une régression </text>
<text
   transform="matrix(1 0 0 1 115.3335 115.1863)"
   class="st13 st5 st14"
   id="text314"
   style="fill:#eee8d5;fill-opacity:1;">de Poisson </text>
<text
   transform="matrix(1 0 0 1 115.3335 138.1863)"
   class="st15 st5 st16"
   id="text316"
   style="fill:#ea5758;fill-opacity:1">y = exp </text>
<text
   transform="matrix(1 0 0 1 166.0335 134.1863)"
   class="st15 st5 st14"
   id="text318"
   style="fill:#ea5758;fill-opacity:1">[-0,48 * log (x) + 6,9]</text>
<text
   transform="matrix(1 0 0 1 209.0005 162.4761)"
   class="st13 st5 st14"
   id="text320"
   style="fill:#eee8d5;fill-opacity:1;">Frein de la distance α = - 0,48</text>
<line
   class="st9"
   x1="187.7"
   y1="143"
   x2="205"
   y2="160.3"
   id="line322"
   style="stroke:#eee8d5;stroke-opacity:1" />
<polygon
   class="st13"
   points="182.7,138 186.8,147.9 188,143.4 192.6,142.2 "
   id="polygon324"
   style="fill:#eee8d5;fill-opacity:1" />
<polyline
   class="st17"
   points="47.8,17.1 65.3,240.6 82.8,251.7 100.2,256.8 117.7,259.8 135.2,261.9 152.7,263.5 170.2,264.7   187.7,265.6 205.1,266.5 222.6,267.1 240.1,267.7 257.6,268.2 275.1,268.7 292.6,269.1 310,269.5 327.5,269.8 345,270.1   362.5,270.4 380,270.7 397.5,270.9 415,271.1 432.5,271.3 449.9,271.5 467.4,271.7 "
   id="polyline326"
   style="stroke:#ea5758;stroke-opacity:1;stroke-width:3;stroke-miterlimit:10;stroke-dasharray:none;" />
</svg>
