<?xml version="1.0" encoding="UTF-8" standalone="no"?>
<!-- Created with Inkscape (http://www.inkscape.org/) -->

<svg
   version="1.1"
   id="svg2"
   xml:space="preserve"
   width="513.5"
   height="360"
   viewBox="0 0 513.5 360"
   sodipodi:docname="F_post_grf.svg"
   inkscape:version="1.1.2 (0a00cf5339, 2022-02-04, custom)"
   inkscape:export-filename="/run/user/1000/gvfs/sftp:host=geographie.xyz,port=2222,user=florian/home/florian/thèse/soutenance/assets/images/F_post_grf.png"
   inkscape:export-xdpi="300"
   inkscape:export-ydpi="300"
   xmlns:inkscape="http://www.inkscape.org/namespaces/inkscape"
   xmlns:sodipodi="http://sodipodi.sourceforge.net/DTD/sodipodi-0.dtd"
   xmlns="http://www.w3.org/2000/svg"
   xmlns:svg="http://www.w3.org/2000/svg"><defs
     id="defs6"><clipPath
       clipPathUnits="userSpaceOnUse"
       id="clipPath248"><path
         d="m 41,199 h 148 v 51 H 41 Z"
         id="path246" /></clipPath><clipPath
       clipPathUnits="userSpaceOnUse"
       id="clipPath260"><path
         d="m 41,204 h 148 v 46 H 41 Z"
         id="path258" /></clipPath><clipPath
       clipPathUnits="userSpaceOnUse"
       id="clipPath318"><path
         d="M 0,270 H 385.125 V 0 H 0 Z"
         id="path316" /></clipPath></defs><sodipodi:namedview
     id="namedview4"
     pagecolor="#ffffff"
     bordercolor="#666666"
     borderopacity="1.0"
     inkscape:pageshadow="2"
     inkscape:pageopacity="0.0"
     inkscape:pagecheckerboard="0"
     showgrid="false"
     inkscape:zoom="1.4279628"
     inkscape:cx="201.68592"
     inkscape:cy="148.8134"
     inkscape:window-width="1920"
     inkscape:window-height="1034"
     inkscape:window-x="1920"
     inkscape:window-y="22"
     inkscape:window-maximized="1"
     inkscape:current-layer="g74" /><g
     id="g8"
     inkscape:groupmode="layer"
     inkscape:label="figure33"
     transform="matrix(1.3333333,0,0,-1.3333333,0,360)"><text
       transform="matrix(1,0,0,-1,21.1289,48.4971)"
       style="font-variant:normal;font-weight:normal;font-stretch:normal;font-size:6px;font-family:'DejaVu Sans';-inkscape-font-specification:DejaVuSans;writing-mode:lr-tb;fill:#eee8d5;fill-opacity:1;fill-rule:nonzero;stroke:none;opacity:0.8"
       id="text32"><tspan
         x="0 3.816"
         y="0"
         sodipodi:role="line"
         id="tspan10">0%</tspan><tspan
         x="-3.4619999 0.354 4.1700001"
         y="-49.596001"
         sodipodi:role="line"
         id="tspan12">25%</tspan><tspan
         x="-3.4619999 0.354 4.1700001"
         y="-99.192001"
         sodipodi:role="line"
         id="tspan14">50%</tspan><tspan
         x="-3.4619999 0.354 4.1700001"
         y="-148.78799"
         sodipodi:role="line"
         id="tspan16">75%</tspan><tspan
         x="-6.9239998 -3.108 0.708 4.5240002"
         y="-198.384"
         sodipodi:role="line"
         id="tspan18">100%</tspan><tspan
         x="19.511999 68.033997 116.574 165.09599 208.506 257.034 305.57401 354.09601"
         y="7.776"
         sodipodi:role="line"
         id="tspan20">01230123</tspan><tspan
         x="189 192.81599"
         y="-0.012"
         sodipodi:role="line"
         id="tspan22">0%</tspan><tspan
         x="185.53799 189.354 193.17"
         y="-49.608002"
         sodipodi:role="line"
         id="tspan24">25%</tspan><tspan
         x="185.53799 189.354 193.17"
         y="-99.204002"
         sodipodi:role="line"
         id="tspan26">50%</tspan><tspan
         x="185.53799 189.354 193.17"
         y="-148.8"
         sodipodi:role="line"
         id="tspan28">75%</tspan><tspan
         x="182.076 185.892 189.70799 193.524"
         y="-198.396"
         sodipodi:role="line"
         id="tspan30">100%</tspan></text><g
       id="g34"
       transform="translate(35.551,75.75)" /><g
       id="g38"
       transform="translate(35.551,125.324)" /><g
       id="g42"
       transform="translate(35.551,174.898)" /><g
       id="g46"
       transform="translate(35.551,224.477)" /><g
       id="g50"
       transform="translate(35.551,100.5)"
       style="stroke:#eee8d5;stroke-width:0.37500001;stroke-miterlimit:4;stroke-dasharray:none"><path
         d="M 0,0 H 153.449"
         style="fill:none;stroke:#eee8d5;stroke-width:0.37500001;stroke-linecap:butt;stroke-linejoin:round;stroke-miterlimit:4;stroke-dasharray:none;stroke-opacity:1"
         id="path52" /></g><g
       id="g54"
       transform="translate(35.551,199.727)"
       style="stroke:#eee8d5;stroke-width:0.37500001;stroke-miterlimit:4;stroke-dasharray:none"><path
         d="M 0,0 H 153.449"
         style="fill:none;stroke:#eee8d5;stroke-width:0.37500001;stroke-linecap:butt;stroke-linejoin:round;stroke-miterlimit:4;stroke-dasharray:none;stroke-opacity:1"
         id="path56" /></g><g
       id="g58"
       transform="translate(35.551,249.301)"
       style="stroke:#eee8d5;stroke-width:0.37500001;stroke-miterlimit:4;stroke-dasharray:none"><path
         d="M 0,0 H 153.449"
         style="fill:none;stroke:#eee8d5;stroke-width:0.37500001;stroke-linecap:butt;stroke-linejoin:round;stroke-miterlimit:4;stroke-dasharray:none;stroke-opacity:1"
         id="path60" /></g><g
       id="g74"
       transform="translate(224.551,224.477)"><g
         id="g118"
         style="stroke:#eee8d5;stroke-width:0.375;stroke-miterlimit:4;stroke-dasharray:none"><path
           d="M 0,0 H 153.449"
           style="fill:none;stroke:#eee8d5;stroke-width:0.375;stroke-linecap:butt;stroke-linejoin:round;stroke-miterlimit:4;stroke-dasharray:none;stroke-opacity:1"
           id="path120" /></g></g><g
       id="g78"
       transform="translate(224.551,100.5)"
       style="stroke:#eee8d5;stroke-width:0.37500001;stroke-miterlimit:4;stroke-dasharray:none"><path
         d="M 0,0 H 153.449"
         style="fill:none;stroke:#eee8d5;stroke-width:0.37500001;stroke-linecap:butt;stroke-linejoin:round;stroke-miterlimit:4;stroke-dasharray:none;stroke-opacity:1"
         id="path80" /></g><g
       id="g82"
       transform="translate(224.551,150.074)"
       style="stroke:#eee8d5;stroke-width:0.37500001;stroke-miterlimit:4;stroke-dasharray:none"><path
         d="M 0,0 H 153.449"
         style="fill:none;stroke:#eee8d5;stroke-width:0.37500001;stroke-linecap:butt;stroke-linejoin:round;stroke-miterlimit:4;stroke-dasharray:none;stroke-opacity:1"
         id="path84" /></g><g
       id="g86"
       transform="translate(224.551,249.301)"
       style="stroke:#eee8d5;stroke-width:0.37500001;stroke-miterlimit:4;stroke-dasharray:none"><path
         d="M 0,0 H 153.449"
         style="fill:none;stroke:#eee8d5;stroke-width:0.37500001;stroke-linecap:butt;stroke-linejoin:round;stroke-miterlimit:4;stroke-dasharray:none;stroke-opacity:1"
         id="path88" /></g><g
       id="g90"
       transform="translate(35.551,75.75)"
       style="stroke:#eee8d5;stroke-width:0.37500001;stroke-miterlimit:4;stroke-dasharray:none"><path
         d="M 0,0 H 153.449"
         style="fill:none;stroke:#eee8d5;stroke-width:0.37500001;stroke-linecap:butt;stroke-linejoin:round;stroke-miterlimit:4;stroke-dasharray:none;stroke-opacity:1"
         id="path92" /></g><g
       id="g94"
       transform="translate(35.551,125.324)"
       style="stroke:#eee8d5;stroke-width:0.37500001;stroke-miterlimit:4;stroke-dasharray:none"><path
         d="M 0,0 H 153.449"
         style="fill:none;stroke:#eee8d5;stroke-width:0.37500001;stroke-linecap:butt;stroke-linejoin:round;stroke-miterlimit:4;stroke-dasharray:none;stroke-opacity:1"
         id="path96" /></g><g
       id="g98"
       transform="translate(35.551,174.898)"
       style="stroke:#eee8d5;stroke-width:0.37500001;stroke-miterlimit:4;stroke-dasharray:none"><path
         d="M 0,0 H 153.449"
         style="fill:none;stroke:#eee8d5;stroke-width:0.37500001;stroke-linecap:butt;stroke-linejoin:round;stroke-miterlimit:4;stroke-dasharray:none;stroke-opacity:1"
         id="path100" /></g><g
       id="g102"
       transform="translate(35.551,224.477)"
       style="stroke:#eee8d5;stroke-width:0.37500001;stroke-miterlimit:4;stroke-dasharray:none"><path
         d="M 0,0 H 153.449"
         style="fill:none;stroke:#eee8d5;stroke-width:0.37500001;stroke-linecap:butt;stroke-linejoin:round;stroke-miterlimit:4;stroke-dasharray:none;stroke-opacity:1"
         id="path104" /></g><g
       id="g122"
       transform="translate(35.551,150.074)"
       style="stroke:#eee8d5;stroke-width:0.37500001;stroke-miterlimit:4;stroke-dasharray:none"><path
         d="M 0,0 H 153.449"
         style="fill:none;stroke:#eee8d5;stroke-width:0.37500001;stroke-linecap:butt;stroke-linejoin:round;stroke-miterlimit:4;stroke-dasharray:none;stroke-opacity:1"
         id="path124" /></g><g
       id="g126"
       transform="translate(224.551,199.727)"
       style="stroke:#eee8d5;stroke-width:0.37500001;stroke-miterlimit:4;stroke-dasharray:none"><path
         d="M 0,0 H 153.449"
         style="fill:none;stroke:#eee8d5;stroke-width:0.37500001;stroke-linecap:butt;stroke-linejoin:round;stroke-miterlimit:4;stroke-dasharray:none;stroke-opacity:1"
         id="path128" /></g><g
       id="g130"
       transform="translate(377.926,49.426)"><path
         d="M 0,0 H -153.75 V 205.199"
         style="fill:none;stroke:#eee8d5;stroke-width:0.75;stroke-linecap:butt;stroke-linejoin:miter;stroke-miterlimit:10;stroke-dasharray:none;stroke-opacity:1"
         id="path132" /></g><g
       id="g134"
       transform="translate(187.801,49.727)"><path
         d="M 0,0 H -153.75 V 205.199"
         style="fill:none;stroke:#eee8d5;stroke-width:0.75;stroke-linecap:butt;stroke-linejoin:miter;stroke-miterlimit:10;stroke-dasharray:none;stroke-opacity:1"
         id="path136" /></g><g
       id="g138"
       transform="translate(222.074,249.301)"><path
         d="M 0,0 H 2.477"
         style="fill:none;stroke:#eee8d5;stroke-width:0.75;stroke-linecap:butt;stroke-linejoin:miter;stroke-miterlimit:10;stroke-dasharray:none;stroke-opacity:1"
         id="path140" /></g><g
       id="g142"
       transform="translate(222.074,224.477)"><path
         d="M 0,0 H 2.477"
         style="fill:none;stroke:#eee8d5;stroke-width:0.75;stroke-linecap:butt;stroke-linejoin:miter;stroke-miterlimit:10;stroke-dasharray:none;stroke-opacity:1"
         id="path144" /></g><g
       id="g146"
       transform="translate(222.074,199.727)"><path
         d="M 0,0 H 2.477"
         style="fill:none;stroke:#eee8d5;stroke-width:0.75;stroke-linecap:butt;stroke-linejoin:miter;stroke-miterlimit:10;stroke-dasharray:none;stroke-opacity:1"
         id="path148" /></g><g
       id="g150"
       transform="translate(222.074,174.898)"><path
         d="M 0,0 H 2.477"
         style="fill:none;stroke:#eee8d5;stroke-width:0.75;stroke-linecap:butt;stroke-linejoin:miter;stroke-miterlimit:10;stroke-dasharray:none;stroke-opacity:1"
         id="path152" /></g><g
       id="g154"
       transform="translate(222.074,150.074)"><path
         d="M 0,0 H 2.477"
         style="fill:none;stroke:#eee8d5;stroke-width:0.75;stroke-linecap:butt;stroke-linejoin:miter;stroke-miterlimit:10;stroke-dasharray:none;stroke-opacity:1"
         id="path156" /></g><g
       id="g158"
       transform="translate(222.074,125.324)"><path
         d="M 0,0 H 2.477"
         style="fill:none;stroke:#eee8d5;stroke-width:0.75;stroke-linecap:butt;stroke-linejoin:miter;stroke-miterlimit:10;stroke-dasharray:none;stroke-opacity:1"
         id="path160" /></g><g
       id="g162"
       transform="translate(222.074,100.5)"><path
         d="M 0,0 H 2.477"
         style="fill:none;stroke:#eee8d5;stroke-width:0.75;stroke-linecap:butt;stroke-linejoin:miter;stroke-miterlimit:10;stroke-dasharray:none;stroke-opacity:1"
         id="path164" /></g><g
       id="g166"
       transform="translate(222.074,75.75)"><path
         d="M 0,0 H 2.477"
         style="fill:none;stroke:#eee8d5;stroke-width:0.75;stroke-linecap:butt;stroke-linejoin:miter;stroke-miterlimit:10;stroke-dasharray:none;stroke-opacity:1"
         id="path168" /></g><g
       id="g170"
       transform="translate(222.074,49.426)"><path
         d="M 0,0 H 2.477"
         style="fill:none;stroke:#eee8d5;stroke-width:0.75;stroke-linecap:butt;stroke-linejoin:miter;stroke-miterlimit:10;stroke-dasharray:none;stroke-opacity:1"
         id="path172" /></g><g
       id="g174"
       transform="translate(33.074,249.301)"><path
         d="M 0,0 H 2.477"
         style="fill:none;stroke:#eee8d5;stroke-width:0.75;stroke-linecap:butt;stroke-linejoin:miter;stroke-miterlimit:10;stroke-dasharray:none;stroke-opacity:1"
         id="path176" /></g><g
       id="g178"
       transform="translate(33.074,224.477)"><path
         d="M 0,0 H 2.477"
         style="fill:none;stroke:#eee8d5;stroke-width:0.75;stroke-linecap:butt;stroke-linejoin:miter;stroke-miterlimit:10;stroke-dasharray:none;stroke-opacity:1"
         id="path180" /></g><g
       id="g182"
       transform="translate(33.074,199.727)"><path
         d="M 0,0 H 2.477"
         style="fill:none;stroke:#eee8d5;stroke-width:0.75;stroke-linecap:butt;stroke-linejoin:miter;stroke-miterlimit:10;stroke-dasharray:none;stroke-opacity:1"
         id="path184" /></g><g
       id="g186"
       transform="translate(33.074,174.898)"><path
         d="M 0,0 H 2.477"
         style="fill:none;stroke:#eee8d5;stroke-width:0.75;stroke-linecap:butt;stroke-linejoin:miter;stroke-miterlimit:10;stroke-dasharray:none;stroke-opacity:1"
         id="path188" /></g><g
       id="g190"
       transform="translate(33.074,150.074)"><path
         d="M 0,0 H 2.477"
         style="fill:none;stroke:#eee8d5;stroke-width:0.75;stroke-linecap:butt;stroke-linejoin:miter;stroke-miterlimit:10;stroke-dasharray:none;stroke-opacity:1"
         id="path192" /></g><g
       id="g194"
       transform="translate(33.074,125.324)"><path
         d="M 0,0 H 2.477"
         style="fill:none;stroke:#eee8d5;stroke-width:0.75;stroke-linecap:butt;stroke-linejoin:miter;stroke-miterlimit:10;stroke-dasharray:none;stroke-opacity:1"
         id="path196" /></g><g
       id="g198"
       transform="translate(33.074,100.5)"><path
         d="M 0,0 H 2.477"
         style="fill:none;stroke:#eee8d5;stroke-width:0.75;stroke-linecap:butt;stroke-linejoin:miter;stroke-miterlimit:10;stroke-dasharray:none;stroke-opacity:1"
         id="path200" /></g><g
       id="g202"
       transform="translate(33.074,75.75)"><path
         d="M 0,0 H 2.477"
         style="fill:none;stroke:#eee8d5;stroke-width:0.75;stroke-linecap:butt;stroke-linejoin:miter;stroke-miterlimit:10;stroke-dasharray:none;stroke-opacity:1"
         id="path204" /></g><g
       id="g206"
       transform="translate(33.074,49.426)"><path
         d="M 0,0 H 2.477"
         style="fill:none;stroke:#eee8d5;stroke-width:0.75;stroke-linecap:butt;stroke-linejoin:miter;stroke-miterlimit:10;stroke-dasharray:none;stroke-opacity:1"
         id="path208" /></g><g
       id="g210"
       transform="translate(42.375,49.727)"><path
         d="M 0,0 V -2.403"
         style="fill:none;stroke:#eee8d5;stroke-width:0.75;stroke-linecap:butt;stroke-linejoin:miter;stroke-miterlimit:10;stroke-dasharray:none;stroke-opacity:1"
         id="path212" /></g><g
       id="g214"
       transform="translate(90.824,49.727)"><path
         d="M 0,0 V -2.403"
         style="fill:none;stroke:#eee8d5;stroke-width:0.75;stroke-linecap:butt;stroke-linejoin:miter;stroke-miterlimit:10;stroke-dasharray:none;stroke-opacity:1"
         id="path216" /></g><g
       id="g218"
       transform="translate(139.352,49.727)"><path
         d="M 0,0 V -2.403"
         style="fill:none;stroke:#eee8d5;stroke-width:0.75;stroke-linecap:butt;stroke-linejoin:miter;stroke-miterlimit:10;stroke-dasharray:none;stroke-opacity:1"
         id="path220" /></g><g
       id="g222"
       transform="translate(187.801,49.727)"><path
         d="M 0,0 V -2.403"
         style="fill:none;stroke:#eee8d5;stroke-width:0.75;stroke-linecap:butt;stroke-linejoin:miter;stroke-miterlimit:10;stroke-dasharray:none;stroke-opacity:1"
         id="path224" /></g><g
       id="g226"
       transform="translate(231.449,49.727)"><path
         d="M 0,0 V -2.403"
         style="fill:none;stroke:#eee8d5;stroke-width:0.75;stroke-linecap:butt;stroke-linejoin:miter;stroke-miterlimit:10;stroke-dasharray:none;stroke-opacity:1"
         id="path228" /></g><g
       id="g230"
       transform="translate(279.898,49.727)"><path
         d="M 0,0 V -2.403"
         style="fill:none;stroke:#eee8d5;stroke-width:0.75;stroke-linecap:butt;stroke-linejoin:miter;stroke-miterlimit:10;stroke-dasharray:none;stroke-opacity:1"
         id="path232" /></g><g
       id="g234"
       transform="translate(328.352,49.727)"><path
         d="M 0,0 V -2.403"
         style="fill:none;stroke:#eee8d5;stroke-width:0.75;stroke-linecap:butt;stroke-linejoin:miter;stroke-miterlimit:10;stroke-dasharray:none;stroke-opacity:1"
         id="path236" /></g><g
       id="g238"
       transform="translate(376.801,49.727)"><path
         d="M 0,0 V -2.403"
         style="fill:none;stroke:#eee8d5;stroke-width:0.75;stroke-linecap:butt;stroke-linejoin:miter;stroke-miterlimit:10;stroke-dasharray:none;stroke-opacity:1"
         id="path240" /></g><g
       id="g242"><g
         id="g244"
         clip-path="url(#clipPath248)"><g
           id="g250"
           transform="translate(42.523,249.301)"><path
             d="m 0,0 v -1.653 h 0.153 v -1.648 h 0.074 v -1.352 h 0.148 v -1.421 h 0.153 v -0.602 h 0.148 v -0.301 h 0.153 v -0.449 h 0.074 v -0.75 H 1.051 V -8.477 H 1.204 V -8.699 H 1.352 V -9 h 0.074 v -0.449 h 0.153 v -0.602 H 1.727 V -10.5 h 0.148 v -0.301 h 0.079 v -0.375 h 0.148 v -0.227 H 2.25 v -0.296 H 2.403 V -12 h 0.074 v -0.301 h 0.148 v -0.523 h 0.153 v -0.153 h 0.148 v -0.301 h 0.153 v -0.148 h 0.074 v -0.227 h 0.148 v -0.449 h 0.153 v -0.301 h 0.148 v -0.074 h 0.074 v -0.222 h 0.153 v -0.375 h 0.148 v -0.079 h 0.148 v -0.074 h 0.079 v -0.074 h 0.148 v -0.148 H 4.5 v -0.301 h 0.153 v -0.227 h 0.148 v -0.074 h 0.074 v -0.301 h 0.153 v -0.074 h 0.148 v -0.148 h 0.153 v -0.454 h 0.148 v -0.074 h 0.074 v -0.074 h 0.153 v -0.074 h 0.148 v -0.153 H 6 v -0.148 h 0.227 v -0.148 h 0.148 v -0.153 h 0.227 v -0.074 H 6.75 V -18 h 0.153 v -0.301 h 0.148 v -0.227 h 0.074 v -0.148 h 0.301 v -0.074 h 0.301 v -0.153 h 0.074 v -0.222 h 0.153 v -0.074 h 0.148 v -0.079 H 8.25 V -19.5 h 0.227 v -0.074 h 0.148 v -0.227 h 0.153 v -0.074 h 0.148 v -0.153 h 0.375 v -0.148 h 0.153 v -0.074 h 0.074 v -0.227 h 0.148 v -0.074 h 0.153 v -0.074 h 0.148 v -0.074 h 0.227 v -0.079 h 0.148 v -0.148 H 10.5 v -0.227 h 0.227 v -0.148 h 0.301 v -0.227 h 0.222 v -0.222 h 0.153 v -0.074 h 0.301 v -0.301 h 0.074 v -0.074 h 0.148 v -0.079 h 0.153 v -0.074 h 0.148 v -0.074 h 0.148 v -0.301 h 0.079 v -0.074 h 0.148 v -0.074 h 0.148 v -0.227 h 0.301 v -0.074 h 0.074 v -0.148 h 0.153 v -0.079 h 0.301 v -0.074 h 0.222 v -0.074 h 0.301 v -0.074 h 0.074 v -0.074 h 0.153 v -0.079 h 0.148 v -0.148 h 0.227 V -24 h 0.148 v -0.074 H 15 v -0.079 h 0.153 v -0.148 h 0.222 v -0.301 h 0.301 v -0.074 h 0.375 v -0.227 h 0.301 v -0.222 H 16.5 v -0.153 h 0.079 v -0.074 h 0.148 V -25.5 h 0.148 v -0.074 h 0.227 v -0.079 h 0.148 v -0.074 h 0.153 v -0.148 h 0.148 v -0.074 h 0.375 v -0.079 h 0.153 v -0.074 h 0.222 v -0.148 h 0.449 v -0.153 h 0.375 v -0.074 h 0.301 v -0.074 h 0.227 v -0.074 h 0.148 v -0.074 h 0.153 v -0.153 h 0.074 V -27 h 0.148 v -0.153 h 1.051 v -0.222 h 0.148 v -0.153 h 0.676 v -0.074 h 0.153 v -0.074 h 0.375 v -0.074 h 0.148 v -0.074 h 0.148 v -0.079 h 0.079 v -0.074 h 0.148 v -0.074 h 0.148 v -0.148 h 0.153 v -0.227 h 0.074 V -28.5 h 0.449 v -0.074 h 0.676 v -0.079 h 0.227 v -0.148 h 0.523 v -0.074 H 25.5 v -0.074 h 0.153 v -0.227 h 0.676 v -0.074 h 0.074 v -0.074 h 1.5 v -0.079 h 0.222 v -0.074 h 1.125 v -0.222 h 0.375 v -0.153 h 0.75 V -30 h 0.153 v -0.227 h 0.301 v -0.148 h 1.347 v -0.074 h 0.074 v -0.079 h 0.153 v -0.074 h 0.148 v -0.074 h 0.375 v -0.074 h 0.301 v -0.074 h 0.75 v -0.079 h 0.148 v -0.148 h 0.153 v -0.227 h 1.426 v -0.074 h 0.597 v -0.074 h 0.074 V -31.5 h 0.301 v -0.074 h 0.153 v -0.079 h 0.597 v -0.074 h 0.301 v -0.074 h 0.148 v -0.074 h 0.375 v -0.074 h 0.153 v -0.079 h 0.222 v -0.148 h 0.829 v -0.074 h 0.148 v -0.074 h 0.227 v -0.079 h 0.972 v -0.074 h 0.074 v -0.074 h 0.454 v -0.148 h 0.375 v -0.153 h 0.148 v -0.074 h 1.051 V -33 h 0.148 v -0.074 h 0.153 v -0.079 h 0.75 v -0.148 h 0.671 v -0.074 H 45 v -0.074 h 1.125 v -0.079 h 0.528 v -0.074 h 0.074 v -0.074 h 0.148 v -0.074 h 0.153 v -0.153 h 0.301 v -0.074 h 0.375 v -0.074 h 0.671 v -0.074 h 0.528 v -0.074 h 0.375 v -0.079 h 0.301 v -0.074 h 0.375 v -0.074 h 0.148 v -0.148 h 0.227 v -0.079 h 0.148 v -0.074 h 0.148 v -0.148 h 0.75 v -0.074 h 0.153 v -0.079 H 52.5 v -0.074 h 0.903 v -0.074 h 1.574 v -0.074 h 0.148 v -0.074 H 55.5 v -0.079 h 1.051 v -0.074 h 0.153 v -0.074 h 0.671 v -0.074 h 0.301 v -0.074 h 0.903 v -0.153 h 0.824 V -36 h 0.148 v -0.074 h 0.074 v -0.153 h 0.454 v -0.148 h 0.222 v -0.153 h 0.301 v -0.074 H 61.5 v -0.148 h 0.153 v -0.074 h 0.222 v -0.079 h 0.301 v -0.074 h 0.375 v -0.074 h 0.301 v -0.074 h 0.898 v -0.153 h 0.301 v -0.074 h 0.074 v -0.074 h 0.301 V -37.5 h 0.153 v -0.074 h 0.148 v -0.079 h 0.375 v -0.074 h 0.375 v -0.074 h 0.148 v -0.074 H 66 v -0.074 h 0.829 v -0.227 h 0.222 v -0.074 h 0.153 v -0.074 H 67.5 v -0.079 h 0.375 v -0.074 h 1.5 v -0.074 h 0.528 v -0.074 h 0.676 v -0.074 h 1.046 v -0.079 h 0.75 v -0.148 h 0.153 V -39 h 0.523 v -0.074 h 2.699 v -0.079 h 0.375 v -0.074 h 0.153 v -0.148 H 76.5 v -0.074 h 0.528 v -0.079 h 0.301 v -0.148 h 0.148 v -0.148 h 1.801 v -0.153 h 0.449 v -0.148 h 0.227 v -0.074 h 0.523 v -0.153 h 1.125 v -0.074 h 0.074 V -40.5 h 0.301 v -0.153 h 0.375 v -0.148 h 0.824 v -0.074 h 0.227 v -0.074 h 1.347 v -0.079 h 0.301 v -0.074 h 1.426 v -0.074 H 87 v -0.074 h 0.153 v -0.074 h 0.676 v -0.079 h 0.222 v -0.222 H 88.5 v -0.074 h 0.153 v -0.079 h 0.222 v -0.074 h 0.528 v -0.074 h 0.301 V -42 h 0.222 v -0.074 h 0.824 v -0.153 h 0.375 v -0.074 h 0.153 v -0.074 h 0.301 v -0.153 h 0.222 v -0.074 h 1.051 v -0.074 h 0.676 v -0.074 h 0.301 v -0.074 h 0.074 v -0.153 h 0.301 v -0.148 h 0.148 v -0.074 h 0.074 v -0.227 h 1.125 V -43.5 h 0.227 v -0.074 h 0.301 v -0.079 h 0.074 v -0.074 h 0.972 v -0.074 H 97.5 v -0.148 h 0.301 v -0.079 h 0.903 v -0.148 H 99 v -0.074 h 0.375 v -0.074 h 1.051 v -0.079 h 0.977 v -0.074 h 1.801 v -0.074 h 0.296 v -0.074 h 0.829 v -0.074 h 0.523 v -0.079 h 0.227 v -0.074 h 1.046 v -0.074 h 1.653 V -45 h 0.375 v -0.153 h 0.75 v -0.074 h 1.125 v -0.074 h 0.222 v -0.074 h 0.301 v -0.074 h 0.375 v -0.079 h 0.301 v -0.074 h 0.227 v -0.074 h 0.296 v -0.074 h 0.153 v -0.074 h 0.75 v -0.079 h 0.523 v -0.074 h 0.676 v -0.074 h 0.977 v -0.148 h 1.046 v -0.079 h 0.375 v -0.074 h 0.153 V -46.5 h 1.051 v -0.074 h 0.375 v -0.079 h 1.347 v -0.074 h 1.727 v -0.074 h 0.523 v -0.074 h 2.102 v -0.074 h 1.125 v -0.079 h 0.074 v -0.074 h 0.824 v -0.074 h 0.227 v -0.074 h 1.648 v -0.074 h 0.227 v -0.079 h 0.523 v -0.074 H 129 v -0.074 h 0.301 v -0.074 h 0.227 v -0.074 h 0.301 v -0.079 h 0.222 v -0.074 h 0.301 v -0.074 h 0.375 V -48 h 0.301 v -0.074 h 0.523 v -0.079 h 1.278 v -0.074 h 0.296 v -0.074 h 0.528 v -0.074 h 0.301 v -0.074 h 0.222 v -0.079 h 0.977 v -0.074 h 1.426 v -0.074 h 0.898 v -0.148 h 1.352 v -0.079 h 0.296 v -0.074 h 0.079 v -0.074 h 2.921 v -0.074 h 1.352 v -0.074 H 144 v -0.153 h 0.528 v -0.074 h 0.676 V -49.5 h 190.273"
             style="fill:none;stroke:#088ea7;stroke-width:1.5;stroke-linecap:butt;stroke-linejoin:miter;stroke-miterlimit:10;stroke-dasharray:none;stroke-opacity:1"
             id="path252" /></g></g></g><g
       id="g254"><g
         id="g256"
         clip-path="url(#clipPath260)"><g
           id="g262"
           transform="translate(42.523,249.301)"><path
             d="M 0,0 V -0.75 H 0.153 V -1.801 H 0.227 V -3.375 H 0.375 V -4.801 H 0.528 V -5.176 H 0.676 V -5.625 H 0.829 V -6.074 H 0.903 V -6.602 H 1.051 V -7.125 H 1.204 V -7.574 H 1.352 V -8.102 H 1.426 V -8.477 H 1.579 V -8.551 H 1.727 V -8.778 H 1.875 V -8.926 H 1.954 V -9.227 H 2.102 V -9.449 H 2.25 V -9.676 H 2.403 V -9.75 h 0.074 v -0.449 h 0.148 v -0.153 H 2.778 V -10.5 h 0.148 v -0.227 h 0.153 v -0.148 h 0.074 v -0.074 h 0.148 v -0.079 h 0.153 v -0.375 h 0.148 v -0.296 h 0.074 v -0.079 h 0.153 v -0.148 h 0.148 v -0.227 h 0.148 v -0.148 h 0.079 v -0.148 h 0.148 v -0.375 H 4.5 v -0.153 h 0.153 v -0.148 H 4.801 V -13.5 h 0.227 v -0.227 h 0.301 v -0.074 h 0.222 v -0.375 h 0.153 v -0.148 h 0.148 v -0.227 H 6 v -0.074 h 0.079 v -0.153 H 6.227 V -15 h 0.375 v -0.153 H 6.75 v -0.148 h 0.153 v -0.148 h 0.222 v -0.079 h 0.301 v -0.375 h 0.153 v -0.074 h 0.148 v -0.222 h 0.074 v -0.227 h 0.153 v -0.301 H 8.25 v -0.148 h 0.227 v -0.074 h 0.148 v -0.079 h 0.301 v -0.074 h 0.227 v -0.222 h 0.148 v -0.153 h 0.375 v -0.074 h 0.153 v -0.227 h 0.375 v -0.074 h 0.148 v -0.074 h 0.523 v -0.148 h 0.301 v -0.079 h 0.074 v -0.148 h 0.301 v -0.074 h 0.153 v -0.074 h 0.074 v -0.079 h 0.301 v -0.148 h 0.375 v -0.074 h 0.148 v -0.074 h 0.148 v -0.079 h 0.153 v -0.074 h 0.148 v -0.074 h 0.074 v -0.227 h 0.301 v -0.074 h 0.153 v -0.222 h 0.074 v -0.301 h 0.148 v -0.153 h 0.301 v -0.074 h 0.074 v -0.074 h 0.449 v -0.227 h 0.079 v -0.074 h 0.148 v -0.074 h 0.301 v -0.227 h 0.148 v -0.074 h 0.074 V -21 h 0.829 v -0.153 h 0.148 v -0.148 H 16.5 v -0.074 h 0.079 v -0.074 h 0.296 v -0.079 h 0.153 v -0.148 h 0.523 v -0.074 h 0.074 v -0.074 h 0.153 v -0.153 h 0.148 v -0.074 h 0.227 v -0.148 h 0.449 v -0.079 h 0.375 v -0.074 h 0.148 v -0.074 h 0.301 v -0.227 h 0.227 v -0.148 h 0.375 v -0.074 h 0.148 v -0.227 h 0.153 v -0.074 h 0.148 v -0.074 h 0.074 v -0.074 h 0.153 v -0.079 H 21 v -0.148 h 0.079 v -0.148 h 0.296 v -0.079 h 0.375 v -0.148 h 0.153 V -24 h 0.301 v -0.074 h 0.222 v -0.153 h 0.301 v -0.074 h 0.676 v -0.074 h 0.222 v -0.074 h 0.153 v -0.153 h 0.375 v -0.074 h 0.449 v -0.074 h 0.074 v -0.074 h 0.301 v -0.153 h 0.227 v -0.074 H 25.5 v -0.074 h 0.153 v -0.153 h 0.375 v -0.074 h 0.301 v -0.074 h 0.523 V -25.5 h 0.375 v -0.074 h 0.148 v -0.079 h 0.227 v -0.074 h 0.301 v -0.148 h 0.222 v -0.153 h 0.153 v -0.074 h 0.375 v -0.074 h 0.449 v -0.148 h 0.227 v -0.079 h 0.449 v -0.074 H 30 v -0.074 h 0.153 v -0.227 h 0.375 v -0.074 h 0.824 v -0.074 h 0.375 V -27 h 0.301 v -0.153 h 0.222 v -0.148 h 0.153 v -0.074 h 0.148 v -0.074 h 0.903 v -0.079 h 0.148 v -0.074 h 0.523 v -0.074 h 0.676 v -0.074 h 0.153 v -0.074 h 0.523 v -0.079 H 36 v -0.074 h 0.153 v -0.074 h 0.148 v -0.074 h 0.074 v -0.074 h 0.454 v -0.079 h 0.898 v -0.148 h 0.227 v -0.227 h 0.972 v -0.222 h 0.676 v -0.074 h 0.375 v -0.153 h 1.574 v -0.074 h 0.153 v -0.148 h 0.523 v -0.153 h 0.449 v -0.222 h 0.074 v -0.079 h 0.153 v -0.074 h 0.301 v -0.074 h 0.523 V -30 h 0.148 v -0.074 h 0.079 v -0.079 h 0.296 v -0.074 h 0.079 v -0.074 h 1.347 v -0.074 h 0.449 v -0.153 h 1.426 v -0.148 h 0.301 v -0.074 h 0.898 v -0.074 h 0.829 v -0.079 h 0.222 v -0.074 h 0.449 v -0.148 h 1.426 v -0.074 h 0.153 v -0.079 H 52.5 v -0.148 h 0.375 V -31.5 h 0.153 v -0.074 h 0.676 v -0.079 h 0.597 v -0.074 h 0.676 v -0.148 h 0.148 v -0.074 h 0.153 v -0.079 h 0.898 v -0.074 h 1.051 v -0.148 h 0.824 v -0.074 h 0.301 v -0.079 h 2.324 v -0.074 h 0.449 v -0.074 h 0.227 v -0.148 h 0.301 v -0.079 h 0.898 v -0.148 h 0.153 V -33 h 0.148 v -0.074 H 63 v -0.079 h 0.75 v -0.074 h 0.676 v -0.074 h 0.375 v -0.074 h 0.153 v -0.074 h 0.824 v -0.153 h 0.523 v -0.148 h 0.375 v -0.074 h 0.977 v -0.079 h 0.074 v -0.074 h 1.648 v -0.074 h 0.079 v -0.148 h 0.296 v -0.079 h 0.903 v -0.074 h 0.301 v -0.074 h 0.671 V -34.5 h 0.676 v -0.074 h 0.75 v -0.079 h 0.375 v -0.074 h 1.5 v -0.074 h 0.301 v -0.074 h 0.523 v -0.074 h 0.676 v -0.079 h 0.227 v -0.074 h 1.051 v -0.074 h 0.148 V -35.25 H 78 v -0.074 h 0.153 v -0.079 h 0.523 v -0.074 h 0.528 v -0.074 h 0.074 v -0.074 h 0.597 v -0.074 h 0.375 v -0.079 h 0.676 v -0.074 h 0.528 v -0.074 h 0.222 V -36 h 0.153 v -0.153 h 0.148 v -0.148 h 0.898 v -0.074 h 0.153 v -0.074 h 0.898 v -0.079 h 0.449 v -0.074 h 0.153 v -0.074 h 0.074 v -0.074 h 1.648 v -0.074 h 0.903 v -0.079 h 0.375 v -0.074 h 0.676 v -0.074 h 0.671 v -0.074 h 0.528 v -0.153 h 0.523 v -0.074 h 1.051 v -0.074 h 0.449 v -0.148 h 0.375 v -0.079 h 0.824 v -0.074 H 93 v -0.074 h 0.528 v -0.074 h 0.676 v -0.153 h 0.375 v -0.074 h 1.199 v -0.074 h 0.375 v -0.074 h 1.125 v -0.074 H 97.5 v -0.079 h 0.977 v -0.074 h 1.426 v -0.074 h 0.301 v -0.074 h 0.898 v -0.074 h 0.676 v -0.079 h 1.426 v -0.074 h 0.296 v -0.074 h 0.227 V -39 h 0.676 v -0.153 h 0.676 v -0.074 h 0.296 v -0.074 h 0.227 v -0.074 h 0.148 v -0.074 h 0.375 v -0.079 h 0.301 v -0.074 h 0.153 v -0.148 h 1.796 v -0.074 h 0.676 v -0.153 h 0.528 v -0.074 h 0.296 v -0.074 h 0.301 v -0.074 h 1.125 v -0.079 h 2.852 v -0.074 h 0.523 v -0.074 h 0.227 V -40.5 h 0.676 v -0.074 h 0.296 v -0.079 h 1.426 v -0.074 h 0.301 v -0.074 h 0.227 v -0.074 h 0.296 v -0.074 h 0.153 v -0.079 h 0.074 v -0.222 h 0.676 v -0.074 h 0.375 v -0.079 h 0.449 v -0.074 h 0.523 v -0.074 h 0.375 v -0.074 h 0.153 v -0.074 h 0.375 v -0.079 h 0.824 v -0.074 h 0.148 v -0.074 h 1.426 V -42 h 3.903 v -0.074 h 0.074 v -0.079 h 0.676 v -0.074 h 0.449 v -0.074 h 0.523 v -0.074 h 1.574 v -0.074 h 0.227 v -0.079 h 1.125 v -0.074 h 0.898 v -0.074 h 0.153 v -0.074 h 1.051 v -0.074 h 0.898 v -0.079 h 0.148 v -0.074 h 0.829 v -0.074 h 0.074 v -0.074 h 0.148 v -0.074 h 0.528 v -0.079 h 0.972 v -0.074 h 1.199 v -0.074 h 1.204 V -43.5 h 1.796 v -0.074 h 0.528 v -0.079 h 0.597 v -0.074 h 1.727 v -0.074 h 190.5"
             style="fill:none;stroke:#eb5858;stroke-width:1.5;stroke-linecap:butt;stroke-linejoin:miter;stroke-miterlimit:10;stroke-dasharray:none;stroke-opacity:1"
             id="path264" /></g></g></g><text
       transform="matrix(1,0,0,-1,93.4922,184.5107)"
       style="font-variant:normal;font-weight:normal;font-stretch:normal;font-size:7.5px;font-family:'DejaVu Sans';-inkscape-font-specification:DejaVuSans;writing-mode:lr-tb;fill:#eee8d5;fill-opacity:1;fill-rule:nonzero;stroke:none;opacity:0.8"
       id="text268"><tspan
         x="0 4.7624998 7.1475 13.4325 15.8175 20.5875 22.9725 27.7425 32.512501 37.282501"
         y="0"
         sodipodi:role="line"
         id="tspan266">p = 0,0087</tspan></text><g
       id="g270"
       transform="translate(231.523,249.301)"><path
         d="M 0,0 V -1.125 H 0.153 V -2.25 H 0.227 V -3.602 H 0.375 V -4.875 H 0.528 V -5.324 H 0.676 V -5.699 H 0.829 V -6.074 H 0.903 V -6.676 H 1.051 V -7.051 H 1.204 V -7.352 H 1.352 V -7.653 H 1.426 V -8.102 H 1.579 V -8.403 H 1.727 V -8.699 H 1.875 V -8.926 H 1.954 V -9.227 H 2.102 V -9.375 H 2.25 v -0.301 h 0.153 v -0.148 h 0.074 v -0.301 h 0.148 v -0.301 h 0.153 v -0.148 h 0.148 v -0.227 h 0.153 v -0.148 h 0.074 v -0.153 h 0.148 v -0.222 h 0.153 v -0.301 h 0.148 v -0.227 H 3.676 V -12 h 0.153 v -0.153 h 0.148 v -0.148 h 0.148 v -0.148 h 0.153 v -0.079 H 4.352 V -12.75 H 4.5 v -0.227 h 0.153 v -0.148 h 0.148 v -0.227 H 4.875 V -13.5 h 0.153 v -0.153 h 0.301 v -0.296 h 0.222 v -0.227 h 0.153 v -0.074 h 0.148 v -0.227 H 6 v -0.074 h 0.079 v -0.074 h 0.148 v -0.227 H 6.602 V -15 H 6.75 v -0.074 h 0.153 v -0.153 h 0.148 v -0.148 h 0.074 v -0.074 h 0.301 v -0.227 h 0.153 v -0.074 h 0.148 v -0.153 h 0.074 v -0.222 h 0.153 v -0.153 H 8.25 V -16.5 h 0.375 v -0.227 h 0.227 v -0.074 h 0.301 v -0.148 h 0.148 v -0.079 h 0.153 v -0.074 h 0.074 v -0.074 h 0.148 v -0.074 h 0.153 v -0.153 h 0.148 v -0.074 h 0.227 v -0.074 h 0.148 v -0.074 H 10.5 v -0.153 h 0.375 v -0.074 h 0.153 v -0.074 h 0.148 V -18 h 0.074 v -0.153 h 0.301 v -0.074 h 0.153 v -0.222 h 0.148 v -0.079 h 0.227 v -0.074 h 0.148 v -0.074 h 0.148 v -0.074 h 0.079 v -0.153 h 0.296 v -0.148 h 0.227 v -0.148 h 0.148 v -0.153 h 0.301 v -0.074 h 0.153 v -0.148 h 0.074 v -0.079 h 0.148 v -0.148 h 0.301 v -0.074 h 0.074 v -0.074 h 0.301 v -0.079 h 0.148 v -0.074 h 0.153 v -0.074 h 0.074 V -20.25 H 15 v -0.074 h 0.153 v -0.153 h 0.148 v -0.074 h 0.074 v -0.148 h 0.676 v -0.153 h 0.153 v -0.074 h 0.148 v -0.227 h 0.074 v -0.074 h 0.153 v -0.074 h 0.296 v -0.074 h 0.153 v -0.074 h 0.222 v -0.079 h 0.153 v -0.074 h 0.148 v -0.074 h 0.227 v -0.148 h 0.148 v -0.079 h 0.301 v -0.074 h 0.074 v -0.074 h 0.449 v -0.074 h 0.227 v -0.074 h 0.148 v -0.079 h 0.227 v -0.074 H 19.5 v -0.074 h 0.153 V -22.5 h 0.301 v -0.074 h 0.074 v -0.079 h 0.148 v -0.148 h 0.153 v -0.074 h 0.148 v -0.074 h 0.227 v -0.079 H 21 v -0.074 h 0.153 v -0.074 h 0.074 v -0.074 h 0.148 v -0.153 h 0.528 v -0.074 h 0.301 v -0.074 h 0.222 v -0.074 h 0.301 v -0.074 h 0.148 v -0.079 h 0.227 v -0.074 h 0.148 v -0.074 h 0.153 v -0.148 h 0.222 v -0.079 h 0.301 v -0.074 h 0.676 v -0.074 h 0.074 v -0.074 h 0.153 v -0.074 h 0.148 v -0.079 H 25.5 v -0.074 h 0.153 v -0.148 h 0.222 v -0.074 h 0.454 v -0.079 h 0.074 v -0.074 h 0.824 v -0.074 h 0.375 v -0.074 h 0.301 v -0.074 h 0.222 v -0.153 h 0.977 v -0.074 h 0.148 v -0.148 h 0.375 v -0.079 h 0.153 v -0.074 h 0.375 v -0.074 h 0.222 v -0.074 h 0.153 v -0.153 h 0.301 v -0.074 h 0.824 v -0.074 h 0.375 v -0.074 h 0.148 v -0.074 h 0.074 v -0.079 h 0.153 v -0.074 h 0.148 v -0.074 h 0.676 v -0.074 h 0.375 v -0.074 h 0.523 v -0.079 h 0.153 v -0.148 h 0.898 V -27 h 0.528 v -0.074 H 36 v -0.079 h 0.227 v -0.074 h 0.148 v -0.074 h 0.454 v -0.074 h 0.898 v -0.074 h 0.148 v -0.079 h 0.153 v -0.148 h 0.375 v -0.074 h 0.523 v -0.153 h 0.676 v -0.074 h 0.227 v -0.074 h 0.148 v -0.074 h 0.898 v -0.074 h 0.454 v -0.079 h 0.375 v -0.148 h 0.523 V -28.5 h 0.375 v -0.153 h 0.301 v -0.074 h 0.301 v -0.074 h 0.523 v -0.074 h 0.074 v -0.074 h 0.153 v -0.079 h 0.449 v -0.074 h 0.898 v -0.074 h 0.824 v -0.148 h 0.75 v -0.079 h 0.153 v -0.074 h 0.523 v -0.074 h 0.153 v -0.074 h 0.671 v -0.074 h 0.903 v -0.079 h 0.301 v -0.074 h 0.523 v -0.074 h 0.074 V -30 h 0.153 v -0.074 h 0.148 v -0.079 h 0.301 v -0.074 h 0.75 v -0.074 H 52.5 v -0.148 h 0.903 v -0.079 h 0.676 v -0.074 h 0.898 v -0.148 h 0.301 v -0.074 h 0.898 v -0.079 h 0.528 v -0.074 h 0.523 v -0.074 h 0.449 v -0.074 h 0.676 v -0.074 h 0.227 v -0.079 h 0.898 v -0.074 h 0.148 v -0.074 h 0.454 V -31.5 h 0.222 v -0.074 h 0.824 v -0.079 h 0.227 v -0.074 H 61.5 v -0.074 h 0.153 v -0.074 h 0.222 v -0.074 h 0.676 v -0.079 h 0.153 v -0.074 H 63 v -0.074 h 0.75 v -0.148 h 0.676 v -0.079 h 0.153 v -0.074 h 0.222 v -0.074 h 0.676 v -0.074 h 0.301 v -0.074 h 0.375 v -0.079 h 0.148 v -0.074 h 0.375 v -0.074 h 0.153 V -33 h 0.375 v -0.074 h 0.449 v -0.079 h 1.722 v -0.074 h 0.079 v -0.074 h 0.296 v -0.074 h 0.829 v -0.074 h 0.375 v -0.079 h 1.347 v -0.074 h 0.074 v -0.074 h 0.676 v -0.074 h 0.375 v -0.074 h 1.801 v -0.079 h 0.523 v -0.074 h 0.528 v -0.074 h 0.074 v -0.074 h 0.301 v -0.074 h 0.676 v -0.079 h 0.148 v -0.074 h 0.375 v -0.074 h 0.523 V -34.5 h 0.829 v -0.074 h 0.148 v -0.079 h 0.375 v -0.074 h 0.227 v -0.074 h 0.523 v -0.074 h 0.449 v -0.074 h 0.528 v -0.079 h 0.222 v -0.074 h 0.153 v -0.074 h 0.148 v -0.148 h 0.898 v -0.079 h 0.301 v -0.074 h 0.75 v -0.074 h 0.602 v -0.074 h 0.222 v -0.074 h 1.727 v -0.079 h 0.676 v -0.074 h 0.523 v -0.074 h 0.375 v -0.148 h 0.153 v -0.079 h 0.671 v -0.074 h 0.528 v -0.148 h 0.523 v -0.074 h 0.824 v -0.079 h 0.528 v -0.074 h 0.148 v -0.074 h 0.153 v -0.074 h 0.222 v -0.074 h 0.824 v -0.079 H 93 v -0.074 h 0.829 v -0.074 h 0.074 v -0.074 h 0.301 v -0.074 h 0.148 v -0.079 h 0.074 v -0.074 h 0.153 v -0.074 h 1.199 v -0.148 h 0.449 v -0.079 h 1.051 v -0.074 H 97.5 v -0.074 h 0.301 v -0.074 h 0.903 v -0.074 h 0.671 v -0.079 h 1.051 v -0.074 h 0.676 v -0.074 h 0.676 v -0.074 h 1.722 v -0.074 h 0.227 v -0.079 h 0.602 v -0.074 h 0.222 v -0.074 h 0.528 v -0.074 h 0.296 v -0.074 h 0.75 v -0.079 h 0.301 v -0.074 h 0.375 v -0.074 h 1.352 V -39 h 0.222 v -0.074 h 0.676 v -0.079 h 0.824 v -0.074 h 0.227 v -0.074 h 0.449 v -0.074 h 0.75 v -0.074 h 0.449 v -0.079 h 0.528 v -0.074 h 0.898 v -0.074 h 0.977 v -0.074 h 0.676 v -0.074 h 0.75 v -0.079 h 0.296 v -0.074 h 0.528 v -0.074 h 1.051 v -0.074 h 0.375 v -0.074 h 0.296 v -0.079 h 0.227 v -0.148 h 0.824 V -40.5 h 0.676 v -0.074 h 0.898 v -0.079 h 0.528 v -0.074 h 0.824 v -0.074 h 1.426 v -0.074 h 0.824 v -0.074 h 1.199 v -0.079 h 1.875 v -0.074 h 0.227 v -0.074 h 0.523 v -0.074 h 0.602 v -0.074 h 0.523 v -0.079 h 0.528 v -0.074 h 0.523 v -0.074 h 0.523 v -0.074 h 0.676 v -0.074 h 0.676 v -0.079 h 0.898 v -0.074 h 0.153 v -0.074 h 0.676 V -42 h 0.375 v -0.074 h 1.046 v -0.079 h 0.977 v -0.074 h 0.227 v -0.074 h 0.898 v -0.074 h 0.449 v -0.074 h 1.199 v -0.079 h 1.204 v -0.074 h 1.796 v -0.074 h 0.676 v -0.074 h 1.051 v -0.074 H 144 v -0.079 h 1.204 v -0.074 h 1.273"
         style="fill:none;stroke:#088ea7;stroke-width:1.5;stroke-linecap:butt;stroke-linejoin:miter;stroke-miterlimit:10;stroke-dasharray:none;stroke-opacity:1"
         id="path272" /></g><g
       id="g274"
       transform="translate(231.523,249.301)"><path
         d="M 0,0 V -0.903 H 0.153 V -1.949 H 0.227 V -3 H 0.375 V -4.125 H 0.528 V -4.5 H 0.676 V -4.801 H 0.829 V -5.102 H 0.903 V -5.625 H 1.051 V -5.926 H 1.204 V -6.153 H 1.352 V -6.449 H 1.426 V -6.824 H 1.579 V -7.051 H 1.727 V -7.278 H 1.875 V -7.5 H 1.954 V -7.727 H 2.102 V -7.949 H 2.25 V -8.102 H 2.403 V -8.25 h 0.074 v -0.301 h 0.148 v -0.227 h 0.153 v -0.148 h 0.148 v -0.227 h 0.153 v -0.074 h 0.074 v -0.148 h 0.148 v -0.153 h 0.153 v -0.296 h 0.148 v -0.153 h 0.074 v -0.074 h 0.153 v -0.227 h 0.148 v -0.074 H 4.125 V -10.5 h 0.153 v -0.074 h 0.074 v -0.153 H 4.5 v -0.222 h 0.153 v -0.153 h 0.148 v -0.148 h 0.074 v -0.153 h 0.153 v -0.074 h 0.148 v -0.074 h 0.153 v -0.148 h 0.148 v -0.079 h 0.074 v -0.148 H 5.704 V -12 h 0.148 v -0.153 H 6 v -0.148 h 0.227 v -0.148 h 0.148 v -0.079 h 0.227 v -0.074 H 6.75 v -0.074 h 0.153 v -0.227 h 0.148 v -0.074 h 0.074 v -0.074 h 0.301 v -0.148 h 0.153 v -0.079 h 0.148 v -0.148 h 0.074 v -0.148 h 0.153 v -0.153 H 8.25 v -0.148 h 0.227 v -0.074 h 0.148 v -0.153 h 0.227 v -0.074 h 0.301 v -0.148 h 0.148 v -0.079 h 0.227 v -0.148 h 0.301 v -0.148 h 0.375 v -0.079 h 0.148 v -0.148 H 10.5 V -15 h 0.375 v -0.074 h 0.153 v -0.079 h 0.222 v -0.148 h 0.153 v -0.074 h 0.301 v -0.153 h 0.148 v -0.074 h 0.074 v -0.074 h 0.301 v -0.074 h 0.148 v -0.074 h 0.079 v -0.079 h 0.148 v -0.074 h 0.148 v -0.074 h 0.153 v -0.074 h 0.074 v -0.074 h 0.148 v -0.153 h 0.454 V -16.5 h 0.074 v -0.153 h 0.148 v -0.074 h 0.301 v -0.074 h 0.227 v -0.074 h 0.148 v -0.074 h 0.148 v -0.079 h 0.153 v -0.074 H 15 v -0.074 h 0.153 v -0.148 h 0.222 v -0.153 h 0.301 v -0.074 h 0.375 v -0.074 h 0.153 v -0.074 h 0.148 v -0.153 h 0.074 v -0.074 h 0.153 V -18 h 0.296 v -0.074 h 0.153 v -0.079 h 0.222 v -0.074 h 0.153 v -0.074 h 0.222 v -0.074 h 0.153 v -0.074 h 0.301 v -0.079 h 0.148 v -0.074 h 0.227 v -0.074 h 0.296 v -0.074 h 0.375 v -0.074 h 0.227 v -0.079 h 0.301 v -0.148 h 0.301 v -0.074 h 0.074 v -0.074 h 0.148 v -0.079 h 0.153 v -0.074 h 0.148 v -0.074 h 0.375 V -19.5 h 0.301 v -0.074 h 0.074 v -0.079 h 0.148 v -0.148 h 0.528 v -0.074 h 0.301 v -0.074 h 0.375 v -0.079 h 0.148 v -0.074 h 0.227 v -0.074 h 0.296 v -0.074 h 0.153 v -0.153 h 0.375 v -0.074 h 0.375 v -0.074 h 0.523 v -0.074 h 0.153 v -0.074 h 0.375 v -0.079 H 25.5 v -0.074 h 0.153 V -21 h 0.676 v -0.074 h 0.074 v -0.079 h 0.824 v -0.074 h 0.676 v -0.148 h 0.222 v -0.074 h 0.977 v -0.079 h 0.148 v -0.074 h 0.079 v -0.074 h 0.296 V -21.75 H 30 v -0.074 h 0.153 v -0.079 h 0.375 v -0.148 h 0.824 v -0.074 h 0.301 v -0.074 h 0.375 v -0.079 h 0.222 v -0.074 h 0.153 v -0.074 h 0.301 V -22.5 h 0.523 v -0.074 h 0.75 v -0.079 h 0.148 v -0.074 h 0.153 v -0.074 h 0.898 v -0.074 h 0.528 v -0.074 h 0.449 v -0.079 h 0.222 v -0.074 h 0.301 v -0.074 h 0.75 v -0.074 h 0.301 v -0.074 h 0.301 v -0.079 h 0.222 v -0.074 h 0.375 v -0.074 h 0.301 v -0.074 h 0.676 v -0.074 h 0.227 v -0.079 h 0.148 v -0.074 h 0.898 v -0.074 h 0.676 V -24 h 0.153 v -0.074 h 0.148 v -0.079 h 0.676 v -0.074 h 0.074 v -0.074 h 0.301 v -0.074 h 0.301 v -0.074 h 0.597 v -0.079 h 0.153 v -0.074 h 0.449 v -0.074 h 0.898 v -0.074 h 0.824 v -0.074 h 0.528 v -0.079 h 0.375 v -0.074 h 0.301 v -0.074 h 0.375 v -0.074 h 0.671 v -0.074 h 0.903 v -0.079 h 0.523 v -0.074 h 0.301 v -0.074 h 0.074 V -25.5 h 0.301 v -0.074 h 0.301 v -0.079 h 0.898 v -0.074 H 52.5 v -0.074 h 0.375 v -0.074 h 0.829 v -0.074 h 1.273 v -0.153 h 0.301 v -0.074 h 1.199 v -0.074 h 0.227 v -0.074 h 0.671 v -0.079 h 0.676 v -0.074 h 0.528 v -0.074 h 0.898 v -0.074 h 0.148 v -0.074 h 0.676 v -0.079 h 0.375 v -0.074 h 0.676 v -0.074 H 61.5 V -27 h 0.153 v -0.074 h 0.523 v -0.079 h 0.375 v -0.074 h 0.301 v -0.074 h 0.75 v -0.074 h 0.148 v -0.074 h 0.676 v -0.079 h 0.153 v -0.074 h 0.375 v -0.074 h 0.671 v -0.074 h 0.153 v -0.074 h 0.523 v -0.079 h 0.375 v -0.074 h 0.153 v -0.074 h 0.375 v -0.074 h 0.523 v -0.074 h 1.648 v -0.079 h 0.375 v -0.074 h 0.829 v -0.074 h 0.375 V -28.5 h 1.347 v -0.074 h 0.074 v -0.079 h 0.676 v -0.074 h 1.875 v -0.074 h 0.824 v -0.074 h 0.375 v -0.074 h 0.227 v -0.079 h 0.676 v -0.074 h 0.449 v -0.074 h 0.227 v -0.074 h 0.449 v -0.074 h 1.051 v -0.079 h 0.148 v -0.074 h 0.375 v -0.074 h 0.523 v -0.074 h 0.227 v -0.074 h 0.977 v -0.079 h 0.222 v -0.074 h 0.153 v -0.074 h 0.148 V -30 h 0.375 v -0.074 h 0.676 v -0.079 h 0.523 v -0.074 h 0.977 v -0.074 h 0.222 v -0.074 h 1.727 v -0.074 h 0.676 v -0.079 h 0.676 v -0.074 h 0.222 v -0.074 h 0.153 v -0.074 h 0.449 v -0.074 h 0.75 v -0.079 h 0.301 v -0.074 h 1.046 v -0.074 h 0.227 v -0.074 h 0.449 v -0.074 h 0.153 v -0.079 h 0.222 v -0.074 h 0.824 v -0.074 h 0.903 V -31.5 h 0.375 v -0.074 h 0.301 v -0.153 h 0.222 v -0.148 h 1.352 v -0.074 h 0.301 v -0.079 h 1.046 v -0.074 H 97.5 v -0.074 h 0.301 v -0.074 h 0.903 v -0.074 h 0.671 v -0.079 h 1.051 v -0.074 h 0.977 v -0.074 h 1.801 v -0.074 h 0.296 v -0.074 h 0.829 v -0.079 h 0.222 v -0.074 h 0.528 v -0.074 h 0.523 V -33 h 0.523 v -0.074 h 0.454 v -0.079 h 1.199 v -0.074 h 0.597 v -0.074 h 0.676 v -0.074 h 0.824 v -0.074 h 0.375 v -0.079 h 0.977 v -0.074 h 0.523 v -0.074 h 0.375 v -0.074 h 1.051 v -0.074 h 0.977 v -0.079 h 0.676 v -0.074 h 1.046 v -0.074 h 0.528 v -0.074 h 0.898 v -0.074 h 0.528 v -0.079 h 0.296 v -0.074 h 0.227 v -0.074 h 0.676 V -34.5 h 0.824 v -0.074 h 0.523 v -0.079 h 0.528 v -0.074 h 1.199 v -0.074 h 1.426 v -0.074 h 1.125 v -0.074 h 1.199 v -0.079 h 1.727 v -0.074 h 0.074 v -0.074 h 1.125 v -0.074 h 0.523 v -0.074 h 0.528 v -0.079 h 0.898 v -0.074 h 0.375 v -0.074 h 1.125 v -0.074 h 0.602 v -0.074 h 0.449 v -0.079 h 0.898 v -0.074 h 0.977 v -0.074 h 1.051 V -36 h 0.222 v -0.074 h 0.528 v -0.079 h 0.972 v -0.074 h 1.199 v -0.074 h 1.204 v -0.074 h 2.398 v -0.074 h 0.75 v -0.079 H 144 v -0.074 h 0.977 v -0.074 h 1.5"
         style="fill:none;stroke:#eb5858;stroke-width:1.5;stroke-linecap:butt;stroke-linejoin:miter;stroke-miterlimit:10;stroke-dasharray:none;stroke-opacity:1"
         id="path276" /></g><text
       transform="matrix(1,0,0,-1,285.2812,184.5107)"
       style="font-variant:normal;font-weight:normal;font-stretch:normal;font-size:7.5px;font-family:'DejaVu Sans';-inkscape-font-specification:DejaVuSans;writing-mode:lr-tb;fill:#eee8d5;fill-opacity:1;fill-rule:nonzero;stroke:none;opacity:0.8"
       id="text280"><tspan
         x="0 4.7624998 7.1475 13.4325 18.202499 22.9725 25.3575 30.127501 34.897499 39.6675"
         y="0"
         sodipodi:role="line"
         id="tspan278">p = 0,0011</tspan></text><text
       transform="matrix(1,0,0,-1,87.5938,260.4727)"
       style="font-variant:normal;font-weight:bold;font-stretch:condensed;font-size:6.75px;font-family:'DejaVu Sans Condensed';-inkscape-font-specification:DejaVuSansCondensed-Bold;writing-mode:lr-tb;fill:#eee8d5;fill-opacity:1;fill-rule:nonzero;stroke:none;opacity:0.8"
       id="text284"><tspan
         x="0 4.3740001 8.7007504 11.694375 15.649875 17.728874 21.846375 23.959126 28.285875 32.457375 36.784126 38.896873 42.994125 45.073124 49.399876 53.013149 55.915649 60.03315 153.43425 157.80824 162.13499 165.12727 169.08682 171.16583 175.28333 177.39607 181.49333 183.57233 187.89908 191.51234 194.41486 198.53235 202.64986 204.7626 208.3806 212.70735 215.7003 217.81305 219.89204 224.00955 226.1223 231.16455 235.3158 240.2973 242.41005 246.52756 249.43005 251.5428 253.6218 255.9303 258.00931 262.33606 265.23856 269.56531 273.91229 278.00955 280.91205 282.99106 287.16254"
         y="0"
         sodipodi:role="line"
         id="tspan282">Survie non ajustéeSurvie ajustée sur le DFG et l’intubation</tspan></text><text
       transform="matrix(0,1,1,0,9.8477,47.6133)"
       style="font-variant:normal;font-weight:normal;font-stretch:normal;font-size:6.75px;font-family:'DejaVu Sans';-inkscape-font-specification:DejaVuSans;writing-mode:lr-tb;fill:#eee8d5;fill-opacity:1;fill-rule:nonzero;stroke:none;opacity:0.8"
       id="text288"><tspan
         x="0 4.2862501 8.5623751 11.336625 15.332625 17.209126 21.360374 23.506874 27.793125 31.924126 35.440876 38.086876 40.523624 43.169624 45.943874 50.081627 54.361126 57.877876 62.164124 64.040627 68.178375 72.457878 75.103874 79.241623 81.887627 83.764122 87.895126 92.174622 94.321121 98.607376 102.75862 106.27538 108.42188 112.70812 115.32375 119.475 121.851 124.227 128.37825 131.895 134.0415 138.17924 142.45876 144.60526 148.12199 151.8345 155.9655 158.59801 162.74925 164.89575 167.27174 171.40276 173.27925 177.4305 179.577 183.70799 187.9875 190.134 194.27174 198.55125 200.69775 202.57425 206.70525 210.41776 214.5555"
         y="0"
         sodipodi:role="line"
         id="tspan286">Survie post-transplantation des greffés au score foie ou au local</tspan></text><text
       transform="matrix(1,0,0,-1,87.668,30.6792)"
       style="font-variant:normal;font-weight:normal;font-stretch:normal;font-size:6.75px;font-family:'DejaVu Sans';-inkscape-font-specification:DejaVuSans;writing-mode:lr-tb;fill:#eee8d5;fill-opacity:1;fill-rule:nonzero;stroke:none;opacity:0.8"
       id="text292"><tspan
         x="0 5.1975002 9.4770002 12.10275 16.254 20.405251 22.55175 26.702999 30.9825 33.129002 37.26675 41.546249 45.825748 49.977001 54.12825 187.5825 192.78 197.05949 199.68526 203.8365 207.98775 210.13425 214.28551 218.565 220.7115 224.84924 229.12875 233.40825 237.55949 241.71075"
         y="0"
         sodipodi:role="line"
         id="tspan290">Durée en annéesDurée en années</tspan></text><g
       id="g294"
       transform="translate(148.801,18.523)"><path
         d="M 0,0 H 10.347"
         style="fill:none;stroke:#088ea7;stroke-width:1.5;stroke-linecap:butt;stroke-linejoin:miter;stroke-miterlimit:10;stroke-dasharray:none;stroke-opacity:1"
         id="path296" /></g><g
       id="g298"
       transform="translate(217.426,18.523)"><path
         d="M 0,0 H 10.347"
         style="fill:none;stroke:#eb5858;stroke-width:1.5;stroke-linecap:butt;stroke-linejoin:miter;stroke-miterlimit:10;stroke-dasharray:none;stroke-opacity:1"
         id="path300" /></g><text
       transform="matrix(1,0,0,-1,161.4297,20.6025)"
       style="font-variant:normal;font-weight:normal;font-stretch:normal;font-size:6px;font-family:'DejaVu Sans';-inkscape-font-specification:DejaVuSans;writing-mode:lr-tb;fill:#737373;fill-opacity:1;fill-rule:nonzero;stroke:none"
       id="text310"><tspan
         x="0 3.75 7.302 10.98 14.784 17.136 19.044001 20.712 24.402"
         y="0"
         sodipodi:role="line"
         id="tspan302"
         style="fill:#ffffff">Avant le </tspan><tspan
         x="0 5.8439999 9.5159998 13.326 17.016001 18.684 22.374001 24.282 28.091999 30.558001 34.236 37.787998 39.456001 41.807999 45.486 47.147999 49.481998"
         y="7.1999998"
         sodipodi:role="line"
         id="tspan304"
         style="fill:#ffffff">modèle gravitaire</tspan><tspan
         x="68.459999 72.564003 76.374001 78.708 82.398003 85.524002 87.431999 89.099998 92.790001"
         y="0"
         sodipodi:role="line"
         id="tspan306"
         style="fill:#ffffff">Après le </tspan><tspan
         x="68.459999 74.304001 77.975998 81.786003 85.475998 87.143997 90.834 92.741997 96.552002 99.017998 102.696 106.248 107.916 110.268 113.946 115.608 117.942"
         y="7.1999998"
         sodipodi:role="line"
         id="tspan308"
         style="fill:#ffffff">modèle gravitaire</tspan></text><g
       id="g312"><g
         id="g314"
         clip-path="url(#clipPath318)"><text
           transform="matrix(1,0,0,-1,273.0156,2.8296)"
           style="font-style:italic;font-variant:normal;font-weight:normal;font-stretch:normal;font-size:5.25px;font-family:'DejaVu Sans';-inkscape-font-specification:DejaVuSans-Oblique;writing-mode:lr-tb;fill:#adadad;fill-opacity:1;fill-rule:nonzero;stroke:none"
           id="text322"><tspan
             x="0 3.33375 6.5467501 9.8752499 12.033 14.9205 18.14925 19.81875 21.587999 23.2575 26.848499 30.182249 33.410999 36.739498 39.626999 42.855751 44.525249 47.859001 51.087749 52.757252 54.216751 57.435001 59.1045 62.438251 63.897751 67.110748 72.224251 75.453003 78.786751 82.015503 84.903 86.362503 89.691002 92.919746 94.589249 97.928253 101.26725 104.60625"
             y="0"
             sodipodi:role="line"
             id="tspan320"
             style="fill:#ffffff">Source : Agence de la biomédecine 2020</tspan></text></g></g><g
       id="g114"
       transform="translate(224.551,174.898)"
       style="stroke:#eee8d5;stroke-width:0.375;stroke-miterlimit:4;stroke-dasharray:none"><path
         d="M 0,0 H 153.449"
         style="fill:none;stroke:#eee8d5;stroke-width:0.375;stroke-linecap:butt;stroke-linejoin:round;stroke-miterlimit:4;stroke-dasharray:none;stroke-opacity:1"
         id="path116" /></g><g
       id="g110"
       transform="translate(224.551,125.324)"
       style="stroke:#eee8d5;stroke-width:0.375;stroke-miterlimit:4;stroke-dasharray:none"><path
         d="M 0,0 H 153.449"
         style="fill:none;stroke:#eee8d5;stroke-width:0.375;stroke-linecap:butt;stroke-linejoin:round;stroke-miterlimit:4;stroke-dasharray:none;stroke-opacity:1"
         id="path112" /></g><g
       id="g106"
       transform="translate(224.551,75.75)"
       style="stroke:#eee8d5;stroke-width:0.375;stroke-miterlimit:4;stroke-dasharray:none"><path
         d="M 0,0 H 153.449"
         style="fill:none;stroke:#eee8d5;stroke-width:0.375;stroke-linecap:butt;stroke-linejoin:round;stroke-miterlimit:4;stroke-dasharray:none;stroke-opacity:1"
         id="path108" /></g></g></svg>
