<?xml version="1.0" encoding="UTF-8" standalone="no"?>
<svg
   version="1.1"
   id="Calque_1"
   x="0px"
   y="0px"
   viewBox="0 0 477.9826 506.50571"
   xml:space="preserve"
   sodipodi:docname="figure18.svg"
   inkscape:version="1.1.1 (3bf5ae0d25, 2021-09-20, custom)"
   width="477.9826"
   height="506.50571"
   xmlns:inkscape="http://www.inkscape.org/namespaces/inkscape"
   xmlns:sodipodi="http://sodipodi.sourceforge.net/DTD/sodipodi-0.dtd"
   xmlns:xlink="http://www.w3.org/1999/xlink"
   xmlns="http://www.w3.org/2000/svg"
   xmlns:svg="http://www.w3.org/2000/svg"
   xmlns:rdf="http://www.w3.org/1999/02/22-rdf-syntax-ns#"
   xmlns:cc="http://creativecommons.org/ns#"
   xmlns:dc="http://purl.org/dc/elements/1.1/"><metadata
   id="metadata446"><rdf:RDF><cc:Work
       rdf:about=""><dc:format>image/svg+xml</dc:format><dc:type
         rdf:resource="http://purl.org/dc/dcmitype/StillImage" /></cc:Work></rdf:RDF></metadata><defs
   id="defs444"><rect
   x="-118.02588"
   y="-60.731766"
   width="272.96552"
   height="56.738041"
   id="rect515" /><rect
   x="-130.63058"
   y="-49.272942"
   width="56.148235"
   height="44.11647"
   id="rect485" /><rect
   x="-118.02588"
   y="-60.731766"
   width="206.87068"
   height="49.451317"
   id="rect515-1" /><rect
   x="-118.02588"
   y="-60.731766"
   width="272.96552"
   height="56.738041"
   id="rect528" /><rect
   x="-118.02588"
   y="-60.731766"
   width="184.18336"
   height="52.69236"
   id="rect515-1-0" /><rect
   x="-118.02588"
   y="-60.731766"
   width="184.18336"
   height="52.69236"
   id="rect584" />
		
		
	
		
		
	
	
	
	
	
	
	

	
	
	
	
	
	
	
	
	
	
	
	
	
	
	

	

	
	
	

	
	

	

	

	

	
	
	
	

	

	
	
	
	
	
	
	

	
	
	
	
	

	

	

		
	
		
		
		
	
		
		
	
		
		
	
		
	
		
	
		
	
		
	
		
	
		
	
		
	
		
	
		
	
		
		
		
		
		
		
		
	
		
	
		
	
		
		
		
		
	
		
		
		
		
	
		
		
		
		
	
		
	
			
		
			
		
		
		
	
		
	
		
	
			
		
			
			
			
			
			
			
			
			
		
			
			
			
			
			
		
			
		
			
		
			
		
			
		
			
		
			
		
			
		
			
		
			
		
			
		
			
			
		
			
		
			
		
			
		
			
		
			
		
			
		
			
		
			
		
			
		
			
		
			
		
			
		
			
		
			
		
				
			
				
			
			
		
				
			
				
			
				
			
				
				
			
				
			
					
				
					
				
					
				
					
				</defs><sodipodi:namedview
   pagecolor="#ffffff"
   bordercolor="#666666"
   borderopacity="1"
   objecttolerance="10"
   gridtolerance="10"
   guidetolerance="10"
   inkscape:pageopacity="0"
   inkscape:pageshadow="2"
   inkscape:window-width="1920"
   inkscape:window-height="1034"
   id="namedview442"
   showgrid="false"
   inkscape:zoom="1.2341699"
   inkscape:cx="226.46801"
   inkscape:cy="307.49413"
   inkscape:window-x="0"
   inkscape:window-y="22"
   inkscape:window-maximized="1"
   inkscape:current-layer="g226"
   inkscape:pagecheckerboard="0"
   fit-margin-top="0"
   fit-margin-left="0"
   fit-margin-right="0"
   fit-margin-bottom="0" />
<style
   type="text/css"
   id="style2">
	.st0{fill:#FFFFFF;}
	.st1{fill:none;stroke:#EBEBEB;}
	.st2{stroke:#FFFFFF;stroke-width:2;}
	.st3{clip-path:url(#SVGID_00000041279839125600091430000011100472269778906010_);}
	.st4{fill:none;stroke:#9B9B9B;stroke-width:2;stroke-miterlimit:2;}
	.st5{fill:none;stroke:#1C1C1C;stroke-width:2;stroke-miterlimit:2;}
	.st6{fill:#4D4D4D;}
	.st7{font-family:'DejaVuSans';}
	.st8{font-size:12px;}
	.st9{fill:#D9D9D9;stroke:#333333;stroke-miterlimit:10;}
	.st10{fill:none;stroke:#333333;stroke-miterlimit:10;}
	.st11{fill:#2B2B2B;}
	.st12{fill:#F4F4F4;stroke:#C9C9C9;stroke-miterlimit:10;}
	.st13{fill:#808BA4;}
	.st14{fill:#404040;}
	.st15{font-size:8.4638px;}
	.st16{fill:none;stroke:#9B9B9B;stroke-width:2;}
	.st17{fill:none;stroke:#1C1C1C;stroke-width:2;}
	.st18{font-family:'DejaVuSansCondensed-Bold';}
	.st19{clip-path:url(#SVGID_00000029040443808387464020000014065753949857714611_);}
	.st20{fill:none;stroke:#9B9B9B;stroke-width:2;stroke-miterlimit:2;stroke-dasharray:3,3;}
	.st21{fill:none;stroke:#1C1C1C;stroke-width:2;stroke-miterlimit:2;stroke-dasharray:3,3;}
	.st22{display:none;clip-path:url(#SVGID_00000070086949548812544310000010105833334021188516_);}
	.st23{display:inline;}
	.st24{fill:none;}
	.st25{fill:none;stroke:#9B9B9B;stroke-width:2;stroke-dasharray:3,3;}
	.st26{fill:none;stroke:#1C1C1C;stroke-width:2;stroke-dasharray:3,3;}
</style>
<rect
   x="289"
   y="70"
   class="st0"
   width="184.5"
   height="380"
   id="rect4" /><path
   class="st1"
   d="M 349.2,70 V 450"
   id="path10" /><path
   class="st1"
   d="M 409.4,70 V 450"
   id="path12" /><path
   class="st1"
   d="M 469.5,70 V 450"
   id="path14" /><path
   class="st1"
   d="M 329.5,450"
   id="path18" /><path
   class="st1"
   d="M 329.5,70"
   id="path20" /><path
   class="st1"
   d="M 370.5,450"
   id="path22" /><path
   class="st1"
   d="M 370.5,70"
   id="path24" /><path
   class="st1"
   d="M 411.5,450"
   id="path26" /><path
   class="st1"
   d="M 411.5,70"
   id="path28" /><path
   class="st1"
   d="M 452.5,450"
   id="path30" /><path
   class="st1"
   d="M 452.5,70"
   id="path32" /><path
   class="st1"
   d="M 288.5,377.6 H 473"
   id="path36" /><path
   class="st1"
   d="M 288.5,305.2 H 473"
   id="path38" /><path
   class="st1"
   d="M 288.5,232.8 H 473"
   id="path40" /><path
   class="st1"
   d="M 288.5,160.4 H 473"
   id="path42" /><path
   class="st1"
   d="M 288.5,88.1 H 473"
   id="path44" /><path
   class="st2"
   d="M 288.5,70 V 450"
   id="path50" /><path
   class="st2"
   d="M 288.5,450 H 473"
   id="path52" /><g
   id="g78"
   transform="translate(-13.3,5.3)">
						<g
   id="g76">
							<defs
   id="defs57">
								<rect
   id="SVGID_1_"
   x="302.79999"
   y="64.699997"
   width="184.5"
   height="380" />
							</defs>
							<clipPath
   id="SVGID_00000160176083179258042520000005943532881065342379_">
								<use
   xlink:href="#SVGID_1_"
   style="overflow:visible"
   id="use59"
   x="0"
   y="0"
   width="100%"
   height="100%" />
							</clipPath>
							<g
   clip-path="url(#SVGID_00000160176083179258042520000005943532881065342379_)"
   id="g74">
								<g
   id="g66">
									<g
   id="g64">
										<path
   class="st4"
   d="m 302.8,82.8 h 1 v 3 h 1 2.1 v 3 h 2 6.1 v 3 h 6.2 1 v 3 h 1 6.1 v 3 h 6.1 14.4 v 3 h 14.4 14.4 v 3 h 14.4 1 v 3 h 1 28.7 v 3 h 28.7 2.1 v 3 h 2 1 v 3 h 1 6.2 v 3 h 6.1 8.2 v 0 h 8.2"
   id="path62"
   style="stroke:#eb5858;stroke-opacity:1" />
									</g>
								</g>
								<g
   id="g72">
									<g
   id="g70">
										<path
   class="st5"
   d="m 302.8,82.8 h 27.7 v 10.5 h 27.7 9.2 v 5.2 h 9.2 4.1 v 5.2 h 4.1 17.4 v 5.2 h 17.4 32.8 v 0 h 32.8 1 v 0 h 1"
   id="path68"
   style="stroke:#088ea7;stroke-opacity:1" />
									</g>
								</g>
							</g>
						</g>
					</g><text
   class="st6 st7 st8"
   id="text88"
   x="249.6194"
   y="92.579201">100%</text><text
   class="st6 st7 st8"
   id="text94"
   x="257.405"
   y="165.2988">80%</text><text
   class="st6 st7 st8"
   id="text100"
   x="257.4053"
   y="237.7234">60%</text><text
   class="st6 st7 st8"
   id="text106"
   x="257.40552"
   y="310.4668">40%</text><text
   class="st6 st7 st8"
   id="text112"
   x="257.4053"
   y="383.1864">20%</text><text
   class="st6 st7 st8"
   id="text118"
   x="265.19101"
   y="449.96338">0%</text><path
   id="rect126"
   style="fill:none;stroke:#808080;stroke-miterlimit:10"
   d="m 288.99999,70.7 v 379.20001 l 184.5,0.1"
   class="st10"
   sodipodi:nodetypes="cc" /><text
   class="st11 st7 st8"
   id="text132"
   x="349.42792"
   y="482.89328">Délais (jours)</text><rect
   x="310.10373"
   y="147.26802"
   shape-rendering="crispEdges"
   class="st12"
   width="157.32079"
   height="57.156616"
   id="rect138"
   style="fill:#f5f1e3;fill-opacity:1;stroke-width:1.04339" /><path
   class="st13"
   d="M 319.4,118.1 Z"
   id="path140" /><text
   class="st14 st7 st15"
   id="text142"
   x="340.73361"
   y="184.86893">Ancien modèle d’allocation</text><path
   class="st16"
   d="m 317.982,182.44632 h 19.5"
   id="path144"
   style="stroke:#eb5858;stroke-opacity:1" /><text
   class="st14 st7 st15"
   id="text150"
   x="340.73361"
   y="197.82503">Nouveau modèle d’allocation</text><path
   class="st17"
   d="m 317.982,194.49632 h 19.5"
   id="path152"
   style="stroke:#088ea7;stroke-opacity:1" />
<rect
   x="28"
   y="70"
   class="st0"
   width="184.5"
   height="380"
   id="rect166" />
<path
   class="st1"
   d="M 88.2,70 V 450"
   id="path172" /><path
   class="st1"
   d="M 148.4,70 V 450"
   id="path174" /><path
   class="st1"
   d="M 208.5,70 V 450"
   id="path176" />
<path
   class="st1"
   d="M 28,395.7 H 212.5"
   id="path180" /><path
   class="st1"
   d="M 28,341.4 H 212.5"
   id="path182" /><path
   class="st1"
   d="M 28,287.1 H 212.5"
   id="path184" /><path
   class="st1"
   d="M 28,232.8 H 212.5"
   id="path186" /><path
   class="st1"
   d="M 28,178.5 H 212.5"
   id="path188" /><path
   class="st1"
   d="M 28,124.3 H 212.5"
   id="path190" />
<path
   class="st2"
   d="M 28,70 V 450"
   id="path194" /><path
   class="st2"
   d="M 28,450 H 212.5"
   id="path196" />
<g
   id="g238"
   transform="translate(-13.3,5.3)">
						<defs
   id="defs201">
							<rect
   id="SVGID_00000164502213708798982730000011717123913195899323_"
   x="41.299999"
   y="68.300003"
   width="184.5"
   height="381" />
						</defs>
						<clipPath
   id="SVGID_00000057149636534535842980000007709542043524677304_">
							<use
   xlink:href="#SVGID_00000164502213708798982730000011717123913195899323_"
   style="overflow:visible"
   id="use203"
   x="0"
   y="0"
   width="100%"
   height="100%" />
						</clipPath>
						<g
   clip-path="url(#SVGID_00000057149636534535842980000007709542043524677304_)"
   id="g236">
							<g
   id="g234">
								<g
   transform="translate(28,70)"
   id="g232">
									<g
   id="g230">
										<g
   id="g210">
											<g
   id="g208">
												<path
   class="st20"
   d="m 13,374 h 2 v 0 h 2 v 0 -2.7 0 h 20.1 v 0 h 20 v 0 -2.8 0 h 879.4 v 0 h 879.4"
   id="path206"
   style="stroke:#eb5858;stroke-opacity:1" />
											</g>
										</g>
										<g
   id="g216">
											<g
   id="g214">
												<path
   class="st21"
   d="m 13,374 h 181.5 v 0 H 376"
   id="path212"
   style="stroke:#088ea7;stroke-opacity:1" />
											</g>
										</g>
										<g
   id="g222">
											<g
   id="g220">
												<path
   class="st4"
   d="m 13,374 h 1 v 0 h 1 v 0 -5.5 0 h 1 v 0 h 1 v 0 -5.5 0 h 1 v 0 h 1 v 0 -5.5 0 h 1 v 0 h 1 v 0 -11 0 h 1 v 0 h 1 v 0 -11 0 h 1 v 0 h 1 v 0 -13.5 0 h 1 v 0 h 1 v 0 -5.5 0 h 1 v 0 h 1 v 0 -2.7 0 h 1 v 0 h 1 v 0 -8.2 0 h 1 v 0 h 1 v 0 -2.8 0 h 1 v 0 h 1 v 0 -5.5 0 h 1 v 0 h 1 v 0 -5.5 0 h 1 v 0 h 1 v 0 -8.2 0 h 1 v 0 h 1 v 0 -8.2 0 h 1 v 0 h 1 v 0 -2.7 0 h 1 v 0 h 1 v 0 -2.7 0 h 2 v 0 h 2 v 0 -2.8 0 h 1 v 0 h 1 v 0 -5.5 0 h 1 v 0 h 1 v 0 -2.8 0 h 6 v 0 h 6 v 0 -14 0 h 1 v 0 h 1 v 0 -2.9 0 h 1 v 0 h 1 v 0 -2.8 0 h 1 v 0 h 1 v 0 -2.8 0 h 3 v 0 h 3 v 0 -8.4 0 h 1 v 0 h 1 v 0 -2.8 0 h 1 v 0 h 1 v 0 -5.6 0 h 2 v 0 h 2 v 0 -2.8 0 h 1 v 0 h 1 v 0 -2.8 0 h 2 v 0 h 2 v 0 -2.8 0 h 2 v 0 h 2 v 0 -5.6 0 h 3 v 0 h 3 v 0 -2.8 0 h 2 v 0 h 2 v 0 -2.8 0 h 2 v 0 h 2 v 0 -8.4 0 h 1 v 0 h 1 v 0 -2.8 0 h 1 v 0 h 1 v 0 -5.6 0 h 1 v 0 h 1 v 0 -2.8 0 h 2 v 0 h 2 v 0 -2.8 0 h 1 v 0 h 1 v 0 -2.8 0 h 3 v 0 h 3 v 0 -8.8 0 h 5 v 0 h 5 v 0 -2.8 0 h 1 v 0 h 1 v 0 -2.8 0 h 4 v 0 h 4 v 0 -2.8 0 h 4 v 0 h 4 v 0 -8.4 0 h 1 v 0 h 1 v 0 -2.8 0 h 1 v 0 h 1 v 0 -2.8 0 h 1 v 0 h 1 v 0 -2.8 0 h 1 v 0 h 1 v 0 -2.8 0 h 2 v 0 h 2 v 0 -2.8 0 h 1 v 0 h 1 v 0 -2.8 0 h 5 v 0 h 5 v 0 -5.6 0 h 4 v 0 h 4 v 0 -2.8 0 h 2 v 0 h 2 v 0 -3 0 h 2 v 0 h 2 v 0 -2.8 0 h 810.2 v 0 h 810.2"
   id="path218"
   style="stroke:#eb5858;stroke-opacity:1" />
											</g>
										</g>
										<g
   id="g228">
											<g
   id="g226">
												<path
   class="st5"
   d="m 13,374 h 1 v 0 h 1 v 0 -3.7 0 h 1 v 0 h 1 v 0 -7.5 0 h 1 v 0 h 1 v 0 -7.5 0 h 1 v 0 h 1 v 0 -11.3 0 h 1 v 0 h 1 v 0 -3.7 0 h 1 v 0 h 1 v 0 -3.8 0 h 1 v 0 h 1 v 0 -3.8 0 h 1 v 0 h 1 v 0 -7.5 0 h 1 v 0 h 1 v 0 -7.5 0 h 1 v 0 h 1 v 0 -7.5 0 h 3 v 0 h 3 v 0 -3.8 0 h 1 v 0 h 1 v 0 -7.7 0 h 1 v 0 h 1 v 0 -7.7 0 h 1 v 0 h 1 v 0 -7.7 0 h 1 v 0 h 1 v 0 -3.8 0 h 1 v 0 h 1 v 0 -15.5 0 h 1 v 0 h 1 v 0 -3.9 0 h 1 v 0 h 1 v 0 -3.9 0 h 1 v 0 h 1 v 0 -3.9 0 h 1 v 0 h 1 v 0 -7.7 0 h 1 v 0 h 1 v 0 -3.9 0 h 1 v 0 h 1 v 0 -7.7 0 h 1 v 0 h 1 v 0 -7.7 0 h 2 v 0 h 2 v 0 -7.9 0 h 1 v 0 h 1 v 0 -15.8 0 h 1 v 0 h 1 v 0 -3.9 0 h 3 v 0 h 3 v 0 -7.9 0 h 3 v 0 h 3 v 0 -8 0 h 2 v 0 h 2 v 0 -4 0 h 4 v 0 h 4 v 0 -4 0 h 4 v 0 h 4 v 0 -4 0 h 1 v 0 h 1 v 0 -8 0 h 1 v 0 h 1 v 0 -4 0 h 3 v 0 h 3 v 0 -4 0 h 3 v 0 h 3 v 0 -8.1 0 h 6 v 0 h 6 v 0 -4.1 0 h 1 v 0 h 1 v 0 -12.3 0 h 2 v 0 h 2 v 0 -4.1 0 h 3 v 0 h 3 v 0 -4.1 0 h 5 v 0 h 5 v 0 -4.2 0 h 4 v 0 h 4 v 0 -8.4 0 h 2 v 0 h 2 v 0 -4.3 0 h 1 v 0 h 1 v 0 -8.7 0 h 7 v 0 h 7 v 0 -4.5 0 h 4 v 0 h 4 v 0 -4.6 0 h 93.3 v 0 H 376"
   id="path224"
   style="stroke:#088ea7;stroke-opacity:1" />
											</g>
										</g>
									</g>
								</g>
							</g>
						</g>
					</g><g
   id="g276"
   transform="translate(-13.3,5.3)">
						<defs
   id="defs243">
							<rect
   id="SVGID_00000117659291053198162650000016450953193771923082_"
   x="73.300003"
   y="208.3"
   width="184.5"
   height="381" />
						</defs>
						<clipPath
   id="SVGID_00000103973121126645388900000009266707228889127866_">
							<use
   xlink:href="#SVGID_00000117659291053198162650000016450953193771923082_"
   style="overflow:visible"
   id="use245"
   x="0"
   y="0"
   width="100%"
   height="100%" />
						</clipPath>
						
							<g
   transform="translate(28,70)"
   style="display:none"
   clip-path="url(#SVGID_00000103973121126645388900000009266707228889127866_)"
   id="g274">
							<g
   class="st23"
   id="g272">
								<g
   id="g252">
									<g
   id="g250">
										<path
   class="st20"
   d="m 13.7,373.3 h 2 2 v -2.7 h 20.1 20 v -2.8 c 22.2,0 117.3,0 139.5,0"
   id="path248" />
									</g>
								</g>
								<g
   id="g258">
									<g
   id="g256">
										<path
   class="st21"
   d="M 13.7,373.3 H 198"
   id="path254" />
									</g>
								</g>
								<g
   id="g264">
									<g
   id="g262">
										<path
   class="st4"
   d="m 13.7,373.3 h 1 v 0 h 1 v 0 -5.5 0 h 1 v 0 h 1 v 0 -5.5 0 h 1 v 0 h 1 v 0 -5.5 0 h 1 v 0 h 1 v 0 -11 0 h 1 v 0 h 1 v 0 -11 0 h 1 v 0 h 1 v 0 -13.7 0 h 1 v 0 h 1 v 0 -5.5 0 h 1 v 0 h 1 v 0 -2.7 0 h 1 v 0 h 1 v 0 -8.2 0 h 1 v 0 h 1 v 0 -2.8 0 h 1 v 0 h 1 v 0 -5.5 0 h 1 v 0 h 1 v 0 -5.5 0 h 1 v 0 h 1 v 0 -8.2 0 h 1 v 0 h 1 v 0 -8.2 0 h 1 v 0 h 1 v 0 -2.7 0 h 1 v 0 h 1 v 0 -2.7 0 h 2 v 0 h 2 v 0 -2.8 0 h 1 v 0 h 1 v 0 -5.5 0 h 1 v 0 h 1 v 0 -2.8 0 h 6 v 0 h 6 v 0 -14 0 h 1 v 0 h 1 v 0 -2.8 0 h 1 v 0 h 1 v 0 -2.8 0 h 1 v 0 h 1 v 0 -2.8 0 h 3 v 0 h 3 v 0 -8.4 0 h 1 v 0 h 1 v 0 -2.8 0 h 1 v 0 h 1 v 0 -5.6 0 h 2 v 0 h 2 v 0 -2.8 0 h 1 v 0 h 1 v 0 -2.8 0 h 2 v 0 h 2 v 0 -2.8 0 h 2 v 0 h 2 v 0 -5.6 0 h 3 v 0 h 3 v 0 -2.8 0 h 2 v 0 h 2 v 0 -2.8 0 h 2 v 0 h 2 v 0 -8.4 0 h 1 v 0 h 1 v 0 -2.8 0 h 1 v 0 h 1 v 0 -5.6 0 h 1 v 0 h 1 v 0 -2.8 0 h 2 v 0 h 2 v 0 -2.8 0 h 1 v 0 h 1 v 0 -2.8 0 h 3 v 0 h 3 v 0 -8.4 0 h 5 v 0 h 5 v 0 -2.8 0 h 1 v 0 h 1 v 0 -2.8 0 h 4 v 0 h 4 v 0 -2.8 0 h 4 v 0 h 4 v 0 -8.4 0 h 1 v 0 h 1 v 0 -2.8 0 h 1 v 0 h 1 v 0 -2.8 0 h 1 v 0 h 1 v 0 -3.2 0 h 1 v 0 h 1 v 0 -2.8 0 h 2 v 0 h 2 v 0 -2.8 0 h 1 v 0 h 1 v 0 -2.8 0 h 5 v 0 h 5 v 0 -5.6 0 h 4 v 0 h 4 v 0 -2.8 0 h 2 v 0 h 2 v 0 -2.8 0 h 2 v 0 h 2 v 0 -2.8 0"
   id="path260" />
									</g>
								</g>
								<g
   id="g270">
									<g
   id="g268">
										<path
   class="st5"
   d="m 13.7,373.3 h 1 v 0 h 1 v 0 -3.8 0 h 1 v 0 h 1 v 0 -7.5 0 h 1 v 0 h 1 v 0 -7.5 0 h 1 v 0 h 1 v 0 -11.3 0 h 1 v 0 h 1 v 0 -3.8 0 h 1 v 0 h 1 v 0 -3.8 0 h 1 v 0 h 1 v 0 -3.8 0 h 1 v 0 h 1 v 0 -7.6 0 h 1 v 0 h 1 v 0 -7.6 0 h 1 v 0 h 1 v 0 -7.6 0 h 3 v 0 h 3 v 0 -3.8 0 h 1 v 0 h 1 v 0 -7.7 0 h 1 v 0 h 1 v 0 -7.7 0 h 1 v 0 h 1 v 0 -7.7 0 h 1 v 0 h 1 v 0 -3.9 0 h 1 v 0 h 1 v 0 -15.6 0 h 1 v 0 h 1 v 0 -3.9 0 h 1 v 0 h 1 v 0 -3.9 0 h 1 v 0 h 1 v 0 -3.8 0 h 1 v 0 h 1 v 0 -7.8 0 h 1 v 0 h 1 v 0 -3.9 0 h 1 v 0 h 1 v 0 -7.8 0 h 1 v 0 h 1 v 0 -7.8 0 h 2 v 0 h 2 v 0 -7.9 0 h 1 v 0 h 1 v 0 -15.9 0 h 1 v 0 h 1 v 0 -4 0 h 3 v 0 h 3 v 0 -7.9 0 h 3 v 0 h 3 v 0 -8 0 h 2 v 0 h 2 v 0 -4 0 h 4 v 0 h 4 v 0 -4 0 h 4 v 0 h 4 v 0 -4 0 h 1 v 0 h 1 v 0 -8 0 h 1 v 0 h 1 v 0 -4.1 0 h 3 v 0 h 3 v 0 -4.1 0 h 3 v 0 h 3 v 0 -8.1 0 h 6 v 0 h 6 v 0 -4.1 0 h 1 v 0 h 1 v 0 -12.4 0 h 2 v 0 h 2 v 0 -4.2 0 h 3 v 0 h 3 v 0 -4.2 0 h 5 v 0 h 5 v 0 -4.2 0 h 4 v 0 h 4 v 0 -8.5 0 h 2 v 0 h 2 v 0 -4.4 0 h 1 v 0 h 1 v 0 -4.4 0 h 7 v 0 h 7 v 0 -4.6 0 h 4 v 0 h 4 v 0 -4.7 0 h 22.1 v 0"
   id="path266" />
									</g>
								</g>
							</g>
						</g>
					</g>
<text
   class="st6 st7 st8"
   id="text288"
   x="24.144001"
   y="464.96338">0</text><text
   class="st6 st7 st8"
   id="text292"
   x="80.410995"
   y="464.96338">30</text><text
   class="st6 st7 st8"
   id="text296"
   x="140.58099"
   y="464.96338">60</text><text
   class="st6 st7 st8"
   id="text300"
   x="200.741"
   y="464.96338">90</text>
<text
   class="st6 st7 st8"
   id="text308"
   x="5.2510004"
   y="454.86337">0%</text><text
   class="st6 st7 st8"
   id="text312"
   x="-0.42479974"
   y="345.00339">20%</text><text
   class="st6 st7 st8"
   id="text316"
   x="-0.42479974"
   y="235.43341">40%</text><text
   class="st6 st7 st8"
   id="text320"
   x="-0.42479974"
   y="126.8634">60%</text>
<path
   class="st2"
   d="M 0,0"
   id="path328" /><path
   class="st2"
   d="M 0,0"
   id="path330" /><path
   class="st24"
   d="M 0,0"
   id="path332" /><path
   class="st24"
   d="M 0,0"
   id="path334" />
<text
   class="st6 st7 st8"
   id="text338"
   x="286.14401"
   y="464.96338">0</text><text
   class="st6 st7 st8"
   id="text342"
   x="342.4111"
   y="464.96338">30</text><text
   class="st6 st7 st8"
   id="text346"
   x="402.58102"
   y="464.96338">60</text><text
   class="st6 st7 st8"
   id="text350"
   x="462.74091"
   y="464.96338">90</text>



<rect
   x="61.920422"
   y="373.80511"
   shape-rendering="crispEdges"
   class="st12"
   width="150.28239"
   height="57.189758"
   id="rect374"
   style="fill:#f5f1e3;fill-opacity:1;stroke-width:1.03084" /><path
   class="st13"
   d="M 63.8,319.9 Z"
   id="path376" /><path
   class="st25"
   d="M 65.6,409 H 85.1"
   id="path380"
   style="stroke:#eb5858;stroke-opacity:1" /><text
   class="st14 st7 st15"
   id="text415-6"
   style="font-size:8.4638px;font-family:DejaVuSans;fill:#404040"
   x="87.497398"
   y="423.43417">Nouveau modèle d’allocation</text><path
   class="st26"
   d="M 65.6,421.05 H 85.1"
   id="path388"
   style="stroke:#088ea7;stroke-opacity:1" />
<rect
   x="35.027782"
   y="92.627792"
   shape-rendering="crispEdges"
   class="st12"
   width="159.95479"
   height="50.544434"
   id="rect401"
   style="fill:#f5f1e3;fill-opacity:1;stroke-width:1.05557" /><path
   class="st13"
   d="M 35,89.3 Z"
   id="path403" /><text
   class="st14 st7 st15"
   id="text405"
   x="65.578598"
   y="120.7182">Ancien modèle d’allocation</text><path
   class="st16"
   d="M 42.8,117.45 H 62.3"
   id="path407"
   style="stroke:#eb5858;stroke-opacity:1" /><text
   class="st14 st7 st15"
   id="text405-8"
   style="font-size:8.4638px;font-family:DejaVuSans;fill:#404040"
   x="88.324165"
   y="410.97272">Ancien modèle d’allocation</text><text
   class="st14 st7 st15"
   id="text415"
   x="65.578598"
   y="133.67421">Nouveau modèle d’allocation</text><path
   class="st17"
   d="M 42.8,130.35 H 62.3"
   id="path417"
   style="stroke:#088ea7;stroke-opacity:1" /><text
   class="st14 st18 st15"
   id="text425"
   x="40.187901"
   y="107.7406"><tspan
     style="font-style:normal;font-variant:normal;font-weight:bold;font-stretch:semi-condensed;font-family:'DejaVu Sans';-inkscape-font-specification:'DejaVu Sans Bold Semi-Condensed'"
     id="tspan448">Transplantation (p-value = 0,31)</tspan></text>
<path
   id="rect428"
   style="fill:none;stroke:#808080;stroke-miterlimit:10"
   d="M 212.5,449.90001 H 27.999999 V 70.7"
   class="st10"
   sodipodi:nodetypes="ccc" />
<text
   class="st11 st7 st8"
   id="text434"
   x="74.741493"
   y="482.8927">Délais (jours)</text>
<g
   id="Calque_2_2_"
   transform="translate(-13.3,5.3)">
</g>
<text
   class="st14 st18 st15"
   id="text425-9"
   style="font-size:8.4638px;font-family:DejaVuSansCondensed-Bold;fill:#404040"
   x="313.5274"
   y="157.67215"><tspan
     sodipodi:role="line"
     id="tspan477"
     x="313.5274"
     y="157.67215"><tspan
       style="font-style:normal;font-variant:normal;font-weight:bold;font-stretch:semi-condensed;font-family:'DejaVu Sans';-inkscape-font-specification:'DejaVu Sans Bold Semi-Condensed'"
       id="tspan448-1">Survie post-greffe</tspan></tspan><tspan
     sodipodi:role="line"
     id="tspan479"
     x="313.5274"
     y="168.25191"><tspan
       style="font-style:normal;font-variant:normal;font-weight:bold;font-stretch:semi-condensed;font-family:'DejaVu Sans';-inkscape-font-specification:'DejaVu Sans Bold Semi-Condensed'"
       id="tspan481">(p-value = 0,54)</tspan></tspan></text><text
   xml:space="preserve"
   id="text513"
   style="font-style:normal;font-variant:normal;font-weight:bold;font-stretch:normal;font-size:10px;line-height:1.25;font-family:sans-serif;-inkscape-font-specification:'sans-serif, Bold';font-variant-ligatures:normal;font-variant-caps:normal;font-variant-numeric:normal;font-variant-east-asian:normal;white-space:pre;shape-inside:url(#rect515-1);fill:#4d4d4d;fill-opacity:1;stroke:none"
   transform="translate(136.34251,87.679402)"
   x="90.375977"
   y="0"><tspan
     x="-116.11816"
     y="-51.884766"
     id="tspan1187"><tspan
       style="font-stretch:semi-condensed;font-family:'DejaVu Sans';-inkscape-font-specification:'DejaVu Sans, Bold Semi-Condensed';text-align:center;text-anchor:middle"
       id="tspan1185">A - Incidence cumulé de transplantation </tspan></tspan><tspan
     x="-112.20947"
     y="-39.384766"
     id="tspan1191"><tspan
       style="font-stretch:semi-condensed;font-family:'DejaVu Sans';-inkscape-font-specification:'DejaVu Sans, Bold Semi-Condensed';text-align:center;text-anchor:middle"
       id="tspan1189">et de décès sur liste ou retrait de liste </tspan></tspan><tspan
     x="-60.134277"
     y="-26.884766"
     id="tspan1195"><tspan
       style="font-stretch:semi-condensed;font-family:'DejaVu Sans';-inkscape-font-specification:'DejaVu Sans, Bold Semi-Condensed';text-align:center;text-anchor:middle"
       id="tspan1193">pour aggravation  </tspan></tspan></text><text
   xml:space="preserve"
   id="text513-4"
   style="font-style:normal;font-variant:normal;font-weight:bold;font-stretch:normal;font-size:10px;line-height:1.25;font-family:sans-serif;-inkscape-font-specification:'sans-serif, Bold';font-variant-ligatures:normal;font-variant-caps:normal;font-variant-numeric:normal;font-variant-east-asian:normal;white-space:pre;shape-inside:url(#rect515-1-0);fill:#4d4d4d;fill-opacity:1;stroke:none"
   transform="translate(407.53697,100.32257)"
   x="90.375977"
   y="0"><tspan
     x="-103.1626"
     y="-51.884766"
     id="tspan1199"><tspan
       style="font-stretch:semi-condensed;font-family:'DejaVu Sans';-inkscape-font-specification:'DejaVu Sans, Bold Semi-Condensed';text-align:center;text-anchor:middle"
       id="tspan1197">B - Survie post-greffe à 3 mois</tspan></tspan></text><text
   class="st14 st18 st15"
   id="text425-0"
   style="font-size:8.4638px;font-family:DejaVuSansCondensed-Bold;white-space:pre;inline-size:149.942;fill:#404040"
   x="-167.91295"
   y="319.58829"
   transform="translate(231.34588,65.167059)"
   xml:space="preserve"><tspan
     x="-167.91295"
     y="319.58829"
     id="tspan1203"><tspan
       style="font-weight:bold;font-stretch:semi-condensed;font-family:'DejaVu Sans';-inkscape-font-specification:'DejaVu Sans Bold Semi-Condensed'"
       id="tspan1201">Décès sur liste et retrait de liste </tspan></tspan><tspan
     x="-167.91295"
     y="330.16801"
     id="tspan1207"><tspan
       style="font-weight:bold;font-stretch:semi-condensed;font-family:'DejaVu Sans';-inkscape-font-specification:'DejaVu Sans Bold Semi-Condensed'"
       id="tspan1205">pour aggravation (p-value = 0,23)</tspan></tspan></text><g
   id="g383"
   transform="matrix(0,-1.3807937,1.3807937,0,26.959297,652.64341)"><text
     class="st18 st19 st20"
     id="text381"
     style="font-size:7px;font-family:DejaVuSans-Oblique;fill:#adadad"
     clip-path="url(#SVGID_00000029040443808387464020000014065753949857714611_)"
     x="182.15771"
     y="-108.29207"
     transform="rotate(90)"><tspan
       style="font-style:oblique;font-variant:normal;font-weight:normal;font-stretch:normal;font-size:7px;font-family:'DejaVu Sans';-inkscape-font-specification:'DejaVu Sans, Oblique';font-variant-ligatures:normal;font-variant-caps:normal;font-variant-numeric:normal;font-variant-east-asian:normal;stroke:none"
       id="tspan9863">Source : Agence de la biomédecine 2022</tspan></text></g></svg>
