<?xml version="1.0" encoding="utf-8"?>
<!-- Generator: Adobe Illustrator 26.0.3, SVG Export Plug-In . SVG Version: 6.00 Build 0)  -->
<svg version="1.1"
	 id="svg2" xmlns:inkscape="http://www.inkscape.org/namespaces/inkscape" xmlns:sodipodi="http://sodipodi.sourceforge.net/DTD/sodipodi-0.dtd" xmlns:svg="http://www.w3.org/2000/svg"
	 xmlns="http://www.w3.org/2000/svg" xmlns:xlink="http://www.w3.org/1999/xlink" x="0px" y="0px" viewBox="0 0 1337.3 1393.9"
	 style="enable-background:new 0 0 1337.3 1393.9;" xml:space="preserve">
<style type="text/css">
	.st0{fill:#333333;}
	.st1{font-family:'Arial-BoldMT';}
	.st2{font-size:32px;}
	.st3{font-family:'Arial-ItalicMT';}
	.st4{font-size:25.1237px;}
	.st5{opacity:0.5;}
	.st6{fill:none;stroke:#000000;stroke-width:18;stroke-linecap:round;stroke-linejoin:round;}
</style>
<sodipodi:namedview  bordercolor="#666666" borderopacity="1.0" fit-margin-bottom="0" fit-margin-left="0" fit-margin-right="0" fit-margin-top="0" id="namedview4" inkscape:current-layer="layer1" inkscape:cx="674.91039" inkscape:cy="696.96002" inkscape:pagecheckerboard="0" inkscape:pageopacity="0.0" inkscape:pageshadow="2" inkscape:window-height="1034" inkscape:window-maximized="1" inkscape:window-width="1920" inkscape:window-x="0" inkscape:window-y="22" inkscape:zoom="0.52155072" pagecolor="#ffffff" showgrid="false">
	</sodipodi:namedview>
<g id="g8" inkscape:groupmode="layer" inkscape:label="Image">
	
		<image style="overflow:visible;enable-background:new    ;" width="2304" height="4356" id="image10" xlink:href="C5F7A4D.png"  transform="matrix(0.32 0 0 0.32 135.4396 0)">
	</image>
</g>
<g id="layer1" inkscape:groupmode="layer" inkscape:label="Image 1">
	<text transform="matrix(1 0 0 1 896.0075 119.5615)" class="st0 st1 st2">Maillage administratif</text>
	<text transform="matrix(1 0 0 1 896.0075 285.6232)" class="st0 st1 st2">Population</text>
	<text transform="matrix(1 0 0 1 896.0075 455.3021)" class="st0 st1 st2">Etablissements de santé</text>
	<text transform="matrix(1 0 0 1 896.0075 621.2389)" class="st0 st1 st2">Réseau routier</text>
	<text transform="matrix(1 0 0 1 897.3513 783.4333)" class="st0 st1 st2">Occupation du sol</text>
	<text transform="matrix(1 0 0 1 896.0075 949.2451)" class="st0 st1 st2">Hydrographie</text>
	<text transform="matrix(1 0 0 1 897.3513 1157.4491)" class="st0 st1 st2">Observé</text>
	<text transform="matrix(1 0 0 1 835.6906 1366.7443)" class="st0 st3 st4">Sources des images : INSEE, IGN 2022</text>
</g>
<g class="st5">
	<g>
		<line class="st6" x1="62.5" y1="1327.4" x2="62.5" y2="197"/>
		<g>
			<polygon points="62.5,133.5 99.1,223 62.5,201.8 25.9,223 			"/>
		</g>
	</g>
</g>
</svg>
