<?xml version="1.0" encoding="utf-8"?>
<!-- Generator: Adobe Illustrator 26.0.2, SVG Export Plug-In . SVG Version: 6.00 Build 0)  -->
<svg version="1.1" xmlns="http://www.w3.org/2000/svg" xmlns:xlink="http://www.w3.org/1999/xlink" x="0px" y="0px"
	 viewBox="0 0 525 327.5" style="enable-background:new 0 0 525 327.5;" xml:space="preserve">
<style type="text/css">
	.st0{fill:none;stroke:#888888;stroke-width:0.3;stroke-linejoin:round;stroke-miterlimit:10;}
	.st1{fill:#B10026;stroke:#FFFFFF;stroke-width:0.5;stroke-miterlimit:10;}
	.st2{fill:#FD8D3C;stroke:#FFFFFF;stroke-width:0.5;stroke-miterlimit:10;}
	.st3{fill:#FED976;stroke:#FFFFFF;stroke-width:0.5;stroke-miterlimit:10;}
	.st4{fill:none;stroke:#888888;stroke-miterlimit:10;}
	.st5{enable-background:new    ;}
	.st6{fill:#6E6E6E;}
	.st7{font-family:'DejaVuSans';}
	.st8{font-size:8px;}
	.st9{font-family:'DejaVuSansCondensed-Bold';}
	.st10{font-size:9px;}
	.st11{font-size:7px;}
	.st12{fill:#ADADAD;}
	.st13{font-family:'DejaVuSans-Oblique';}
</style>
<g id="Traits">
	<line class="st0" x1="39" y1="228.1" x2="248.3" y2="228.1"/>
	<line class="st0" x1="39" y1="171.2" x2="248.3" y2="171.2"/>
	<line class="st0" x1="39" y1="114.3" x2="248.3" y2="114.3"/>
	<line class="st0" x1="39" y1="57.5" x2="248.3" y2="57.5"/>
	<line class="st0" x1="39" y1="256.5" x2="248.3" y2="256.5"/>
	<line class="st0" x1="39" y1="199.6" x2="248.3" y2="199.6"/>
	<line class="st0" x1="39" y1="142.8" x2="248.3" y2="142.8"/>
	<line class="st0" x1="39" y1="85.9" x2="248.3" y2="85.9"/>
	<line class="st0" x1="39" y1="29" x2="248.3" y2="29"/>
	<line class="st0" x1="301.5" y1="228.1" x2="510.8" y2="228.1"/>
	<line class="st0" x1="301.5" y1="171.2" x2="510.8" y2="171.2"/>
	<line class="st0" x1="301.5" y1="114.3" x2="510.8" y2="114.3"/>
	<line class="st0" x1="301.5" y1="57.5" x2="510.8" y2="57.5"/>
	<line class="st0" x1="301.5" y1="256.5" x2="510.8" y2="256.5"/>
	<line class="st0" x1="301.5" y1="199.6" x2="510.8" y2="199.6"/>
	<line class="st0" x1="301.5" y1="142.8" x2="510.8" y2="142.8"/>
	<line class="st0" x1="301.5" y1="85.9" x2="510.8" y2="85.9"/>
	<line class="st0" x1="301.5" y1="29" x2="510.8" y2="29"/>
</g>
<g id="Data">
	<rect x="62.1" y="248.7" class="st1" width="5.6" height="7.8"/>
	<rect x="56.5" y="248.7" class="st2" width="5.6" height="7.8"/>
	<rect x="50.8" y="155" class="st3" width="5.6" height="101.5"/>
	<rect x="95.9" y="248.7" class="st1" width="5.6" height="7.8"/>
	<rect x="90.2" y="251.3" class="st2" width="5.6" height="5.2"/>
	<rect x="84.6" y="152.4" class="st3" width="5.6" height="104.1"/>
	<rect x="129.6" y="191.4" class="st1" width="5.6" height="65.1"/>
	<rect x="124" y="220.1" class="st2" width="5.6" height="36.4"/>
	<rect x="118.4" y="87.3" class="st3" width="5.6" height="169.2"/>
	<rect x="163.4" y="183.6" class="st1" width="5.6" height="72.9"/>
	<rect x="157.8" y="230.5" class="st2" width="5.6" height="26"/>
	<rect x="152.1" y="178.4" class="st3" width="5.6" height="78.1"/>
	<rect x="197.1" y="170.6" class="st1" width="5.6" height="85.9"/>
	<rect x="191.5" y="233.1" class="st2" width="5.6" height="23.4"/>
	<rect x="185.9" y="194.1" class="st3" width="5.6" height="62.5"/>
	<rect x="230.9" y="89.9" class="st1" width="5.6" height="166.6"/>
	<rect x="225.3" y="201.9" class="st2" width="5.6" height="54.7"/>
	<rect x="219.6" y="194.1" class="st3" width="5.6" height="62.5"/>
	<rect x="324.6" y="254.8" class="st1" width="5.6" height="1.7"/>
	<path class="st2" d="M319,256.5h5.6H319z"/>
	<rect x="313.4" y="251.4" class="st3" width="5.6" height="5.1"/>
	<rect x="358.4" y="248" class="st1" width="5.6" height="8.5"/>
	<rect x="352.7" y="253.1" class="st2" width="5.6" height="3.4"/>
	<rect x="347.1" y="196.8" class="st3" width="5.6" height="59.7"/>
	<rect x="392.1" y="230.9" class="st1" width="5.6" height="25.6"/>
	<rect x="386.5" y="226.7" class="st2" width="5.6" height="29.8"/>
	<rect x="380.9" y="81.7" class="st3" width="5.6" height="174.8"/>
	<rect x="425.9" y="207.9" class="st1" width="5.6" height="48.6"/>
	<rect x="420.2" y="212.2" class="st2" width="5.6" height="44.3"/>
	<rect x="414.6" y="155.1" class="st3" width="5.6" height="101.5"/>
	<rect x="459.6" y="168.7" class="st1" width="5.6" height="87.8"/>
	<rect x="454" y="196" class="st2" width="5.6" height="60.5"/>
	<rect x="448.4" y="154.2" class="st3" width="5.6" height="102.3"/>
	<rect x="493.4" y="35.7" class="st1" width="5.6" height="220.8"/>
	<rect x="487.8" y="189.2" class="st2" width="5.6" height="67.4"/>
	<rect x="482.1" y="161" class="st3" width="5.6" height="95.5"/>
	<rect x="198.6" y="297" class="st3" width="15.9" height="15.9"/>
	<rect x="259.8" y="297" class="st2" width="15.9" height="15.9"/>
	<rect x="332.1" y="297" class="st1" width="15.9" height="15.9"/>
</g>
<g id="ax">
	<g id="Calque_1_00000093135041830131177940000008467815257013363891_">
		<line class="st4" x1="36.5" y1="256.5" x2="39" y2="256.5"/>
		<line class="st4" x1="36.5" y1="199.6" x2="39" y2="199.6"/>
		<line class="st4" x1="36.5" y1="142.8" x2="39" y2="142.8"/>
		<line class="st4" x1="36.5" y1="85.9" x2="39" y2="85.9"/>
		<line class="st4" x1="36.5" y1="29" x2="39" y2="29"/>
		<line class="st4" x1="59" y1="259.9" x2="59" y2="257.4"/>
		<line class="st4" x1="92.8" y1="259.9" x2="92.8" y2="257.4"/>
		<line class="st4" x1="126.5" y1="259.9" x2="126.5" y2="257.4"/>
		<line class="st4" x1="160.3" y1="259.9" x2="160.3" y2="257.4"/>
		<line class="st4" x1="194.1" y1="259.9" x2="194.1" y2="257.4"/>
		<line class="st4" x1="227.8" y1="259.9" x2="227.8" y2="257.4"/>
		<g>
			<g>
				<path class="st4" d="M301.5,29"/>
			</g>
		</g>
		<line class="st4" x1="299" y1="256.5" x2="301.5" y2="256.5"/>
		<line class="st4" x1="299" y1="199.6" x2="301.5" y2="199.6"/>
		<line class="st4" x1="299" y1="142.8" x2="301.5" y2="142.8"/>
		<line class="st4" x1="299" y1="85.9" x2="301.5" y2="85.9"/>
		<line class="st4" x1="299" y1="29" x2="301.5" y2="29"/>
		<line class="st4" x1="321.5" y1="259.9" x2="321.5" y2="257.4"/>
		<line class="st4" x1="355.3" y1="259.9" x2="355.3" y2="257.4"/>
		<line class="st4" x1="389" y1="259.9" x2="389" y2="257.4"/>
		<line class="st4" x1="422.8" y1="259.9" x2="422.8" y2="257.4"/>
		<line class="st4" x1="456.6" y1="259.9" x2="456.6" y2="257.4"/>
		<line class="st4" x1="490.3" y1="259.9" x2="490.3" y2="257.4"/>
		<g>
			<g>
				<g>
					<g>
						<polyline class="st4" points="248.1,256.6 39,256.6 39,22.5 						"/>
					</g>
				</g>
			</g>
		</g>
		<g>
			<g>
				<g>
					<g>
						<polyline class="st4" points="511.1,256.6 302,256.6 302,22.5 						"/>
					</g>
				</g>
			</g>
		</g>
	</g>
	<g id="Calque_2_00000155848969912338579560000013769721872034415791_">
	</g>
</g>
<g id="Chiffres" class="st5">
	<text transform="matrix(1 0 0 1 21.3198 259.3896)" class="st6 st7 st8">0%</text>
	<text transform="matrix(1 0 0 1 21.3198 202.5303)" class="st6 st7 st8">5%</text>
	<text transform="matrix(1 0 0 1 16.8701 145.6602)" class="st6 st7 st8">10%</text>
	<text transform="matrix(1 0 0 1 16.8701 88.79)" class="st6 st7 st8">15%</text>
	<text transform="matrix(1 0 0 1 16.8701 31.9199)" class="st6 st7 st8">20%</text>
	<text transform="matrix(1 0 0 1 46.8073 267.6229)" class="st6 st7 st8">[06;14]</text>
	<text transform="matrix(1 0 0 1 80.5573 267.6229)" class="st6 st7 st8">[15;19]</text>
	<text transform="matrix(1 0 0 1 114.317 267.6229)" class="st6 st7 st8">[20;25]</text>
	<text transform="matrix(1 0 0 1 148.0773 267.6229)" class="st6 st7 st8">[26;29]</text>
	<text transform="matrix(1 0 0 1 181.8273 267.6229)" class="st6 st7 st8">[30;34]</text>
	<text transform="matrix(1 0 0 1 215.587 267.6229)" class="st6 st7 st8">[35;40]</text>
	<text transform="matrix(1 0 0 1 283.8203 259.3896)" class="st6 st7 st8">0%</text>
	<text transform="matrix(1 0 0 1 283.8203 202.5303)" class="st6 st7 st8">5%</text>
	<text transform="matrix(1 0 0 1 279.3701 145.6602)" class="st6 st7 st8">10%</text>
	<text transform="matrix(1 0 0 1 279.3701 88.79)" class="st6 st7 st8">15%</text>
	<text transform="matrix(1 0 0 1 279.3701 31.9199)" class="st6 st7 st8">20%</text>
	<text transform="matrix(1 0 0 1 309.3068 267.6229)" class="st6 st7 st8">[06;14]</text>
	<text transform="matrix(1 0 0 1 343.0568 267.6229)" class="st6 st7 st8">[15;19]</text>
	<text transform="matrix(1 0 0 1 376.8175 267.6229)" class="st6 st7 st8">[20;25]</text>
	<text transform="matrix(1 0 0 1 410.5773 267.6229)" class="st6 st7 st8">[26;29]</text>
	<text transform="matrix(1 0 0 1 444.3273 267.6229)" class="st6 st7 st8">[30;34]</text>
	<text transform="matrix(1 0 0 1 478.087 267.6229)" class="st6 st7 st8">[35;40]</text>
</g>
<g id="Texte">
	<g>
		<text transform="matrix(1 0 0 1 129.62 283.7596)" class="st6 st7 st8">MELD</text>
	</g>
	<g>
		<text transform="matrix(1 0 0 1 394.925 283.7596)" class="st6 st7 st8">MELD</text>
	</g>
	<g>
		<text transform="matrix(1 0 0 1 125.3901 307.4697)" class="st6 st7 st8">Distance en km</text>
	</g>
	<g>
		<text transform="matrix(1 0 0 1 220.1299 307.75)" class="st6 st7 st8">0 à 150</text>
	</g>
	<g>
		<text transform="matrix(1 0 0 1 281.3701 307.75)" class="st6 st7 st8">150 à 300 </text>
	</g>
	<g>
		<text transform="matrix(1 0 0 1 353.6104 307.75)" class="st6 st7 st8">300 ou plus</text>
	</g>
	<g>
		<text transform="matrix(1 0 0 1 79.7902 9.9602)"><tspan x="0" y="0" class="st6 st9 st10">3 ans avant la mise en place</tspan><tspan x="17.1" y="12" class="st6 st9 st10">du modèle gravitaire</tspan></text>
	</g>
	<g>
		<text transform="matrix(1 0 0 1 342.8187 9.9605)"><tspan x="0" y="0" class="st6 st9 st10">3 ans après la mise en place</tspan><tspan x="16.9" y="12" class="st6 st9 st10">du modèle gravitaire</tspan></text>
	</g>
	<g>
		<text transform="matrix(0 -1 1 0 11.0396 262.05)" class="st6 st7 st11">Patients cirrhotiques sans CHC greffés au Score ou au local (% du total)</text>
	</g>
	<g>
		<text transform="matrix(0 -1 1 0 519.8197 253.5656)" class="st12 st13 st11">Source : Agence de la biomédecine 2020</text>
	</g>
</g>
</svg>
