<?xml version="1.0" encoding="UTF-8" standalone="no"?>
<svg
   version="1.1"
   x="0px"
   y="0px"
   viewBox="0 0 524 323"
   style="enable-background:new 0 0 524 323;"
   xml:space="preserve"
   id="svg496"
   sodipodi:docname="figure24.svg"
   inkscape:version="1.1.1 (3bf5ae0d25, 2021-09-20, custom)"
   xmlns:inkscape="http://www.inkscape.org/namespaces/inkscape"
   xmlns:sodipodi="http://sodipodi.sourceforge.net/DTD/sodipodi-0.dtd"
   xmlns="http://www.w3.org/2000/svg"
   xmlns:svg="http://www.w3.org/2000/svg"
   xmlns:rdf="http://www.w3.org/1999/02/22-rdf-syntax-ns#"
   xmlns:cc="http://creativecommons.org/ns#"
   xmlns:dc="http://purl.org/dc/elements/1.1/"><metadata
   id="metadata502"><rdf:RDF><cc:Work
       rdf:about=""><dc:format>image/svg+xml</dc:format><dc:type
         rdf:resource="http://purl.org/dc/dcmitype/StillImage" /></cc:Work></rdf:RDF></metadata><defs
   id="defs500">
	
	
	
	
	
	
	
	
	
	
	
	
	
	
	
	
	
	
	
	
	
	
	
	
	
	
	
	
	
	
	
	
	
	
	
	
	
	
	
	
	
	
	
	
	
	
	
	
	
	

	
	
	
	
	
	
	
	

	
	
	
	
	
	
	
	
	
	
	
	
	
	
	
	
	
	
	
	
	
	
	
	
	
	
	
	
	
	
	
	
	
	
	
	
	
	
	
	
	

	

		
		
	
		
		
	
		
		
	
		
		
	
		
	
		
		
	
		
		
	
		
		
	
		
		
	
		
		
	
		
		
	
		
		
	
		
		
	
		
		
	
		
		
	
		
		
	
		
		
	
		
		
	
		
	
		
		
	
		
		
	
		
		
	
		
		
	
		
		
	
		
		
	
		
		
	
		
		
	
		
		
	
		
		
	
		
		
	
		
		
	
		
		
	
		
		
	
		
		
	
		
		
	
		
		
	
		
		
	
		
		
	
		
		
	
		
		
	
		
		
	
		
		
	
		
	
		
	
		
	
		
	
		
	
		
	
		
	
		
	
		
	
		
	
		
	
		
	
		
	
		
	
		
	
		
	
		
	
		
	
		
	
		
	
		
		
	
		
		
	
		
		
	
		
		
	
		
		
	
		
		
	
		
		
	
		
		
	
		
		
	
		
		
	
			
			
			
		
				
			
				
			</defs><sodipodi:namedview
   pagecolor="#ffffff"
   bordercolor="#666666"
   borderopacity="1"
   objecttolerance="10"
   gridtolerance="10"
   guidetolerance="10"
   inkscape:pageopacity="0"
   inkscape:pageshadow="2"
   inkscape:window-width="1920"
   inkscape:window-height="1034"
   id="namedview498"
   showgrid="false"
   inkscape:zoom="1.2433206"
   inkscape:cx="162.8703"
   inkscape:cy="173.32617"
   inkscape:window-x="0"
   inkscape:window-y="22"
   inkscape:window-maximized="1"
   inkscape:current-layer="svg496"
   inkscape:pagecheckerboard="0" />
<style
   type="text/css"
   id="style2">
	.st0{fill:none;stroke:#DDDDDD;stroke-miterlimit:10;}
	.st1{fill:#4C78A8;}
	.st2{fill:#FFFFFF;}
	.st3{fill:#FFFFFF;stroke:#000000;stroke-miterlimit:10;}
	.st4{fill:#6E6E6E;}
	.st5{font-family:'DejaVuSans';}
	.st6{font-size:8px;}
	.st7{font-size:10px;}
	.st8{fill:#262626;}
	.st9{fill:none;stroke:#888888;stroke-miterlimit:10;}
	.st10{fill:#ADADAD;}
	.st11{font-family:'DejaVuSans-Oblique';}
	.st12{display:none;}
	.st13{display:inline;fill:#FFFFFF;}
	.st14{display:inline;}
	.st15{fill:none;}
	.st16{fill:#888888;}
	.st17{font-size:11px;}
	.st18{fill:#F58518;}
	.st19{font-size:12px;}
	.st20{display:inline;fill:none;stroke:#F58518;stroke-width:2;stroke-miterlimit:10;}
</style>
<line
   class="st0"
   x1="39.200001"
   y1="247.89999"
   x2="515"
   y2="247.89999"
   id="line4" /><line
   class="st0"
   x1="39.200001"
   y1="182.89999"
   x2="515"
   y2="182.89999"
   id="line6" /><line
   class="st0"
   x1="39.200001"
   y1="117.9"
   x2="515"
   y2="117.9"
   id="line8" /><line
   class="st0"
   x1="39.200001"
   y1="52.799999"
   x2="515"
   y2="52.799999"
   id="line10" /><line
   class="st0"
   x1="39.200001"
   y1="215.39999"
   x2="515"
   y2="215.39999"
   id="line12" /><line
   class="st0"
   x1="39.200001"
   y1="150.39999"
   x2="515"
   y2="150.39999"
   id="line14" /><line
   class="st0"
   x1="39.200001"
   y1="85.400002"
   x2="515"
   y2="85.400002"
   id="line16" /><line
   class="st0"
   x1="39.200001"
   y1="20.299999"
   x2="515"
   y2="20.299999"
   id="line18" />
<rect
   x="40.5"
   y="40.599998"
   class="st1"
   width="16.5"
   height="239.39999"
   id="rect21"
   style="fill:#008ea6;fill-opacity:1" /><path
   class="st2"
   d="M 56.5,41.1 V 279.5 H 41 V 41.1 h 15.5 m 1,-1 H 40 v 240.4 h 17.5 z"
   id="path23" /><rect
   x="40.5"
   y="40.599998"
   class="st1"
   width="16.5"
   height="239.39999"
   id="rect27"
   style="fill:#008ea6;fill-opacity:1" /><path
   class="st2"
   d="M 56.5,41.1 V 279.5 H 41 V 41.1 h 15.5 m 1,-1 H 40 v 240.4 h 17.5 z"
   id="path29" /><rect
   x="58"
   y="231.8"
   class="st1"
   width="16.5"
   height="48.200001"
   id="rect33"
   style="fill:#008ea6;fill-opacity:1" /><path
   class="st2"
   d="m 74,232.3 v 47.2 H 58.5 V 232.3 H 74 m 1,-1 H 57.5 v 49.2 H 75 Z"
   id="path35" /><rect
   x="58"
   y="231.8"
   class="st1"
   width="16.5"
   height="48.200001"
   id="rect39"
   style="fill:#008ea6;fill-opacity:1" /><path
   class="st2"
   d="m 74,232.3 v 47.2 H 58.5 V 232.3 H 74 m 1,-1 H 57.5 v 49.2 H 75 Z"
   id="path41" /><rect
   x="75.5"
   y="230.5"
   class="st1"
   width="16.5"
   height="49.5"
   id="rect45"
   style="fill:#008ea6;fill-opacity:1" /><path
   class="st2"
   d="m 91.5,231 v 48.5 H 76 V 231 h 15.5 m 1,-1 H 75 v 50.5 h 17.5 z"
   id="path47" /><rect
   x="75.5"
   y="230.5"
   class="st1"
   width="16.5"
   height="49.5"
   id="rect51"
   style="fill:#008ea6;fill-opacity:1" /><path
   class="st2"
   d="m 91.5,231 v 48.5 H 76 V 231 h 15.5 m 1,-1 H 75 v 50.5 h 17.5 z"
   id="path53" /><rect
   x="93"
   y="244.5"
   class="st1"
   width="16.5"
   height="35.400002"
   id="rect57"
   style="fill:#008ea6;fill-opacity:1" /><path
   class="st2"
   d="m 109,245 v 34.4 H 93.5 V 245 H 109 m 1,-1 H 92.5 v 36.4 H 110 Z"
   id="path59" /><rect
   x="93"
   y="244.5"
   class="st1"
   width="16.5"
   height="35.400002"
   id="rect63"
   style="fill:#008ea6;fill-opacity:1" /><path
   class="st2"
   d="m 109,245 v 34.4 H 93.5 V 245 H 109 m 1,-1 H 92.5 v 36.4 H 110 Z"
   id="path65" /><rect
   x="110.5"
   y="244"
   class="st1"
   width="16.5"
   height="35.900002"
   id="rect69"
   style="fill:#008ea6;fill-opacity:1" /><path
   class="st2"
   d="m 126.5,244.5 v 34.9 H 111 v -34.9 h 15.5 m 1,-1 H 110 v 36.9 h 17.5 z"
   id="path71" /><rect
   x="110.5"
   y="244"
   class="st1"
   width="16.5"
   height="35.900002"
   id="rect75"
   style="fill:#008ea6;fill-opacity:1" /><path
   class="st2"
   d="m 126.5,244.5 v 34.9 H 111 v -34.9 h 15.5 m 1,-1 H 110 v 36.9 h 17.5 z"
   id="path77" /><rect
   x="128"
   y="262.5"
   class="st1"
   width="16.5"
   height="17.5"
   id="rect81"
   style="fill:#008ea6;fill-opacity:1" /><path
   class="st2"
   d="m 144,263 v 16.5 H 128.5 V 263 H 144 m 1,-1 h -17.5 v 18.5 H 145 Z"
   id="path83" /><rect
   x="128"
   y="262.5"
   class="st1"
   width="16.5"
   height="17.5"
   id="rect87"
   style="fill:#008ea6;fill-opacity:1" /><path
   class="st2"
   d="m 144,263 v 16.5 H 128.5 V 263 H 144 m 1,-1 h -17.5 v 18.5 H 145 Z"
   id="path89" /><rect
   x="145.39999"
   y="261.5"
   class="st1"
   width="16.5"
   height="18.5"
   id="rect93"
   style="fill:#008ea6;fill-opacity:1" /><path
   class="st2"
   d="m 161.4,262 v 17.5 H 145.9 V 262 h 15.5 m 1,-1 h -17.5 v 19.5 h 17.5 z"
   id="path95" /><rect
   x="145.39999"
   y="261.5"
   class="st1"
   width="16.5"
   height="18.5"
   id="rect99"
   style="fill:#008ea6;fill-opacity:1" /><path
   class="st2"
   d="m 161.4,262 v 17.5 H 145.9 V 262 h 15.5 m 1,-1 h -17.5 v 19.5 h 17.5 z"
   id="path101" /><rect
   x="162.89999"
   y="246.89999"
   class="st1"
   width="16.5"
   height="33.099998"
   id="rect105"
   style="fill:#008ea6;fill-opacity:1" /><path
   class="st2"
   d="m 178.9,247.4 v 32.1 h -15.5 v -32.1 h 15.5 m 1,-1 h -17.5 v 34.1 h 17.5 z"
   id="path107" /><rect
   x="162.89999"
   y="246.89999"
   class="st1"
   width="16.5"
   height="33.099998"
   id="rect111"
   style="fill:#008ea6;fill-opacity:1" /><path
   class="st2"
   d="m 178.9,247.4 v 32.1 h -15.5 v -32.1 h 15.5 m 1,-1 h -17.5 v 34.1 h 17.5 z"
   id="path113" /><rect
   x="180.39999"
   y="263.5"
   class="st1"
   width="16.5"
   height="16.4"
   id="rect117"
   style="fill:#008ea6;fill-opacity:1" /><path
   class="st2"
   d="m 196.4,264 v 15.4 H 180.9 V 264 h 15.5 m 1,-1 h -17.5 v 17.4 h 17.5 z"
   id="path119" /><rect
   x="180.39999"
   y="263.5"
   class="st1"
   width="16.5"
   height="16.4"
   id="rect123"
   style="fill:#008ea6;fill-opacity:1" /><path
   class="st2"
   d="m 196.4,264 v 15.4 H 180.9 V 264 h 15.5 m 1,-1 h -17.5 v 17.4 h 17.5 z"
   id="path125" /><rect
   x="197.89999"
   y="258.29999"
   class="st1"
   width="16.5"
   height="21.6"
   id="rect129"
   style="fill:#008ea6;fill-opacity:1" /><path
   class="st2"
   d="m 213.9,258.8 v 20.6 h -15.5 v -20.6 h 15.5 m 1,-1 h -17.5 v 22.6 h 17.5 z"
   id="path131" /><rect
   x="197.89999"
   y="258.29999"
   class="st1"
   width="16.5"
   height="21.6"
   id="rect135"
   style="fill:#008ea6;fill-opacity:1" /><path
   class="st2"
   d="m 213.9,258.8 v 20.6 h -15.5 v -20.6 h 15.5 m 1,-1 h -17.5 v 22.6 h 17.5 z"
   id="path137" /><rect
   x="215.39999"
   y="271.60001"
   class="st1"
   width="16.5"
   height="8.3999996"
   id="rect141"
   style="fill:#008ea6;fill-opacity:1" /><path
   class="st2"
   d="m 231.4,272.1 v 7.4 h -15.5 v -7.4 h 15.5 m 1,-1 h -17.5 v 9.4 h 17.5 z"
   id="path143" /><rect
   x="215.39999"
   y="271.60001"
   class="st1"
   width="16.5"
   height="8.3999996"
   id="rect147"
   style="fill:#008ea6;fill-opacity:1" /><path
   class="st2"
   d="m 231.4,272.1 v 7.4 h -15.5 v -7.4 h 15.5 m 1,-1 h -17.5 v 9.4 h 17.5 z"
   id="path149" /><rect
   x="232.89999"
   y="258.29999"
   class="st1"
   width="16.5"
   height="21.6"
   id="rect153"
   style="fill:#008ea6;fill-opacity:1" /><path
   class="st2"
   d="m 248.9,258.8 v 20.6 h -15.5 v -20.6 h 15.5 m 1,-1 h -17.5 v 22.6 h 17.5 z"
   id="path155" /><rect
   x="232.89999"
   y="258.29999"
   class="st1"
   width="16.5"
   height="21.6"
   id="rect159"
   style="fill:#008ea6;fill-opacity:1" /><path
   class="st2"
   d="m 248.9,258.8 v 20.6 h -15.5 v -20.6 h 15.5 m 1,-1 h -17.5 v 22.6 h 17.5 z"
   id="path161" /><rect
   x="250.39999"
   y="269.79999"
   class="st1"
   width="16.5"
   height="10.2"
   id="rect165"
   style="fill:#008ea6;fill-opacity:1" /><path
   class="st2"
   d="m 266.3,270.3 v 9.2 h -15.5 v -9.2 h 15.5 m 1,-1 h -17.5 v 11.2 h 17.5 z"
   id="path167" /><rect
   x="250.39999"
   y="269.79999"
   class="st1"
   width="16.5"
   height="10.2"
   id="rect171"
   style="fill:#008ea6;fill-opacity:1" /><path
   class="st2"
   d="m 266.3,270.3 v 9.2 h -15.5 v -9.2 h 15.5 m 1,-1 h -17.5 v 11.2 h 17.5 z"
   id="path173" /><rect
   x="267.79999"
   y="275"
   class="st1"
   width="16.5"
   height="5"
   id="rect177"
   style="fill:#008ea6;fill-opacity:1" /><path
   class="st2"
   d="m 283.8,275.5 v 4 h -15.5 v -4 h 15.5 m 1,-1 h -17.5 v 6 h 17.5 z"
   id="path179" /><rect
   x="267.79999"
   y="275"
   class="st1"
   width="16.5"
   height="5"
   id="rect183"
   style="fill:#008ea6;fill-opacity:1" /><path
   class="st2"
   d="m 283.8,275.5 v 4 h -15.5 v -4 h 15.5 m 1,-1 h -17.5 v 6 h 17.5 z"
   id="path185" /><rect
   x="285.29999"
   y="273.89999"
   class="st1"
   width="16.5"
   height="6"
   id="rect189"
   style="fill:#008ea6;fill-opacity:1" /><path
   class="st2"
   d="m 301.3,274.4 v 5 h -15.5 v -5 h 15.5 m 1,-1 h -17.5 v 7 h 17.5 z"
   id="path191" /><rect
   x="285.29999"
   y="273.89999"
   class="st1"
   width="16.5"
   height="6"
   id="rect195"
   style="fill:#008ea6;fill-opacity:1" /><path
   class="st2"
   d="m 301.3,274.4 v 5 h -15.5 v -5 h 15.5 m 1,-1 h -17.5 v 7 h 17.5 z"
   id="path197" /><rect
   x="302.79999"
   y="270.79999"
   class="st1"
   width="16.5"
   height="9.1999998"
   id="rect201"
   style="fill:#008ea6;fill-opacity:1" /><path
   class="st2"
   d="m 318.8,271.3 v 8.2 h -15.5 v -8.2 h 15.5 m 1,-1 h -17.5 v 10.2 h 17.5 z"
   id="path203" /><rect
   x="302.79999"
   y="270.79999"
   class="st1"
   width="16.5"
   height="9.1999998"
   id="rect207"
   style="fill:#008ea6;fill-opacity:1" /><path
   class="st2"
   d="m 318.8,271.3 v 8.2 h -15.5 v -8.2 h 15.5 m 1,-1 h -17.5 v 10.2 h 17.5 z"
   id="path209" /><rect
   x="320.29999"
   y="275"
   class="st1"
   width="16.5"
   height="5"
   id="rect213"
   style="fill:#008ea6;fill-opacity:1" /><path
   class="st2"
   d="m 336.3,275.5 v 4 h -15.5 v -4 h 15.5 m 1,-1 h -17.5 v 6 h 17.5 z"
   id="path215" /><rect
   x="320.29999"
   y="275"
   class="st1"
   width="16.5"
   height="5"
   id="rect219"
   style="fill:#008ea6;fill-opacity:1" /><path
   class="st2"
   d="m 336.3,275.5 v 4 h -15.5 v -4 h 15.5 m 1,-1 h -17.5 v 6 h 17.5 z"
   id="path221" /><rect
   x="337.79999"
   y="277.29999"
   class="st1"
   width="16.5"
   height="2.5999999"
   id="rect225"
   style="fill:#008ea6;fill-opacity:1" /><path
   class="st2"
   d="m 353.8,277.8 v 1.6 h -15.5 v -1.6 h 15.5 m 1,-1 h -17.5 v 3.6 h 17.5 z"
   id="path227" /><rect
   x="337.79999"
   y="277.29999"
   class="st1"
   width="16.5"
   height="2.5999999"
   id="rect231"
   style="fill:#008ea6;fill-opacity:1" /><path
   class="st2"
   d="m 353.8,277.8 v 1.6 h -15.5 v -1.6 h 15.5 m 1,-1 h -17.5 v 3.6 h 17.5 z"
   id="path233" /><rect
   x="355.29999"
   y="275.20001"
   class="st1"
   width="16.5"
   height="4.6999998"
   id="rect237"
   style="fill:#008ea6;fill-opacity:1" /><path
   class="st2"
   d="m 371.3,275.7 v 3.7 h -15.5 v -3.7 h 15.5 m 1,-1 h -17.5 v 5.7 h 17.5 z"
   id="path239" /><rect
   x="355.29999"
   y="275.20001"
   class="st1"
   width="16.5"
   height="4.6999998"
   id="rect243"
   style="fill:#008ea6;fill-opacity:1" /><path
   class="st2"
   d="m 371.3,275.7 v 3.7 h -15.5 v -3.7 h 15.5 m 1,-1 h -17.5 v 5.7 h 17.5 z"
   id="path245" /><rect
   x="372.79999"
   y="276.79999"
   class="st1"
   width="16.5"
   height="3.2"
   id="rect249"
   style="fill:#008ea6;fill-opacity:1" /><path
   class="st2"
   d="m 388.7,277.3 v 2.2 h -15.5 v -2.2 h 15.5 m 1,-1 h -17.5 v 4.2 h 17.5 z"
   id="path251" /><rect
   x="372.79999"
   y="276.79999"
   class="st1"
   width="16.5"
   height="3.2"
   id="rect255"
   style="fill:#008ea6;fill-opacity:1" /><path
   class="st2"
   d="m 388.7,277.3 v 2.2 h -15.5 v -2.2 h 15.5 m 1,-1 h -17.5 v 4.2 h 17.5 z"
   id="path257" /><rect
   x="389.70001"
   y="279.70001"
   class="st1"
   width="17.5"
   height="0.80000001"
   id="rect261"
   style="fill:#008ea6;fill-opacity:1" /><polygon
   class="st2"
   points="407.2,279.7 389.7,279.7 389.7,280.5 407.2,280.5 "
   id="polygon263" /><rect
   x="389.70001"
   y="279.70001"
   class="st1"
   width="17.5"
   height="0.80000001"
   id="rect267"
   style="fill:#008ea6;fill-opacity:1" /><polygon
   class="st2"
   points="407.2,279.7 389.7,279.7 389.7,280.5 407.2,280.5 "
   id="polygon269" /><rect
   x="407.70001"
   y="279.10001"
   class="st1"
   width="16.5"
   height="0.80000001"
   id="rect273"
   style="fill:#008ea6;fill-opacity:1" /><polygon
   class="st2"
   points="424.7,278.6 407.2,278.6 407.2,280.5 424.7,280.5 "
   id="polygon275" /><rect
   x="407.70001"
   y="279.10001"
   class="st1"
   width="16.5"
   height="0.80000001"
   id="rect279"
   style="fill:#008ea6;fill-opacity:1" /><polygon
   class="st2"
   points="424.7,278.6 407.2,278.6 407.2,280.5 424.7,280.5 "
   id="polygon281" /><path
   class="st1"
   d="m 424.7,280.5 h 17.5 z"
   id="path285"
   style="fill:#008ea6;fill-opacity:1" /><polygon
   class="st2"
   points="442.2,280.5 424.7,280.5 "
   id="polygon287" /><path
   class="st1"
   d="m 424.7,280.5 h 17.5 z"
   id="path291"
   style="fill:#008ea6;fill-opacity:1" /><polygon
   class="st2"
   points="442.2,280.5 424.7,280.5 "
   id="polygon293" /><rect
   x="442.20001"
   y="279.70001"
   class="st1"
   width="17.5"
   height="0.80000001"
   id="rect297"
   style="fill:#008ea6;fill-opacity:1" /><polygon
   class="st2"
   points="459.7,279.7 442.2,279.7 442.2,280.5 459.7,280.5 "
   id="polygon299" /><rect
   x="442.20001"
   y="279.70001"
   class="st1"
   width="17.5"
   height="0.80000001"
   id="rect303"
   style="fill:#008ea6;fill-opacity:1" /><polygon
   class="st2"
   points="459.7,279.7 442.2,279.7 442.2,280.5 459.7,280.5 "
   id="polygon305" /><rect
   x="459.70001"
   y="279.89999"
   class="st1"
   width="17.5"
   height="0.5"
   id="rect309"
   style="fill:#008ea6;fill-opacity:1" /><polygon
   class="st2"
   points="477.2,279.9 459.7,279.9 459.7,280.5 477.2,280.5 "
   id="polygon311" /><rect
   x="459.70001"
   y="279.89999"
   class="st1"
   width="17.5"
   height="0.5"
   id="rect315"
   style="fill:#008ea6;fill-opacity:1" /><polygon
   class="st2"
   points="477.2,279.9 459.7,279.9 459.7,280.5 477.2,280.5 "
   id="polygon317" />
<path
   class="st3"
   d="M 520,4"
   id="path322" /><path
   class="st0"
   d="M 495.1,280.5"
   id="path324" /><path
   class="st0"
   d="M 39.2,280.5"
   id="path328" /><text
   class="st4 st5 st6"
   id="text336"
   x="20.5327"
   y="218.28999">250</text><text
   class="st4 st5 st6"
   id="text340"
   x="20.5327"
   y="153.2598">500</text><text
   class="st4 st5 st6"
   id="text344"
   x="20.5327"
   y="88.2202">750</text><text
   class="st4 st5 st6"
   id="text348"
   x="12.8999"
   y="23.189899">1 000</text><text
   class="st4 st5 st6"
   id="text352"
   x="37.810101"
   y="290.84961">0</text><text
   class="st4 st5 st6"
   id="text356"
   x="68.330101"
   y="290.84961">100</text><text
   class="st4 st5 st6"
   id="text360"
   x="103.2998"
   y="290.84961">200</text><text
   class="st4 st5 st6"
   id="text364"
   x="138.27"
   y="290.84961">300</text><text
   class="st4 st5 st6"
   id="text368"
   x="173.2402"
   y="290.84961">400</text><text
   class="st4 st5 st6"
   id="text372"
   x="208.21001"
   y="290.84961">500</text><text
   class="st4 st5 st6"
   id="text376"
   x="243.1797"
   y="290.84961">600</text><text
   class="st4 st5 st6"
   id="text380"
   x="278.15039"
   y="290.84961">700</text><text
   class="st4 st5 st6"
   id="text384"
   x="313.12009"
   y="290.84961">800</text><text
   class="st4 st5 st6"
   id="text388"
   x="348.08981"
   y="290.84961">900</text><text
   class="st4 st5 st6"
   id="text392"
   x="380.83981"
   y="290.84961">1 000</text><text
   class="st4 st5 st6"
   id="text396"
   x="415.8096"
   y="290.84961">1 100</text><text
   class="st4 st5 st6"
   id="text400"
   x="450.7803"
   y="290.84961">1 200</text><text
   class="st4 st5 st6"
   id="text404"
   x="485.75"
   y="290.84961">1 300</text><text
   class="st4 st5 st7"
   id="text408"
   x="126.8301"
   y="305.7695">Distance entre le site de prélèvement et l’équipe de greffe (km)</text><text
   transform="rotate(-90)"
   class="st4 st5 st7"
   id="text412"
   x="-273.5293"
   y="11.1602">Nombre de greffons greffés au score ou au local</text><path
   class="st8"
   d="M 199.7,146.7"
   id="path416" /><line
   class="st9"
   x1="36.700001"
   y1="215.39999"
   x2="39.200001"
   y2="215.39999"
   id="line418" /><line
   class="st9"
   x1="36.700001"
   y1="150.39999"
   x2="39.200001"
   y2="150.39999"
   id="line420" /><line
   class="st9"
   x1="36.700001"
   y1="85.400002"
   x2="39.200001"
   y2="85.400002"
   id="line422" /><line
   class="st9"
   x1="36.700001"
   y1="20.299999"
   x2="39.200001"
   y2="20.299999"
   id="line424" /><line
   class="st9"
   x1="40"
   y1="283.10001"
   x2="40"
   y2="280.60001"
   id="line426" /><line
   class="st9"
   x1="75"
   y1="283.10001"
   x2="75"
   y2="280.60001"
   id="line428" /><line
   class="st9"
   x1="110"
   y1="283.10001"
   x2="110"
   y2="280.60001"
   id="line430" /><line
   class="st9"
   x1="144.89999"
   y1="283.10001"
   x2="144.89999"
   y2="280.60001"
   id="line432" /><line
   class="st9"
   x1="179.89999"
   y1="283.10001"
   x2="179.89999"
   y2="280.60001"
   id="line434" /><line
   class="st9"
   x1="214.89999"
   y1="283.10001"
   x2="214.89999"
   y2="280.60001"
   id="line436" /><line
   class="st9"
   x1="249.89999"
   y1="283.10001"
   x2="249.89999"
   y2="280.60001"
   id="line438" /><line
   class="st9"
   x1="284.79999"
   y1="283.10001"
   x2="284.79999"
   y2="280.60001"
   id="line440" /><line
   class="st9"
   x1="319.79999"
   y1="283.10001"
   x2="319.79999"
   y2="280.60001"
   id="line442" /><line
   class="st9"
   x1="354.79999"
   y1="283.10001"
   x2="354.79999"
   y2="280.60001"
   id="line444" /><line
   class="st9"
   x1="389.70001"
   y1="283.10001"
   x2="389.70001"
   y2="280.60001"
   id="line446" /><line
   class="st9"
   x1="424.70001"
   y1="283.10001"
   x2="424.70001"
   y2="280.60001"
   id="line448" /><line
   class="st9"
   x1="459.70001"
   y1="283.10001"
   x2="459.70001"
   y2="280.60001"
   id="line450" /><line
   class="st9"
   x1="494.70001"
   y1="283.10001"
   x2="494.70001"
   y2="280.60001"
   id="line452" /><text
   class="st10 st11 st6"
   id="text454"
   x="351.68539"
   y="319.18961"><tspan
     style="font-style:italic;font-variant:normal;font-weight:normal;font-stretch:normal;font-family:sans-serif;-inkscape-font-specification:'sans-serif Italic'"
     id="tspan1327">Source : Agence de la biomédecine 2022</tspan></text>
<polyline
   class="st9"
   points="39.2,20 39.2,280.6 516.1,280.6  "
   id="polyline459" />
<g
   id="Def"
   class="st12">
	<rect
   x="110"
   y="88.3"
   class="st13"
   width="306.7"
   height="89.4"
   id="rect462" />
</g>
<g
   id="Reg"
   class="st12">
	<g
   class="st14"
   id="g477">
		<rect
   x="115.3"
   y="79.7"
   class="st15"
   width="314.7"
   height="90.3"
   id="rect465" />
		<text
   transform="matrix(1 0 0 1 115.3335 101.9863)"
   id="text475"><tspan
     x="0"
     y="0"
     class="st16 st5 st17"
     id="tspan467">Calibration du frein de la distance avec une régression </tspan><tspan
     x="0"
     y="13.2"
     class="st16 st5 st17"
     id="tspan469">de Poisson </tspan><tspan
     x="0"
     y="36.2"
     class="st18 st5 st19"
     id="tspan471">y = exp </tspan><tspan
     x="50.7"
     y="32.2"
     class="st18 st5 st17"
     id="tspan473">[-0.48 * log (x) + 6.9]</tspan></text>
	</g>
	<g
   class="st14"
   id="g481">
		<text
   transform="matrix(1 0 0 1 205.0005 152.4761)"
   class="st16 st5 st17"
   id="text479">Frein de la distance α = - 0.48</text>
	</g>
	<g
   class="st14"
   id="g491">
		<g
   id="g489">
			<line
   class="st9"
   x1="183.7"
   y1="133"
   x2="201"
   y2="150.3"
   id="line483" />
			<g
   id="g487">
				<polygon
   class="st16"
   points="178.7,128 182.8,137.9 184,133.4 188.6,132.2     "
   id="polygon485" />
			</g>
		</g>
	</g>
	<polyline
   class="st20"
   points="47.8,17.1 65.3,240.6 82.8,251.7 100.2,256.8 117.7,259.8 135.2,261.9 152.7,263.5 170.2,264.7    187.7,265.6 205.1,266.5 222.6,267.1 240.1,267.7 257.6,268.2 275.1,268.7 292.6,269.1 310,269.5 327.5,269.8 345,270.1    362.5,270.4 380,270.7 397.5,270.9 415,271.1 432.5,271.3 449.9,271.5 467.4,271.7  "
   id="polyline493" />
</g>
</svg>
