<?xml version="1.0" encoding="UTF-8" standalone="no"?>
<svg
   version="1.1"
   class="marks"
   width="653.1532"
   height="435"
   viewBox="0 0 653.1532 435"
   id="svg452"
   sodipodi:docname="figure36.svg"
   inkscape:version="1.1.1 (3bf5ae0d25, 2021-09-20, custom)"
   xmlns:inkscape="http://www.inkscape.org/namespaces/inkscape"
   xmlns:sodipodi="http://sodipodi.sourceforge.net/DTD/sodipodi-0.dtd"
   xmlns="http://www.w3.org/2000/svg"
   xmlns:svg="http://www.w3.org/2000/svg">
  <defs
     id="defs456" />
  <sodipodi:namedview
     id="namedview454"
     pagecolor="#ffffff"
     bordercolor="#666666"
     borderopacity="1.0"
     inkscape:pageshadow="2"
     inkscape:pageopacity="0.0"
     inkscape:pagecheckerboard="0"
     showgrid="false"
     fit-margin-top="0"
     fit-margin-left="0"
     fit-margin-right="0"
     fit-margin-bottom="0"
     inkscape:zoom="1.1552059"
     inkscape:cx="342.36321"
     inkscape:cy="262.72373"
     inkscape:window-width="1920"
     inkscape:window-height="1034"
     inkscape:window-x="0"
     inkscape:window-y="22"
     inkscape:window-maximized="1"
     inkscape:current-layer="svg452" />
  <path
     class="background"
     aria-hidden="true"
     d="M 38.482426,22.5 H 638.48243 v 350 H 38.482426 Z"
     stroke="#dddddd"
     id="path4"
     style="fill:none;stroke-miterlimit:10" />
  <path
     class="background"
     aria-hidden="true"
     d="M 38.482426,22.5 Z"
     pointer-events="none"
     id="path6"
     style="fill:none;stroke-miterlimit:10" />
  <line
     x2="638.48242"
     y2="372.5"
     stroke="#dddddd"
     stroke-width="1"
     opacity="1"
     id="line8"
     x1="38.482426"
     y1="372.5"
     style="fill:none;stroke-miterlimit:10" />
  <line
     x2="638.48242"
     y2="333.5"
     stroke="#dddddd"
     stroke-width="1"
     opacity="1"
     id="line10"
     x1="38.482426"
     y1="333.5"
     style="fill:none;stroke-miterlimit:10" />
  <line
     x2="638.48242"
     y2="294.5"
     stroke="#dddddd"
     stroke-width="1"
     opacity="1"
     id="line12"
     x1="38.482426"
     y1="294.5"
     style="fill:none;stroke-miterlimit:10" />
  <line
     x2="638.48242"
     y2="255.5"
     stroke="#dddddd"
     stroke-width="1"
     opacity="1"
     id="line14"
     x1="38.482426"
     y1="255.5"
     style="fill:none;stroke-miterlimit:10" />
  <line
     x2="638.48242"
     y2="216.5"
     stroke="#dddddd"
     stroke-width="1"
     opacity="1"
     id="line16"
     x1="38.482426"
     y1="216.5"
     style="fill:none;stroke-miterlimit:10" />
  <line
     x2="638.48242"
     y2="178.5"
     stroke="#dddddd"
     stroke-width="1"
     opacity="1"
     id="line18"
     x1="38.482426"
     y1="178.5"
     style="fill:none;stroke-miterlimit:10" />
  <line
     x2="638.48242"
     y2="139.5"
     stroke="#dddddd"
     stroke-width="1"
     opacity="1"
     id="line20"
     x1="38.482426"
     y1="139.5"
     style="fill:none;stroke-miterlimit:10" />
  <line
     x2="638.48242"
     y2="100.5"
     stroke="#dddddd"
     stroke-width="1"
     opacity="1"
     id="line22"
     x1="38.482426"
     y1="100.5"
     style="fill:none;stroke-miterlimit:10" />
  <line
     x2="638.48242"
     y2="61.5"
     stroke="#dddddd"
     stroke-width="1"
     opacity="1"
     id="line24"
     x1="38.482426"
     y1="61.5"
     style="fill:none;stroke-miterlimit:10" />
  <line
     x2="638.48242"
     y2="22.5"
     stroke="#dddddd"
     stroke-width="1"
     opacity="1"
     id="line26"
     x1="38.482426"
     y1="22.5"
     style="fill:none;stroke-miterlimit:10" />
  <path
     class="foreground"
     aria-hidden="true"
     d=""
     pointer-events="none"
     display="none"
     id="path32"
     style="fill:none;stroke-miterlimit:10" />
  <path
     class="background"
     aria-hidden="true"
     d="M 38.482426,372.5 Z"
     pointer-events="none"
     id="path38"
     style="fill:none;stroke-miterlimit:10" />
  <line
     x2="59.482426"
     y2="377.5"
     stroke="#888888"
     stroke-width="1"
     opacity="1"
     id="line40"
     x1="59.482426"
     y1="372.5"
     style="fill:none;stroke-miterlimit:10" />
  <line
     x2="102.48243"
     y2="377.5"
     stroke="#888888"
     stroke-width="1"
     opacity="1"
     id="line42"
     x1="102.48243"
     y1="372.5"
     style="fill:none;stroke-miterlimit:10" />
  <line
     x2="145.48242"
     y2="377.5"
     stroke="#888888"
     stroke-width="1"
     opacity="1"
     id="line44"
     x1="145.48242"
     y1="372.5"
     style="fill:none;stroke-miterlimit:10" />
  <line
     x2="188.48242"
     y2="377.5"
     stroke="#888888"
     stroke-width="1"
     opacity="1"
     id="line46"
     x1="188.48242"
     y1="372.5"
     style="fill:none;stroke-miterlimit:10" />
  <line
     x2="231.48242"
     y2="377.5"
     stroke="#888888"
     stroke-width="1"
     opacity="1"
     id="line48"
     x1="231.48242"
     y1="372.5"
     style="fill:none;stroke-miterlimit:10" />
  <line
     x2="274.48242"
     y2="377.5"
     stroke="#888888"
     stroke-width="1"
     opacity="1"
     id="line50"
     x1="274.48242"
     y1="372.5"
     style="fill:none;stroke-miterlimit:10" />
  <line
     x2="317.48242"
     y2="377.5"
     stroke="#888888"
     stroke-width="1"
     opacity="1"
     id="line52"
     x1="317.48242"
     y1="372.5"
     style="fill:none;stroke-miterlimit:10" />
  <line
     x2="359.48242"
     y2="377.5"
     stroke="#888888"
     stroke-width="1"
     opacity="1"
     id="line54"
     x1="359.48242"
     y1="372.5"
     style="fill:none;stroke-miterlimit:10" />
  <line
     x2="402.48242"
     y2="377.5"
     stroke="#888888"
     stroke-width="1"
     opacity="1"
     id="line56"
     x1="402.48242"
     y1="372.5"
     style="fill:none;stroke-miterlimit:10" />
  <line
     x2="445.48242"
     y2="377.5"
     stroke="#888888"
     stroke-width="1"
     opacity="1"
     id="line58"
     x1="445.48242"
     y1="372.5"
     style="fill:none;stroke-miterlimit:10" />
  <line
     x2="488.48242"
     y2="377.5"
     stroke="#888888"
     stroke-width="1"
     opacity="1"
     id="line60"
     x1="488.48242"
     y1="372.5"
     style="fill:none;stroke-miterlimit:10" />
  <line
     x2="531.48242"
     y2="377.5"
     stroke="#888888"
     stroke-width="1"
     opacity="1"
     id="line62"
     x1="531.48242"
     y1="372.5"
     style="fill:none;stroke-miterlimit:10" />
  <line
     x2="574.48242"
     y2="377.5"
     stroke="#888888"
     stroke-width="1"
     opacity="1"
     id="line64"
     x1="574.48242"
     y1="372.5"
     style="fill:none;stroke-miterlimit:10" />
  <line
     x2="617.48242"
     y2="377.5"
     stroke="#888888"
     stroke-width="1"
     opacity="1"
     id="line66"
     x1="617.48242"
     y1="372.5"
     style="fill:none;stroke-miterlimit:10" />
  <text
     text-anchor="middle"
     font-family="sans-serif"
     font-size="10px"
     fill="#4d4d4d"
     opacity="1"
     id="text70"
     x="59.910999"
     y="387.5"
     style="stroke-miterlimit:10">2006</text>
  <text
     text-anchor="middle"
     font-family="sans-serif"
     font-size="10px"
     fill="#4d4d4d"
     opacity="1"
     id="text72"
     x="102.76814"
     y="387.5"
     style="stroke-miterlimit:10">2007</text>
  <text
     text-anchor="middle"
     font-family="sans-serif"
     font-size="10px"
     fill="#4d4d4d"
     opacity="1"
     id="text74"
     x="145.62529"
     y="387.5"
     style="stroke-miterlimit:10">2008</text>
  <text
     text-anchor="middle"
     font-family="sans-serif"
     font-size="10px"
     fill="#4d4d4d"
     opacity="1"
     id="text76"
     x="188.48242"
     y="387.5"
     style="stroke-miterlimit:10">2009</text>
  <text
     text-anchor="middle"
     font-family="sans-serif"
     font-size="10px"
     fill="#4d4d4d"
     opacity="1"
     id="text78"
     x="231.33957"
     y="387.5"
     style="stroke-miterlimit:10">2010</text>
  <text
     text-anchor="middle"
     font-family="sans-serif"
     font-size="10px"
     fill="#4d4d4d"
     opacity="1"
     id="text80"
     x="274.19672"
     y="387.5"
     style="stroke-miterlimit:10">2011</text>
  <text
     text-anchor="middle"
     font-family="sans-serif"
     font-size="10px"
     fill="#4d4d4d"
     opacity="1"
     id="text82"
     x="317.05386"
     y="387.5"
     style="stroke-miterlimit:10">2012</text>
  <text
     text-anchor="middle"
     font-family="sans-serif"
     font-size="10px"
     fill="#4d4d4d"
     opacity="1"
     id="text84"
     x="359.91098"
     y="387.5"
     style="stroke-miterlimit:10">2013</text>
  <text
     text-anchor="middle"
     font-family="sans-serif"
     font-size="10px"
     fill="#4d4d4d"
     opacity="1"
     id="text86"
     x="402.76813"
     y="387.5"
     style="stroke-miterlimit:10">2014</text>
  <text
     text-anchor="middle"
     font-family="sans-serif"
     font-size="10px"
     fill="#4d4d4d"
     opacity="1"
     id="text88"
     x="445.62527"
     y="387.5"
     style="stroke-miterlimit:10">2015</text>
  <text
     text-anchor="middle"
     font-family="sans-serif"
     font-size="10px"
     fill="#4d4d4d"
     opacity="1"
     id="text90"
     x="488.48242"
     y="387.5"
     style="stroke-miterlimit:10">2016</text>
  <text
     text-anchor="middle"
     font-family="sans-serif"
     font-size="10px"
     fill="#4d4d4d"
     opacity="1"
     id="text92"
     x="531.3396"
     y="387.5"
     style="stroke-miterlimit:10">2017</text>
  <text
     text-anchor="middle"
     font-family="sans-serif"
     font-size="10px"
     fill="#4d4d4d"
     opacity="1"
     id="text94"
     x="574.19672"
     y="387.5"
     style="stroke-miterlimit:10">2018</text>
  <text
     text-anchor="middle"
     font-family="sans-serif"
     font-size="10px"
     fill="#4d4d4d"
     opacity="1"
     id="text96"
     x="617.05383"
     y="387.5"
     style="stroke-miterlimit:10">2019</text>
  <line
     x2="638.48242"
     y2="372.5"
     stroke="#888888"
     stroke-width="1"
     opacity="1"
     id="line100"
     x1="38.482426"
     y1="372.5"
     style="fill:none;stroke-miterlimit:10" />
  <text
     text-anchor="middle"
     font-family="sans-serif"
     font-size="11px"
     font-weight="bold"
     fill="#4d4d4d"
     opacity="1"
     id="text104"
     x="338.48242"
     y="402.5"
     style="stroke-miterlimit:10">Année</text>
  <path
     class="foreground"
     aria-hidden="true"
     d=""
     pointer-events="none"
     display="none"
     id="path110"
     style="fill:none;stroke-miterlimit:10" />
  <path
     class="background"
     aria-hidden="true"
     d="M 38.482426,22.5 Z"
     pointer-events="none"
     id="path116"
     style="fill:none;stroke-miterlimit:10" />
  <line
     x2="33.482426"
     y2="372.5"
     stroke="#888888"
     stroke-width="1"
     opacity="1"
     id="line118"
     x1="38.482426"
     y1="372.5"
     style="fill:none;stroke-miterlimit:10" />
  <line
     x2="33.482426"
     y2="333.5"
     stroke="#888888"
     stroke-width="1"
     opacity="1"
     id="line120"
     x1="38.482426"
     y1="333.5"
     style="fill:none;stroke-miterlimit:10" />
  <line
     x2="33.482426"
     y2="294.5"
     stroke="#888888"
     stroke-width="1"
     opacity="1"
     id="line122"
     x1="38.482426"
     y1="294.5"
     style="fill:none;stroke-miterlimit:10" />
  <line
     x2="33.482426"
     y2="255.5"
     stroke="#888888"
     stroke-width="1"
     opacity="1"
     id="line124"
     x1="38.482426"
     y1="255.5"
     style="fill:none;stroke-miterlimit:10" />
  <line
     x2="33.482426"
     y2="216.5"
     stroke="#888888"
     stroke-width="1"
     opacity="1"
     id="line126"
     x1="38.482426"
     y1="216.5"
     style="fill:none;stroke-miterlimit:10" />
  <line
     x2="33.482426"
     y2="178.5"
     stroke="#888888"
     stroke-width="1"
     opacity="1"
     id="line128"
     x1="38.482426"
     y1="178.5"
     style="fill:none;stroke-miterlimit:10" />
  <line
     x2="33.482426"
     y2="139.5"
     stroke="#888888"
     stroke-width="1"
     opacity="1"
     id="line130"
     x1="38.482426"
     y1="139.5"
     style="fill:none;stroke-miterlimit:10" />
  <line
     x2="33.482426"
     y2="100.5"
     stroke="#888888"
     stroke-width="1"
     opacity="1"
     id="line132"
     x1="38.482426"
     y1="100.5"
     style="fill:none;stroke-miterlimit:10" />
  <line
     x2="33.482426"
     y2="61.5"
     stroke="#888888"
     stroke-width="1"
     opacity="1"
     id="line134"
     x1="38.482426"
     y1="61.5"
     style="fill:none;stroke-miterlimit:10" />
  <line
     x2="33.482426"
     y2="22.5"
     stroke="#888888"
     stroke-width="1"
     opacity="1"
     id="line136"
     x1="38.482426"
     y1="22.5"
     style="fill:none;stroke-miterlimit:10" />
  <text
     text-anchor="end"
     font-family="sans-serif"
     font-size="10px"
     fill="#4d4d4d"
     opacity="1"
     id="text140"
     x="31.482426"
     y="375.5"
     style="stroke-miterlimit:10">0</text>
  <text
     text-anchor="end"
     font-family="sans-serif"
     font-size="10px"
     fill="#4d4d4d"
     opacity="1"
     id="text142"
     x="31.482426"
     y="336.61111"
     style="stroke-miterlimit:10">50</text>
  <text
     text-anchor="end"
     font-family="sans-serif"
     font-size="10px"
     fill="#4d4d4d"
     opacity="1"
     id="text144"
     x="31.482426"
     y="297.72223"
     style="stroke-miterlimit:10">100</text>
  <text
     text-anchor="end"
     font-family="sans-serif"
     font-size="10px"
     fill="#4d4d4d"
     opacity="1"
     id="text146"
     x="31.482426"
     y="258.83331"
     style="stroke-miterlimit:10">150</text>
  <text
     text-anchor="end"
     font-family="sans-serif"
     font-size="10px"
     fill="#4d4d4d"
     opacity="1"
     id="text148"
     x="31.482426"
     y="219.94444"
     style="stroke-miterlimit:10">200</text>
  <text
     text-anchor="end"
     font-family="sans-serif"
     font-size="10px"
     fill="#4d4d4d"
     opacity="1"
     id="text150"
     x="31.482426"
     y="181.05556"
     style="stroke-miterlimit:10">250</text>
  <text
     text-anchor="end"
     font-family="sans-serif"
     font-size="10px"
     fill="#4d4d4d"
     opacity="1"
     id="text152"
     x="31.482426"
     y="142.16667"
     style="stroke-miterlimit:10">300</text>
  <text
     text-anchor="end"
     font-family="sans-serif"
     font-size="10px"
     fill="#4d4d4d"
     opacity="1"
     id="text154"
     x="31.482426"
     y="103.27778"
     style="stroke-miterlimit:10">350</text>
  <text
     text-anchor="end"
     font-family="sans-serif"
     font-size="10px"
     fill="#4d4d4d"
     opacity="1"
     id="text156"
     x="31.482426"
     y="64.388885"
     style="stroke-miterlimit:10">400</text>
  <text
     text-anchor="end"
     font-family="sans-serif"
     font-size="10px"
     fill="#4d4d4d"
     opacity="1"
     id="text158"
     x="31.482426"
     y="25.5"
     style="stroke-miterlimit:10">450</text>
  <line
     x2="38.482426"
     y2="22.5"
     stroke="#888888"
     stroke-width="1"
     opacity="1"
     id="line162"
     x1="38.482426"
     y1="372.5"
     style="fill:none;stroke-miterlimit:10" />
  <text
     text-anchor="middle"
     transform="rotate(-90)"
     font-family="sans-serif"
     font-size="11px"
     font-weight="bold"
     fill="#4d4d4d"
     opacity="1"
     id="text166"
     x="-197.5"
     y="8.7978516"
     style="stroke-miterlimit:10">Kilomètre par la route</text>
  <path
     class="foreground"
     aria-hidden="true"
     d=""
     pointer-events="none"
     display="none"
     id="path172"
     style="fill:none;stroke-miterlimit:10" />
  <path
     class="background"
     aria-hidden="true"
     d="M 37.982426,22 H 637.98243 V 372 H 37.982426 Z"
     id="path178"
     style="fill:none;stroke-miterlimit:10" />
  <path
     d="m 59.410997,156.75999 42.857143,-25.9302 42.85715,-29.09251 42.85714,-16.516827 42.85714,-7.731564 42.85715,14.775262 42.85714,-6.091645 42.85714,-5.928183 42.85714,-27.545454 42.85715,17.262896 42.85714,-27.271515 42.85714,-13.511168 42.85715,27.39305 42.85714,-20.353808"
     stroke="#4c78a8"
     stroke-width="2"
     id="path180"
     style="fill:none;stroke-miterlimit:10" />
  <path
     class="foreground"
     aria-hidden="true"
     d=""
     display="none"
     id="path186"
     style="fill:none;stroke-miterlimit:10" />
  <path
     class="background"
     aria-hidden="true"
     d="M 37.982426,22 H 637.98243 V 372 H 37.982426 Z"
     id="path190"
     style="fill:none;stroke-miterlimit:10" />
  <path
     d="m 59.410997,176.85529 42.857143,-10.807 42.85715,-9.9916 42.85714,-3.58747 42.85714,-8.37354 42.85715,23.95609 42.85714,-15.57246 42.85714,24.70984 42.85714,-13.08632 42.85715,0.814 42.85714,-18.53558 42.85714,20.33264 42.85715,2.97793 42.85714,-34.05185"
     stroke="#f58518"
     stroke-width="2"
     id="path192"
     style="fill:none;stroke-miterlimit:10" />
  <path
     class="foreground"
     aria-hidden="true"
     d=""
     display="none"
     id="path198"
     style="fill:none;stroke-miterlimit:10" />
  <path
     class="background"
     aria-hidden="true"
     d="M 37.982426,22 H 637.98243 V 372 H 37.982426 Z"
     id="path202"
     style="fill:none;stroke-miterlimit:10" />
  <path
     d="m 59.410997,103.56685 42.857143,49.27358 42.85715,-49.54727 42.85714,-14.854374 42.85714,-22.991152 42.85715,1.855944 42.85714,-7.350615 42.85714,12.475781 42.85714,-48.120339 42.85715,37.721867 42.85714,-16.087679 42.85714,12.403723 42.85715,9.982086 42.85714,-24.455069"
     stroke="#e45756"
     stroke-width="2"
     id="path204"
     style="fill:none;stroke-miterlimit:10" />
  <path
     class="foreground"
     aria-hidden="true"
     d=""
     display="none"
     id="path210"
     style="fill:none;stroke-miterlimit:10" />
  <path
     class="background"
     aria-hidden="true"
     d="M 37.982426,22 H 637.98243 V 372 H 37.982426 Z"
     id="path214"
     style="fill:none;stroke-miterlimit:10" />
  <path
     d="m 59.410997,233.48297 42.857143,-3.31653 42.85715,-0.8134 42.85714,-10.83211 42.85714,-23.0892 42.85715,4.6106 42.85714,-4.00599 42.85714,17.76854 42.85714,-28.71686 42.85715,-1.80397 42.85714,-9.6335 42.85714,2.96539 42.85715,-2.23597 42.85714,-3.92468"
     stroke="#72b7b2"
     stroke-width="2"
     id="path216"
     style="fill:none;stroke-miterlimit:10" />
  <path
     class="foreground"
     aria-hidden="true"
     d=""
     display="none"
     id="path222"
     style="fill:none;stroke-miterlimit:10" />
  <path
     d="m 62.14961,156.75999 a 2.738613,2.738613 0 1 1 -5.477226,0 2.738613,2.738613 0 1 1 5.477226,0"
     fill="#4c78a8"
     stroke-width="2"
     opacity="1"
     id="path228"
     style="stroke-miterlimit:10" />
  <path
     d="m 105.00675,130.82979 a 2.738613,2.738613 0 1 1 -5.477223,0 2.738613,2.738613 0 1 1 5.477223,0"
     fill="#4c78a8"
     stroke-width="2"
     opacity="1"
     id="path230"
     style="stroke-miterlimit:10" />
  <path
     d="m 147.8639,101.73728 a 2.7386128,2.7386128 0 1 1 -5.47722,0 2.7386128,2.7386128 0 1 1 5.47722,0"
     fill="#4c78a8"
     stroke-width="2"
     opacity="1"
     id="path232"
     style="stroke-miterlimit:10" />
  <path
     d="m 190.72104,85.220453 a 2.7386128,2.7386128 0 1 1 -5.47722,0 2.7386128,2.7386128 0 1 1 5.47722,0"
     fill="#4c78a8"
     stroke-width="2"
     opacity="1"
     id="path234"
     style="stroke-miterlimit:10" />
  <path
     d="m 233.57818,77.488889 a 2.7386128,2.7386128 0 1 1 -5.47722,0 2.7386128,2.7386128 0 1 1 5.47722,0"
     fill="#4c78a8"
     stroke-width="2"
     opacity="1"
     id="path236"
     style="stroke-miterlimit:10" />
  <path
     d="m 276.43533,92.264151 a 2.7386128,2.7386128 0 1 1 -5.47722,0 2.7386128,2.7386128 0 1 1 5.47722,0"
     fill="#4c78a8"
     stroke-width="2"
     opacity="1"
     id="path238"
     style="stroke-miterlimit:10" />
  <path
     d="m 319.29247,86.172506 a 2.7386128,2.7386128 0 1 1 -5.47722,0 2.7386128,2.7386128 0 1 1 5.47722,0"
     fill="#4c78a8"
     stroke-width="2"
     opacity="1"
     id="path240"
     style="stroke-miterlimit:10" />
  <path
     d="m 362.14961,80.244323 a 2.7386128,2.7386128 0 1 1 -5.47722,0 2.7386128,2.7386128 0 1 1 5.47722,0"
     fill="#4c78a8"
     stroke-width="2"
     opacity="1"
     id="path242"
     style="stroke-miterlimit:10" />
  <path
     d="m 405.00675,52.698869 a 2.7386128,2.7386128 0 1 1 -5.47722,0 2.7386128,2.7386128 0 1 1 5.47722,0"
     fill="#4c78a8"
     stroke-width="2"
     opacity="1"
     id="path244"
     style="stroke-miterlimit:10" />
  <path
     d="m 447.8639,69.961765 a 2.7386128,2.7386128 0 1 1 -5.47722,0 2.7386128,2.7386128 0 1 1 5.47722,0"
     fill="#4c78a8"
     stroke-width="2"
     opacity="1"
     id="path246"
     style="stroke-miterlimit:10" />
  <path
     d="m 490.72104,42.69025 a 2.7386128,2.7386128 0 1 1 -5.47722,0 2.7386128,2.7386128 0 1 1 5.47722,0"
     fill="#4c78a8"
     stroke-width="2"
     opacity="1"
     id="path248"
     style="stroke-miterlimit:10" />
  <path
     d="m 533.57818,29.179082 a 2.7386128,2.7386128 0 1 1 -5.47722,0 2.7386128,2.7386128 0 1 1 5.47722,0"
     fill="#4c78a8"
     stroke-width="2"
     opacity="1"
     id="path250"
     style="stroke-miterlimit:10" />
  <path
     d="m 576.43533,56.572132 a 2.7386128,2.7386128 0 1 1 -5.47722,0 2.7386128,2.7386128 0 1 1 5.47722,0"
     fill="#4c78a8"
     stroke-width="2"
     opacity="1"
     id="path252"
     style="stroke-miterlimit:10" />
  <path
     d="m 619.29247,36.218324 a 2.7386128,2.7386128 0 1 1 -5.47722,0 2.7386128,2.7386128 0 1 1 5.47722,0"
     fill="#4c78a8"
     stroke-width="2"
     opacity="1"
     id="path254"
     style="stroke-miterlimit:10" />
  <path
     d="m 62.14961,176.85529 a 2.738613,2.738613 0 1 1 -5.477226,0 2.738613,2.738613 0 1 1 5.477226,0"
     fill="#f58518"
     stroke-width="2"
     opacity="1"
     id="path256"
     style="stroke-miterlimit:10" />
  <path
     d="m 105.00675,166.04829 a 2.738613,2.738613 0 1 1 -5.477223,0 2.738613,2.738613 0 1 1 5.477223,0"
     fill="#f58518"
     stroke-width="2"
     opacity="1"
     id="path258"
     style="stroke-miterlimit:10" />
  <path
     d="m 147.8639,156.05669 a 2.7386128,2.7386128 0 1 1 -5.47722,0 2.7386128,2.7386128 0 1 1 5.47722,0"
     fill="#f58518"
     stroke-width="2"
     opacity="1"
     id="path260"
     style="stroke-miterlimit:10" />
  <path
     d="m 190.72104,152.46922 a 2.7386128,2.7386128 0 1 1 -5.47722,0 2.7386128,2.7386128 0 1 1 5.47722,0"
     fill="#f58518"
     stroke-width="2"
     opacity="1"
     id="path262"
     style="stroke-miterlimit:10" />
  <path
     d="m 233.57818,144.09568 a 2.7386128,2.7386128 0 1 1 -5.47722,0 2.7386128,2.7386128 0 1 1 5.47722,0"
     fill="#f58518"
     stroke-width="2"
     opacity="1"
     id="path264"
     style="stroke-miterlimit:10" />
  <path
     d="m 276.43533,168.05177 a 2.7386128,2.7386128 0 1 1 -5.47722,0 2.7386128,2.7386128 0 1 1 5.47722,0"
     fill="#f58518"
     stroke-width="2"
     opacity="1"
     id="path266"
     style="stroke-miterlimit:10" />
  <path
     d="m 319.29247,152.47931 a 2.7386128,2.7386128 0 1 1 -5.47722,0 2.7386128,2.7386128 0 1 1 5.47722,0"
     fill="#f58518"
     stroke-width="2"
     opacity="1"
     id="path268"
     style="stroke-miterlimit:10" />
  <path
     d="m 362.14961,177.18915 a 2.7386128,2.7386128 0 1 1 -5.47722,0 2.7386128,2.7386128 0 1 1 5.47722,0"
     fill="#f58518"
     stroke-width="2"
     opacity="1"
     id="path270"
     style="stroke-miterlimit:10" />
  <path
     d="m 405.00675,164.10283 a 2.7386128,2.7386128 0 1 1 -5.47722,0 2.7386128,2.7386128 0 1 1 5.47722,0"
     fill="#f58518"
     stroke-width="2"
     opacity="1"
     id="path272"
     style="stroke-miterlimit:10" />
  <path
     d="m 447.8639,164.91683 a 2.7386128,2.7386128 0 1 1 -5.47722,0 2.7386128,2.7386128 0 1 1 5.47722,0"
     fill="#f58518"
     stroke-width="2"
     opacity="1"
     id="path274"
     style="stroke-miterlimit:10" />
  <path
     d="m 490.72104,146.38125 a 2.7386128,2.7386128 0 1 1 -5.47722,0 2.7386128,2.7386128 0 1 1 5.47722,0"
     fill="#f58518"
     stroke-width="2"
     opacity="1"
     id="path276"
     style="stroke-miterlimit:10" />
  <path
     d="m 533.57818,166.71389 a 2.7386128,2.7386128 0 1 1 -5.47722,0 2.7386128,2.7386128 0 1 1 5.47722,0"
     fill="#f58518"
     stroke-width="2"
     opacity="1"
     id="path278"
     style="stroke-miterlimit:10" />
  <path
     d="m 576.43533,169.69182 a 2.7386128,2.7386128 0 1 1 -5.47722,0 2.7386128,2.7386128 0 1 1 5.47722,0"
     fill="#f58518"
     stroke-width="2"
     opacity="1"
     id="path280"
     style="stroke-miterlimit:10" />
  <path
     d="m 619.29247,135.63997 a 2.7386128,2.7386128 0 1 1 -5.47722,0 2.7386128,2.7386128 0 1 1 5.47722,0"
     fill="#f58518"
     stroke-width="2"
     opacity="1"
     id="path282"
     style="stroke-miterlimit:10" />
  <path
     d="m 62.14961,103.56685 a 2.738613,2.738613 0 1 1 -5.477226,0 2.738613,2.738613 0 1 1 5.477226,0"
     fill="#e45756"
     stroke-width="2"
     opacity="1"
     id="path284"
     style="stroke-miterlimit:10" />
  <path
     d="m 105.00675,152.84043 a 2.738613,2.738613 0 1 1 -5.477223,0 2.738613,2.738613 0 1 1 5.477223,0"
     fill="#e45756"
     stroke-width="2"
     opacity="1"
     id="path286"
     style="stroke-miterlimit:10" />
  <path
     d="m 147.8639,103.29316 a 2.7386128,2.7386128 0 1 1 -5.47722,0 2.7386128,2.7386128 0 1 1 5.47722,0"
     fill="#e45756"
     stroke-width="2"
     opacity="1"
     id="path288"
     style="stroke-miterlimit:10" />
  <path
     d="m 190.72104,88.438786 a 2.7386128,2.7386128 0 1 1 -5.47722,0 2.7386128,2.7386128 0 1 1 5.47722,0"
     fill="#e45756"
     stroke-width="2"
     opacity="1"
     id="path290"
     style="stroke-miterlimit:10" />
  <path
     d="m 233.57818,65.447634 a 2.7386128,2.7386128 0 1 1 -5.47722,0 2.7386128,2.7386128 0 1 1 5.47722,0"
     fill="#e45756"
     stroke-width="2"
     opacity="1"
     id="path292"
     style="stroke-miterlimit:10" />
  <path
     d="m 276.43533,67.303578 a 2.7386128,2.7386128 0 1 1 -5.47722,0 2.7386128,2.7386128 0 1 1 5.47722,0"
     fill="#e45756"
     stroke-width="2"
     opacity="1"
     id="path294"
     style="stroke-miterlimit:10" />
  <path
     d="m 319.29247,59.952963 a 2.7386128,2.7386128 0 1 1 -5.47722,0 2.7386128,2.7386128 0 1 1 5.47722,0"
     fill="#e45756"
     stroke-width="2"
     opacity="1"
     id="path296"
     style="stroke-miterlimit:10" />
  <path
     d="m 362.14961,72.428744 a 2.7386128,2.7386128 0 1 1 -5.47722,0 2.7386128,2.7386128 0 1 1 5.47722,0"
     fill="#e45756"
     stroke-width="2"
     opacity="1"
     id="path298"
     style="stroke-miterlimit:10" />
  <path
     d="m 405.00675,24.308405 a 2.7386128,2.7386128 0 1 1 -5.47722,0 2.7386128,2.7386128 0 1 1 5.47722,0"
     fill="#e45756"
     stroke-width="2"
     opacity="1"
     id="path300"
     style="stroke-miterlimit:10" />
  <path
     d="m 447.8639,62.030272 a 2.7386128,2.7386128 0 1 1 -5.47722,0 2.7386128,2.7386128 0 1 1 5.47722,0"
     fill="#e45756"
     stroke-width="2"
     opacity="1"
     id="path302"
     style="stroke-miterlimit:10" />
  <path
     d="m 490.72104,45.942593 a 2.7386128,2.7386128 0 1 1 -5.47722,0 2.7386128,2.7386128 0 1 1 5.47722,0"
     fill="#e45756"
     stroke-width="2"
     opacity="1"
     id="path304"
     style="stroke-miterlimit:10" />
  <path
     d="m 533.57818,58.346316 a 2.7386128,2.7386128 0 1 1 -5.47722,0 2.7386128,2.7386128 0 1 1 5.47722,0"
     fill="#e45756"
     stroke-width="2"
     opacity="1"
     id="path306"
     style="stroke-miterlimit:10" />
  <path
     d="m 576.43533,68.328402 a 2.7386128,2.7386128 0 1 1 -5.47722,0 2.7386128,2.7386128 0 1 1 5.47722,0"
     fill="#e45756"
     stroke-width="2"
     opacity="1"
     id="path308"
     style="stroke-miterlimit:10" />
  <path
     d="m 619.29247,43.873333 a 2.7386128,2.7386128 0 1 1 -5.47722,0 2.7386128,2.7386128 0 1 1 5.47722,0"
     fill="#e45756"
     stroke-width="2"
     opacity="1"
     id="path310"
     style="stroke-miterlimit:10" />
  <path
     d="m 62.14961,233.48297 a 2.738613,2.738613 0 1 1 -5.477226,0 2.738613,2.738613 0 1 1 5.477226,0"
     fill="#72b7b2"
     stroke-width="2"
     opacity="1"
     id="path312"
     style="stroke-miterlimit:10" />
  <path
     d="m 105.00675,230.16644 a 2.738613,2.738613 0 1 1 -5.477223,0 2.738613,2.738613 0 1 1 5.477223,0"
     fill="#72b7b2"
     stroke-width="2"
     opacity="1"
     id="path314"
     style="stroke-miterlimit:10" />
  <path
     d="m 147.8639,229.35304 a 2.7386128,2.7386128 0 1 1 -5.47722,0 2.7386128,2.7386128 0 1 1 5.47722,0"
     fill="#72b7b2"
     stroke-width="2"
     opacity="1"
     id="path316"
     style="stroke-miterlimit:10" />
  <path
     d="m 190.72104,218.52093 a 2.7386128,2.7386128 0 1 1 -5.47722,0 2.7386128,2.7386128 0 1 1 5.47722,0"
     fill="#72b7b2"
     stroke-width="2"
     opacity="1"
     id="path318"
     style="stroke-miterlimit:10" />
  <path
     d="m 233.57818,195.43173 a 2.7386128,2.7386128 0 1 1 -5.47722,0 2.7386128,2.7386128 0 1 1 5.47722,0"
     fill="#72b7b2"
     stroke-width="2"
     opacity="1"
     id="path320"
     style="stroke-miterlimit:10" />
  <path
     d="m 276.43533,200.04233 a 2.7386128,2.7386128 0 1 1 -5.47722,0 2.7386128,2.7386128 0 1 1 5.47722,0"
     fill="#72b7b2"
     stroke-width="2"
     opacity="1"
     id="path322"
     style="stroke-miterlimit:10" />
  <path
     d="m 319.29247,196.03634 a 2.7386128,2.7386128 0 1 1 -5.47722,0 2.7386128,2.7386128 0 1 1 5.47722,0"
     fill="#72b7b2"
     stroke-width="2"
     opacity="1"
     id="path324"
     style="stroke-miterlimit:10" />
  <path
     d="m 362.14961,213.80488 a 2.7386128,2.7386128 0 1 1 -5.47722,0 2.7386128,2.7386128 0 1 1 5.47722,0"
     fill="#72b7b2"
     stroke-width="2"
     opacity="1"
     id="path326"
     style="stroke-miterlimit:10" />
  <path
     d="m 405.00675,185.08802 a 2.7386128,2.7386128 0 1 1 -5.47722,0 2.7386128,2.7386128 0 1 1 5.47722,0"
     fill="#72b7b2"
     stroke-width="2"
     opacity="1"
     id="path328"
     style="stroke-miterlimit:10" />
  <path
     d="m 447.8639,183.28405 a 2.7386128,2.7386128 0 1 1 -5.47722,0 2.7386128,2.7386128 0 1 1 5.47722,0"
     fill="#72b7b2"
     stroke-width="2"
     opacity="1"
     id="path330"
     style="stroke-miterlimit:10" />
  <path
     d="m 490.72104,173.65055 a 2.7386128,2.7386128 0 1 1 -5.47722,0 2.7386128,2.7386128 0 1 1 5.47722,0"
     fill="#72b7b2"
     stroke-width="2"
     opacity="1"
     id="path332"
     style="stroke-miterlimit:10" />
  <path
     d="m 533.57818,176.61594 a 2.7386128,2.7386128 0 1 1 -5.47722,0 2.7386128,2.7386128 0 1 1 5.47722,0"
     fill="#72b7b2"
     stroke-width="2"
     opacity="1"
     id="path334"
     style="stroke-miterlimit:10" />
  <path
     d="m 576.43533,174.37997 a 2.7386128,2.7386128 0 1 1 -5.47722,0 2.7386128,2.7386128 0 1 1 5.47722,0"
     fill="#72b7b2"
     stroke-width="2"
     opacity="1"
     id="path336"
     style="stroke-miterlimit:10" />
  <path
     d="m 619.29247,170.45529 a 2.7386128,2.7386128 0 1 1 -5.47722,0 2.7386128,2.7386128 0 1 1 5.47722,0"
     fill="#72b7b2"
     stroke-width="2"
     opacity="1"
     id="path338"
     style="stroke-miterlimit:10" />
  <path
     class="background"
     aria-hidden="true"
     d="M 37.982426,422 H 250.98243 v 13 H 37.982426 Z"
     pointer-events="none"
     id="path342"
     style="fill:none;stroke-miterlimit:10" />
  <path
     class="background"
     aria-hidden="true"
     d="M 37.982426,422 Z"
     pointer-events="none"
     id="path344"
     style="fill:none;stroke-miterlimit:10" />
  <path
     class="background"
     aria-hidden="true"
     d="m 37.982426,422.25 h 45.959961 v 12.5 H 37.982426 Z"
     pointer-events="none"
     opacity="1"
     id="path346"
     style="fill:none;stroke-miterlimit:10" />
  <path
     d="m 48.982426,428.25 a 5,5 0 1 1 -10,0 5,5 0 1 1 10,0"
     fill="#4c78a8"
     stroke="#4c78a8"
     stroke-width="1.5"
     opacity="1"
     id="path348"
     style="stroke-miterlimit:10" />
  <text
     text-anchor="start"
     font-family="sans-serif"
     font-size="11px"
     fill="#4d4d4d"
     opacity="1"
     id="text352"
     x="53.982426"
     y="431.25"
     style="stroke-miterlimit:10">Coeur</text>
  <path
     class="foreground"
     aria-hidden="true"
     d=""
     pointer-events="none"
     display="none"
     id="path358"
     style="fill:none;stroke-miterlimit:10" />
  <path
     class="background"
     aria-hidden="true"
     d="m 94.982426,422.25 h 37.398434 v 12.5 H 94.982426 Z"
     pointer-events="none"
     opacity="1"
     id="path362"
     style="fill:none;stroke-miterlimit:10" />
  <path
     d="m 105.98243,428.25 a 5.000002,5.000002 0 1 1 -10.000004,0 5.000002,5.000002 0 1 1 10.000004,0"
     fill="#f58518"
     stroke="#f58518"
     stroke-width="1.5"
     opacity="1"
     id="path364"
     style="stroke-miterlimit:10" />
  <text
     text-anchor="start"
     font-family="sans-serif"
     font-size="11px"
     fill="#4d4d4d"
     opacity="1"
     id="text368"
     x="110.98243"
     y="431.25"
     style="stroke-miterlimit:10">Foie</text>
  <path
     class="foreground"
     aria-hidden="true"
     d=""
     pointer-events="none"
     display="none"
     id="path374"
     style="fill:none;stroke-miterlimit:10" />
  <path
     class="background"
     aria-hidden="true"
     d="m 143.98243,422.25 h 56.9707 v 12.5 h -56.9707 z"
     pointer-events="none"
     opacity="1"
     id="path378"
     style="fill:none;stroke-miterlimit:10" />
  <path
     d="m 154.98243,428.25 a 5,5 0 1 1 -10,0 5,5 0 1 1 10,0"
     fill="#e45756"
     stroke="#e45756"
     stroke-width="1.5"
     opacity="1"
     id="path380"
     style="stroke-miterlimit:10" />
  <text
     text-anchor="start"
     font-family="sans-serif"
     font-size="11px"
     fill="#4d4d4d"
     opacity="1"
     id="text384"
     x="159.98242"
     y="431.25"
     style="stroke-miterlimit:10">Poumon</text>
  <path
     class="foreground"
     aria-hidden="true"
     d=""
     pointer-events="none"
     display="none"
     id="path390"
     style="fill:none;stroke-miterlimit:10" />
  <path
     class="background"
     aria-hidden="true"
     d="m 211.98243,422.25 h 38.62305 v 12.5 h -38.62305 z"
     pointer-events="none"
     opacity="1"
     id="path394"
     style="fill:none;stroke-miterlimit:10" />
  <path
     d="m 222.98243,428.25 a 5,5 0 1 1 -10,0 5,5 0 1 1 10,0"
     fill="#72b7b2"
     stroke="#72b7b2"
     stroke-width="1.5"
     opacity="1"
     id="path396"
     style="stroke-miterlimit:10" />
  <text
     text-anchor="start"
     font-family="sans-serif"
     font-size="11px"
     fill="#4d4d4d"
     opacity="1"
     id="text400"
     x="227.98242"
     y="431.25"
     style="stroke-miterlimit:10">Rein</text>
  <path
     class="foreground"
     aria-hidden="true"
     d=""
     pointer-events="none"
     display="none"
     id="path406"
     style="fill:none;stroke-miterlimit:10" />
  <path
     class="foreground"
     aria-hidden="true"
     d=""
     pointer-events="none"
     display="none"
     id="path414"
     style="fill:none;stroke-miterlimit:10" />
  <path
     class="foreground"
     aria-hidden="true"
     d=""
     pointer-events="none"
     display="none"
     id="path422"
     style="fill:none;stroke-miterlimit:10" />
  <path
     class="background"
     aria-hidden="true"
     d="M 337.98243,0 Z"
     pointer-events="none"
     id="path428"
     style="fill:none;stroke-miterlimit:10" />
  <path
     class="foreground"
     aria-hidden="true"
     d=""
     pointer-events="none"
     display="none"
     id="path436"
     style="fill:none;stroke-miterlimit:10" />
  <path
     class="foreground"
     aria-hidden="true"
     d=""
     display="none"
     id="path444"
     style="fill:none;stroke-miterlimit:10" />
  <text
     transform="rotate(-90)"
     class="st18 st19 st20"
     id="text381"
     style="font-size:11.4977px;font-family:DejaVuSans-Oblique;fill:#adadad;stroke-width:1.64253;stroke-miterlimit:10"
     x="-371.1832"
     y="650.7616"><tspan
       style="font-style:oblique;font-variant:normal;font-weight:normal;font-stretch:normal;font-size:11.4977px;font-family:'DejaVu Sans';-inkscape-font-specification:'DejaVu Sans, Oblique';font-variant-ligatures:normal;font-variant-caps:normal;font-variant-numeric:normal;font-variant-east-asian:normal;stroke-width:1.64253"
       id="tspan9863">Source : Agence de la biomédecine 2022</tspan></text>
</svg>
