<?xml version="1.0" encoding="UTF-8" standalone="no"?>
<svg
   class="svglite"
   width="494.61685pt"
   height="370.37943pt"
   viewBox="0 0 494.61685 370.37943"
   version="1.1"
   id="svg90"
   sodipodi:docname="figure47.svg"
   inkscape:version="1.1.1 (3bf5ae0d25, 2021-09-20, custom)"
   inkscape:export-filename="/run/user/1000/kio-fuse-ybSiTS/fish/florian@geographie.xyz:2222/home/florian/thèse/transport/survie/survie_helico.png"
   inkscape:export-xdpi="300"
   inkscape:export-ydpi="300"
   xmlns:inkscape="http://www.inkscape.org/namespaces/inkscape"
   xmlns:sodipodi="http://sodipodi.sourceforge.net/DTD/sodipodi-0.dtd"
   xmlns="http://www.w3.org/2000/svg"
   xmlns:svg="http://www.w3.org/2000/svg"
   xmlns:rdf="http://www.w3.org/1999/02/22-rdf-syntax-ns#"
   xmlns:cc="http://creativecommons.org/ns#"
   xmlns:dc="http://purl.org/dc/elements/1.1/">
  <metadata
     id="metadata58">
    <rdf:RDF>
      <cc:Work
         rdf:about="">
        <dc:format>image/svg+xml</dc:format>
        <dc:type
           rdf:resource="http://purl.org/dc/dcmitype/StillImage" />
      </cc:Work>
    </rdf:RDF>
  </metadata>
  <sodipodi:namedview
     id="namedview92"
     pagecolor="#ffffff"
     bordercolor="#666666"
     borderopacity="1.0"
     inkscape:pageshadow="2"
     inkscape:pageopacity="0.0"
     inkscape:pagecheckerboard="0"
     inkscape:document-units="pt"
     showgrid="false"
     showguides="false"
     inkscape:zoom="0.76603232"
     inkscape:cx="261.7383"
     inkscape:cy="238.2406"
     inkscape:window-width="1920"
     inkscape:window-height="1034"
     inkscape:window-x="0"
     inkscape:window-y="22"
     inkscape:window-maximized="1"
     inkscape:current-layer="layer2"
     inkscape:document-rotation="0"
     fit-margin-top="0"
     fit-margin-left="0"
     fit-margin-right="0"
     fit-margin-bottom="0" />
  <defs
     id="defs4">
    <style
       type="text/css"
       id="style2"><![CDATA[
    .svglite line, .svglite polyline, .svglite polygon, .svglite path, .svglite rect, .svglite circle {
      fill: none;
      stroke: #000000;
      stroke-linecap: round;
      stroke-linejoin: round;
      stroke-miterlimit: 10.00;
    }
  ]]></style>
    <rect
       x="-118.02588"
       y="-60.731766"
       width="184.18336"
       height="52.69236"
       id="rect515-1-0" />
    <rect
       x="-118.02588"
       y="-60.731766"
       width="184.18336"
       height="52.69236"
       id="rect1418" />
  </defs>
  <defs
     id="defs11" />
  <defs
     id="defs20" />
  <g
     inkscape:groupmode="layer"
     id="layer1"
     inkscape:label="lignes"
     transform="translate(-3.4031488,-58.41)">
    <path
       style="fill:none;stroke:#b3b3b3;stroke-width:0.75px;stroke-linecap:butt;stroke-linejoin:miter;stroke-opacity:1"
       d="M 54.162619,73.64 H 496.23266"
       id="path77512" />
    <path
       style="fill:none;stroke:#b3b3b3;stroke-width:0.75px;stroke-linecap:butt;stroke-linejoin:miter;stroke-miterlimit:10;stroke-opacity:1"
       d="M 54.162619,149.74749 H 496.23266"
       id="path77512-6" />
    <path
       style="fill:none;stroke:#b3b3b3;stroke-width:0.75px;stroke-linecap:butt;stroke-linejoin:miter;stroke-miterlimit:10;stroke-opacity:1"
       d="M 54.162619,225.85499 H 496.23266"
       id="path77512-6-2" />
    <path
       style="fill:none;stroke:#b3b3b3;stroke-width:0.75px;stroke-linecap:butt;stroke-linejoin:miter;stroke-miterlimit:10;stroke-opacity:1"
       d="M 54.162619,301.96249 H 496.23266"
       id="path77512-6-2-9" />
    <path
       style="fill:none;stroke:#b3b3b3;stroke-width:0.75px;stroke-linecap:butt;stroke-linejoin:miter;stroke-miterlimit:10;stroke-opacity:1"
       d="M 54.162619,340.01623 H 496.23266"
       id="path77512-6-2-9-1" />
    <path
       style="fill:none;stroke:#b3b3b3;stroke-width:0.75px;stroke-linecap:butt;stroke-linejoin:miter;stroke-miterlimit:10;stroke-opacity:1"
       d="M 54.162619,263.90875 H 496.23266"
       id="path77512-6-2-9-1-7" />
    <path
       style="fill:none;stroke:#b3b3b3;stroke-width:0.75px;stroke-linecap:butt;stroke-linejoin:miter;stroke-miterlimit:10;stroke-opacity:1"
       d="M 54.162619,187.80125 H 496.23266"
       id="path77512-6-2-9-1-7-0" />
    <path
       style="fill:none;stroke:#b3b3b3;stroke-width:0.75px;stroke-linecap:butt;stroke-linejoin:miter;stroke-miterlimit:10;stroke-opacity:1"
       d="M 54.162619,111.69375 H 496.23266"
       id="path77512-6-2-9-1-7-0-9" />
    <path
       style="fill:none;stroke:#808080;stroke-width:0.75px;stroke-linecap:butt;stroke-linejoin:miter;stroke-miterlimit:10;stroke-opacity:1"
       d="M 54.162619,378.07 H 496.23266"
       id="path77512-6-2-9-1-2" />
  </g>
  <g
     inkscape:groupmode="layer"
     id="layer3"
     inkscape:label="def"
     transform="translate(-3.4031488,-58.41)" />
  <g
     inkscape:groupmode="layer"
     id="layer2"
     inkscape:label="data"
     transform="translate(-3.4031488,-58.41)">
    <polyline
       points="74.37,73.64 74.37,73.64 74.37,73.64 74.37,73.64 74.37,75.61 76.80,75.61 76.80,78.96 78.02,78.96 78.02,79.65 79.24,79.65 79.24,80.34 80.46,80.34 80.46,81.02 81.68,81.02 81.68,84.47 82.90,84.47 82.90,85.16 84.12,85.16 84.12,85.86 87.77,85.86 87.77,86.56 90.21,86.56 90.21,87.27 91.43,87.27 91.43,87.98 92.65,87.98 92.65,88.70 93.87,88.70 93.87,91.67 95.09,91.67 95.09,92.44 96.31,92.44 96.31,93.21 97.53,93.21 97.53,93.99 98.74,93.99 98.74,94.76 101.18,94.76 101.18,95.54 107.28,95.54 107.28,97.10 108.50,97.10 108.50,97.88 118.25,97.88 118.25,99.46 120.69,99.46 120.69,100.25 124.34,100.25 124.34,101.05 126.78,101.05 126.78,101.85 130.44,101.85 130.44,102.66 138.97,102.66 138.97,103.47 145.07,103.47 145.07,104.30 153.60,104.30 153.60,105.13 156.04,105.13 156.04,106.78 160.91,106.78 160.91,107.61 182.85,107.61 182.85,108.44 186.51,108.44 186.51,109.27 226.74,109.27 226.74,110.12 264.53,110.12 264.53,110.97 266.96,110.97 266.96,111.82 271.84,111.82 271.84,112.68 288.91,112.68 288.91,113.53 302.31,113.53 302.31,114.39 319.38,114.39 319.38,115.24 477.85,115.24 477.85,116.11 "
       style="fill:none;stroke:#1f77b4;stroke-width:3;stroke-linecap:butt;stroke-linejoin:round;stroke-miterlimit:10;stroke-dasharray:none;stroke-dashoffset:0"
       id="polyline24" />
    <polyline
       points="74.37,73.64 74.37,73.64 74.37,73.64 74.37,73.64 74.37,77.55 76.80,77.55 76.80,84.08 78.02,84.08 78.02,85.41 79.24,85.41 79.24,86.73 80.46,86.73 80.46,88.04 81.68,88.04 81.68,94.55 82.90,94.55 82.90,95.84 84.12,95.84 84.12,97.14 87.77,97.14 87.77,98.45 90.21,98.45 90.21,99.75 91.43,99.75 91.43,101.05 92.65,101.05 92.65,102.36 93.87,102.36 93.87,107.75 95.09,107.75 95.09,109.13 96.31,109.13 96.31,110.51 97.53,110.51 97.53,111.88 98.74,111.88 98.74,113.26 101.18,113.26 101.18,114.63 107.28,114.63 107.28,117.35 108.50,117.35 108.50,118.71 118.25,118.71 118.25,121.44 120.69,121.44 120.69,122.80 124.34,122.80 124.34,124.17 126.78,124.17 126.78,125.53 130.44,125.53 130.44,126.90 138.97,126.90 138.97,128.28 145.07,128.28 145.07,129.67 153.60,129.67 153.60,131.04 156.04,131.04 156.04,133.79 160.91,133.79 160.91,135.16 182.85,135.16 182.85,136.53 186.51,136.53 186.51,137.89 226.74,137.89 226.74,139.27 264.53,139.27 264.53,140.66 266.96,140.66 266.96,142.03 271.84,142.03 271.84,143.41 288.91,143.41 288.91,144.78 302.31,144.78 302.31,146.14 319.38,146.14 319.38,147.49 477.85,147.49 477.85,148.86 "
       style="fill:none;stroke:#ff7f0e;stroke-width:2.25;stroke-linecap:butt;stroke-linejoin:round;stroke-miterlimit:10;stroke-dasharray:4.5, 2.25;stroke-dashoffset:0"
       id="polyline26" />
    <polyline
       points="54.19,393.30 54.19,58.41 "
       style="fill:none;stroke:#808080;stroke-width:1.16;stroke-linecap:butt;stroke-linejoin:round;stroke-miterlimit:10;stroke-opacity:1"
       id="polyline30" />
    <polyline
       points="51.20,378.07 54.19,378.07 "
       style="fill:none;stroke:#808080;stroke-width:1.16;stroke-linecap:butt;stroke-linejoin:round;stroke-miterlimit:10;stroke-opacity:1"
       id="polyline42" />
    <polyline
       points="51.20,301.96 54.19,301.96 "
       style="fill:none;stroke:#808080;stroke-width:1.16;stroke-linecap:butt;stroke-linejoin:round;stroke-miterlimit:10;stroke-opacity:1"
       id="polyline44" />
    <polyline
       points="51.20,225.86 54.19,225.86 "
       style="fill:none;stroke:#808080;stroke-width:1.16;stroke-linecap:butt;stroke-linejoin:round;stroke-miterlimit:10;stroke-opacity:1"
       id="polyline46" />
    <polyline
       points="51.20,149.75 54.19,149.75 "
       style="fill:none;stroke:#808080;stroke-width:1.16;stroke-linecap:butt;stroke-linejoin:round;stroke-miterlimit:10;stroke-opacity:1"
       id="polyline48" />
    <polyline
       points="51.20,73.64 54.19,73.64 "
       style="fill:none;stroke:#808080;stroke-width:1.16;stroke-linecap:butt;stroke-linejoin:round;stroke-miterlimit:10;stroke-opacity:1"
       id="polyline50" />
    <polyline
       points="54.19,393.30 498.02,393.30 "
       style="fill:none;stroke:#808080;stroke-width:1.16;stroke-linecap:butt;stroke-linejoin:round;stroke-miterlimit:10;stroke-opacity:1"
       id="polyline52" />
    <polyline
       points="74.37,396.28 74.37,393.30 "
       style="fill:none;stroke:#808080;stroke-width:1.16;stroke-linecap:butt;stroke-linejoin:round;stroke-miterlimit:10;stroke-opacity:1"
       id="polyline54" />
    <polyline
       points="196.26,396.28 196.26,393.30 "
       style="fill:none;stroke:#808080;stroke-width:1.16;stroke-linecap:butt;stroke-linejoin:round;stroke-miterlimit:10;stroke-opacity:1"
       id="polyline56" />
    <polyline
       points="318.16,396.28 318.16,393.30 "
       style="fill:none;stroke:#808080;stroke-width:1.16;stroke-linecap:butt;stroke-linejoin:round;stroke-miterlimit:10;stroke-opacity:1"
       id="polyline58" />
    <polyline
       points="440.06,396.28 440.06,393.30 "
       style="fill:none;stroke:#808080;stroke-width:1.16;stroke-linecap:butt;stroke-linejoin:round;stroke-miterlimit:10;stroke-opacity:1"
       id="polyline60" />
    <text
       x="74.370003"
       y="407.42001"
       text-anchor="middle"
       style="font-size:12px;font-family:'DejaVu Sans';fill:#4d4d4d;fill-opacity:1"
       textLength="7.6399999"
       lengthAdjust="spacingAndGlyphs"
       id="text62">0</text>
    <text
       x="196.25999"
       y="407.42001"
       text-anchor="middle"
       style="font-size:12px;font-family:'DejaVu Sans';fill:#4d4d4d;fill-opacity:1"
       textLength="22.92"
       lengthAdjust="spacingAndGlyphs"
       id="text64">100</text>
    <text
       x="318.16"
       y="407.42001"
       text-anchor="middle"
       style="font-size:12px;font-family:'DejaVu Sans';fill:#4d4d4d;fill-opacity:1"
       textLength="22.92"
       lengthAdjust="spacingAndGlyphs"
       id="text66">200</text>
    <text
       x="440.06"
       y="407.42001"
       text-anchor="middle"
       style="font-size:12px;font-family:'DejaVu Sans';fill:#4d4d4d;fill-opacity:1"
       textLength="22.92"
       lengthAdjust="spacingAndGlyphs"
       id="text68">300</text>
    <text
       xml:space="preserve"
       style="font-style:normal;font-variant:normal;font-weight:normal;font-stretch:normal;font-size:13px;line-height:1.25;font-family:sans-serif;-inkscape-font-specification:'sans-serif, Normal';font-variant-ligatures:normal;font-variant-caps:normal;font-variant-numeric:normal;font-variant-east-asian:normal;fill:#4d4d4d;fill-opacity:1;stroke:none;stroke-width:0.370151"
       x="-288.28296"
       y="13.800611"
       id="text31459"
       transform="rotate(-90)"><tspan
         sodipodi:role="line"
         id="tspan31457"
         style="font-style:normal;font-variant:normal;font-weight:normal;font-stretch:normal;font-size:13px;font-family:sans-serif;-inkscape-font-specification:'sans-serif, Normal';font-variant-ligatures:normal;font-variant-caps:normal;font-variant-numeric:normal;font-variant-east-asian:normal;fill:#4d4d4d;fill-opacity:1;stroke-width:0.370151"
         x="-288.28296"
         y="13.800611">Probalité de survie</tspan></text>
    <text
       xml:space="preserve"
       style="font-style:normal;font-variant:normal;font-weight:normal;font-stretch:normal;font-size:13px;line-height:1.25;font-family:sans-serif;-inkscape-font-specification:'sans-serif, Normal';font-variant-ligatures:normal;font-variant-caps:normal;font-variant-numeric:normal;font-variant-east-asian:normal;fill:#4d4d4d;fill-opacity:1;stroke:none;stroke-width:0.370151;stroke-opacity:1"
       x="161.09747"
       y="426.08533"
       id="text31459-36"><tspan
         sodipodi:role="line"
         id="tspan31457-0"
         style="font-style:normal;font-variant:normal;font-weight:normal;font-stretch:normal;font-size:13px;font-family:sans-serif;-inkscape-font-specification:'sans-serif, Normal';font-variant-ligatures:normal;font-variant-caps:normal;font-variant-numeric:normal;font-variant-east-asian:normal;fill:#4d4d4d;fill-opacity:1;stroke:none;stroke-width:0.370151;stroke-opacity:1"
         x="161.09747"
         y="426.08533">Temps écoulé depuis la greffe (jour)</tspan></text>
    <rect
       x="83.601212"
       y="219.56572"
       shape-rendering="crispEdges"
       class="st12"
       width="127.0084"
       height="59.19569"
       id="rect138"
       style="fill:#f4f4f4;stroke:#c9c9c9;stroke-width:0.954075;stroke-miterlimit:10" />
    <text
       class="st14 st7 st15"
       id="text142"
       x="123.18741"
       y="253.4373"
       style="font-size:10.9003px;font-family:DejaVuSans;fill:#404040;stroke-width:1.28787">En hélicoptère</text>
    <path
       class="st16"
       d="M 93.886324,250.31731 H 118.99977"
       id="path144"
       style="fill:#1f77b4;fill-opacity:1;stroke:#1f77b4;stroke-width:2.57574;stroke-opacity:1" />
    <text
       class="st14 st7 st15"
       id="text150"
       x="123.18741"
       y="270.12305"
       style="font-size:10.9003px;font-family:DejaVuSans;fill:#404040;stroke-width:1.28787">En voiture</text>
    <text
       class="st14 st18 st15"
       id="text425-9"
       style="font-size:10.9003px;font-family:DejaVuSansCondensed-Bold;fill:#404040;stroke-width:1.28787"
       x="88.149384"
       y="233.41142"><tspan
         sodipodi:role="line"
         id="tspan479"
         x="88.149384"
         y="233.41142"
         style="font-style:normal;font-variant:normal;font-weight:bold;font-stretch:normal;font-family:sans-serif;-inkscape-font-specification:'sans-serif Bold';stroke-width:1.28787">Trajet simulé</tspan></text>
    <line
       x1="93.886322"
       y1="266.81732"
       x2="119.23689"
       y2="266.81732"
       style="fill:none;stroke:#ff7f0e;stroke-width:2.76524;stroke-linecap:butt;stroke-linejoin:round;stroke-miterlimit:10;stroke-dasharray:5.53048, 2.76524;stroke-dashoffset:0"
       id="line80-9" />
    <text
       class="st6 st7 st8"
       id="text88"
       x="13.975897"
       y="78.424835"
       style="font-size:12.6345px;font-family:DejaVuSans;fill:#4d4d4d;stroke-width:1.05287">100%</text>
    <text
       class="st6 st7 st8"
       id="text88-3"
       x="22.014351"
       y="153.44931"
       style="font-size:12.6345px;font-family:DejaVuSans;fill:#4d4d4d;stroke-width:1.05287">75%</text>
    <text
       class="st6 st7 st8"
       id="text88-3-0"
       x="22.014351"
       y="228.99474"
       style="font-size:12.6345px;font-family:DejaVuSans;fill:#4d4d4d;stroke-width:1.05287">50%</text>
    <text
       class="st6 st7 st8"
       id="text88-3-0-3"
       x="22.014351"
       y="305.91461"
       style="font-size:12.6345px;font-family:DejaVuSans;fill:#4d4d4d;stroke-width:1.05287">25%</text>
    <text
       class="st6 st7 st8"
       id="text88-3-0-3-3"
       x="30.052803"
       y="382.15656"
       style="font-size:12.6345px;font-family:DejaVuSans;fill:#4d4d4d;stroke-width:1.05287">0%</text>
  </g>
</svg>
