<?xml version="1.0" encoding="UTF-8" standalone="no"?>
<svg
   width="100mm"
   height="50mm"
   viewBox="0 0 100 50"
   version="1.1"
   id="svg8"
   inkscape:version="1.1.1 (3bf5ae0d25, 2021-09-20, custom)"
   sodipodi:docname="figure20.svg"
   xmlns:inkscape="http://www.inkscape.org/namespaces/inkscape"
   xmlns:sodipodi="http://sodipodi.sourceforge.net/DTD/sodipodi-0.dtd"
   xmlns="http://www.w3.org/2000/svg"
   xmlns:svg="http://www.w3.org/2000/svg"
   xmlns:rdf="http://www.w3.org/1999/02/22-rdf-syntax-ns#"
   xmlns:cc="http://creativecommons.org/ns#"
   xmlns:dc="http://purl.org/dc/elements/1.1/">
  <defs
     id="defs2">
    <marker
       style="overflow:visible"
       id="marker1650"
       refX="0"
       refY="0"
       orient="auto"
       inkscape:stockid="Arrow2Send"
       inkscape:isstock="true">
      <path
         transform="matrix(-0.3,0,0,-0.3,0.69,0)"
         d="M 8.7185878,4.0337352 -2.2072895,0.01601326 8.7185884,-4.0017078 c -1.7454984,2.3720609 -1.7354408,5.6174519 -6e-7,8.035443 z"
         style="fill:#ffffff;fill-opacity:1;fill-rule:evenodd;stroke:#ffffff;stroke-width:0.625;stroke-linejoin:round;stroke-opacity:1"
         id="path1648" />
    </marker>
    <marker
       style="overflow:visible"
       id="Arrow2Send"
       refX="0"
       refY="0"
       orient="auto"
       inkscape:stockid="Arrow2Send"
       inkscape:isstock="true">
      <path
         transform="matrix(-0.3,0,0,-0.3,0.69,0)"
         d="M 8.7185878,4.0337352 -2.2072895,0.01601326 8.7185884,-4.0017078 c -1.7454984,2.3720609 -1.7354408,5.6174519 -6e-7,8.035443 z"
         style="fill:#b1e1e8;fill-opacity:1;fill-rule:evenodd;stroke:#b1e1e8;stroke-width:0.625;stroke-linejoin:round;stroke-opacity:1"
         id="path1373" />
    </marker>
    <marker
       style="overflow:visible"
       id="Arrow1Mend"
       refX="0"
       refY="0"
       orient="auto"
       inkscape:stockid="Arrow1Mend"
       inkscape:isstock="true">
      <path
         transform="matrix(-0.4,0,0,-0.4,-4,0)"
         style="fill:#b1e1e8;fill-opacity:1;fill-rule:evenodd;stroke:#b1e1e8;stroke-width:1pt;stroke-opacity:1"
         d="M 0,0 5,-5 -12.5,0 5,5 Z"
         id="path1349" />
    </marker>
    <clipPath
       clipPathUnits="userSpaceOnUse"
       id="clipEmfPath1">
      <path
         d="M 0,0 H 340.30232 V 164.79144 H 0 Z"
         id="path833" />
    </clipPath>
    <pattern
       id="EMFhbasepattern"
       patternUnits="userSpaceOnUse"
       width="6"
       height="6"
       x="0"
       y="0" />
    <clipPath
       clipPathUnits="userSpaceOnUse"
       id="clipEmfPath1-1">
      <path
         d="M 0,0 H 339.64904 V 164.47509 H 0 Z"
         id="path854" />
    </clipPath>
    <pattern
       id="EMFhbasepattern-0"
       patternUnits="userSpaceOnUse"
       width="6"
       height="6"
       x="0"
       y="0" />
    <clipPath
       clipPathUnits="userSpaceOnUse"
       id="clipWmfPath1">
      <path
         d="M 0.95930776,0.95865385 H 341.03391 V 165.52756 H 0.95930776 Z"
         id="path877" />
    </clipPath>
    <pattern
       id="WMFhbasepattern"
       patternUnits="userSpaceOnUse"
       width="6"
       height="6"
       x="0"
       y="0" />
    <marker
       style="overflow:visible"
       id="marker1650-1"
       refX="0"
       refY="0"
       orient="auto"
       inkscape:stockid="Arrow2Send"
       inkscape:isstock="true">
      <path
         transform="matrix(-0.3,0,0,-0.3,0.69,0)"
         d="M 8.7185878,4.0337352 -2.2072895,0.01601326 8.7185884,-4.0017078 c -1.7454984,2.3720609 -1.7354408,5.6174519 -6e-7,8.035443 z"
         style="fill:#b1e1e8;fill-opacity:1;fill-rule:evenodd;stroke:#b1e1e8;stroke-width:0.625;stroke-linejoin:round;stroke-opacity:1"
         id="path1648-5" />
    </marker>
    <marker
       style="overflow:visible"
       id="marker1650-12"
       refX="0"
       refY="0"
       orient="auto"
       inkscape:stockid="Arrow2Send"
       inkscape:isstock="true">
      <path
         transform="matrix(-0.3,0,0,-0.3,0.69,0)"
         d="M 8.7185878,4.0337352 -2.2072895,0.01601326 8.7185884,-4.0017078 c -1.7454984,2.3720609 -1.7354408,5.6174519 -6e-7,8.035443 z"
         style="fill:#b1e1e8;fill-opacity:1;fill-rule:evenodd;stroke:#b1e1e8;stroke-width:0.625;stroke-linejoin:round;stroke-opacity:1"
         id="path1648-8" />
    </marker>
    <marker
       style="overflow:visible"
       id="marker1650-13"
       refX="0"
       refY="0"
       orient="auto"
       inkscape:stockid="Arrow2Send"
       inkscape:isstock="true">
      <path
         transform="matrix(-0.3,0,0,-0.3,0.69,0)"
         d="M 8.7185878,4.0337352 -2.2072895,0.01601326 8.7185884,-4.0017078 c -1.7454984,2.3720609 -1.7354408,5.6174519 -6e-7,8.035443 z"
         style="fill:#b1e1e8;fill-opacity:1;fill-rule:evenodd;stroke:#b1e1e8;stroke-width:0.625;stroke-linejoin:round;stroke-opacity:1"
         id="path1648-85" />
    </marker>
  </defs>
  <sodipodi:namedview
     id="base"
     pagecolor="#ffffff"
     bordercolor="#666666"
     borderopacity="1.0"
     inkscape:pageopacity="0.0"
     inkscape:pageshadow="2"
     inkscape:zoom="1.4"
     inkscape:cx="134.64286"
     inkscape:cy="107.5"
     inkscape:document-units="mm"
     inkscape:current-layer="layer2"
     inkscape:document-rotation="0"
     showgrid="false"
     inkscape:window-width="1920"
     inkscape:window-height="1034"
     inkscape:window-x="0"
     inkscape:window-y="22"
     inkscape:window-maximized="1"
     fit-margin-top="0"
     fit-margin-left="0"
     fit-margin-right="0"
     fit-margin-bottom="0"
     inkscape:pagecheckerboard="0" />
  <metadata
     id="metadata5">
    <rdf:RDF>
      <cc:Work
         rdf:about="">
        <dc:format>image/svg+xml</dc:format>
        <dc:type
           rdf:resource="http://purl.org/dc/dcmitype/StillImage" />
      </cc:Work>
    </rdf:RDF>
  </metadata>
  <g
     inkscape:label="Calque 1"
     inkscape:groupmode="layer"
     id="layer1"
     style="display:inline"
     transform="translate(-64.633924,-21.544345)">
    <g
       id="g875"
       transform="matrix(0.26458333,0,0,0.26458333,86.430236,53.611324)">
      <g
         id="g898"
         transform="translate(8.7665151,2.7028465)">
        <g
           id="g1208" />
        <rect
           style="fill:#088ea7;fill-opacity:1;stroke-width:3.95946;stroke-miterlimit:10"
           id="rect902"
           width="188.97638"
           height="188.97638"
           x="-91.146278"
           y="-123.90088" />
        <rect
           style="fill:#d66b70;fill-opacity:1;stroke-width:3.95946;stroke-miterlimit:10"
           id="rect902-1"
           width="188.97638"
           height="188.97638"
           x="97.830101"
           y="-123.90088" />
        <path
           style="display:inline;fill:#f5f1e3;fill-opacity:1;stroke:#008da6;stroke-width:3.52808;stroke-miterlimit:10;stroke-dasharray:none;stroke-opacity:1"
           d="m 50.383659,-77.799275 c -3.691554,-3.481575 -4.271204,-12.118234 -1.532119,-22.827955 2.555379,-9.99141 6.590472,-12.50893 23.277647,-14.52313 4.224251,-0.50987 11.480254,-1.58604 16.124439,-2.39147 4.644186,-0.80545 9.514083,-1.46443 10.821998,-1.46443 2.193906,0 2.346246,0.10293 1.967416,1.3293 -1.803115,5.83708 -7.456137,11.2013 -16.322901,15.48902 -8.280352,4.004139 -15.178182,9.499529 -22.616033,18.017863 -4.706275,5.389933 -7.941246,8.279071 -9.281726,8.28947 -0.220578,0.0012 -1.317999,-0.861685 -2.438721,-1.918668 z"
           id="path1216-3" />
      </g>
    </g>
    <g
       id="path1338">
      <path
         style="color:#000000;fill:#f5f1e3;stroke-width:1.865;stroke-linecap:round;-inkscape-stroke:none"
         d="M 99.494678,30.380947 83.388091,35.41321"
         id="path1660" />
      <path
         style="color:#000000;fill:#f5f1e3;stroke-linecap:round;-inkscape-stroke:none"
         d="m 99.216797,29.490234 -16.107422,5.033203 a 0.9325,0.9325 0 0 0 -0.611328,1.167969 0.9325,0.9325 0 0 0 1.167969,0.611328 l 16.107421,-5.03125 a 0.9325,0.9325 0 0 0 0.611333,-1.167968 0.9325,0.9325 0 0 0 -1.167973,-0.613282 z"
         id="path1662" />
      <g
         id="g1650">
        <g
           id="path1652"
           style="fill:#f5f1e3;fill-opacity:1">
          <path
             style="color:#000000;fill:#f5f1e3;fill-rule:evenodd;stroke-width:0.349687;stroke-linejoin:round;-inkscape-stroke:none;fill-opacity:1"
             d="m 87.488925,36.496429 -6.505241,-0.322611 5.164501,-3.968648 c -0.536382,1.558021 0.01049,3.289516 1.34074,4.291259 z"
             id="path1656" />
          <path
             style="color:#000000;fill:#f5f1e3;fill-rule:evenodd;stroke-linejoin:round;-inkscape-stroke:none;fill-opacity:1"
             d="m 86.181641,32.033203 a 0.17486099,0.17486099 0 0 0 -0.140625,0.0332 l -5.164063,3.96875 a 0.17486099,0.17486099 0 0 0 0.09766,0.3125 l 6.50586,0.324219 a 0.17486099,0.17486099 0 0 0 0.113281,-0.314453 c -1.271303,-0.957353 -1.790792,-2.60997 -1.279297,-4.095703 a 0.17486099,0.17486099 0 0 0 -0.132812,-0.228516 z m -0.205079,0.523438 c -0.313583,1.381268 0.125113,2.774894 1.171875,3.748046 l -5.68164,-0.28125 z"
             id="path1658" />
        </g>
      </g>
    </g>
    <path
       style="display:inline;fill:none;stroke:#b1e1e8;stroke-width:1.865;stroke-linecap:round;stroke-linejoin:miter;stroke-miterlimit:4;stroke-dasharray:none;stroke-opacity:1;marker-end:url(#marker1650-12)"
       d="m 82.102156,42.28304 10.38483,6.98115"
       id="path1338-4"
       sodipodi:nodetypes="cc" />
    <text
       xml:space="preserve"
       style="font-style:normal;font-weight:normal;font-size:3.61791px;line-height:1.25;font-family:sans-serif;fill:#f5f1e3;fill-opacity:1;stroke:none;stroke-width:0.0904479"
       x="70.028137"
       y="53.946281"
       id="text1892"
       transform="rotate(-17.048317)"><tspan
         sodipodi:role="line"
         id="tspan1890"
         x="70.028137"
         y="53.946281"
         style="font-style:normal;font-variant:normal;font-weight:bold;font-stretch:normal;font-family:sans-serif;-inkscape-font-specification:'sans-serif Bold';fill:#f5f1e3;fill-opacity:1;stroke-width:0.0904479">200 km</tspan></text>
    <text
       xml:space="preserve"
       style="font-style:normal;font-weight:normal;font-size:3.61791px;line-height:1.25;font-family:sans-serif;display:inline;fill:#f5f1e3;fill-opacity:1;stroke:none;stroke-width:0.0904479"
       x="105.24567"
       y="37.371117"
       id="text1892-1"
       transform="rotate(-0.86959825)"><tspan
         sodipodi:role="line"
         id="tspan1890-5"
         x="105.24567"
         y="37.371117"
         style="font-style:normal;font-variant:normal;font-weight:bold;font-stretch:normal;font-family:sans-serif;-inkscape-font-specification:'sans-serif Bold';fill:#f5f1e3;fill-opacity:1;stroke-width:0.0904479">50 km</tspan></text>
    <path
       style="display:inline;fill:none;stroke:#f5f1e3;stroke-width:1.47;stroke-linecap:round;stroke-linejoin:round;stroke-miterlimit:4;stroke-dasharray:1.47, 2.94;stroke-dashoffset:0;stroke-opacity:1"
       d="m 114.67318,30.380727 -5.87832,0.183758"
       id="path1338-7"
       sodipodi:nodetypes="cc" />
  </g>
  <g
     inkscape:groupmode="layer"
     id="layer2"
     inkscape:label="Layer 1"
     transform="matrix(0.26458333,0,0,0.26458333,21.796312,32.066979)">
    <circle
       style="fill:#b1e1e8;fill-opacity:1;stroke-width:3.13333;stroke-miterlimit:10"
       id="path926"
       cx="-34.983921"
       cy="2.8073003"
       r="18.435284" />
    <path
       id="path950"
       style="fill:#b1e1e8;fill-opacity:1;stroke-width:6.17097;stroke-miterlimit:10"
       d="m -49.711467,19.078007 a 32.829959,40.153563 0 0 0 -17.51171,28.30859 h 64.47851 a 32.829959,40.153563 0 0 0 -17.50976,-28.30859 18.435283,18.435283 0 0 1 -0.01172,0.01562 18.435283,18.435283 0 0 1 -0.22071,0.28516 18.435283,18.435283 0 0 1 -0.22656,0.2832 18.435283,18.435283 0 0 1 -0.23047,0.27735 18.435283,18.435283 0 0 1 -0.23632,0.27148 18.435283,18.435283 0 0 1 -0.24219,0.26758 18.435283,18.435283 0 0 1 -0.24805,0.26367 18.435283,18.435283 0 0 1 -0.25195,0.25781 18.435283,18.435283 0 0 1 -0.25781,0.25391 18.435283,18.435283 0 0 1 -0.26172,0.24805 18.435283,18.435283 0 0 1 -0.26563,0.24414 18.435283,18.435283 0 0 1 -0.27344,0.23632 18.435283,18.435283 0 0 1 -0.27539,0.23243 18.435283,18.435283 0 0 1 -0.28125,0.22851 18.435283,18.435283 0 0 1 -0.28515,0.2207 18.435283,18.435283 0 0 1 -0.28907,0.21485 18.435283,18.435283 0 0 1 -0.29296,0.21094 18.435283,18.435283 0 0 1 -0.29883,0.20507 18.435283,18.435283 0 0 1 -0.30078,0.19727 18.435283,18.435283 0 0 1 -0.30664,0.19336 18.435283,18.435283 0 0 1 -0.3086,0.18555 18.435283,18.435283 0 0 1 -0.3125,0.17968 18.435283,18.435283 0 0 1 -0.3164,0.17578 18.435283,18.435283 0 0 1 -0.32032,0.16797 18.435283,18.435283 0 0 1 -0.32226,0.16016 18.435283,18.435283 0 0 1 -0.32617,0.15625 18.435283,18.435283 0 0 1 -0.32813,0.14844 18.435283,18.435283 0 0 1 -0.33203,0.14258 18.435283,18.435283 0 0 1 -0.33399,0.13671 18.435283,18.435283 0 0 1 -0.33789,0.12891 18.435283,18.435283 0 0 1 -0.33984,0.12305 18.435283,18.435283 0 0 1 -0.3418,0.11523 18.435283,18.435283 0 0 1 -0.34375,0.10938 18.435283,18.435283 0 0 1 -0.3457,0.10351 18.435283,18.435283 0 0 1 -0.34961,0.09571 18.435283,18.435283 0 0 1 -0.34961,0.08789 18.435283,18.435283 0 0 1 -0.35156,0.08203 18.435283,18.435283 0 0 1 -0.35352,0.07617 18.435283,18.435283 0 0 1 -0.35351,0.06836 18.435283,18.435283 0 0 1 -0.35547,0.06055 18.435283,18.435283 0 0 1 -0.35742,0.05468 18.435283,18.435283 0 0 1 -0.35742,0.04688 18.435283,18.435283 0 0 1 -0.35938,0.03906 18.435283,18.435283 0 0 1 -0.35937,0.0332 18.435283,18.435283 0 0 1 -0.35938,0.02735 18.435283,18.435283 0 0 1 -0.36133,0.01953 18.435283,18.435283 0 0 1 -0.36133,0.01172 18.435283,18.435283 0 0 1 -0.36132,0.0039 18.435283,18.435283 0 0 1 -0.07422,0 18.435283,18.435283 0 0 1 -0.35938,-0.002 18.435283,18.435283 0 0 1 -0.36133,-0.01172 18.435283,18.435283 0 0 1 -0.36132,-0.01758 18.435283,18.435283 0 0 1 -0.35938,-0.02343 18.435283,18.435283 0 0 1 -0.35937,-0.03321 18.435283,18.435283 0 0 1 -0.35938,-0.03906 18.435283,18.435283 0 0 1 -0.35742,-0.04492 18.435283,18.435283 0 0 1 -0.35742,-0.05274 18.435283,18.435283 0 0 1 -0.35742,-0.06054 18.435283,18.435283 0 0 1 -0.35352,-0.06641 18.435283,18.435283 0 0 1 -0.35352,-0.07422 18.435283,18.435283 0 0 1 -0.35156,-0.08008 18.435283,18.435283 0 0 1 -0.35156,-0.08789 18.435283,18.435283 0 0 1 -0.34766,-0.09375 18.435283,18.435283 0 0 1 -0.34765,-0.10156 18.435283,18.435283 0 0 1 -0.34375,-0.10742 18.435283,18.435283 0 0 1 -0.3418,-0.11524 18.435283,18.435283 0 0 1 -0.33984,-0.12109 18.435283,18.435283 0 0 1 -0.33789,-0.12695 18.435283,18.435283 0 0 1 -0.33594,-0.13477 18.435283,18.435283 0 0 1 -0.33203,-0.14258 18.435283,18.435283 0 0 1 -0.33008,-0.14648 18.435283,18.435283 0 0 1 -0.32617,-0.1543 18.435283,18.435283 0 0 1 -0.32422,-0.16015 18.435283,18.435283 0 0 1 -0.31836,-0.16602 18.435283,18.435283 0 0 1 -0.31836,-0.17383 18.435283,18.435283 0 0 1 -0.3125,-0.17968 18.435283,18.435283 0 0 1 -0.31055,-0.1836 18.435283,18.435283 0 0 1 -0.30664,-0.1914 18.435283,18.435283 0 0 1 -0.30273,-0.19727 18.435283,18.435283 0 0 1 -0.29688,-0.20312 18.435283,18.435283 0 0 1 -0.29492,-0.20899 18.435283,18.435283 0 0 1 -0.29102,-0.21484 18.435283,18.435283 0 0 1 -0.28515,-0.22071 18.435283,18.435283 0 0 1 -0.2832,-0.22656 18.435283,18.435283 0 0 1 -0.27735,-0.23047 18.435283,18.435283 0 0 1 -0.27148,-0.23633 18.435283,18.435283 0 0 1 -0.26758,-0.24218 18.435283,18.435283 0 0 1 -0.26367,-0.24805 18.435283,18.435283 0 0 1 -0.25781,-0.25195 18.435283,18.435283 0 0 1 -0.25391,-0.25586 18.435283,18.435283 0 0 1 -0.24805,-0.26367 18.435283,18.435283 0 0 1 -0.24414,-0.26563 18.435283,18.435283 0 0 1 -0.23633,-0.27148 18.435283,18.435283 0 0 1 -0.23242,-0.27735 18.435283,18.435283 0 0 1 -0.22656,-0.28125 18.435283,18.435283 0 0 1 -0.22266,-0.28515 18.435283,18.435283 0 0 1 -0.05469,-0.07422 z" />
    <circle
       style="fill:#b1e1e8;fill-opacity:1;stroke-width:3.13333;stroke-miterlimit:10"
       id="path926-2"
       cx="49.11129"
       cy="3.5056195"
       r="18.435284" />
    <path
       id="path950-6"
       style="fill:#b1e1e8;fill-opacity:1;stroke-width:6.17097;stroke-miterlimit:10"
       d="m 34.383744,19.776327 a 32.829959,40.153563 0 0 0 -17.51171,28.30859 h 64.47851 a 32.829959,40.153563 0 0 0 -17.50976,-28.30859 18.435283,18.435283 0 0 1 -0.01172,0.01562 18.435283,18.435283 0 0 1 -0.22071,0.28516 18.435283,18.435283 0 0 1 -0.22656,0.2832 18.435283,18.435283 0 0 1 -0.23047,0.27735 18.435283,18.435283 0 0 1 -0.23632,0.27148 18.435283,18.435283 0 0 1 -0.24219,0.26758 18.435283,18.435283 0 0 1 -0.24805,0.26367 18.435283,18.435283 0 0 1 -0.25195,0.25781 18.435283,18.435283 0 0 1 -0.25781,0.25391 18.435283,18.435283 0 0 1 -0.26172,0.24805 18.435283,18.435283 0 0 1 -0.26563,0.24414 18.435283,18.435283 0 0 1 -0.27344,0.23632 18.435283,18.435283 0 0 1 -0.27539,0.23243 18.435283,18.435283 0 0 1 -0.28125,0.22851 18.435283,18.435283 0 0 1 -0.28515,0.2207 18.435283,18.435283 0 0 1 -0.28907,0.21485 18.435283,18.435283 0 0 1 -0.29296,0.21094 18.435283,18.435283 0 0 1 -0.29883,0.20507 18.435283,18.435283 0 0 1 -0.30078,0.19727 18.435283,18.435283 0 0 1 -0.30664,0.19336 18.435283,18.435283 0 0 1 -0.3086,0.18555 18.435283,18.435283 0 0 1 -0.3125,0.17968 18.435283,18.435283 0 0 1 -0.3164,0.17578 18.435283,18.435283 0 0 1 -0.32032,0.16797 18.435283,18.435283 0 0 1 -0.32226,0.16016 18.435283,18.435283 0 0 1 -0.32617,0.15625 18.435283,18.435283 0 0 1 -0.32813,0.14844 18.435283,18.435283 0 0 1 -0.33203,0.14258 18.435283,18.435283 0 0 1 -0.33399,0.13671 18.435283,18.435283 0 0 1 -0.33789,0.12891 18.435283,18.435283 0 0 1 -0.33984,0.12305 18.435283,18.435283 0 0 1 -0.3418,0.11523 18.435283,18.435283 0 0 1 -0.34375,0.10938 18.435283,18.435283 0 0 1 -0.3457,0.10351 18.435283,18.435283 0 0 1 -0.34961,0.09571 18.435283,18.435283 0 0 1 -0.34961,0.08789 18.435283,18.435283 0 0 1 -0.35156,0.08203 18.435283,18.435283 0 0 1 -0.35352,0.07617 18.435283,18.435283 0 0 1 -0.35351,0.06836 18.435283,18.435283 0 0 1 -0.35547,0.06055 18.435283,18.435283 0 0 1 -0.35742,0.05468 18.435283,18.435283 0 0 1 -0.35742,0.04688 18.435283,18.435283 0 0 1 -0.35938,0.03906 18.435283,18.435283 0 0 1 -0.35937,0.0332 18.435283,18.435283 0 0 1 -0.35938,0.02735 18.435283,18.435283 0 0 1 -0.36133,0.01953 18.435283,18.435283 0 0 1 -0.36133,0.01172 18.435283,18.435283 0 0 1 -0.36132,0.0039 18.435283,18.435283 0 0 1 -0.07422,0 18.435283,18.435283 0 0 1 -0.35938,-0.002 18.435283,18.435283 0 0 1 -0.36133,-0.01172 18.435283,18.435283 0 0 1 -0.36132,-0.01758 18.435283,18.435283 0 0 1 -0.35938,-0.02343 18.435283,18.435283 0 0 1 -0.35937,-0.03321 18.435283,18.435283 0 0 1 -0.35938,-0.03906 18.435283,18.435283 0 0 1 -0.35742,-0.04492 18.435283,18.435283 0 0 1 -0.35742,-0.05274 18.435283,18.435283 0 0 1 -0.35742,-0.06054 18.435283,18.435283 0 0 1 -0.35352,-0.06641 18.435283,18.435283 0 0 1 -0.35352,-0.07422 18.435283,18.435283 0 0 1 -0.35156,-0.08008 18.435283,18.435283 0 0 1 -0.35156,-0.08789 18.435283,18.435283 0 0 1 -0.34766,-0.09375 18.435283,18.435283 0 0 1 -0.34765,-0.10156 18.435283,18.435283 0 0 1 -0.34375,-0.10742 18.435283,18.435283 0 0 1 -0.3418,-0.11524 18.435283,18.435283 0 0 1 -0.33984,-0.12109 18.435283,18.435283 0 0 1 -0.33789,-0.12695 18.435283,18.435283 0 0 1 -0.33594,-0.13477 18.435283,18.435283 0 0 1 -0.33203,-0.14258 18.435283,18.435283 0 0 1 -0.33008,-0.14648 18.435283,18.435283 0 0 1 -0.32617,-0.1543 18.435283,18.435283 0 0 1 -0.32422,-0.16015 18.435283,18.435283 0 0 1 -0.31836,-0.16602 18.435283,18.435283 0 0 1 -0.31836,-0.17383 18.435283,18.435283 0 0 1 -0.3125,-0.17968 18.435283,18.435283 0 0 1 -0.31055,-0.1836 18.435283,18.435283 0 0 1 -0.30664,-0.1914 18.435283,18.435283 0 0 1 -0.30273,-0.19727 18.435283,18.435283 0 0 1 -0.29688,-0.20312 18.435283,18.435283 0 0 1 -0.29492,-0.20899 18.435283,18.435283 0 0 1 -0.29102,-0.21484 18.435283,18.435283 0 0 1 -0.28515,-0.22071 18.435283,18.435283 0 0 1 -0.2832,-0.22656 18.435283,18.435283 0 0 1 -0.27735,-0.23047 18.435283,18.435283 0 0 1 -0.27148,-0.23633 18.435283,18.435283 0 0 1 -0.26758,-0.24218 18.435283,18.435283 0 0 1 -0.26367,-0.24805 18.435283,18.435283 0 0 1 -0.25781,-0.25195 18.435283,18.435283 0 0 1 -0.25391,-0.25586 18.435283,18.435283 0 0 1 -0.24805,-0.26367 18.435283,18.435283 0 0 1 -0.24414,-0.26563 18.435283,18.435283 0 0 1 -0.23633,-0.27148 18.435283,18.435283 0 0 1 -0.23242,-0.27735 18.435283,18.435283 0 0 1 -0.22656,-0.28125 18.435283,18.435283 0 0 1 -0.22266,-0.28515 18.435283,18.435283 0 0 1 -0.05469,-0.07422 z" />
    <circle
       style="fill:#e7a842;fill-opacity:1;stroke-width:3.13333;stroke-miterlimit:10"
       id="path926-5"
       cx="180.08849"
       cy="-56.598457"
       r="18.435284" />
    <path
       id="path950-2"
       style="fill:#e7a842;fill-opacity:1;stroke-width:6.17097;stroke-miterlimit:10"
       d="m 165.36094,-40.327751 a 32.829959,40.153563 0 0 0 -17.51171,28.30859 h 64.47851 a 32.829959,40.153563 0 0 0 -17.50976,-28.30859 18.435283,18.435283 0 0 1 -0.0117,0.01562 18.435283,18.435283 0 0 1 -0.22071,0.28516 18.435283,18.435283 0 0 1 -0.22656,0.2832 18.435283,18.435283 0 0 1 -0.23047,0.27735 18.435283,18.435283 0 0 1 -0.23632,0.27148 18.435283,18.435283 0 0 1 -0.24219,0.26758 18.435283,18.435283 0 0 1 -0.24805,0.26367 18.435283,18.435283 0 0 1 -0.25195,0.25781 18.435283,18.435283 0 0 1 -0.25781,0.25391 18.435283,18.435283 0 0 1 -0.26172,0.24805 18.435283,18.435283 0 0 1 -0.26563,0.24414 18.435283,18.435283 0 0 1 -0.27344,0.23632 18.435283,18.435283 0 0 1 -0.27539,0.23243 18.435283,18.435283 0 0 1 -0.28125,0.22851 18.435283,18.435283 0 0 1 -0.28515,0.2207 18.435283,18.435283 0 0 1 -0.28907,0.21485 18.435283,18.435283 0 0 1 -0.29296,0.21094 18.435283,18.435283 0 0 1 -0.29883,0.20507 18.435283,18.435283 0 0 1 -0.30078,0.19727 18.435283,18.435283 0 0 1 -0.30664,0.19336 18.435283,18.435283 0 0 1 -0.3086,0.18555 18.435283,18.435283 0 0 1 -0.3125,0.17968 18.435283,18.435283 0 0 1 -0.3164,0.17578 18.435283,18.435283 0 0 1 -0.32032,0.16797 18.435283,18.435283 0 0 1 -0.32226,0.16016 18.435283,18.435283 0 0 1 -0.32617,0.15625 18.435283,18.435283 0 0 1 -0.32813,0.14844 18.435283,18.435283 0 0 1 -0.33203,0.14258 18.435283,18.435283 0 0 1 -0.33399,0.13671 18.435283,18.435283 0 0 1 -0.33789,0.12891 18.435283,18.435283 0 0 1 -0.33984,0.12305 18.435283,18.435283 0 0 1 -0.3418,0.11523 18.435283,18.435283 0 0 1 -0.34375,0.10938 18.435283,18.435283 0 0 1 -0.3457,0.10351 18.435283,18.435283 0 0 1 -0.34961,0.09571 18.435283,18.435283 0 0 1 -0.34961,0.08789 18.435283,18.435283 0 0 1 -0.35156,0.08203 18.435283,18.435283 0 0 1 -0.35352,0.07617 18.435283,18.435283 0 0 1 -0.35351,0.06836 18.435283,18.435283 0 0 1 -0.35547,0.06055 18.435283,18.435283 0 0 1 -0.35742,0.05468 18.435283,18.435283 0 0 1 -0.35742,0.04688 18.435283,18.435283 0 0 1 -0.35938,0.03906 18.435283,18.435283 0 0 1 -0.35937,0.0332 18.435283,18.435283 0 0 1 -0.35938,0.02735 18.435283,18.435283 0 0 1 -0.36133,0.01953 18.435283,18.435283 0 0 1 -0.36133,0.01172 18.435283,18.435283 0 0 1 -0.36132,0.0039 18.435283,18.435283 0 0 1 -0.0742,0 18.435283,18.435283 0 0 1 -0.35938,-0.002 18.435283,18.435283 0 0 1 -0.36133,-0.01172 18.435283,18.435283 0 0 1 -0.36132,-0.01758 18.435283,18.435283 0 0 1 -0.35938,-0.02343 18.435283,18.435283 0 0 1 -0.35937,-0.03321 18.435283,18.435283 0 0 1 -0.35938,-0.03906 18.435283,18.435283 0 0 1 -0.35742,-0.04492 18.435283,18.435283 0 0 1 -0.35742,-0.05274 18.435283,18.435283 0 0 1 -0.35742,-0.06054 18.435283,18.435283 0 0 1 -0.35352,-0.06641 18.435283,18.435283 0 0 1 -0.35352,-0.07422 18.435283,18.435283 0 0 1 -0.35156,-0.08008 18.435283,18.435283 0 0 1 -0.35156,-0.08789 18.435283,18.435283 0 0 1 -0.34766,-0.09375 18.435283,18.435283 0 0 1 -0.34765,-0.10156 18.435283,18.435283 0 0 1 -0.34375,-0.10742 18.435283,18.435283 0 0 1 -0.3418,-0.11524 18.435283,18.435283 0 0 1 -0.33984,-0.12109 18.435283,18.435283 0 0 1 -0.33789,-0.12695 18.435283,18.435283 0 0 1 -0.33594,-0.13477 18.435283,18.435283 0 0 1 -0.33203,-0.14258 18.435283,18.435283 0 0 1 -0.33008,-0.14648 18.435283,18.435283 0 0 1 -0.32617,-0.1543 18.435283,18.435283 0 0 1 -0.32422,-0.16015 18.435283,18.435283 0 0 1 -0.31836,-0.16602 18.435283,18.435283 0 0 1 -0.31836,-0.17383 18.435283,18.435283 0 0 1 -0.3125,-0.17968 18.435283,18.435283 0 0 1 -0.31055,-0.1836 18.435283,18.435283 0 0 1 -0.30664,-0.1914 18.435283,18.435283 0 0 1 -0.30273,-0.19727 18.435283,18.435283 0 0 1 -0.29688,-0.20312 18.435283,18.435283 0 0 1 -0.29492,-0.20899 18.435283,18.435283 0 0 1 -0.29102,-0.21484 18.435283,18.435283 0 0 1 -0.28515,-0.22071 18.435283,18.435283 0 0 1 -0.2832,-0.22656 18.435283,18.435283 0 0 1 -0.27735,-0.23047 18.435283,18.435283 0 0 1 -0.27148,-0.23633 18.435283,18.435283 0 0 1 -0.26758,-0.24218 18.435283,18.435283 0 0 1 -0.26367,-0.24805 18.435283,18.435283 0 0 1 -0.25781,-0.25195 18.435283,18.435283 0 0 1 -0.25391,-0.25586 18.435283,18.435283 0 0 1 -0.24805,-0.26367 18.435283,18.435283 0 0 1 -0.24414,-0.26563 18.435283,18.435283 0 0 1 -0.23633,-0.27148 18.435283,18.435283 0 0 1 -0.23242,-0.27735 18.435283,18.435283 0 0 1 -0.22656,-0.28125 18.435283,18.435283 0 0 1 -0.22266,-0.28515 18.435283,18.435283 0 0 1 -0.0547,-0.07422 z" />
    <circle
       style="fill:#f0cacb;fill-opacity:1;stroke-width:3.13333;stroke-miterlimit:10"
       id="path926-5-8"
       cx="254.56702"
       cy="-56.598457"
       r="18.435284" />
    <path
       id="path950-2-0"
       style="fill:#f0cacb;fill-opacity:1;stroke-width:6.17097;stroke-miterlimit:10"
       d="m 239.83945,-40.327751 a 32.829959,40.153563 0 0 0 -17.51171,28.30859 h 64.47851 a 32.829959,40.153563 0 0 0 -17.50976,-28.30859 18.435283,18.435283 0 0 1 -0.0117,0.01562 18.435283,18.435283 0 0 1 -0.22071,0.28516 18.435283,18.435283 0 0 1 -0.22656,0.2832 18.435283,18.435283 0 0 1 -0.23047,0.27735 18.435283,18.435283 0 0 1 -0.23632,0.27148 18.435283,18.435283 0 0 1 -0.24219,0.26758 18.435283,18.435283 0 0 1 -0.24805,0.26367 18.435283,18.435283 0 0 1 -0.25195,0.25781 18.435283,18.435283 0 0 1 -0.25781,0.25391 18.435283,18.435283 0 0 1 -0.26172,0.24805 18.435283,18.435283 0 0 1 -0.26563,0.24414 18.435283,18.435283 0 0 1 -0.27344,0.23632 18.435283,18.435283 0 0 1 -0.27539,0.23243 18.435283,18.435283 0 0 1 -0.28125,0.22851 18.435283,18.435283 0 0 1 -0.28515,0.2207 18.435283,18.435283 0 0 1 -0.28907,0.21485 18.435283,18.435283 0 0 1 -0.29296,0.21094 18.435283,18.435283 0 0 1 -0.29883,0.20507 18.435283,18.435283 0 0 1 -0.30078,0.19727 18.435283,18.435283 0 0 1 -0.30664,0.19336 18.435283,18.435283 0 0 1 -0.3086,0.18555 18.435283,18.435283 0 0 1 -0.3125,0.17968 18.435283,18.435283 0 0 1 -0.3164,0.17578 18.435283,18.435283 0 0 1 -0.32032,0.16797 18.435283,18.435283 0 0 1 -0.32226,0.16016 18.435283,18.435283 0 0 1 -0.32617,0.15625 18.435283,18.435283 0 0 1 -0.32813,0.14844 18.435283,18.435283 0 0 1 -0.33203,0.14258 18.435283,18.435283 0 0 1 -0.33399,0.13671 18.435283,18.435283 0 0 1 -0.33789,0.12891 18.435283,18.435283 0 0 1 -0.33984,0.12305 18.435283,18.435283 0 0 1 -0.3418,0.11523 18.435283,18.435283 0 0 1 -0.34375,0.10938 18.435283,18.435283 0 0 1 -0.3457,0.10351 18.435283,18.435283 0 0 1 -0.34961,0.09571 18.435283,18.435283 0 0 1 -0.34961,0.08789 18.435283,18.435283 0 0 1 -0.35156,0.08203 18.435283,18.435283 0 0 1 -0.35352,0.07617 18.435283,18.435283 0 0 1 -0.35351,0.06836 18.435283,18.435283 0 0 1 -0.35547,0.06055 18.435283,18.435283 0 0 1 -0.35742,0.05468 18.435283,18.435283 0 0 1 -0.35742,0.04688 18.435283,18.435283 0 0 1 -0.35938,0.03906 18.435283,18.435283 0 0 1 -0.35937,0.0332 18.435283,18.435283 0 0 1 -0.35938,0.02735 18.435283,18.435283 0 0 1 -0.36133,0.01953 18.435283,18.435283 0 0 1 -0.36133,0.01172 18.435283,18.435283 0 0 1 -0.36132,0.0039 18.435283,18.435283 0 0 1 -0.0742,0 18.435283,18.435283 0 0 1 -0.35938,-0.002 18.435283,18.435283 0 0 1 -0.36133,-0.01172 18.435283,18.435283 0 0 1 -0.36132,-0.01758 18.435283,18.435283 0 0 1 -0.35938,-0.02343 18.435283,18.435283 0 0 1 -0.35937,-0.03321 18.435283,18.435283 0 0 1 -0.35938,-0.03906 18.435283,18.435283 0 0 1 -0.35742,-0.04492 18.435283,18.435283 0 0 1 -0.35742,-0.05274 18.435283,18.435283 0 0 1 -0.35742,-0.06054 18.435283,18.435283 0 0 1 -0.35352,-0.06641 18.435283,18.435283 0 0 1 -0.35352,-0.07422 18.435283,18.435283 0 0 1 -0.35156,-0.08008 18.435283,18.435283 0 0 1 -0.35156,-0.08789 18.435283,18.435283 0 0 1 -0.34766,-0.09375 18.435283,18.435283 0 0 1 -0.34765,-0.10156 18.435283,18.435283 0 0 1 -0.34375,-0.10742 18.435283,18.435283 0 0 1 -0.3418,-0.11524 18.435283,18.435283 0 0 1 -0.33984,-0.12109 18.435283,18.435283 0 0 1 -0.33789,-0.12695 18.435283,18.435283 0 0 1 -0.33594,-0.13477 18.435283,18.435283 0 0 1 -0.33203,-0.14258 18.435283,18.435283 0 0 1 -0.33008,-0.14648 18.435283,18.435283 0 0 1 -0.32617,-0.1543 18.435283,18.435283 0 0 1 -0.32422,-0.16015 18.435283,18.435283 0 0 1 -0.31836,-0.16602 18.435283,18.435283 0 0 1 -0.31836,-0.17383 18.435283,18.435283 0 0 1 -0.3125,-0.17968 18.435283,18.435283 0 0 1 -0.31055,-0.1836 18.435283,18.435283 0 0 1 -0.30664,-0.1914 18.435283,18.435283 0 0 1 -0.30273,-0.19727 18.435283,18.435283 0 0 1 -0.29688,-0.20312 18.435283,18.435283 0 0 1 -0.29492,-0.20899 18.435283,18.435283 0 0 1 -0.29102,-0.21484 18.435283,18.435283 0 0 1 -0.28515,-0.22071 18.435283,18.435283 0 0 1 -0.2832,-0.22656 18.435283,18.435283 0 0 1 -0.27735,-0.23047 18.435283,18.435283 0 0 1 -0.27148,-0.23633 18.435283,18.435283 0 0 1 -0.26758,-0.24218 18.435283,18.435283 0 0 1 -0.26367,-0.24805 18.435283,18.435283 0 0 1 -0.25781,-0.25195 18.435283,18.435283 0 0 1 -0.25391,-0.25586 18.435283,18.435283 0 0 1 -0.24805,-0.26367 18.435283,18.435283 0 0 1 -0.24414,-0.26563 18.435283,18.435283 0 0 1 -0.23633,-0.27148 18.435283,18.435283 0 0 1 -0.23242,-0.27735 18.435283,18.435283 0 0 1 -0.22656,-0.28125 18.435283,18.435283 0 0 1 -0.22266,-0.28515 18.435283,18.435283 0 0 1 -0.0547,-0.07422 z" />
    <circle
       style="fill:#f0cacb;fill-opacity:1;stroke-width:3.13333;stroke-miterlimit:10"
       id="path926-5-7"
       cx="216.45398"
       cy="13.607144"
       r="18.435284" />
    <path
       id="path950-2-3"
       style="fill:#f0cacb;fill-opacity:1;stroke-width:6.17097;stroke-miterlimit:10"
       d="m 201.72643,29.877852 a 32.829959,40.153563 0 0 0 -17.51171,28.30859 h 64.47851 a 32.829959,40.153563 0 0 0 -17.50976,-28.30859 18.435283,18.435283 0 0 1 -0.0117,0.01562 18.435283,18.435283 0 0 1 -0.22071,0.28516 18.435283,18.435283 0 0 1 -0.22656,0.2832 18.435283,18.435283 0 0 1 -0.23047,0.27735 18.435283,18.435283 0 0 1 -0.23632,0.27148 18.435283,18.435283 0 0 1 -0.24219,0.26758 18.435283,18.435283 0 0 1 -0.24805,0.26367 18.435283,18.435283 0 0 1 -0.25195,0.25781 18.435283,18.435283 0 0 1 -0.25781,0.25391 18.435283,18.435283 0 0 1 -0.26172,0.24805 18.435283,18.435283 0 0 1 -0.26563,0.24414 18.435283,18.435283 0 0 1 -0.27344,0.23632 18.435283,18.435283 0 0 1 -0.27539,0.23243 18.435283,18.435283 0 0 1 -0.28125,0.22851 18.435283,18.435283 0 0 1 -0.28515,0.2207 18.435283,18.435283 0 0 1 -0.28907,0.21485 18.435283,18.435283 0 0 1 -0.29296,0.21094 18.435283,18.435283 0 0 1 -0.29883,0.20507 18.435283,18.435283 0 0 1 -0.30078,0.19727 18.435283,18.435283 0 0 1 -0.30664,0.19336 18.435283,18.435283 0 0 1 -0.3086,0.18555 18.435283,18.435283 0 0 1 -0.3125,0.17968 18.435283,18.435283 0 0 1 -0.3164,0.17578 18.435283,18.435283 0 0 1 -0.32032,0.16797 18.435283,18.435283 0 0 1 -0.32226,0.16016 18.435283,18.435283 0 0 1 -0.32617,0.15625 18.435283,18.435283 0 0 1 -0.32813,0.14844 18.435283,18.435283 0 0 1 -0.33203,0.14258 18.435283,18.435283 0 0 1 -0.33399,0.13671 18.435283,18.435283 0 0 1 -0.33789,0.12891 18.435283,18.435283 0 0 1 -0.33984,0.12305 18.435283,18.435283 0 0 1 -0.3418,0.11523 18.435283,18.435283 0 0 1 -0.34375,0.10938 18.435283,18.435283 0 0 1 -0.3457,0.10351 18.435283,18.435283 0 0 1 -0.34961,0.09571 18.435283,18.435283 0 0 1 -0.34961,0.08789 18.435283,18.435283 0 0 1 -0.35156,0.08203 18.435283,18.435283 0 0 1 -0.35352,0.07617 18.435283,18.435283 0 0 1 -0.35351,0.06836 18.435283,18.435283 0 0 1 -0.35547,0.06055 18.435283,18.435283 0 0 1 -0.35742,0.05468 18.435283,18.435283 0 0 1 -0.35742,0.04688 18.435283,18.435283 0 0 1 -0.35938,0.03906 18.435283,18.435283 0 0 1 -0.35937,0.0332 18.435283,18.435283 0 0 1 -0.35938,0.02735 18.435283,18.435283 0 0 1 -0.36133,0.01953 18.435283,18.435283 0 0 1 -0.36133,0.01172 18.435283,18.435283 0 0 1 -0.36132,0.0039 18.435283,18.435283 0 0 1 -0.0742,0 18.435283,18.435283 0 0 1 -0.35938,-0.002 18.435283,18.435283 0 0 1 -0.36133,-0.01172 18.435283,18.435283 0 0 1 -0.36132,-0.01758 18.435283,18.435283 0 0 1 -0.35938,-0.02343 18.435283,18.435283 0 0 1 -0.35937,-0.03321 18.435283,18.435283 0 0 1 -0.35938,-0.03906 18.435283,18.435283 0 0 1 -0.35742,-0.04492 18.435283,18.435283 0 0 1 -0.35742,-0.05274 18.435283,18.435283 0 0 1 -0.35742,-0.06054 18.435283,18.435283 0 0 1 -0.35352,-0.06641 18.435283,18.435283 0 0 1 -0.35352,-0.07422 18.435283,18.435283 0 0 1 -0.35156,-0.08008 18.435283,18.435283 0 0 1 -0.35156,-0.08789 18.435283,18.435283 0 0 1 -0.34766,-0.09375 18.435283,18.435283 0 0 1 -0.34765,-0.10156 18.435283,18.435283 0 0 1 -0.34375,-0.10742 18.435283,18.435283 0 0 1 -0.3418,-0.11524 18.435283,18.435283 0 0 1 -0.33984,-0.12109 18.435283,18.435283 0 0 1 -0.33789,-0.12695 18.435283,18.435283 0 0 1 -0.33594,-0.13477 18.435283,18.435283 0 0 1 -0.33203,-0.14258 18.435283,18.435283 0 0 1 -0.33008,-0.14648 18.435283,18.435283 0 0 1 -0.32617,-0.1543 18.435283,18.435283 0 0 1 -0.32422,-0.16015 18.435283,18.435283 0 0 1 -0.31836,-0.16602 18.435283,18.435283 0 0 1 -0.31836,-0.17383 18.435283,18.435283 0 0 1 -0.3125,-0.17968 18.435283,18.435283 0 0 1 -0.31055,-0.1836 18.435283,18.435283 0 0 1 -0.30664,-0.1914 18.435283,18.435283 0 0 1 -0.30273,-0.19727 18.435283,18.435283 0 0 1 -0.29688,-0.20312 18.435283,18.435283 0 0 1 -0.29492,-0.20899 18.435283,18.435283 0 0 1 -0.29102,-0.21484 18.435283,18.435283 0 0 1 -0.28515,-0.22071 18.435283,18.435283 0 0 1 -0.2832,-0.22656 18.435283,18.435283 0 0 1 -0.27735,-0.23047 18.435283,18.435283 0 0 1 -0.27148,-0.23633 18.435283,18.435283 0 0 1 -0.26758,-0.24218 18.435283,18.435283 0 0 1 -0.26367,-0.24805 18.435283,18.435283 0 0 1 -0.25781,-0.25195 18.435283,18.435283 0 0 1 -0.25391,-0.25586 18.435283,18.435283 0 0 1 -0.24805,-0.26367 18.435283,18.435283 0 0 1 -0.24414,-0.26563 18.435283,18.435283 0 0 1 -0.23633,-0.27148 18.435283,18.435283 0 0 1 -0.23242,-0.27735 18.435283,18.435283 0 0 1 -0.22656,-0.28125 18.435283,18.435283 0 0 1 -0.22266,-0.28515 18.435283,18.435283 0 0 1 -0.0547,-0.07422 z" />
    <ellipse
       style="fill:#008da6;fill-opacity:1;stroke:#008da6;stroke-width:2.37427;stroke-miterlimit:10;stroke-opacity:1"
       id="path1060-8"
       cx="49.048828"
       cy="12.374523"
       rx="7.1980619"
       ry="1.1191994" />
    <ellipse
       style="fill:#d66b70;fill-opacity:1;stroke:#d66b70;stroke-width:2.37427;stroke-miterlimit:10;stroke-opacity:1"
       id="path1060-8-7"
       cx="216.18114"
       cy="22.113159"
       rx="7.1980619"
       ry="1.1191994" />
    <path
       style="fill:#d66b70;fill-opacity:1;stroke:#d66b70;stroke-width:1.32527px;stroke-linecap:butt;stroke-linejoin:miter;stroke-opacity:1"
       d="m 188.56585,-45.222783 c 0.48154,-2.901724 -5.77833,-5.679737 -8.60836,-5.679737 -2.82999,0 -8.86256,2.836257 -8.37168,5.679737 0.49088,2.84348 5.48252,-0.769131 8.31253,-0.769131 2.83001,0 8.18598,3.670855 8.66751,0.769131 z"
       id="path1160"
       sodipodi:nodetypes="zzzzz" />
    <text
       xml:space="preserve"
       style="font-style:normal;font-weight:normal;font-size:32.7202px;line-height:1.25;font-family:sans-serif;fill:#b4e2e9;fill-opacity:1;stroke:none;stroke-width:0.818005"
       x="-61.749794"
       y="-41.803936"
       id="text1164"><tspan
         sodipodi:role="line"
         id="tspan1162"
         x="-61.749794"
         y="-41.803936"
         style="font-style:normal;font-variant:normal;font-weight:bold;font-stretch:normal;font-family:sans-serif;-inkscape-font-specification:'sans-serif Bold';fill:#b4e2e9;fill-opacity:1;stroke-width:0.818005">A</tspan></text>
    <circle
       style="fill:none;fill-opacity:1;stroke:#b1e1e8;stroke-width:4.88484;stroke-miterlimit:10;stroke-dasharray:none;stroke-opacity:1"
       id="path1166"
       cx="-49.088291"
       cy="-53.730515"
       r="21.766523" />
    <path
       style="fill:#008da6;fill-opacity:1;stroke:#008da6;stroke-width:1.32527px;stroke-linecap:butt;stroke-linejoin:miter;stroke-opacity:1"
       d="m -44.232548,8.7410117 c -0.48154,2.9017283 5.77833,5.6797383 8.60836,5.6797383 2.82999,0 8.86256,-2.83626 8.37168,-5.6797383 -0.49088,-2.84348 -5.48252,0.769128 -8.31253,0.769128 -2.83001,0 -8.18598,-3.670848 -8.66751,-0.769128 z"
       id="path1160-3"
       sodipodi:nodetypes="zzzzz" />
    <path
       style="fill:#d66b70;fill-opacity:1;stroke:#d66b70;stroke-width:1.32527px;stroke-linecap:butt;stroke-linejoin:miter;stroke-opacity:1"
       d="m 263.29649,-48.889305 c 0.48154,2.901724 -5.77833,5.679737 -8.60836,5.679737 -2.82999,0 -8.86256,-2.836257 -8.37168,-5.679737 0.49088,-2.84348 5.48252,0.769131 8.31253,0.769131 2.83001,0 8.18598,-3.670855 8.66751,-0.769131 z"
       id="path1160-4"
       sodipodi:nodetypes="zzzzz" />
    <text
       xml:space="preserve"
       style="font-style:normal;font-weight:normal;font-size:32.7202px;line-height:1.25;font-family:sans-serif;fill:#f0cacb;fill-opacity:1;stroke:#f0cacb;stroke-width:0.818005;stroke-opacity:1"
       x="126.65084"
       y="-78.40229"
       id="text1164-4"><tspan
         sodipodi:role="line"
         id="tspan1162-9"
         x="126.65084"
         y="-78.40229"
         style="font-style:normal;font-variant:normal;font-weight:bold;font-stretch:normal;font-family:sans-serif;-inkscape-font-specification:'sans-serif Bold';fill:#f0cacb;fill-opacity:1;stroke:#f0cacb;stroke-width:0.818005;stroke-opacity:1">B</tspan></text>
    <circle
       style="fill:none;fill-opacity:1;stroke:#f0cacb;stroke-width:4.88484;stroke-miterlimit:10;stroke-dasharray:none;stroke-opacity:1"
       id="path1166-3"
       cx="139.47211"
       cy="-90.328865"
       r="21.766523" />
  </g>
</svg>
