<?xml version="1.0" encoding="UTF-8" standalone="no"?>
<svg
   version="1.1"
   class="marks"
   width="501"
   height="411"
   viewBox="0 0 501 411"
   id="svg430"
   sodipodi:docname="figure41.svg"
   inkscape:version="1.1.1 (3bf5ae0d25, 2021-09-20, custom)"
   xmlns:inkscape="http://www.inkscape.org/namespaces/inkscape"
   xmlns:sodipodi="http://sodipodi.sourceforge.net/DTD/sodipodi-0.dtd"
   xmlns="http://www.w3.org/2000/svg"
   xmlns:svg="http://www.w3.org/2000/svg">
  <defs
     id="defs434" />
  <sodipodi:namedview
     id="namedview432"
     pagecolor="#ffffff"
     bordercolor="#666666"
     borderopacity="1.0"
     inkscape:pageshadow="2"
     inkscape:pageopacity="0.0"
     inkscape:pagecheckerboard="0"
     showgrid="false"
     inkscape:zoom="1.1323054"
     inkscape:cx="184.13761"
     inkscape:cy="222.99638"
     inkscape:window-width="1920"
     inkscape:window-height="1034"
     inkscape:window-x="0"
     inkscape:window-y="22"
     inkscape:window-maximized="1"
     inkscape:current-layer="svg430"
     fit-margin-top="0"
     fit-margin-left="0"
     fit-margin-right="0"
     fit-margin-bottom="0" />
  <path
     class="background"
     aria-hidden="true"
     d="M 0,0 H 500 V 350 H 0 Z"
     id="path4"
     style="fill:none;stroke-miterlimit:10" />
  <path
     class="background"
     aria-hidden="true"
     d="M 0.5,350.5 Z"
     pointer-events="none"
     id="path6"
     style="fill:none;stroke-miterlimit:10" />
  <line
     x2="0.5"
     y2="0.5"
     stroke="#dddddd"
     stroke-width="1"
     opacity="1"
     id="line8"
     x1="0.5"
     y1="350.5"
     style="fill:none;stroke-miterlimit:10" />
  <line
     x2="42.5"
     y2="0.5"
     stroke="#dddddd"
     stroke-width="1"
     opacity="1"
     id="line10"
     x1="42.5"
     y1="350.5"
     style="fill:none;stroke-miterlimit:10" />
  <line
     x2="83.5"
     y2="0.5"
     stroke="#dddddd"
     stroke-width="1"
     opacity="1"
     id="line12"
     x1="83.5"
     y1="350.5"
     style="fill:none;stroke-miterlimit:10" />
  <line
     x2="125.5"
     y2="0.5"
     stroke="#dddddd"
     stroke-width="1"
     opacity="1"
     id="line14"
     x1="125.5"
     y1="350.5"
     style="fill:none;stroke-miterlimit:10" />
  <line
     x2="167.5"
     y2="0.5"
     stroke="#dddddd"
     stroke-width="1"
     opacity="1"
     id="line16"
     x1="167.5"
     y1="350.5"
     style="fill:none;stroke-miterlimit:10" />
  <line
     x2="208.5"
     y2="0.5"
     stroke="#dddddd"
     stroke-width="1"
     opacity="1"
     id="line18"
     x1="208.5"
     y1="350.5"
     style="fill:none;stroke-miterlimit:10" />
  <line
     x2="250.5"
     y2="0.5"
     stroke="#dddddd"
     stroke-width="1"
     opacity="1"
     id="line20"
     x1="250.5"
     y1="350.5"
     style="fill:none;stroke-miterlimit:10" />
  <line
     x2="292.5"
     y2="0.5"
     stroke="#dddddd"
     stroke-width="1"
     opacity="1"
     id="line22"
     x1="292.5"
     y1="350.5"
     style="fill:none;stroke-miterlimit:10" />
  <line
     x2="333.5"
     y2="0.5"
     stroke="#dddddd"
     stroke-width="1"
     opacity="1"
     id="line24"
     x1="333.5"
     y1="350.5"
     style="fill:none;stroke-miterlimit:10" />
  <line
     x2="375.5"
     y2="0.5"
     stroke="#dddddd"
     stroke-width="1"
     opacity="1"
     id="line26"
     x1="375.5"
     y1="350.5"
     style="fill:none;stroke-miterlimit:10" />
  <line
     x2="417.5"
     y2="0.5"
     stroke="#dddddd"
     stroke-width="1"
     opacity="1"
     id="line28"
     x1="417.5"
     y1="350.5"
     style="fill:none;stroke-miterlimit:10" />
  <line
     x2="458.5"
     y2="0.5"
     stroke="#dddddd"
     stroke-width="1"
     opacity="1"
     id="line30"
     x1="458.5"
     y1="350.5"
     style="fill:none;stroke-miterlimit:10" />
  <line
     x2="500.5"
     y2="0.5"
     stroke="#dddddd"
     stroke-width="1"
     opacity="1"
     id="line32"
     x1="500.5"
     y1="350.5"
     style="fill:none;stroke-miterlimit:10" />
  <path
     class="foreground"
     aria-hidden="true"
     d=""
     pointer-events="none"
     display="none"
     id="path38"
     style="fill:none;stroke-miterlimit:10" />
  <path
     class="background"
     aria-hidden="true"
     d="M 0.5,350.5 Z"
     pointer-events="none"
     id="path44"
     style="fill:none;stroke-miterlimit:10" />
  <line
     x2="0.5"
     y2="355.5"
     stroke="#888888"
     stroke-width="1"
     opacity="1"
     id="line46"
     x1="0.5"
     y1="350.5"
     style="fill:none;stroke-miterlimit:10" />
  <line
     x2="42.5"
     y2="355.5"
     stroke="#888888"
     stroke-width="1"
     opacity="1"
     id="line48"
     x1="42.5"
     y1="350.5"
     style="fill:none;stroke-miterlimit:10" />
  <line
     x2="83.5"
     y2="355.5"
     stroke="#888888"
     stroke-width="1"
     opacity="1"
     id="line50"
     x1="83.5"
     y1="350.5"
     style="fill:none;stroke-miterlimit:10" />
  <line
     x2="125.5"
     y2="355.5"
     stroke="#888888"
     stroke-width="1"
     opacity="1"
     id="line52"
     x1="125.5"
     y1="350.5"
     style="fill:none;stroke-miterlimit:10" />
  <line
     x2="167.5"
     y2="355.5"
     stroke="#888888"
     stroke-width="1"
     opacity="1"
     id="line54"
     x1="167.5"
     y1="350.5"
     style="fill:none;stroke-miterlimit:10" />
  <line
     x2="208.5"
     y2="355.5"
     stroke="#888888"
     stroke-width="1"
     opacity="1"
     id="line56"
     x1="208.5"
     y1="350.5"
     style="fill:none;stroke-miterlimit:10" />
  <line
     x2="250.5"
     y2="355.5"
     stroke="#888888"
     stroke-width="1"
     opacity="1"
     id="line58"
     x1="250.5"
     y1="350.5"
     style="fill:none;stroke-miterlimit:10" />
  <line
     x2="292.5"
     y2="355.5"
     stroke="#888888"
     stroke-width="1"
     opacity="1"
     id="line60"
     x1="292.5"
     y1="350.5"
     style="fill:none;stroke-miterlimit:10" />
  <line
     x2="333.5"
     y2="355.5"
     stroke="#888888"
     stroke-width="1"
     opacity="1"
     id="line62"
     x1="333.5"
     y1="350.5"
     style="fill:none;stroke-miterlimit:10" />
  <line
     x2="375.5"
     y2="355.5"
     stroke="#888888"
     stroke-width="1"
     opacity="1"
     id="line64"
     x1="375.5"
     y1="350.5"
     style="fill:none;stroke-miterlimit:10" />
  <line
     x2="417.5"
     y2="355.5"
     stroke="#888888"
     stroke-width="1"
     opacity="1"
     id="line66"
     x1="417.5"
     y1="350.5"
     style="fill:none;stroke-miterlimit:10" />
  <line
     x2="458.5"
     y2="355.5"
     stroke="#888888"
     stroke-width="1"
     opacity="1"
     id="line68"
     x1="458.5"
     y1="350.5"
     style="fill:none;stroke-miterlimit:10" />
  <line
     x2="500.5"
     y2="355.5"
     stroke="#888888"
     stroke-width="1"
     opacity="1"
     id="line70"
     x1="500.5"
     y1="350.5"
     style="fill:none;stroke-miterlimit:10" />
  <text
     text-anchor="start"
     font-family="sans-serif"
     font-size="10px"
     fill="#000000"
     opacity="1"
     id="text74"
     x="0.5"
     y="365.5"
     style="fill:#4d4d4d;fill-opacity:1;stroke-miterlimit:10">0</text>
  <text
     text-anchor="middle"
     font-family="sans-serif"
     font-size="10px"
     fill="#000000"
     opacity="1"
     id="text76"
     x="42.166668"
     y="365.5"
     style="fill:#4d4d4d;fill-opacity:1;stroke-miterlimit:10">100</text>
  <text
     text-anchor="middle"
     font-family="sans-serif"
     font-size="10px"
     fill="#000000"
     opacity="1"
     id="text78"
     x="83.833336"
     y="365.5"
     style="fill:#4d4d4d;fill-opacity:1;stroke-miterlimit:10">200</text>
  <text
     text-anchor="middle"
     font-family="sans-serif"
     font-size="10px"
     fill="#000000"
     opacity="1"
     id="text80"
     x="125.5"
     y="365.5"
     style="fill:#4d4d4d;fill-opacity:1;stroke-miterlimit:10">300</text>
  <text
     text-anchor="middle"
     font-family="sans-serif"
     font-size="10px"
     fill="#000000"
     opacity="1"
     id="text82"
     x="167.16667"
     y="365.5"
     style="fill:#4d4d4d;fill-opacity:1;stroke-miterlimit:10">400</text>
  <text
     text-anchor="middle"
     font-family="sans-serif"
     font-size="10px"
     fill="#000000"
     opacity="1"
     id="text84"
     x="208.83333"
     y="365.5"
     style="fill:#4d4d4d;fill-opacity:1;stroke-miterlimit:10">500</text>
  <text
     text-anchor="middle"
     font-family="sans-serif"
     font-size="10px"
     fill="#000000"
     opacity="1"
     id="text86"
     x="250.5"
     y="365.5"
     style="fill:#4d4d4d;fill-opacity:1;stroke-miterlimit:10">600</text>
  <text
     text-anchor="middle"
     font-family="sans-serif"
     font-size="10px"
     fill="#000000"
     opacity="1"
     id="text88"
     x="292.16666"
     y="365.5"
     style="fill:#4d4d4d;fill-opacity:1;stroke-miterlimit:10">700</text>
  <text
     text-anchor="middle"
     font-family="sans-serif"
     font-size="10px"
     fill="#000000"
     opacity="1"
     id="text90"
     x="333.83334"
     y="365.5"
     style="fill:#4d4d4d;fill-opacity:1;stroke-miterlimit:10">800</text>
  <text
     text-anchor="middle"
     font-family="sans-serif"
     font-size="10px"
     fill="#000000"
     opacity="1"
     id="text92"
     x="375.5"
     y="365.5"
     style="fill:#4d4d4d;fill-opacity:1;stroke-miterlimit:10">900</text>
  <text
     text-anchor="middle"
     font-family="sans-serif"
     font-size="10px"
     fill="#000000"
     opacity="1"
     id="text94"
     x="417.16666"
     y="365.5"
     style="fill:#4d4d4d;fill-opacity:1;stroke-miterlimit:10">1 000</text>
  <text
     text-anchor="middle"
     font-family="sans-serif"
     font-size="10px"
     fill="#000000"
     opacity="1"
     id="text96"
     x="458.83334"
     y="365.5"
     style="fill:#4d4d4d;fill-opacity:1;stroke-miterlimit:10">1 100</text>
  <line
     x2="500.5"
     y2="350.5"
     stroke="#888888"
     stroke-width="1"
     opacity="1"
     id="line102"
     x1="0.5"
     y1="350.5"
     style="fill:none;stroke-miterlimit:10" />
  <text
     text-anchor="middle"
     font-family="sans-serif"
     font-size="11px"
     font-weight="bold"
     fill="#000000"
     opacity="1"
     id="text106"
     x="250.5"
     y="380.5"
     style="fill:#4d4d4d;fill-opacity:1;stroke-miterlimit:10">Distances parcourues en avion (km)</text>
  <path
     class="foreground"
     aria-hidden="true"
     d=""
     pointer-events="none"
     display="none"
     id="path112"
     style="fill:none;stroke-miterlimit:10" />
  <line
     x2="0.5"
     y2="350.5"
     stroke="#888888"
     stroke-width="1"
     opacity="1"
     id="line120"
     x1="0.5"
     y1="0.5"
     style="fill:none;stroke-miterlimit:10" />
  <path
     class="foreground"
     aria-hidden="true"
     d=""
     pointer-events="none"
     display="none"
     id="path126"
     style="fill:none;stroke-miterlimit:10" />
  <path
     d="m 318.57194,306.25 a 2.7386128,2.7386128 0 1 1 -5.47722,0 2.7386128,2.7386128 0 1 1 5.47722,0"
     stroke="#4c78a8"
     stroke-width="2"
     opacity="0.7"
     id="path132"
     style="fill:none;stroke-miterlimit:10" />
  <path
     d="m 234.82194,306.25 a 2.7386128,2.7386128 0 1 1 -5.47722,0 2.7386128,2.7386128 0 1 1 5.47722,0"
     stroke="#4c78a8"
     stroke-width="2"
     opacity="0.7"
     id="path134"
     style="fill:none;stroke-miterlimit:10" />
  <path
     d="m 331.90528,306.25 a 2.7386128,2.7386128 0 1 1 -5.47722,0 2.7386128,2.7386128 0 1 1 5.47722,0"
     stroke="#4c78a8"
     stroke-width="2"
     opacity="0.7"
     id="path136"
     style="fill:none;stroke-miterlimit:10" />
  <path
     d="m 438.15528,131.25 a 2.7386128,2.7386128 0 1 1 -5.47722,0 2.7386128,2.7386128 0 1 1 5.47722,0"
     stroke="#4c78a8"
     stroke-width="2"
     opacity="0.7"
     id="path138"
     style="fill:none;stroke-miterlimit:10" />
  <path
     d="m 438.15528,131.25 a 2.7386128,2.7386128 0 1 1 -5.47722,0 2.7386128,2.7386128 0 1 1 5.47722,0"
     stroke="#4c78a8"
     stroke-width="2"
     opacity="0.7"
     id="path140"
     style="fill:none;stroke-miterlimit:10" />
  <path
     d="m 419.82194,131.25 a 2.7386128,2.7386128 0 1 1 -5.47722,0 2.7386128,2.7386128 0 1 1 5.47722,0"
     stroke="#4c78a8"
     stroke-width="2"
     opacity="0.7"
     id="path142"
     style="fill:none;stroke-miterlimit:10" />
  <path
     d="m 442.32194,131.25 a 2.7386128,2.7386128 0 1 1 -5.47722,0 2.7386128,2.7386128 0 1 1 5.47722,0"
     stroke="#4c78a8"
     stroke-width="2"
     opacity="0.7"
     id="path144"
     style="fill:none;stroke-miterlimit:10" />
  <path
     d="m 211.48861,306.25 a 2.7386128,2.7386128 0 1 1 -5.47722,0 2.7386128,2.7386128 0 1 1 5.47722,0"
     stroke="#4c78a8"
     stroke-width="2"
     opacity="0.7"
     id="path146"
     style="fill:none;stroke-miterlimit:10" />
  <path
     d="m 421.90528,131.25 a 2.7386128,2.7386128 0 1 1 -5.47722,0 2.7386128,2.7386128 0 1 1 5.47722,0"
     stroke="#4c78a8"
     stroke-width="2"
     opacity="0.7"
     id="path148"
     style="fill:none;stroke-miterlimit:10" />
  <path
     d="m 414.40528,43.75 a 2.7386128,2.7386128 0 1 1 -5.47722,0 2.7386128,2.7386128 0 1 1 5.47722,0"
     stroke="#4c78a8"
     stroke-width="2"
     opacity="0.7"
     id="path150"
     style="fill:none;stroke-miterlimit:10" />
  <path
     d="m 447.73861,131.25 a 2.7386128,2.7386128 0 1 1 -5.47722,0 2.7386128,2.7386128 0 1 1 5.47722,0"
     stroke="#4c78a8"
     stroke-width="2"
     opacity="0.7"
     id="path152"
     style="fill:none;stroke-miterlimit:10" />
  <path
     d="m 447.73861,43.75 a 2.7386128,2.7386128 0 1 1 -5.47722,0 2.7386128,2.7386128 0 1 1 5.47722,0"
     stroke="#4c78a8"
     stroke-width="2"
     opacity="0.7"
     id="path154"
     style="fill:none;stroke-miterlimit:10" />
  <path
     d="m 444.82194,131.25 a 2.7386128,2.7386128 0 1 1 -5.47722,0 2.7386128,2.7386128 0 1 1 5.47722,0"
     stroke="#4c78a8"
     stroke-width="2"
     opacity="0.7"
     id="path156"
     style="fill:none;stroke-miterlimit:10" />
  <path
     d="m 444.82194,131.25 a 2.7386128,2.7386128 0 1 1 -5.47722,0 2.7386128,2.7386128 0 1 1 5.47722,0"
     stroke="#4c78a8"
     stroke-width="2"
     opacity="0.7"
     id="path158"
     style="fill:none;stroke-miterlimit:10" />
  <path
     d="m 332.32194,306.25 a 2.7386128,2.7386128 0 1 1 -5.47722,0 2.7386128,2.7386128 0 1 1 5.47722,0"
     stroke="#4c78a8"
     stroke-width="2"
     opacity="0.7"
     id="path160"
     style="fill:none;stroke-miterlimit:10" />
  <path
     d="m 235.65528,306.25 a 2.7386128,2.7386128 0 1 1 -5.47722,0 2.7386128,2.7386128 0 1 1 5.47722,0"
     stroke="#4c78a8"
     stroke-width="2"
     opacity="0.7"
     id="path162"
     style="fill:none;stroke-miterlimit:10" />
  <path
     d="m 234.40528,306.25 a 2.7386128,2.7386128 0 1 1 -5.47722,0 2.7386128,2.7386128 0 1 1 5.47722,0"
     stroke="#4c78a8"
     stroke-width="2"
     opacity="0.7"
     id="path164"
     style="fill:none;stroke-miterlimit:10" />
  <path
     d="m 475.65528,43.75 a 2.7386128,2.7386128 0 1 1 -5.47722,0 2.7386128,2.7386128 0 1 1 5.47722,0"
     stroke="#4c78a8"
     stroke-width="2"
     opacity="0.7"
     id="path166"
     style="fill:none;stroke-miterlimit:10" />
  <path
     d="m 447.32194,43.75 a 2.7386128,2.7386128 0 1 1 -5.47722,0 2.7386128,2.7386128 0 1 1 5.47722,0"
     stroke="#4c78a8"
     stroke-width="2"
     opacity="0.7"
     id="path168"
     style="fill:none;stroke-miterlimit:10" />
  <line
     x2="127.91666"
     y2="131.25"
     stroke="#000000"
     id="line172"
     x1="52.5"
     y1="131.25"
     style="fill:none;stroke-miterlimit:10" />
  <line
     x2="122.08334"
     y2="43.75"
     stroke="#000000"
     id="line174"
     x1="45.833332"
     y1="43.75"
     style="fill:none;stroke-miterlimit:10" />
  <line
     x2="135"
     y2="262.5"
     stroke="#000000"
     id="line176"
     x1="64.166664"
     y1="262.5"
     style="fill:none;stroke-miterlimit:10" />
  <line
     x2="126.5625"
     y2="175"
     stroke="#000000"
     id="line178"
     x1="72.916664"
     y1="175"
     style="fill:none;stroke-miterlimit:10" />
  <line
     x2="140.52083"
     y2="218.75"
     stroke="#000000"
     id="line180"
     x1="66.666664"
     y1="218.75"
     style="fill:none;stroke-miterlimit:10" />
  <line
     x2="165.41667"
     y2="87.5"
     stroke="#000000"
     id="line182"
     x1="132.91667"
     y1="87.5"
     style="fill:none;stroke-miterlimit:10" />
  <line
     x2="86.666664"
     y2="306.25"
     stroke="#000000"
     id="line184"
     x1="86.666664"
     y1="306.25"
     style="fill:none;stroke-miterlimit:10" />
  <line
     x2="378.33334"
     y2="131.25"
     stroke="#000000"
     id="line188"
     x1="232.08333"
     y1="131.25"
     style="fill:none;stroke-miterlimit:10" />
  <line
     x2="395.83331"
     y2="43.75"
     stroke="#000000"
     id="line190"
     x1="232.1875"
     y1="43.75"
     style="fill:none;stroke-miterlimit:10" />
  <line
     x2="395.83331"
     y2="262.5"
     stroke="#000000"
     id="line192"
     x1="253.75"
     y1="262.5"
     style="fill:none;stroke-miterlimit:10" />
  <line
     x2="348.33334"
     y2="175"
     stroke="#000000"
     id="line194"
     x1="243.33333"
     y1="175"
     style="fill:none;stroke-miterlimit:10" />
  <line
     x2="329.58334"
     y2="218.75"
     stroke="#000000"
     id="line196"
     x1="238.54167"
     y1="218.75"
     style="fill:none;stroke-miterlimit:10" />
  <line
     x2="332.5"
     y2="87.5"
     stroke="#000000"
     id="line198"
     x1="254.16669"
     y1="87.5"
     style="fill:none;stroke-miterlimit:10" />
  <line
     x2="193.75"
     y2="306.25"
     stroke="#000000"
     id="line200"
     x1="131.25"
     y1="306.25"
     style="fill:none;stroke-miterlimit:10" />
  <path
     d="m 52,123.75 h 1 v 15 h -1 z"
     fill="#000000"
     opacity="1"
     id="path204"
     style="stroke-miterlimit:10" />
  <path
     d="m 45.333333,36.25 h 1 v 15 h -1 z"
     fill="#000000"
     opacity="1"
     id="path206"
     style="stroke-miterlimit:10" />
  <path
     d="m 63.666667,255 h 1 v 15 h -1 z"
     fill="#000000"
     opacity="1"
     id="path208"
     style="stroke-miterlimit:10" />
  <path
     d="m 72.416667,167.5 h 1 v 15 h -1 z"
     fill="#000000"
     opacity="1"
     id="path210"
     style="stroke-miterlimit:10" />
  <path
     d="m 66.166667,211.25 h 1 v 15 h -1 z"
     fill="#000000"
     opacity="1"
     id="path212"
     style="stroke-miterlimit:10" />
  <path
     d="m 132.41667,80 h 1 v 15 h -1 z"
     fill="#000000"
     opacity="1"
     id="path214"
     style="stroke-miterlimit:10" />
  <path
     d="m 86.166667,298.75 h 1 v 15 h -1 z"
     fill="#000000"
     opacity="1"
     id="path216"
     style="stroke-miterlimit:10" />
  <path
     d="m 377.83333,123.75 h 1 v 15 h -1 z"
     fill="#000000"
     opacity="1"
     id="path220"
     style="stroke-miterlimit:10" />
  <path
     d="m 395.33333,36.25 h 1 v 15 h -1 z"
     fill="#000000"
     opacity="1"
     id="path222"
     style="stroke-miterlimit:10" />
  <path
     d="m 395.33333,255 h 1 v 15 h -1 z"
     fill="#000000"
     opacity="1"
     id="path224"
     style="stroke-miterlimit:10" />
  <path
     d="m 347.83333,167.5 h 1 v 15 h -1 z"
     fill="#000000"
     opacity="1"
     id="path226"
     style="stroke-miterlimit:10" />
  <path
     d="m 329.08333,211.25 h 1 v 15 h -1 z"
     fill="#000000"
     opacity="1"
     id="path228"
     style="stroke-miterlimit:10" />
  <path
     d="m 332,80 h 1 v 15 h -1 z"
     fill="#000000"
     opacity="1"
     id="path230"
     style="stroke-miterlimit:10" />
  <path
     d="m 193.25,298.75 h 1 v 15 h -1 z"
     fill="#000000"
     opacity="1"
     id="path232"
     style="stroke-miterlimit:10" />
  <path
     d="m 127.91667,124.25 h 104.16666 v 14 H 127.91667 Z"
     fill="#e45756"
     id="path236"
     style="stroke-miterlimit:10" />
  <path
     d="M 122.08333,36.75 H 232.1875 v 14 H 122.08333 Z"
     fill="#4c78a8"
     id="path238"
     style="stroke-miterlimit:10" />
  <path
     d="m 135,255.5 h 118.75 v 14 H 135 Z"
     fill="#eeca3b"
     id="path240"
     style="stroke-miterlimit:10" />
  <path
     d="m 126.5625,168 h 116.77083 v 14 H 126.5625 Z"
     fill="#72b7b2"
     id="path242"
     style="stroke-miterlimit:10" />
  <path
     d="m 140.52083,211.75 h 98.02084 v 14 h -98.02084 z"
     fill="#54a24b"
     id="path244"
     style="stroke-miterlimit:10" />
  <path
     d="m 165.41667,80.5 h 88.75 v 14 h -88.75 z"
     fill="#f58518"
     id="path246"
     style="stroke-miterlimit:10" />
  <path
     d="M 86.666667,299.25 H 131.25 v 14 H 86.666667 Z"
     fill="#b279a2"
     id="path248"
     style="stroke-miterlimit:10" />
  <path
     d="m 168.66667,124.25 h 1 v 14 h -1 z"
     fill="#ffffff"
     opacity="0.7"
     id="path252"
     style="stroke-miterlimit:10" />
  <path
     d="m 166.16667,36.75 h 1 v 14 h -1 z"
     fill="#ffffff"
     opacity="0.7"
     id="path254"
     style="stroke-miterlimit:10" />
  <path
     d="m 205.33333,255.5 h 1 v 14 h -1 z"
     fill="#ffffff"
     opacity="0.7"
     id="path256"
     style="stroke-miterlimit:10" />
  <path
     d="m 186.58333,168 h 1 v 14 h -1 z"
     fill="#ffffff"
     opacity="0.7"
     id="path258"
     style="stroke-miterlimit:10" />
  <path
     d="m 187,211.75 h 1 v 14 h -1 z"
     fill="#ffffff"
     opacity="0.7"
     id="path260"
     style="stroke-miterlimit:10" />
  <path
     d="m 201.16667,80.5 h 1 v 14 h -1 z"
     fill="#ffffff"
     opacity="0.7"
     id="path262"
     style="stroke-miterlimit:10" />
  <path
     d="m 130.75,299.25 h 1 v 14 h -1 z"
     fill="#ffffff"
     opacity="0.7"
     id="path264"
     style="stroke-miterlimit:10" />
  <path
     class="background"
     aria-hidden="true"
     d="m 0,400 h 499 v 11 H 0 Z"
     pointer-events="none"
     id="path268"
     style="fill:none;stroke-miterlimit:10" />
  <path
     class="background"
     aria-hidden="true"
     d="M 0,400 Z"
     pointer-events="none"
     id="path270"
     style="fill:none;stroke-miterlimit:10" />
  <path
     class="background"
     aria-hidden="true"
     d="m 0,400 h 45.959961 v 11 H 0 Z"
     pointer-events="none"
     opacity="1"
     id="path272"
     style="fill:none;stroke-miterlimit:10" />
  <path
     d="m 1,401 h 10 v 10 H 1 Z"
     fill="#4c78a8"
     stroke-width="1.5"
     opacity="1"
     id="path274"
     style="stroke-miterlimit:10" />
  <text
     text-anchor="start"
     font-family="sans-serif"
     font-size="11px"
     fill="#000000"
     opacity="1"
     id="text278"
     x="16"
     y="409"
     style="fill:#4d4d4d;fill-opacity:1;stroke-miterlimit:10">Coeur</text>
  <path
     class="foreground"
     aria-hidden="true"
     d=""
     pointer-events="none"
     display="none"
     id="path284"
     style="fill:none;stroke-miterlimit:10" />
  <path
     class="background"
     aria-hidden="true"
     d="m 56,400 h 95.48682 v 11 H 56 Z"
     pointer-events="none"
     opacity="1"
     id="path288"
     style="fill:none;stroke-miterlimit:10" />
  <path
     d="m 57,401 h 10 v 10 H 57 Z"
     fill="#f58518"
     stroke-width="1.5"
     opacity="1"
     id="path290"
     style="stroke-miterlimit:10" />
  <text
     text-anchor="start"
     font-family="sans-serif"
     font-size="11px"
     fill="#000000"
     opacity="1"
     id="text294"
     x="72"
     y="409"
     style="fill:#4d4d4d;fill-opacity:1;stroke-miterlimit:10">Coeur/Poumons</text>
  <path
     class="foreground"
     aria-hidden="true"
     d=""
     pointer-events="none"
     display="none"
     id="path300"
     style="fill:none;stroke-miterlimit:10" />
  <path
     class="background"
     aria-hidden="true"
     d="m 162,400 h 37.39844 v 11 H 162 Z"
     pointer-events="none"
     opacity="1"
     id="path304"
     style="fill:none;stroke-miterlimit:10" />
  <path
     d="m 163,401 h 10 v 10 h -10 z"
     fill="#e45756"
     stroke-width="1.5"
     opacity="1"
     id="path306"
     style="stroke-miterlimit:10" />
  <text
     text-anchor="start"
     font-family="sans-serif"
     font-size="11px"
     fill="#000000"
     opacity="1"
     id="text310"
     x="178"
     y="409"
     style="fill:#4d4d4d;fill-opacity:1;stroke-miterlimit:10">Foie</text>
  <path
     class="foreground"
     aria-hidden="true"
     d=""
     pointer-events="none"
     display="none"
     id="path316"
     style="fill:none;stroke-miterlimit:10" />
  <path
     class="background"
     aria-hidden="true"
     d="m 210,400 h 62.4707 v 11 H 210 Z"
     pointer-events="none"
     opacity="1"
     id="path320"
     style="fill:none;stroke-miterlimit:10" />
  <path
     d="m 211,401 h 10 v 10 h -10 z"
     fill="#72b7b2"
     stroke-width="1.5"
     opacity="1"
     id="path322"
     style="stroke-miterlimit:10" />
  <text
     text-anchor="start"
     font-family="sans-serif"
     font-size="11px"
     fill="#000000"
     opacity="1"
     id="text326"
     x="226"
     y="409"
     style="fill:#4d4d4d;fill-opacity:1;stroke-miterlimit:10">Pancréas</text>
  <path
     class="foreground"
     aria-hidden="true"
     d=""
     pointer-events="none"
     display="none"
     id="path332"
     style="fill:none;stroke-miterlimit:10" />
  <path
     class="background"
     aria-hidden="true"
     d="m 283,400 h 93.6499 v 11 H 283 Z"
     pointer-events="none"
     opacity="1"
     id="path336"
     style="fill:none;stroke-miterlimit:10" />
  <path
     d="m 284,401 h 10 v 10 h -10 z"
     fill="#54a24b"
     stroke-width="1.5"
     opacity="1"
     id="path338"
     style="stroke-miterlimit:10" />
  <text
     text-anchor="start"
     font-family="sans-serif"
     font-size="11px"
     fill="#000000"
     opacity="1"
     id="text342"
     x="299"
     y="409"
     style="fill:#4d4d4d;fill-opacity:1;stroke-miterlimit:10">Pancréas/Reins</text>
  <path
     class="foreground"
     aria-hidden="true"
     d=""
     pointer-events="none"
     display="none"
     id="path348"
     style="fill:none;stroke-miterlimit:10" />
  <path
     class="background"
     aria-hidden="true"
     d="m 387,400 h 62.4707 v 11 H 387 Z"
     pointer-events="none"
     opacity="1"
     id="path352"
     style="fill:none;stroke-miterlimit:10" />
  <path
     d="m 388,401 h 10 v 10 h -10 z"
     fill="#eeca3b"
     stroke-width="1.5"
     opacity="1"
     id="path354"
     style="stroke-miterlimit:10" />
  <text
     text-anchor="start"
     font-family="sans-serif"
     font-size="11px"
     fill="#000000"
     opacity="1"
     id="text358"
     x="403"
     y="409"
     style="fill:#4d4d4d;fill-opacity:1;stroke-miterlimit:10">Poumons</text>
  <path
     class="foreground"
     aria-hidden="true"
     d=""
     pointer-events="none"
     display="none"
     id="path364"
     style="fill:none;stroke-miterlimit:10" />
  <path
     class="background"
     aria-hidden="true"
     d="m 460,400 h 38.62305 v 11 H 460 Z"
     pointer-events="none"
     opacity="1"
     id="path368"
     style="fill:none;stroke-miterlimit:10" />
  <path
     d="m 461,401 h 10 v 10 h -10 z"
     fill="#b279a2"
     stroke-width="1.5"
     opacity="1"
     id="path370"
     style="stroke-miterlimit:10" />
  <text
     text-anchor="start"
     font-family="sans-serif"
     font-size="11px"
     fill="#000000"
     opacity="1"
     id="text374"
     x="476"
     y="409"
     style="fill:#4d4d4d;fill-opacity:1;stroke-miterlimit:10">Rein</text>
  <path
     class="foreground"
     aria-hidden="true"
     d=""
     pointer-events="none"
     display="none"
     id="path380"
     style="fill:none;stroke-miterlimit:10" />
  <path
     class="foreground"
     aria-hidden="true"
     d=""
     pointer-events="none"
     display="none"
     id="path388"
     style="fill:none;stroke-miterlimit:10" />
  <path
     class="foreground"
     aria-hidden="true"
     d=""
     pointer-events="none"
     display="none"
     id="path396"
     style="fill:none;stroke-miterlimit:10" />
  <path
     class="foreground"
     aria-hidden="true"
     d=""
     pointer-events="none"
     display="none"
     id="path414"
     style="fill:none;stroke-miterlimit:10" />
  <path
     class="foreground"
     aria-hidden="true"
     d=""
     display="none"
     id="path422"
     style="fill:none;stroke-miterlimit:10" />
</svg>
